<svg version="1.1" xmlns="http://www.w3.org/2000/svg" xmlns:xlink="http://www.w3.org/1999/xlink" width="39.25" height="37.45834" viewBox="0,0,39.25,37.45834"><g transform="translate(-220.375,-161.27083)"><g data-paper-data="{&quot;isPaintingLayer&quot;:true}" fill-rule="nonzero" stroke-linecap="butt" stroke-linejoin="miter" stroke-miterlimit="10" stroke-dasharray="" stroke-dashoffset="0" style="mix-blend-mode: normal"><path d="M221.375,188.32084c0,0 0,-15.60523 0,-19.1791c0,-1.02379 12.6507,-6.87091 18.905,-6.87091c6.16097,0 18.345,5.84712 18.345,6.87091c0,3.57387 0,19.1791 0,19.1791z" data-paper-data="{&quot;index&quot;:null}" fill="#3aa4f0" stroke="#000000" stroke-width="2"/><path d="M250.28,170.69584c1.43594,0 2.6,2.95492 2.6,6.6c0,3.64508 -1.16406,6.6 -2.6,6.6c-1.43594,0 -2.6,-2.95492 -2.6,-6.6c0,-3.64508 1.16406,-6.6 2.6,-6.6z" data-paper-data="{&quot;index&quot;:null}" fill="#000000" stroke="none" stroke-width="0"/><path d="M221.38,197.72917v-9.63334h37.2v9.63334z" data-paper-data="{&quot;index&quot;:null}" fill="#3aa4f0" stroke="#000000" stroke-width="2"/><path d="M251.05,175.02084c-0.55229,0 -1,-0.44771 -1,-1c0,-0.55229 0.44771,-1 1,-1c0.55229,0 1,0.44771 1,1c0,0.55229 -0.44771,1 -1,1z" data-paper-data="{&quot;index&quot;:null}" fill="#ffffff" stroke="none" stroke-width="0.5"/></g></g></svg>