<svg version="1.1" xmlns="http://www.w3.org/2000/svg" xmlns:xlink="http://www.w3.org/1999/xlink" width="127.5" height="127.5" viewBox="0,0,127.5,127.5"><g transform="translate(-176.25,-116.25)"><g data-paper-data="{&quot;isPaintingLayer&quot;:true}" fill-rule="nonzero" stroke="#000000" stroke-linecap="butt" stroke-linejoin="miter" stroke-miterlimit="10" stroke-dasharray="" stroke-dashoffset="0" style="mix-blend-mode: normal"><path d="M187,180c0,-29.27109 23.72891,-53 53,-53c29.27109,0 53,23.72891 53,53c0,29.27109 -23.72891,53 -53,53c-29.27109,0 -53,-23.72891 -53,-53z" fill="#000000" stroke-width="2"/><path d="M178,180c0,-34.24165 27.75835,-62 62,-62c34.24165,0 62,27.75835 62,62c0,34.24165 -27.75835,62 -62,62c-34.24165,0 -62,-27.75835 -62,-62z" fill="none" stroke-width="3.5"/><path d="M212,180c0,-15.46398 12.53602,-28 28,-28c15.46398,0 28,12.53602 28,28c0,15.46398 -12.53602,28 -28,28c-15.46398,0 -28,-12.53602 -28,-28z" fill="#ffffff" stroke-width="4"/></g></g></svg>