<svg version="1.1" xmlns="http://www.w3.org/2000/svg" xmlns:xlink="http://www.w3.org/1999/xlink" width="561.80368" height="494.38849" viewBox="0,0,561.80368,494.38849"><g transform="translate(40.90183,67.19424)"><g data-paper-data="{&quot;isPaintingLayer&quot;:true}" fill-rule="nonzero" stroke-miterlimit="10" stroke-dasharray="" stroke-dashoffset="0" style="mix-blend-mode: normal"><path d="M-40.90183,384.78901l36.48542,-451.98325l65.85187,5.31576l-36.48542,451.98325z" fill="#e4a7ff" stroke="none" stroke-width="0" stroke-linecap="butt" stroke-linejoin="miter"/><path d="M24.95003,390.10476l36.48542,-451.98324l65.85187,5.31576l-36.48542,451.98325z" fill="#eec7ff" stroke="none" stroke-width="0" stroke-linecap="butt" stroke-linejoin="miter"/><path d="M90.80189,395.42052l36.48542,-451.98325l65.85187,5.31576l-36.48542,451.98325z" fill="#e4a7ff" stroke="none" stroke-width="0" stroke-linecap="butt" stroke-linejoin="miter"/><path d="M156.65375,400.73628l36.48542,-451.98324l65.85187,5.31576l-36.48542,451.98325z" fill="#eec7ff" stroke="none" stroke-width="0" stroke-linecap="butt" stroke-linejoin="miter"/><path d="M221.00899,405.93121l36.48542,-451.98325l65.85187,5.31576l-36.48542,451.98325z" fill="#e4a7ff" stroke="none" stroke-width="0" stroke-linecap="butt" stroke-linejoin="miter"/><path d="M286.86085,411.24698l36.48542,-451.98324l65.85187,5.31576l-36.48542,451.98325z" fill="#eec7ff" stroke="none" stroke-width="0" stroke-linecap="butt" stroke-linejoin="miter"/><path d="M352.71271,416.56273l36.48542,-451.98325l65.85187,5.31576l-36.48542,451.98325z" fill="#e4a7ff" stroke="none" stroke-width="0" stroke-linecap="butt" stroke-linejoin="miter"/><path d="M418.56457,421.87848l36.48542,-451.98324l65.85186,5.31576l-36.48542,451.98324z" fill="#eec7ff" stroke="none" stroke-width="0" stroke-linecap="butt" stroke-linejoin="miter"/><path d="M369.01211,157.00909c-0.39771,-1.59085 -14.11875,-20.08442 -16.10731,-30.22606c-2.78398,-13.72104 0.59657,-21.27755 7.75537,-21.87412c3.18169,-0.19886 8.74965,7.1588 8.15308,24.45924c0,1.59085 7.55651,10.34049 7.35766,12.32905" data-paper-data="{&quot;index&quot;:null}" fill="#1c8aff" stroke="#0073ef" stroke-width="1.4" stroke-linecap="round" stroke-linejoin="round"/><g data-paper-data="{&quot;index&quot;:null}" stroke="#0073ef" stroke-width="1.4" stroke-linecap="round" stroke-linejoin="round"><path d="M408.38553,166.75301c0,0 7.75537,8.55079 10.14164,9.74393c13.52218,-6.16452 12.32905,-8.55079 18.29472,-1.39199c2.78398,3.38055 8.74965,10.7382 5.56796,14.51646c-11.73248,11.13592 -7.1588,-11.53363 -23.46497,1.59085c-4.37482,1.7897 -9.14736,-9.34622 -28.2375,-11.53363" fill="#1c8aff"/><path d="M430.45851,184.05346c-0.99428,0.99428 -3.97711,1.98856 -4.97139,2.78398" fill="#faa51f"/></g><path d="M429.26537,154.22511c3.97711,-2.98283 8.15308,-7.1588 10.53935,-13.52218c5.17025,-13.91989 0.59657,-30.22606 9.54507,-30.0272c8.9485,0.19886 21.0787,24.26039 3.18169,42.75396c-6.16452,6.56224 -13.12447,9.94278 -18.49357,12.72676c-1.39199,0.79542 -14.51646,5.96567 -21.87412,1.7897c-7.35766,-4.17597 -5.17025,-7.1588 -4.17597,-8.74965c0.79542,-1.7897 15.7096,-0.59657 21.27755,-4.97139z" fill="#1c8aff" stroke="none" stroke-width="1" stroke-linecap="butt" stroke-linejoin="miter"/><path d="M448.95208,110.47687c4.17597,-0.59657 10.7382,6.95995 12.32905,14.11875c1.39199,7.1588 0,12.92562 -0.99428,16.50502c-1.7897,3.38055 -1.59085,-5.96567 -6.95995,-7.35766c-5.3691,-1.39199 -12.13019,3.5794 -12.13019,3.5794c0,0 1.59085,-10.7382 2.38627,-16.50502c0.39771,-5.3691 0.99428,-9.14736 5.3691,-10.34049z" fill="#ffffff" stroke="none" stroke-width="1" stroke-linecap="butt" stroke-linejoin="miter"/><path d="M429.26537,154.22511c3.97711,-2.98283 8.15308,-7.1588 10.53935,-13.52218c5.17025,-13.91989 0.59657,-30.22606 9.54507,-30.0272c8.9485,0.19886 21.0787,24.26039 3.18169,42.75396c-6.16452,6.56224 -13.12447,9.94278 -18.49357,12.72676c-1.39199,0.79542 -14.51646,5.96567 -21.87412,1.7897c-7.35766,-4.17597 -5.17025,-7.1588 -4.17597,-8.74965c0.79542,-1.7897 15.7096,-0.59657 21.27755,-4.97139z" fill="none" stroke="#0073ef" stroke-width="1.4" stroke-linecap="round" stroke-linejoin="round"/><path d="M392.87479,164.5656" data-paper-data="{&quot;index&quot;:null}" fill="#faa51f" stroke="#8e5322" stroke-width="1.4" stroke-linecap="round" stroke-linejoin="round"/><path d="M382.13659,133.34527c11.53363,-3.38055 19.68671,-1.98856 23.46497,10.7382c3.77826,12.72676 10.7382,29.43063 -9.94278,35.3963c-20.48213,6.16452 -23.06725,-13.52218 -26.84551,-26.24894c-3.77826,-12.72676 1.7897,-16.30616 13.32333,-19.88556z" data-paper-data="{&quot;index&quot;:null}" fill="#1c8aff" stroke="#0073ef" stroke-width="1.333" stroke-linecap="round" stroke-linejoin="round"/><path d="M354.89336,44.8545c2.98283,-0.79542 8.9485,-2.18741 12.32905,-2.58512c9.14736,-1.19313 18.09586,0.59657 18.09586,0.59657l21.87412,-20.48213l1.98856,36.58944c-1.39199,-1.39199 24.26039,20.68099 14.71532,44.54366c-9.54507,24.26039 -36.39058,38.97571 -73.37773,38.37914c-36.78829,-0.79542 -48.91849,-19.68671 -48.52078,-31.02148c0.39771,-11.13592 13.12447,-17.69815 13.12447,-17.69815c0,0 -1.39199,-8.55079 2.98283,-19.88556c2.58512,-6.95995 13.12447,-18.09586 13.12447,-18.09586l1.59085,-22.8684l16.50502,11.13592z" fill="#1c8aff" stroke="none" stroke-width="1" stroke-linecap="butt" stroke-linejoin="miter"/><path d="M316.91194,92.57987l3.97711,-4.77254l18.09586,1.98856c0,0 1.19313,6.36338 9.74393,6.76109c8.55079,0.39771 21.87412,-5.3691 21.87412,-5.3691l14.51646,0.99428c0,0 15.7096,-3.77826 18.69243,8.55079c5.17025,21.47641 -11.13592,35.19745 -27.83979,37.78257c-10.7382,1.98856 -17.89701,1.7897 -25.65238,1.7897c-34.79974,0 -47.92421,-18.69243 -46.92993,-30.0272c0.39771,-11.13592 12.72676,-16.70387 12.72676,-16.70387z" fill="#ffffff" stroke="none" stroke-width="1" stroke-linecap="butt" stroke-linejoin="miter"/><path d="M309.15657,104.90892c0,0 -8.74965,-0.39771 -13.32333,-1.59085c-5.3691,-1.19313 -9.14736,-3.97711 -9.14736,-3.97711" fill="none" stroke="#0073ef" stroke-width="1.4" stroke-linecap="round" stroke-linejoin="round"/><path d="M310.15084,116.44255c0,0 -4.97139,2.58512 -10.53935,3.38055c-5.3691,0.99428 -8.9485,0.79542 -8.9485,0.79542" fill="none" stroke="#0073ef" stroke-width="1.4" stroke-linecap="round" stroke-linejoin="round"/><path d="M380.34688,48.23505l8.9485,-8.9485" fill="none" stroke="#0073ef" stroke-width="1.4" stroke-linecap="round" stroke-linejoin="round"/><path d="M445.17382,90.39246c0,0 -7.55651,2.58512 -11.13592,3.18169c-3.5794,0.59657 -10.53935,1.39199 -10.53935,1.39199" fill="none" stroke="#0073ef" stroke-width="1.4" stroke-linecap="round" stroke-linejoin="round"/><path d="M421.90771,87.40962c0,0 3.5794,-4.57368 9.54507,-9.54507c6.76109,-5.56796 10.7382,-7.55651 10.7382,-7.55651" fill="none" stroke="#0073ef" stroke-width="1.4" stroke-linecap="round" stroke-linejoin="round"/><g><path d="M340.3769,59.96754c5.76681,2.38627 7.35766,12.32905 3.38055,21.67526c-3.97711,9.54507 -11.93134,15.31188 -17.89701,12.72676c-5.76681,-2.38627 -7.35766,-12.32905 -3.38055,-21.67526c3.97711,-9.34622 12.13019,-15.11303 17.89701,-12.72676z" fill="#ffffff" stroke="#0073ef" stroke-width="1.4" stroke-linecap="round" stroke-linejoin="round"/><path d="M325.86044,83.63136c0.39771,-1.98856 1.98856,-3.5794 3.77826,-3.5794c2.18741,0.39771 3.38055,2.18741 3.18169,4.17597c-0.19886,2.38627 -1.98856,3.77826 -3.77826,3.5794c-2.18741,-0.39771 -3.38055,-2.18741 -3.18169,-4.17597" fill="#002a57" stroke="none" stroke-width="1" stroke-linecap="butt" stroke-linejoin="miter"/></g><g><path d="M388.89768,58.97327c6.95995,2.98283 9.34622,13.12447 5.3691,22.47069c-3.97711,9.54507 -12.92562,14.71532 -19.88556,11.73248c-6.95995,-2.98283 -9.34622,-13.12447 -5.3691,-22.47069c3.97711,-9.34622 12.92562,-14.71532 19.88556,-11.73248z" fill="#ffffff" stroke="#0073ef" stroke-width="1.4" stroke-linecap="round" stroke-linejoin="round"/><path d="M372.98923,82.23938c-0.39771,-2.18741 0.79542,-3.97711 2.58512,-4.37482c1.7897,-0.19886 3.5794,1.19313 3.97711,3.18169c0.39771,2.18741 -0.59657,3.97711 -2.58512,4.37482c-1.7897,0.19886 -3.5794,-1.19313 -3.97711,-3.18169" fill="#002a57" stroke="none" stroke-width="1" stroke-linecap="butt" stroke-linejoin="miter"/></g><path d="M359.86475,93.57415c0.79542,2.98283 -5.17025,8.9485 -9.14736,9.54507c-3.5794,0.59657 -7.95423,-5.3691 -8.15308,-6.95995c0,-3.77826 4.97139,-1.98856 8.35194,-2.18741c2.98283,-0.19886 8.35194,-3.18169 8.9485,-0.39771z" fill="#0057b4" stroke="#0073ef" stroke-width="1.4" stroke-linecap="round" stroke-linejoin="round"/><path d="M374.18236,120.81737c0,0 -4.17597,5.3691 -15.11303,5.17025" fill="#ffffff" stroke="#0073ef" stroke-width="1.4" stroke-linecap="round" stroke-linejoin="round"/><path d="M-17.35734,367.68769v-90.09009h521.02102v90.09009z" fill="#ae66ff" stroke="#000000" stroke-width="2" stroke-linecap="butt" stroke-linejoin="miter"/><path d="M102.76397,198.12896l8.36396,1.31843c7.86085,8.08556 12.28345,25.95691 2.91128,31.65817c-0.68009,0.41561 -13.51239,-1.9846 -14.34163,-1.7062" fill="#faa51f" stroke="#8e5322" stroke-width="1.4" stroke-linecap="round" stroke-linejoin="round"/><path d="M118.92117,221.8527c-3.94932,16.86116 -11.15593,23.54676 -18.4898,20.44259c-3.12803,-1.29258 -5.09474,-10.43407 2.97292,-18.90542" fill="#faa51f" stroke="#8e5322" stroke-width="1.4" stroke-linecap="round" stroke-linejoin="round"/><path d="M80.87967,228.51046c1.392,1.392 4.178,3.78029 -1.98858,9.54717c-6.1626,5.76688 -20.08265,3.97716 -21.67352,3.57944c-5.96574,-1.19315 -13.52233,-2.98287 -21.08092,-7.75546c-21.87436,-13.52035 -15.90863,-39.77157 -7.35774,-42.15786c8.55089,-2.38431 8.15317,14.51861 16.5052,26.84581c3.7783,5.57001 8.9486,8.55288 13.52233,10.54145c6.36345,2.98287 20.68122,-1.78972 22.07322,-0.60055z" fill="#faa51f" stroke="none" stroke-width="1" stroke-linecap="butt" stroke-linejoin="miter"/><path d="M36.93208,200.27662c2.18545,5.56802 6.36345,15.51091 6.36345,15.51091c0,0 -7.75546,-3.18371 -12.7269,-0.59657c-4.97145,2.58316 -2.38629,11.53177 -4.97145,8.74776c-1.78972,-3.17974 -4.57373,-8.35203 -4.97145,-15.70778c-0.19687,-7.35774 4.37487,-16.30634 8.55089,-16.70406c4.37487,0 5.96574,3.57745 7.75546,8.74975z" fill="#ffffff" stroke="none" stroke-width="1" stroke-linecap="butt" stroke-linejoin="miter"/><path d="M80.87967,228.51046c1.392,1.392 4.178,3.78029 -1.98858,9.54717c-6.1626,5.76688 -20.08265,3.97716 -21.67352,3.57944c-5.96574,-1.19315 -13.52233,-2.98287 -21.08092,-7.75546c-21.87436,-13.52035 -15.90863,-39.77157 -7.35774,-42.15786c8.55089,-2.38431 8.15317,14.51861 16.5052,26.84581c3.7783,5.57001 8.9486,8.55288 13.52233,10.54145c6.36345,2.98287 20.68122,-1.78972 22.07322,-0.60055z" fill="none" stroke="#8e5322" stroke-width="1.4" stroke-linecap="round" stroke-linejoin="round"/><path d="M107.32776,233.4839c0,0 -3.38058,10.93718 -1.78972,28.43866c0.59657,7.5566 14.71548,-0.99429 13.72119,13.7192c-0.39772,4.178 -18.69264,3.7783 -22.86865,2.18942c-3.7783,-1.392 -4.77259,-2.78401 -4.178,-6.76117c2.18942,-14.51662 -5.1703,-31.22068 -5.1703,-31.22068" fill="#faa51f" stroke="#8e5322" stroke-width="1.4" stroke-linecap="round" stroke-linejoin="round"/><path d="M103.94718,265.70085c2.98287,-0.59657 5.56802,-0.19886 5.56802,-0.19886" fill="#faa51f" stroke="#8e5322" stroke-width="1.4" stroke-linecap="round" stroke-linejoin="round"/><path d="M108.91862,211.81038c0,13.32348 3.38058,32.81155 -20.2835,32.81155c-23.66408,0 -21.47665,-17.89721 -21.47665,-31.22068c0,-13.32348 8.15317,-16.90292 21.47665,-16.90292c13.32348,0 20.2835,1.98858 20.2835,15.31205z" fill="#faa51f" stroke="#8e5322" stroke-width="1.4" stroke-linecap="round" stroke-linejoin="round"/><path d="M103.74832,217.57526c0,8.35203 1.78972,20.88007 -10.93718,20.88007c-12.72491,0 -11.73062,-11.33291 -11.73062,-19.68494c0,-8.35203 4.37487,-10.73832 11.73062,-10.73832c7.35774,-0.00199 10.93718,1.19315 10.93718,9.54319z" fill="#ffffff" stroke="none" stroke-width="1" stroke-linecap="butt" stroke-linejoin="miter"/><path d="M87.24113,245.21451c0,0 -2.98287,18.09606 -2.38629,26.44809c0.39772,4.178 -1.19116,6.36544 -5.36717,7.16087c-4.37487,0.79543 -19.48807,1.19315 -19.68693,-3.7783c-0.79543,-15.11121 10.34061,-5.76688 11.53376,-13.32348c2.58515,-17.30063 -2.58515,-28.23781 -2.58515,-28.23781" fill="#faa51f" stroke="#8e5322" stroke-width="1.4" stroke-linecap="round" stroke-linejoin="round"/><path d="M66.5619,265.30115c0,0 3.18173,-0.39573 5.96574,0.39772" fill="#faa51f" stroke="#8e5322" stroke-width="1.4" stroke-linecap="round" stroke-linejoin="round"/><path d="M70.63849,227.81844c-0.3301,-0.18494 -15.44927,3.87773 -15.72966,3.6391c-6.63191,-5.64557 0.66617,-25.64869 13.64165,-35.9535l15.70778,2.78401" fill="#faa51f" stroke="#8e5322" stroke-width="1.4" stroke-linecap="round" stroke-linejoin="round"/><path d="M73.32307,211.01296c-2.31669,6.23419 -6.1288,13.79079 -6.1288,13.79079" fill="#faa51f" stroke="#8e5322" stroke-width="1.4" stroke-linecap="round" stroke-linejoin="round"/><path d="M67.88033,225.13384l-2.38431,-0.59856" fill="none" stroke="#8e5322" stroke-width="1.4" stroke-linecap="round" stroke-linejoin="round"/><path d="M94.20314,104.2263l14.31777,-13.92005l5.56802,22.27208c0,0 12.32919,9.14945 16.10749,15.51091c6.16459,10.54145 6.36146,19.09035 6.36146,19.09035c0,0 13.72318,4.17601 16.10947,15.1132c2.38629,10.93718 -6.16459,31.81726 -42.35473,38.97614c-36.19213,7.15888 -65.22736,-2.58515 -78.94657,-24.65837c-13.52233,-21.87436 7.95431,-48.1236 6.75918,-46.53274l-4.37487,-36.39099l25.05609,16.30634c0,0 8.5489,-3.38058 17.69835,-3.7783c3.37859,-0.19886 9.54518,0.19886 12.52804,0.39772z" fill="#faa51f" stroke="none" stroke-width="1" stroke-linecap="butt" stroke-linejoin="miter"/><path d="M135.76443,148.17585c0,0 13.12462,3.18173 15.51091,14.11891c2.98287,10.93718 -6.76316,31.6184 -40.96472,37.78299c-7.75546,1.392 -14.71548,2.78401 -25.65266,2.78401c-16.90292,0.19687 -35.3967,-10.34061 -34.00469,-32.41383c0.79344,-12.7269 16.90292,-11.73261 16.90292,-11.73261l14.11891,-3.57944c0,0 14.11891,3.17974 22.47094,1.392c8.35203,-1.78972 8.35203,-8.35203 8.35203,-8.35203l17.49949,-5.17229l4.77259,3.97716z" fill="#ffffff" stroke="none" stroke-width="1" stroke-linecap="butt" stroke-linejoin="miter"/><path d="M166.5874,149.76672c0,0 -3.57745,3.18173 -8.74975,4.97145c-4.37686,1.59086 -13.12462,2.98287 -13.12462,2.98287" fill="none" stroke="#8e5322" stroke-width="1.4" stroke-linecap="round" stroke-linejoin="round"/><path d="M165.39226,172.03881c0,0 -3.57944,0.39772 -8.9486,-0.20085c-5.56603,-0.39573 -10.73634,-2.58515 -10.73634,-2.58515" fill="none" stroke="#8e5322" stroke-width="1.4" stroke-linecap="round" stroke-linejoin="round"/><path d="M54.23272,107.01229l10.34061,7.15888" fill="none" stroke="#8e5322" stroke-width="1.4" stroke-linecap="round" stroke-linejoin="round"/><path d="M94.20314,104.2263l14.31777,-13.92005l5.56802,22.27208c0,0 12.32919,9.14945 16.10749,15.51091c6.16459,10.54145 6.36146,19.09035 6.36146,19.09035c0,0 13.72318,4.17601 16.10947,15.1132c2.38629,10.93718 -6.16459,31.81726 -42.35473,38.97614c-36.19213,7.15888 -65.22736,-2.58515 -78.94657,-24.65837c-13.52233,-21.87436 7.95431,-48.1236 6.75918,-46.53274l-4.37487,-36.39099l25.05609,16.30634c0,0 8.5489,-3.38058 17.69835,-3.7783c3.37859,-0.19886 9.54518,0.19886 12.52804,0.39772z" fill="none" stroke="#8e5322" stroke-width="1.4" stroke-linecap="round" stroke-linejoin="round"/><path d="M30.17092,167.66194c0,0 -6.96002,0.99429 -10.53947,1.19315c-3.57944,0.19886 -11.53376,-0.59657 -11.53376,-0.59657" fill="none" stroke="#8e5322" stroke-width="1.4" stroke-linecap="round" stroke-linejoin="round"/><path d="M6.50882,149.17016c0,0 4.37487,0.79344 12.32919,4.37487c7.15689,3.18173 11.73062,6.56231 11.73062,6.56231" fill="none" stroke="#8e5322" stroke-width="1.4" stroke-linecap="round" stroke-linejoin="round"/><path d="M125.82154,128.29007c5.56802,8.55089 5.76489,18.49378 0.39772,21.87436c-5.36916,3.57944 -14.31777,-0.59657 -19.88578,-9.34632c-5.57001,-8.55089 -5.76688,-18.49378 -0.39772,-21.87436c5.36916,-3.38058 14.31777,0.79543 19.88578,9.34632z" fill="#ffffff" stroke="#8e5322" stroke-width="1.4" stroke-linecap="round" stroke-linejoin="round"/><path d="M125.62268,135.44697c0.59856,1.98858 -0.39573,3.97716 -2.38431,4.57373c-1.78972,0.59856 -3.7783,-0.59657 -4.37487,-2.78202c-0.59657,-1.98858 0.39772,-3.97716 2.38629,-4.57373c1.98659,-0.39772 3.77631,0.79344 4.37288,2.78202" fill="#414142" stroke="none" stroke-width="1" stroke-linecap="butt" stroke-linejoin="miter"/><path d="M79.68652,134.45269c5.56802,8.55089 4.97145,18.8915 -1.392,23.0695c-6.36345,4.17601 -16.10749,0.59657 -21.67352,-8.15516c-5.57001,-8.55089 -4.97145,-18.8915 1.39002,-23.06751c6.36345,-3.97517 16.10749,-0.39573 21.67551,8.15317z" fill="#ffffff" stroke="#8e5322" stroke-width="1.4" stroke-linecap="round" stroke-linejoin="round"/><path d="M354.89336,44.8545c2.98283,-0.79542 8.9485,-2.18741 12.32905,-2.58512c9.14736,-1.19313 18.09586,0.59657 18.09586,0.59657l21.87412,-20.48213l1.98856,36.58944c-1.39199,-1.39199 24.26039,20.68099 14.71532,44.54366c-9.54507,24.26039 -36.39058,38.97571 -73.37773,38.37914c-36.78829,-0.79542 -48.91849,-19.68671 -48.52078,-31.02148c0.39771,-11.13592 13.12447,-17.69815 13.12447,-17.69815c0,0 -1.39199,-8.55079 2.98283,-19.88556c2.58512,-6.95995 13.12447,-18.09586 13.12447,-18.09586l1.59085,-22.8684l16.50502,11.13592z" fill="none" stroke="#0073ef" stroke-width="1.4" stroke-linecap="round" stroke-linejoin="round"/><path d="M79.08995,142.21012c0,1.98858 -1.59086,3.77631 -3.38058,3.77631c-1.98858,0 -3.38058,-1.59086 -3.38058,-3.77631c0,-1.98858 1.59086,-3.7783 3.38058,-3.7783c1.78972,0 3.38058,1.58887 3.38058,3.7783" fill="#414142" stroke="none" stroke-width="1" stroke-linecap="butt" stroke-linejoin="miter"/><path d="M101.56088,154.1416c3.38058,-0.39772 7.95431,-2.98287 8.55089,0.79344c0,1.59285 -3.18173,8.15516 -6.75918,8.35203c-3.97716,0.20085 -10.93718,-4.7706 -10.73832,-7.75347c0.19886,-2.98287 5.96375,-0.99429 8.94661,-1.392z" fill="#5f4b43" stroke="#8e5322" stroke-width="1.4" stroke-linecap="round" stroke-linejoin="round"/><path d="M99.1726,187.15002c-10.73634,2.18942 -15.70778,-2.38629 -15.70778,-2.38629" fill="#ffffff" stroke="#8e5322" stroke-width="1.4" stroke-linecap="round" stroke-linejoin="round"/><path d="M69.40955,226.17587c10.25908,5.61773 9.8892,14.1905 7.30007,16.36998c-6.04727,5.18422 -14.94019,1.00821 -23.82715,-13.8584" fill="#faa51f" stroke="#8e5322" stroke-width="1.4" stroke-linecap="round" stroke-linejoin="round"/><path d="M372.1938,145.87317c6.76109,-2.98283 11.93134,-0.99428 14.31761,6.95995c2.38627,8.15308 2.38627,11.13592 -5.76681,17.69815c-3.77826,3.18169 -7.1588,-4.37482 -9.54507,-12.32905c-2.38627,-8.15308 -3.38055,-10.34049 0.99428,-12.32905z" data-paper-data="{&quot;index&quot;:null}" fill="#ffffff" stroke="none" stroke-width="1" stroke-linecap="butt" stroke-linejoin="miter"/><g data-paper-data="{&quot;index&quot;:null}" stroke="#0073ef" stroke-width="1.4" stroke-linecap="round" stroke-linejoin="round"><path d="M401.62444,174.30954c0,0 -17.30044,19.48785 -18.89129,34.00431c-0.39771,3.97711 -1.7897,4.97139 -5.76681,5.3691c-4.37482,0.39771 -22.27183,-3.97711 -21.47641,-8.15308c2.98283,-14.51646 14.31761,-2.58512 16.90273,-9.74393c2.98283,-7.95423 5.3691,-15.90845 4.77254,-20.48213c-0.59657,-4.97139 -4.17597,-6.16452 -4.17597,-6.16452" fill="#1c8aff"/><path d="M367.81898,198.17221c0,0 2.58512,0.19886 5.3691,1.59085" fill="#faa51f"/></g><path d="M396.8519,134.5384c-0.19886,-1.98856 7.35766,-10.7382 7.35766,-12.32905c-0.59657,-17.30044 4.97139,-24.6581 8.15308,-24.45924c7.1588,0.59657 10.53935,8.15308 7.75537,21.87412c-1.98856,10.14164 -15.7096,28.63521 -16.10731,30.22606" data-paper-data="{&quot;index&quot;:null}" fill="#1c8aff" stroke="#0073ef" stroke-width="1.4" stroke-linecap="round" stroke-linejoin="round"/><g fill="#ef8f00" stroke-linecap="butt" stroke-linejoin="miter" font-family="Handwriting" font-weight="normal" font-size="40" text-anchor="start"><text transform="translate(142.0877,58.74385) scale(1.34592,1.34592)" font-size="40" xml:space="preserve" fill="#ef8f00" fill-rule="nonzero" stroke="#d78100" stroke-width="4" stroke-linecap="butt" stroke-linejoin="miter" stroke-miterlimit="10" stroke-dasharray="" stroke-dashoffset="0" font-family="Handwriting" font-weight="normal" text-anchor="start" style="mix-blend-mode: normal"><tspan x="0" dy="0">Toy</tspan><tspan x="0" dy="48px">Arena</tspan></text><text transform="translate(142.0877,58.74385) scale(1.34592,1.34592)" font-size="40" xml:space="preserve" fill="#ef8f00" fill-rule="nonzero" stroke="none" stroke-width="1" stroke-linecap="butt" stroke-linejoin="miter" stroke-miterlimit="10" stroke-dasharray="" stroke-dashoffset="0" font-family="Handwriting" font-weight="normal" text-anchor="start" style="mix-blend-mode: normal"><tspan x="0" dy="0">Toy</tspan><tspan x="0" dy="48px">Arena</tspan></text></g><g fill="#3aa4f0" stroke-linecap="butt" stroke-linejoin="miter" font-family="Handwriting" font-weight="normal" font-size="40" text-anchor="start"><text transform="translate(116.79453,331.28618) scale(1.34592,1.34592)" font-size="40" xml:space="preserve" fill="#3aa4f0" fill-rule="nonzero" stroke="#007fd9" stroke-width="4" stroke-linecap="butt" stroke-linejoin="miter" stroke-miterlimit="10" stroke-dasharray="" stroke-dashoffset="0" font-family="Handwriting" font-weight="normal" text-anchor="start" style="mix-blend-mode: normal"><tspan x="0" dy="0">Multiplayer</tspan></text><text transform="translate(116.79453,331.28618) scale(1.34592,1.34592)" font-size="40" xml:space="preserve" fill="#3aa4f0" fill-rule="nonzero" stroke="none" stroke-width="1" stroke-linecap="butt" stroke-linejoin="miter" stroke-miterlimit="10" stroke-dasharray="" stroke-dashoffset="0" font-family="Handwriting" font-weight="normal" text-anchor="start" style="mix-blend-mode: normal"><tspan x="0" dy="0">Multiplayer</tspan></text></g></g></g></svg>