<svg version="1.1" xmlns="http://www.w3.org/2000/svg" xmlns:xlink="http://www.w3.org/1999/xlink" width="49.25" height="18.45834" viewBox="0,0,49.25,18.45834"><g transform="translate(-215.375,-180.27083)"><g data-paper-data="{&quot;isPaintingLayer&quot;:true}" fill-rule="nonzero" stroke-linecap="butt" stroke-linejoin="miter" stroke-miterlimit="10" stroke-dasharray="" stroke-dashoffset="0" style="mix-blend-mode: normal"><path d="M216.375,193.3622c0,0 0,-7.24332 0,-8.90217c0,-0.4752 16.04686,-3.1892 23.98017,-3.1892c7.81492,0 23.26983,2.714 23.26983,3.1892c0,1.65885 0,8.90217 0,8.90217z" data-paper-data="{&quot;index&quot;:null}" fill="#3aa4f0" stroke="#000000" stroke-width="2"/><path d="M253.03973,185.18138c1.82143,0 3.29799,1.37156 3.29799,3.06346c0,1.6919 -1.47656,3.06346 -3.29799,3.06346c-1.82143,0 -3.29799,-1.37156 -3.29799,-3.06346c0,-1.6919 1.47656,-3.06346 3.29799,-3.06346z" data-paper-data="{&quot;index&quot;:null}" fill="#000000" stroke="none" stroke-width="0"/><path d="M216.38134,197.72917v-4.47141h47.18658v4.47141z" data-paper-data="{&quot;index&quot;:null}" fill="#3aa4f0" stroke="#000000" stroke-width="2"/><path d="M254.01644,187.18887c-0.70056,0 -1.26846,-0.20781 -1.26846,-0.46416c0,-0.25635 0.5679,-0.46416 1.26846,-0.46416c0.70056,0 1.26846,0.20781 1.26846,0.46416c0,0.25635 -0.5679,0.46416 -1.26846,0.46416z" data-paper-data="{&quot;index&quot;:null}" fill="#ffffff" stroke="none" stroke-width="0.5"/></g></g></svg>