<svg version="1.1" xmlns="http://www.w3.org/2000/svg" xmlns:xlink="http://www.w3.org/1999/xlink" width="42.16103" height="40.60689" viewBox="0,0,42.16103,40.60689"><g transform="translate(-217.41898,-158.12229)"><g data-paper-data="{&quot;isPaintingLayer&quot;:true}" fill-rule="nonzero" stroke-linecap="butt" stroke-linejoin="miter" stroke-miterlimit="10" stroke-dasharray="" stroke-dashoffset="0" style="mix-blend-mode: normal"><path d="M221.25245,187.67828c0,0 -2.30429,-15.43417 -2.83201,-18.96886c-0.15117,-1.01257 11.49746,-8.66361 17.6832,-9.58712c6.09343,-0.90974 19.00729,3.07418 19.15847,4.08675c0.52772,3.53469 2.83201,18.96886 2.83201,18.96886z" data-paper-data="{&quot;index&quot;:null}" fill="#3aa4f0" stroke="#000000" stroke-width="2"/><path d="M247.23807,165.97834c1.4202,-0.21203 3.00783,2.53861 3.54606,6.14373c0.53824,3.60512 -0.17674,6.69954 -1.59694,6.91157c-1.4202,0.21203 -3.00783,-2.53861 -3.54606,-6.14373c-0.53824,-3.60512 0.17674,-6.69954 1.59694,-6.91157z" data-paper-data="{&quot;index&quot;:null}" fill="#000000" stroke="none" stroke-width="0"/><path d="M248.63826,170.14223c-0.54624,0.08155 -1.05515,-0.29514 -1.1367,-0.84138c-0.08155,-0.54624 0.29514,-1.05515 0.84138,-1.1367c0.54624,-0.08155 1.05515,0.29514 1.1367,0.84138c0.08155,0.54624 -0.29514,1.05515 -0.84138,1.1367z" data-paper-data="{&quot;index&quot;:null}" fill="#ffffff" stroke="none" stroke-width="0.5"/><path d="M253.4913,189.90812l-4.5195,-6.33884l6.67378,-1.14219z" fill="#ffffff" stroke="#000000" stroke-width="2"/><path d="M221.38001,197.72919v-9.63334h37.2v9.63334z" data-paper-data="{&quot;index&quot;:null}" fill="#3aa4f0" stroke="#000000" stroke-width="2"/></g></g></svg>