<svg version="1.1" xmlns="http://www.w3.org/2000/svg" xmlns:xlink="http://www.w3.org/1999/xlink" width="63.24419" height="62.02326" viewBox="0,0,63.24419,62.02326"><g transform="translate(-208.37791,-148.98837)"><g data-paper-data="{&quot;isPaintingLayer&quot;:true}" fill-rule="nonzero" stroke-linecap="butt" stroke-linejoin="miter" stroke-miterlimit="10" stroke-dasharray="" stroke-dashoffset="0" style="mix-blend-mode: normal"><path d="M240,162.98837c4.6782,0 8.9311,1.88343 12.02965,4.98198c3.09855,3.09855 4.98198,7.35145 4.98198,12.02965c0,4.6782 -1.88343,8.9311 -4.98198,12.02965c-3.09855,3.09855 -7.35145,4.98198 -12.02965,4.98198c-4.6782,0 -8.9311,-1.88343 -12.02965,-4.98198c-3.09855,-3.09855 -4.98198,-7.35145 -4.98198,-12.02965c0,-4.6782 1.88343,-8.9311 4.98198,-12.02965c3.09855,-3.09855 7.35145,-4.98198 12.02965,-4.98198z" fill="#faf0e6" stroke="#000000" stroke-width="2"/><path d="M246.62238,195.675c-3.58459,-6.92616 -1.15436,-14.21686 -1.15436,-14.21686c2.0657,-6.50087 6.13634,-10.14622 8.08052,-11.5436c2.18721,2.79477 3.46308,6.3186 3.46308,10.14622c0,6.98692 -4.19215,12.94099 -10.38924,15.61424z" fill="#f0e6d2" stroke="none" stroke-width="1"/><g fill="#f01446" stroke="none" stroke-width="1"><path d="M250.26773,172.28401l0.48605,-2.67326l0.42529,0.12151l-0.30378,2.12645l2.24797,0.06076v0.48605l-2.85552,-0.12151"/><path d="M247.89826,175.50407l-0.12151,-2.73401l0.48605,-0.06076l0.18227,2.18721l2.18721,-0.42529l0.06076,0.48605l-2.79477,0.5468"/><path d="M246.37936,178.9064l-0.91134,-2.55174l0.5468,-0.12151l0.66831,2.00494l2.00494,-0.72907l0.12151,0.42529l-2.43023,0.97209"/><path d="M244.61744,186.37936l-1.57965,-2.12645l0.36453,-0.30378l1.27587,1.76192l1.70116,-1.39738l0.30378,0.36453l-2.0657,1.70116"/><path d="M244.73895,190.57151l-1.94419,-1.94419l0.42529,-0.36453l1.45814,1.5189l1.45814,-1.5189l0.42529,0.36453l-1.82267,1.94419"/><path d="M245.7718,194.21686l-2.24797,-1.5189l0.24302,-0.36453l1.82267,1.15436l1.0936,-1.82267l0.48605,0.24302l-1.39738,2.30872"/><path d="M245.225,182.43023l-1.0936,-2.36948l0.48605,-0.24302l0.85058,1.94419l1.94419,-0.97209l0.18227,0.42529l-2.36948,1.21512"/><path d="M253.79157,170.15756c-2.18721,1.27587 -4.00988,3.03779 -5.34651,5.225c-4.55669,7.41221 -4.25291,15.43198 -1.57965,20.29244c-0.12151,0.06076 -0.36453,0.12151 -0.48605,0.18227c-3.52384,-6.3186 -1.94419,-15.00669 1.64041,-20.77849c1.33663,-2.18721 3.22006,-4.07064 5.46802,-5.40727c0.06076,0.18227 0.18227,0.24302 0.30378,0.48605z"/></g><g fill="#f01446" stroke="none" stroke-width="1"><path d="M230.03605,187.95901l-0.42529,2.67326l-0.48605,-0.06076l0.30378,-2.12645l-2.12645,-0.06076l0.06076,-0.48605l2.67326,0.06076"/><path d="M232.22326,184.86047l0.18227,2.67326h-0.48605l-0.12151,-2.0657l-2.12645,0.36453l-0.06076,-0.48605l2.6125,-0.48605"/><path d="M233.74215,181.45814l0.78983,2.49099l-0.48605,0.12151l-0.60756,-1.94419l-1.88343,0.72907l-0.24302,-0.42529l2.43023,-0.97209"/><path d="M235.3218,174.10669l1.5189,2.0657l-0.36453,0.30378l-1.21512,-1.70116l-1.5189,1.33663l-0.30378,-0.36453l1.88343,-1.64041"/><path d="M235.26105,169.97529l1.76192,1.88343l-0.30378,0.30378l-1.45814,-1.5189l-1.33663,1.5189l-0.42529,-0.30378l1.76192,-1.88343"/><path d="M234.28895,166.32994l2.12645,1.45814l-0.24302,0.42529l-1.76192,-1.15436l-1.03285,1.70116l-0.36453,-0.24302l1.27587,-2.18721"/><path d="M234.775,177.99506l1.03285,2.36948l-0.42529,0.18227l-0.85058,-1.94419l-1.82267,1.03285l-0.18227,-0.42529l2.24797,-1.21512"/><path d="M233.01308,164.62878c0.18227,-0.06076 0.36453,-0.12151 0.48605,-0.18227c3.52384,6.19709 2.00494,15.00669 -1.39738,20.77849c-1.27587,2.24797 -3.09855,4.1314 -5.34651,5.46802c-0.12151,-0.06076 -0.18227,-0.24302 -0.30378,-0.36453c2.18721,-1.27587 4.07064,-3.09855 5.28576,-5.34651c4.43517,-7.41221 4.00988,-15.55349 1.27587,-20.3532z"/></g><path d="M208.37791,211.01163v-62.02326h63.24419v62.02326z" fill="none" stroke="none" stroke-width="0"/><path d="M240,162.98837c4.6782,0 8.9311,1.88343 12.02965,4.98198c3.09855,3.09855 4.98198,7.35145 4.98198,12.02965c0,4.6782 -1.88343,8.9311 -4.98198,12.02965c-3.09855,3.09855 -7.35145,4.98198 -12.02965,4.98198c-4.6782,0 -8.9311,-1.88343 -12.02965,-4.98198c-3.09855,-3.09855 -4.98198,-7.35145 -4.98198,-12.02965c0,-4.6782 1.88343,-8.9311 4.98198,-12.02965c3.09855,-3.09855 7.35145,-4.98198 12.02965,-4.98198z" fill="none" stroke="#000000" stroke-width="2"/></g></g></svg>