<svg version="1.1" xmlns="http://www.w3.org/2000/svg" xmlns:xlink="http://www.w3.org/1999/xlink" width="127.5" height="168.24569" viewBox="0,0,127.5,168.24569"><g transform="translate(-176.25,-75.50431)"><g data-paper-data="{&quot;isPaintingLayer&quot;:true}" fill-rule="nonzero" stroke-linecap="butt" stroke-linejoin="miter" stroke-miterlimit="10" stroke-dasharray="" stroke-dashoffset="0" style="mix-blend-mode: normal"><path d="M187,180c0,-29.27109 23.72891,-53 53,-53c29.27109,0 53,23.72891 53,53c0,29.27109 -23.72891,53 -53,53c-29.27109,0 -53,-23.72891 -53,-53z" fill="#000000" stroke="#000000" stroke-width="2"/><path d="M178,180c0,-34.24165 27.75835,-62 62,-62c34.24165,0 62,27.75835 62,62c0,34.24165 -27.75835,62 -62,62c-34.24165,0 -62,-27.75835 -62,-62z" fill="none" stroke="#000000" stroke-width="3.5"/><text transform="translate(204.12001,170.76875) scale(0.5,0.5)" font-size="40" xml:space="preserve" fill="#ffffff" fill-rule="nonzero" stroke="none" stroke-width="1" stroke-linecap="butt" stroke-linejoin="miter" stroke-miterlimit="10" stroke-dasharray="" stroke-dashoffset="0" font-family="Sans Serif" font-weight="normal" text-anchor="start" style="mix-blend-mode: normal"><tspan x="0" dy="0">Click To</tspan></text><text transform="translate(201.46002,200.76875) scale(0.5,0.5)" font-size="40" xml:space="preserve" fill="#ffffff" fill-rule="nonzero" stroke="none" stroke-width="1" stroke-linecap="butt" stroke-linejoin="miter" stroke-miterlimit="10" stroke-dasharray="" stroke-dashoffset="0" font-family="Sans Serif" font-weight="normal" text-anchor="start" style="mix-blend-mode: normal"><tspan x="0" dy="0">Activate</tspan></text><path d="M240,104.49569l-28.99138,-28.99138h57.98276z" fill="#000000" stroke="none" stroke-width="0"/></g></g></svg>