<svg version="1.1" xmlns="http://www.w3.org/2000/svg" xmlns:xlink="http://www.w3.org/1999/xlink" width="561.80368" height="494.38849" viewBox="0,0,561.80368,494.38849"><g transform="translate(40.90184,67.19425)"><g data-paper-data="{&quot;isPaintingLayer&quot;:true}" fill-rule="nonzero" stroke="none" stroke-width="0" stroke-linecap="butt" stroke-linejoin="miter" stroke-miterlimit="10" stroke-dasharray="" stroke-dashoffset="0" style="mix-blend-mode: normal"><path d="M-40.90184,384.789l36.48542,-451.98325l65.85187,5.31576l-36.48542,451.98325z" fill="#e4a7ff"/><path d="M24.95002,390.10476l36.48542,-451.98324l65.85187,5.31576l-36.48542,451.98325z" fill="#eec7ff"/><path d="M90.80188,395.42051l36.48542,-451.98325l65.85187,5.31576l-36.48542,451.98325z" fill="#e4a7ff"/><path d="M156.65375,400.73627l36.48542,-451.98324l65.85187,5.31576l-36.48542,451.98325z" fill="#eec7ff"/><path d="M221.00898,405.93121l36.48542,-451.98325l65.85187,5.31576l-36.48542,451.98325z" fill="#e4a7ff"/><path d="M286.86084,411.24697l36.48542,-451.98324l65.85187,5.31576l-36.48542,451.98325z" fill="#eec7ff"/><path d="M352.7127,416.56272l36.48542,-451.98325l65.85187,5.31576l-36.48542,451.98325z" fill="#e4a7ff"/><path d="M418.56456,421.87848l36.48542,-451.98324l65.85186,5.31576l-36.48542,451.98324z" fill="#eec7ff"/></g></g></svg>