<svg version="1.1" xmlns="http://www.w3.org/2000/svg" xmlns:xlink="http://www.w3.org/1999/xlink" width="47.7912" height="46.44351" viewBox="0,0,47.7912,46.44351"><g transform="translate(-211.7888,-152.28566)"><g data-paper-data="{&quot;isPaintingLayer&quot;:true}" fill-rule="nonzero" stroke-linecap="butt" stroke-linejoin="miter" stroke-miterlimit="10" stroke-dasharray="" stroke-dashoffset="0" style="mix-blend-mode: normal"><path d="M222.12553,188.48743c0,0 -7.57937,-13.64098 -9.31518,-16.765c-0.49725,-0.89493 7.72118,-12.15043 13.18825,-15.1881c5.38548,-2.99235 18.8758,-3.79892 19.37306,-2.904c1.7358,3.12402 9.31518,16.765 9.31518,16.765z" data-paper-data="{&quot;index&quot;:null}" fill="#3aa4f0" stroke="#000000" stroke-width="2"/><path d="M238.83187,159.04192c1.2552,-0.69743 3.70793,1.32018 5.47831,4.50644c1.7704,3.18627 2.18804,6.33463 0.93284,7.03206c-1.2552,0.69743 -3.70793,-1.32018 -5.47831,-4.50644c-1.7704,-3.18627 -2.18804,-6.33463 -0.93284,-7.03206z" data-paper-data="{&quot;index&quot;:null}" fill="#000000" stroke="none" stroke-width="0"/><path d="M221.38,197.72917v-9.63334h37.2v9.63334z" data-paper-data="{&quot;index&quot;:null}" fill="#3aa4f0" stroke="#000000" stroke-width="2"/><path d="M241.60557,162.44854c-0.48278,0.26824 -1.09158,0.09434 -1.35982,-0.38844c-0.26824,-0.48278 -0.09434,-1.09158 0.38844,-1.35982c0.48278,-0.26824 1.09158,-0.09434 1.35982,0.38844c0.26824,0.48278 0.09434,1.09158 -0.38844,1.35982z" data-paper-data="{&quot;index&quot;:null}" fill="#ffffff" stroke="none" stroke-width="0.5"/><path d="M252.93483,180.01501l-6.55391,-4.20156l5.76933,-3.54384z" fill="#ffffff" stroke="#000000" stroke-width="2"/></g></g></svg>