<svg version="1.1" xmlns="http://www.w3.org/2000/svg" xmlns:xlink="http://www.w3.org/1999/xlink" width="45.25" height="36.10015" viewBox="0,0,45.25,36.10015"><g transform="translate(-217.375,-161.04571)"><g data-paper-data="{&quot;isPaintingLayer&quot;:true}" fill-rule="nonzero" stroke-linejoin="miter" stroke-miterlimit="10" stroke-dasharray="" stroke-dashoffset="0" style="mix-blend-mode: normal"><path d="M217.375,197.14585v-34.29167h45.25v34.29167z" fill="none" stroke="none" stroke-width="1.5" stroke-linecap="butt"/><path d="M217.375,197.14585v-34.29167h45.25v34.29167z" fill="none" stroke="none" stroke-width="1.5" stroke-linecap="butt"/><path d="M217.375,197.14586v-34.29167h45.25v34.29167z" fill="none" stroke="none" stroke-width="1.5" stroke-linecap="butt"/><path d="M232.36761,182.2982v-16.22495h16.22495v16.22495z" fill="#ffaa64" stroke="#000000" stroke-width="1" stroke-linecap="butt"/><path d="M232.88248,181.81582v-7.88047h15.19521v7.88047z" fill="#ffaa64" stroke="#000000" stroke-width="0" stroke-linecap="butt"/><path d="M242.22734,181.22405c-0.52616,0.30066 -0.97247,0.90199 -1.57848,0.90199c-0.75168,0 -1.34727,-0.80673 -1.71812,-1.46056c-0.09929,-0.17506 -2.22098,-0.21476 -2.62061,-0.41459c-1.23147,-0.61573 -1.23147,-2.6787 0,-3.29443c2.05289,-1.02645 4.58687,-0.2512 6.88193,-0.2255c0.51711,0.00579 1.80853,0.18631 2.03948,0.42877c2.56456,2.69227 -0.66614,3.45413 -2.85165,3.45413z" fill="#ffffff" stroke="none" stroke-width="0.5" stroke-linecap="butt"/><path d="M241.50985,177.08191c0,1.19839 -0.46105,2.16987 -1.02977,2.16987c-0.56873,0 -1.02977,-0.97149 -1.02977,-2.16987c0,-1.19839 0.46104,-2.16988 1.02977,-2.16988c0.56873,0 1.02977,0.97149 1.02977,2.16988z" fill="#ffcafb" stroke="#000000" stroke-width="0.5" stroke-linecap="butt"/><path d="M241.08076,175.04386c0,0.191 -0.26894,0.34584 -0.60068,0.34584c-0.33175,0 -0.60067,-0.15484 -0.60067,-0.34584c0,-0.191 0.26893,-0.34584 0.60067,-0.34584c0.33175,0 0.60068,0.15484 0.60068,0.34584z" fill="none" stroke="#000000" stroke-width="1" stroke-linecap="butt"/><path d="M240.48151,175.1535c-0.1309,0.84596 -0.93221,1.49689 -1.90117,1.49689c-0.92377,0 -1.69516,-0.59164 -1.87853,-1.37985" fill="none" stroke="#000000" stroke-width="1" stroke-linecap="butt"/><path d="M244.25836,175.27054c-0.18337,0.78822 -0.95476,1.37985 -1.87853,1.37985c-0.96896,0 -1.77027,-0.65094 -1.90117,-1.49689" data-paper-data="{&quot;index&quot;:null}" fill="none" stroke="#000000" stroke-width="1" stroke-linecap="butt"/><path d="M234.78796,170.75332c0,-0.77407 0.62751,-1.40158 1.40158,-1.40158c0.77407,0 1.40158,0.62751 1.40158,1.40158c0,0.77407 -0.62751,1.40158 -1.40158,1.40158c-0.77407,0 -1.40158,-0.62751 -1.40158,-1.40158z" fill="#00ffff" stroke="#00ffff" stroke-width="1" stroke-linecap="butt"/><path d="M236.00946,170.35287c0,-0.49755 0.40335,-0.90089 0.90089,-0.90089c0.49755,0 0.90089,0.40334 0.90089,0.90089c0,0.49755 -0.40334,0.90089 -0.90089,0.90089c-0.49755,0 -0.90089,-0.40335 -0.90089,-0.90089z" fill="#ffffff" stroke="none" stroke-width="1" stroke-linecap="butt"/><path d="M234.99394,171.3826c0,-0.14216 0.11524,-0.2574 0.2574,-0.2574c0.14216,0 0.2574,0.11524 0.2574,0.2574c0,0.14216 -0.11524,0.2574 -0.2574,0.2574c-0.14216,0 -0.2574,-0.11524 -0.2574,-0.2574z" fill="#ffffff" stroke="none" stroke-width="1" stroke-linecap="butt"/><path d="M243.36905,170.75332c0,-0.77408 0.6275,-1.40158 1.40158,-1.40158c0.77408,0 1.40158,0.6275 1.40158,1.40158c0,0.77408 -0.6275,1.40158 -1.40158,1.40158c-0.77408,0 -1.40158,-0.6275 -1.40158,-1.40158z" fill="#00ffff" stroke="#00ffff" stroke-width="1" stroke-linecap="butt"/><path d="M244.59055,170.35287c0,-0.49755 0.40334,-0.90089 0.90089,-0.90089c0.49755,0 0.90089,0.40334 0.90089,0.90089c0,0.49755 -0.40335,0.90089 -0.90089,0.90089c-0.49755,0 -0.90089,-0.40335 -0.90089,-0.90089z" fill="#ffffff" stroke="none" stroke-width="1" stroke-linecap="butt"/><path d="M243.57503,171.3826c0,-0.14216 0.11524,-0.2574 0.2574,-0.2574c0.14216,0 0.2574,0.11524 0.2574,0.2574c0,0.14216 -0.11524,0.2574 -0.2574,0.2574c-0.14216,0 -0.2574,-0.11524 -0.2574,-0.2574z" fill="#ffffff" stroke="none" stroke-width="1" stroke-linecap="butt"/><path d="M224.02623,194.99117v-14.76858l8.06535,3.49728v7.7535z" fill="#ffe997" stroke="#000000" stroke-width="1.5" stroke-linecap="butt"/><path d="M231.81468,193.50406v-2.40679l14.49167,-2.1114v4.51819z" fill="#bab9ec" stroke="none" stroke-width="0" stroke-linecap="butt"/><path d="M232.15016,188.98374c-1.22412,-3.29266 7.57433,-0.37267 7.57433,-0.37267c0,0 2.91824,-2.5722 3.65194,-0.59869c0.7337,1.97352 -3.59594,3.6349 -3.59594,3.6349c0,0 -6.40621,0.62911 -7.63032,-2.66354z" fill="#484779" stroke="#000000" stroke-width="1" stroke-linecap="butt"/><path d="M232.81966,166.03824l2.69079,-4.08377l2.69079,4.08377z" fill="#ffaa64" stroke="#000000" stroke-width="1" stroke-linecap="butt"/><path d="M242.74959,166.03824l2.69079,-4.08376l2.69079,4.08376z" fill="#ffaa64" stroke="#000000" stroke-width="1" stroke-linecap="butt"/><path d="M221.32919,190.53056v-5.68326h2.67593v5.68326z" fill="#ffe997" stroke="#000000" stroke-width="1.5" stroke-linecap="butt"/><path d="M231.81468,193.50405v-11.63026h28.49952v11.63026z" fill="#ffe997" stroke="#000000" stroke-width="1.5" stroke-linecap="butt"/><path d="M259.09277,184.50616h-26.56996" fill="none" stroke="#ff0000" stroke-width="1.5" stroke-linecap="round"/><path d="M232.18648,187.87091h26.90629" fill="none" stroke="#ff0000" stroke-width="1.5" stroke-linecap="round"/><path d="M231.85015,190.92266h28.02737" fill="none" stroke="#ff0000" stroke-width="1.5" stroke-linecap="round"/><path d="M231.81468,193.50406v-11.63026h28.38582v11.63026z" fill="none" stroke="#000000" stroke-width="1.5" stroke-linecap="butt"/></g></g></svg>