<svg version="1.1" xmlns="http://www.w3.org/2000/svg" xmlns:xlink="http://www.w3.org/1999/xlink" width="33.51726" height="42.49756" viewBox="0,0,33.51726,42.49756"><g transform="translate(-223.24137,-154.26108)"><g data-paper-data="{&quot;isPaintingLayer&quot;:true}" fill-rule="nonzero" stroke-linecap="butt" stroke-linejoin="miter" stroke-miterlimit="10" stroke-dasharray="" stroke-dashoffset="0" style="mix-blend-mode: normal"><path d="M224.24137,195.75864v-31.51726h31.51726v31.51726z" fill="#ffaa64" stroke="#000000" stroke-width="2"/><path d="M243.03422,194.11528c-1.09375,0.625 -2.02152,1.875 -3.28125,1.875c-1.56254,0 -2.80062,-1.67698 -3.57153,-3.03611c-0.20641,-0.3639 -4.61685,-0.44644 -5.44757,-0.86181c-2.5599,-1.27995 -2.5599,-5.56832 0,-6.84826c4.26743,-2.13372 9.53489,-0.52218 14.30573,-0.46875c1.07492,0.01204 3.75945,0.38729 4.23954,0.89129c5.33105,5.59652 -1.38472,7.18023 -5.92782,7.18023z" fill="#ffffff" stroke="none" stroke-width="0.5"/><path d="M242.00035,185.62586c0,2.32789 -0.89559,4.21502 -2.00035,4.21502c-1.10476,0 -2.00035,-1.88713 -2.00035,-4.21502c0,-2.32789 0.89559,-4.21502 2.00035,-4.21502c1.10476,0 2.00035,1.88713 2.00035,4.21502z" fill="#ffcafb" stroke="#000000" stroke-width="1"/><path d="M241.16682,181.6669c0,0.37103 -0.52241,0.67181 -1.16682,0.67181c-0.64442,0 -1.16682,-0.30078 -1.16682,-0.67181c0,-0.37103 0.52241,-0.67181 1.16682,-0.67181c0.64442,0 1.16682,0.30078 1.16682,0.67181z" fill="none" stroke="#000000" stroke-width="2"/><path d="M240.00277,181.87993c-0.25428,1.64328 -1.81084,2.90773 -3.69306,2.90773c-1.79444,0 -3.29288,-1.14926 -3.64908,-2.68037" fill="none" stroke="#000000" stroke-width="2"/><path d="M247.33937,182.10729c-0.3562,1.53112 -1.85464,2.68037 -3.64908,2.68037c-1.88223,0 -3.43878,-1.26445 -3.69306,-2.90773" data-paper-data="{&quot;index&quot;:null}" fill="none" stroke="#000000" stroke-width="2"/><path d="M228.94295,173.33244c0,-1.50364 1.21895,-2.72259 2.72259,-2.72259c1.50364,0 2.72259,1.21895 2.72259,2.72259c0,1.50364 -1.21895,2.72259 -2.72259,2.72259c-1.50364,0 -2.72259,-1.21895 -2.72259,-2.72259z" fill="#000000" stroke="#000000" stroke-width="2"/><path d="M231.31573,172.55458c0,-0.9665 0.7835,-1.75 1.75,-1.75c0.9665,0 1.75,0.7835 1.75,1.75c0,0.9665 -0.7835,1.75 -1.75,1.75c-0.9665,0 -1.75,-0.7835 -1.75,-1.75z" fill="#ffffff" stroke="none" stroke-width="0.5"/><path d="M229.34307,174.55485c0,-0.27614 0.22386,-0.5 0.5,-0.5c0.27614,0 0.5,0.22386 0.5,0.5c0,0.27614 -0.22386,0.5 -0.5,0.5c-0.27614,0 -0.5,-0.22386 -0.5,-0.5z" fill="#ffffff" stroke="none" stroke-width="0.5"/><path d="M245.61187,173.33245c0,-1.50365 1.21894,-2.72259 2.72259,-2.72259c1.50365,0 2.72259,1.21894 2.72259,2.72259c0,1.50365 -1.21894,2.72259 -2.72259,2.72259c-1.50365,0 -2.72259,-1.21894 -2.72259,-2.72259z" fill="#000000" stroke="#000000" stroke-width="2"/><path d="M247.98465,172.55458c0,-0.9665 0.7835,-1.75 1.75,-1.75c0.9665,0 1.75,0.7835 1.75,1.75c0,0.9665 -0.7835,1.75 -1.75,1.75c-0.9665,0 -1.75,-0.7835 -1.75,-1.75z" fill="#ffffff" stroke="none" stroke-width="0.5"/><path d="M246.01199,174.55485c0,-0.27614 0.22386,-0.5 0.5,-0.5c0.27614,0 0.5,0.22386 0.5,0.5c0,0.27614 -0.22386,0.5 -0.5,0.5c-0.27614,0 -0.5,-0.22386 -0.5,-0.5z" fill="#ffffff" stroke="none" stroke-width="0.5"/><path d="M225.1195,164.01138l5.22691,-7.93279l5.22691,7.93279z" fill="#ffaa64" stroke="#000000" stroke-width="2"/><path d="M244.40857,164.01138l5.2269,-7.93278l5.22691,7.93278z" fill="#ffaa64" stroke="#000000" stroke-width="2"/><path d="M224.24137,195.75863v-31.51726h31.51726v31.51726z" fill="none" stroke="#000000" stroke-width="2"/></g></g></svg>