<svg version="1.1" xmlns="http://www.w3.org/2000/svg" xmlns:xlink="http://www.w3.org/1999/xlink" width="45.25" height="38.28847" viewBox="0,0,45.25,38.28847"><g transform="translate(-217.375,-158.85739)"><g data-paper-data="{&quot;isPaintingLayer&quot;:true}" fill-rule="nonzero" stroke-linejoin="miter" stroke-miterlimit="10" stroke-dasharray="" stroke-dashoffset="0" style="mix-blend-mode: normal"><path d="M217.375,197.14585v-34.29167h45.25v34.29167z" fill="none" stroke="none" stroke-width="1.5" stroke-linecap="butt"/><path d="M217.375,197.14585v-34.29167h45.25v34.29167z" fill="none" stroke="none" stroke-width="1.5" stroke-linecap="butt"/><path d="M217.375,197.14586v-34.29167h45.25v34.29167z" fill="none" stroke="none" stroke-width="1.5" stroke-linecap="butt"/><path d="M232.36761,182.2982v-16.22495h16.22495v16.22495z" fill="#2f2f2f" stroke="#000000" stroke-width="1" stroke-linecap="butt"/><path d="M232.88248,181.81582v-7.88047h15.19521v7.88047z" fill="#2f2f2f" stroke="#000000" stroke-width="0" stroke-linecap="butt"/><path d="M242.22734,181.22405c-0.52616,0.30066 -0.97247,0.90199 -1.57848,0.90199c-0.75168,0 -1.34727,-0.80673 -1.71812,-1.46056c-0.09929,-0.17506 -2.22098,-0.21476 -2.62061,-0.41459c-1.23147,-0.61573 -1.23147,-2.6787 0,-3.29443c2.05289,-1.02645 4.58687,-0.2512 6.88193,-0.2255c0.51711,0.00579 1.80853,0.18631 2.03948,0.42877c2.56456,2.69227 -0.66614,3.45413 -2.85165,3.45413z" fill="#ffffff" stroke="none" stroke-width="0.5" stroke-linecap="butt"/><path d="M241.50985,177.08191c0,1.19839 -0.46105,2.16987 -1.02977,2.16987c-0.56873,0 -1.02977,-0.97149 -1.02977,-2.16987c0,-1.19839 0.46104,-2.16988 1.02977,-2.16988c0.56873,0 1.02977,0.97149 1.02977,2.16988z" fill="#ffcafb" stroke="#000000" stroke-width="0.5" stroke-linecap="butt"/><path d="M241.08076,175.04386c0,0.191 -0.26894,0.34584 -0.60068,0.34584c-0.33175,0 -0.60067,-0.15484 -0.60067,-0.34584c0,-0.191 0.26893,-0.34584 0.60067,-0.34584c0.33175,0 0.60068,0.15484 0.60068,0.34584z" fill="none" stroke="#000000" stroke-width="1" stroke-linecap="butt"/><path d="M240.48151,175.1535c-0.1309,0.84596 -0.93221,1.49689 -1.90117,1.49689c-0.92377,0 -1.69516,-0.59164 -1.87853,-1.37985" fill="none" stroke="#000000" stroke-width="1" stroke-linecap="butt"/><path d="M244.25836,175.27054c-0.18337,0.78822 -0.95476,1.37985 -1.87853,1.37985c-0.96896,0 -1.77027,-0.65094 -1.90117,-1.49689" data-paper-data="{&quot;index&quot;:null}" fill="none" stroke="#000000" stroke-width="1" stroke-linecap="butt"/><path d="M234.78796,170.75332c0,-0.77407 0.62751,-1.40158 1.40158,-1.40158c0.77407,0 1.40158,0.62751 1.40158,1.40158c0,0.77407 -0.62751,1.40158 -1.40158,1.40158c-0.77407,0 -1.40158,-0.62751 -1.40158,-1.40158z" fill="#00ffff" stroke="#00ffff" stroke-width="1" stroke-linecap="butt"/><path d="M236.00946,170.35287c0,-0.49755 0.40335,-0.90089 0.90089,-0.90089c0.49755,0 0.90089,0.40334 0.90089,0.90089c0,0.49755 -0.40334,0.90089 -0.90089,0.90089c-0.49755,0 -0.90089,-0.40335 -0.90089,-0.90089z" fill="#ffffff" stroke="none" stroke-width="1" stroke-linecap="butt"/><path d="M234.99394,171.3826c0,-0.14216 0.11524,-0.2574 0.2574,-0.2574c0.14216,0 0.2574,0.11524 0.2574,0.2574c0,0.14216 -0.11524,0.2574 -0.2574,0.2574c-0.14216,0 -0.2574,-0.11524 -0.2574,-0.2574z" fill="#ffffff" stroke="none" stroke-width="1" stroke-linecap="butt"/><path d="M243.36905,170.75332c0,-0.77408 0.6275,-1.40158 1.40158,-1.40158c0.77408,0 1.40158,0.6275 1.40158,1.40158c0,0.77408 -0.6275,1.40158 -1.40158,1.40158c-0.77408,0 -1.40158,-0.6275 -1.40158,-1.40158z" fill="#00ffff" stroke="#00ffff" stroke-width="1" stroke-linecap="butt"/><path d="M244.59055,170.35287c0,-0.49755 0.40334,-0.90089 0.90089,-0.90089c0.49755,0 0.90089,0.40334 0.90089,0.90089c0,0.49755 -0.40335,0.90089 -0.90089,0.90089c-0.49755,0 -0.90089,-0.40335 -0.90089,-0.90089z" fill="#ffffff" stroke="none" stroke-width="1" stroke-linecap="butt"/><path d="M243.57503,171.3826c0,-0.14216 0.11524,-0.2574 0.2574,-0.2574c0.14216,0 0.2574,0.11524 0.2574,0.2574c0,0.14216 -0.11524,0.2574 -0.2574,0.2574c-0.14216,0 -0.2574,-0.11524 -0.2574,-0.2574z" fill="#ffffff" stroke="none" stroke-width="1" stroke-linecap="butt"/><path d="M219.80073,194.99117l4.44504,-7.65687l-4.44504,-7.11171l12.29085,3.49728v7.7535z" fill="#84ff5e" stroke="#000000" stroke-width="1.5" stroke-linecap="butt"/><path d="M246.12174,193.50406v-11.63026l14.0631,2.5845v6.46125z" fill="#84ff5e" stroke="#000000" stroke-width="1.5" stroke-linecap="butt"/><path d="M246.7885,192.95264l0.01685,-4.01368l13.26836,-0.06266l-0.55563,1.73691z" fill="#6f3b9f" stroke="#000000" stroke-width="0" stroke-linecap="butt"/><path d="M231.81468,193.50406v-11.63026h14.49167v11.63026z" fill="#84ff5e" stroke="#000000" stroke-width="1.5" stroke-linecap="butt"/><path d="M231.81468,193.50406v-2.40679l14.49167,-2.1114v4.51819z" fill="#6f3b9f" stroke="none" stroke-width="0" stroke-linecap="butt"/><path d="M232.15016,188.98374c-1.22412,-3.29266 7.57433,-0.37267 7.57433,-0.37267c0,0 2.91824,-2.5722 3.65194,-0.59869c0.7337,1.97352 -3.59594,3.6349 -3.59594,3.6349c0,0 -6.40621,0.62911 -7.63032,-2.66354z" fill="#84ff5e" stroke="#000000" stroke-width="1" stroke-linecap="butt"/><path d="M232.81966,166.03824l2.69079,-4.08377l2.69079,4.08377z" fill="#2f2f2f" stroke="#000000" stroke-width="1" stroke-linecap="butt"/><path d="M242.74959,166.03824l2.69079,-4.08376l2.69079,4.08376z" fill="#2f2f2f" stroke="#000000" stroke-width="1" stroke-linecap="butt"/><path d="M232.20649,181.37877v-17.16658h17.16658v17.16658z" fill="#ffc1c1" stroke="#000000" stroke-width="1" stroke-linecap="butt"/><path d="M241.42531,173.70339c0,0.20209 -0.28454,0.36592 -0.63553,0.36592c-0.351,0 -0.63553,-0.16383 -0.63553,-0.36592c0,-0.20209 0.28454,-0.36592 0.63553,-0.36592c0.351,0 0.63553,0.16383 0.63553,0.36592z" fill="none" stroke="#000000" stroke-width="1" stroke-linecap="butt"/><path d="M236.79222,176.64513c0.19401,-0.83395 1.01017,-1.45992 1.98755,-1.45992c1.02519,0 1.87301,0.68871 2.01151,1.58376" data-paper-data="{&quot;index&quot;:null}" fill="none" stroke="#000000" stroke-width="1" stroke-linecap="butt"/><path d="M240.78827,176.76897c0.1385,-0.89505 0.98631,-1.58376 2.01151,-1.58376c0.97738,0 1.79354,0.62596 1.98755,1.45992" data-paper-data="{&quot;index&quot;:null}" fill="none" stroke="#000000" stroke-width="1" stroke-linecap="butt"/><path d="M234.76731,169.16384c0,-0.81899 0.66393,-1.48292 1.48292,-1.48292c0.81899,0 1.48292,0.66393 1.48292,1.48292c0,0.81899 -0.66393,1.48292 -1.48292,1.48292c-0.81899,0 -1.48292,-0.66393 -1.48292,-1.48292z" fill="#000000" stroke="#000000" stroke-width="1" stroke-linecap="butt"/><path d="M236.05969,168.74016c0,-0.52643 0.42675,-0.95318 0.95318,-0.95318c0.52643,0 0.95318,0.42675 0.95318,0.95318c0,0.52643 -0.42675,0.95318 -0.95318,0.95318c-0.52643,0 -0.95318,-0.42675 -0.95318,-0.95318z" fill="#ffffff" stroke="none" stroke-width="1" stroke-linecap="butt"/><path d="M234.98524,169.82965c0,-0.15041 0.12193,-0.27234 0.27234,-0.27234c0.15041,0 0.27234,0.12193 0.27234,0.27234c0,0.15041 -0.12193,0.27234 -0.27234,0.27234c-0.15041,0 -0.27234,-0.12193 -0.27234,-0.27234z" fill="#ffffff" stroke="none" stroke-width="1" stroke-linecap="butt"/><path d="M243.84641,169.16385c0,-0.819 0.66392,-1.48292 1.48292,-1.48292c0.819,0 1.48292,0.66392 1.48292,1.48292c0,0.819 -0.66392,1.48292 -1.48292,1.48292c-0.819,0 -1.48292,-0.66392 -1.48292,-1.48292z" fill="#000000" stroke="#000000" stroke-width="1" stroke-linecap="butt"/><path d="M245.1388,168.74016c0,-0.52643 0.42675,-0.95318 0.95318,-0.95318c0.52643,0 0.95318,0.42675 0.95318,0.95318c0,0.52643 -0.42675,0.95318 -0.95318,0.95318c-0.52643,0 -0.95318,-0.42675 -0.95318,-0.95318z" fill="#ffffff" stroke="none" stroke-width="1" stroke-linecap="butt"/><path d="M244.06434,169.82965c0,-0.15041 0.12193,-0.27234 0.27234,-0.27234c0.15041,0 0.27234,0.12193 0.27234,0.27234c0,0.15041 -0.12193,0.27234 -0.27234,0.27234c-0.15041,0 -0.27234,-0.12193 -0.27234,-0.27234z" fill="#ffffff" stroke="none" stroke-width="1" stroke-linecap="butt"/><path d="M232.68478,164.08692l2.84695,-4.32077l2.84695,4.32077z" fill="#ffc1c1" stroke="#000000" stroke-width="1" stroke-linecap="butt"/><path d="M243.191,164.08692l2.84695,-4.32077l2.84695,4.32077z" fill="#ffc1c1" stroke="#000000" stroke-width="1" stroke-linecap="butt"/><path d="M240.83756,173.92372v2.41021" fill="none" stroke="#000000" stroke-width="1" stroke-linecap="round"/><path d="M243.4888,165.19113c0.13617,0 0.13617,0.13617 0.13617,0.13617v0.08034c-0.04157,0.85338 -1.10336,0.61821 -1.71166,0.61821c-1.34968,0 -2.6333,-0.51735 -3.88765,-0.48204c0,0 -0.13617,0 -0.13617,-0.13617c0,-0.13617 0.13617,-0.13617 0.13617,-0.13617c1.30628,0.02479 2.50091,0.48204 3.88765,0.48204c0.35972,0 1.49369,0.22357 1.43932,-0.34587v-0.08034c0,0 0,-0.13617 0.13617,-0.13617z" fill="#000000" stroke="none" stroke-width="1" stroke-linecap="butt"/><path d="M243.97084,166.23556c0.13617,0 0.13617,0.13617 0.13617,0.13617v0.16068c-0.03372,0.69225 -1.23929,0.61821 -1.76069,0.61821c-1.4611,0 -2.92216,-0.50633 -4.32067,-0.48204c0,0 -0.13617,0 -0.13617,-0.13617c0,-0.13617 0.13617,-0.13617 0.13617,-0.13617c1.42773,0.0191 2.84025,0.48204 4.32067,0.48204c0.29235,0 1.52612,0.04979 1.48835,-0.34587v-0.16068c0,0 0,-0.13617 0.13617,-0.13617z" fill="#000000" stroke="none" stroke-width="1" stroke-linecap="butt"/><path d="M253.96809,185.45484l2.05022,2.05022" fill="none" stroke="#000000" stroke-width="1" stroke-linecap="round"/><path d="M254.08199,187.50506l1.93632,-1.93632" fill="none" stroke="#000000" stroke-width="1" stroke-linecap="round"/><path d="M246.12174,193.50406v-11.63026l14.0631,2.5845v6.46125z" fill="none" stroke="#000000" stroke-width="1.5" stroke-linecap="butt"/><path d="M231.81468,193.50405v-11.63026h14.15829v11.63026z" fill="none" stroke="#000000" stroke-width="1.5" stroke-linecap="butt"/></g></g></svg>