<svg version="1.1" xmlns="http://www.w3.org/2000/svg" xmlns:xlink="http://www.w3.org/1999/xlink" width="591.2996" height="398.25627" viewBox="0,0,591.2996,398.25627"><g transform="translate(53.02702,30.66667)"><g data-paper-data="{&quot;isPaintingLayer&quot;:true}" fill-rule="nonzero" stroke-linecap="butt" stroke-linejoin="miter" stroke-miterlimit="10" stroke-dasharray="" stroke-dashoffset="0" style="mix-blend-mode: normal"><path d="M51.54165,254.88971h-35.75v-35.75h35.75z" data-paper-data="{&quot;index&quot;:null}" fill="#000000" stroke="#ffffff" stroke-width="2"/><path d="M15.54165,255.22306h-35.75v-35.75h35.75z" data-paper-data="{&quot;index&quot;:null}" fill="#000000" stroke="#ffffff" stroke-width="2"/><path d="M240.76991,234.8837h-35.75v-18.75h35.75z" data-paper-data="{&quot;index&quot;:null}" fill="#000000" stroke="#ffffff" stroke-width="2"/><path d="M169.76991,234.8837h-35.75v-18.75h35.75z" data-paper-data="{&quot;index&quot;:null}" fill="#000000" stroke="#ffffff" stroke-width="2"/><path d="M205.76991,234.8837h-35.75v-18.75h35.75z" data-paper-data="{&quot;index&quot;:null}" fill="#000000" stroke="#ffffff" stroke-width="2"/><path d="M134.76991,234.8837h-35.75v-18.75h35.75z" data-paper-data="{&quot;index&quot;:null}" fill="#000000" stroke="#ffffff" stroke-width="2"/><path d="M207.20843,216.18809l16.17649,-24.58051l16.17649,24.58051z" data-paper-data="{&quot;index&quot;:null}" fill="#000000" stroke="#fbffea" stroke-width="2"/><path d="M495.76991,279.8837h-35.75v-18.75h35.75z" data-paper-data="{&quot;index&quot;:null}" fill="#000000" stroke="#ffffff" stroke-width="2"/><path d="M424.76991,279.8837h-35.75v-18.75h35.75z" data-paper-data="{&quot;index&quot;:null}" fill="#000000" stroke="#ffffff" stroke-width="2"/><path d="M354.76991,279.8837h-35.75v-18.75h35.75z" data-paper-data="{&quot;index&quot;:null}" fill="#000000" stroke="#ffffff" stroke-width="2"/><path d="M460.76991,279.8837h-35.75v-18.75h35.75z" data-paper-data="{&quot;index&quot;:null}" fill="#000000" stroke="#ffffff" stroke-width="2"/><path d="M389.76991,279.8837h-35.75v-18.75h35.75z" data-paper-data="{&quot;index&quot;:null}" fill="#000000" stroke="#ffffff" stroke-width="2"/><path d="M319.76991,279.8837h-35.75v-18.75h35.75z" data-paper-data="{&quot;index&quot;:null}" fill="#000000" stroke="#ffffff" stroke-width="2"/><path d="M462.20843,261.18809l16.17649,-24.58051l16.17649,24.58051z" data-paper-data="{&quot;index&quot;:null}" fill="#000000" stroke="#fbffea" stroke-width="2"/><g stroke="#fbffea" stroke-width="0.5"><g><path d="M21.72845,357.70218l4.18118,-13.98377l4.60153,13.85114z" fill="#ff00ef"/><path d="M1.18111,358.88783l4.18118,-13.98375l4.60153,13.85112z" fill="#ff00ef"/><path d="M30.61941,362.82012l4.18119,-13.98377l4.60153,13.85114z" fill="#ff00ef"/><path d="M10.41236,358.74843l4.18118,-13.98375l4.60154,13.85112z" fill="#ff00ef"/><path d="M4.44064,362.60723l4.9744,-7.81312l5.20806,7.65935z" fill="#000000"/><path d="M16.1455,364.37682l4.9744,-7.81312l5.20806,7.65935z" fill="#000000"/><path d="M22.91209,361.3551l4.9744,-7.81312l5.20806,7.65935z" fill="#000000"/><path d="M-0.91796,362.20156l4.9744,-7.81312l5.20806,7.65935z" fill="#000000"/><path d="M26.83331,363.24223l4.9744,-7.81312l5.20806,7.65935z" fill="#000000"/><path d="M33.17222,364.1197l4.9744,-7.81312l5.20806,7.65935z" fill="#000000"/><path d="M36.57755,364.06827l4.9744,-7.81312l5.20806,7.65935z" fill="#000000"/><path d="M9.78455,362.03993l4.9744,-7.81312l5.20806,7.65935z" fill="#000000"/></g><g><path d="M-24.29651,356.39699l4.18118,-13.98377l4.60153,13.85114z" fill="#ff00ef"/><path d="M-44.84386,357.58265l4.18118,-13.98375l4.60153,13.85112z" fill="#ff00ef"/><path d="M-15.40554,361.51494l4.18119,-13.98377l4.60153,13.85114z" fill="#ff00ef"/><path d="M-35.61258,357.44324l4.18118,-13.98375l4.60154,13.85112z" fill="#ff00ef"/><path d="M-41.58431,361.30204l4.9744,-7.81312l5.20806,7.65935z" fill="#000000"/><path d="M-29.87946,363.07163l4.9744,-7.81312l5.20806,7.65935z" fill="#000000"/><path d="M-23.11286,360.04992l4.9744,-7.81312l5.20806,7.65935z" fill="#000000"/><path d="M-46.9429,360.89637l4.9744,-7.81312l5.20806,7.65935z" fill="#000000"/><path d="M-19.19163,361.93704l4.9744,-7.81312l5.20806,7.65935z" fill="#000000"/><path d="M-12.85273,362.81451l4.9744,-7.81312l5.20806,7.65935z" fill="#000000"/><path d="M-9.44739,362.76308l4.9744,-7.81312l5.20806,7.65935z" fill="#000000"/><path d="M-36.2404,360.73475l4.9744,-7.81312l5.20806,7.65935z" fill="#000000"/></g><g><path d="M-0.29924,356.0346l4.18118,-13.98377l4.60153,13.85114z" fill="#ff00ef"/><path d="M-20.84658,357.22025l4.18118,-13.98375l4.60153,13.85112z" fill="#ff00ef"/><path d="M8.59172,361.15254l4.18119,-13.98377l4.60153,13.85114z" fill="#ff00ef"/><path d="M-11.61532,357.08085l4.18118,-13.98375l4.60154,13.85112z" fill="#ff00ef"/><path d="M-17.58704,360.93965l4.9744,-7.81312l5.20806,7.65935z" fill="#000000"/><path d="M-5.8822,362.70924l4.9744,-7.81312l5.20806,7.65935z" fill="#000000"/><path d="M0.88441,359.68752l4.9744,-7.81312l5.20806,7.65935z" fill="#000000"/><path d="M-22.94565,360.53398l4.9744,-7.81312l5.20806,7.65935z" fill="#000000"/><path d="M4.80563,361.57465l4.9744,-7.81312l5.20806,7.65935z" fill="#000000"/><path d="M11.14453,362.45212l4.9744,-7.81312l5.20806,7.65935z" fill="#000000"/><path d="M14.54987,362.40069l4.9744,-7.81312l5.20806,7.65935z" fill="#000000"/><path d="M-12.24314,360.37235l4.9744,-7.81312l5.20806,7.65935z" fill="#000000"/></g></g><g stroke="#fbffea" stroke-width="0.5"><g><path d="M66.72331,357.02271l4.18118,-13.98377l4.60153,13.85114z" fill="#ff00ef"/><path d="M46.17599,358.20836l4.18118,-13.98375l4.60153,13.85112z" fill="#ff00ef"/><path d="M75.61428,362.14065l4.18119,-13.98377l4.60153,13.85114z" fill="#ff00ef"/><path d="M55.40725,358.06895l4.18118,-13.98375l4.60154,13.85112z" fill="#ff00ef"/><path d="M49.43552,361.92775l4.9744,-7.81312l5.20806,7.65935z" fill="#000000"/><path d="M61.14036,363.69735l4.9744,-7.81312l5.20806,7.65935z" fill="#000000"/><path d="M67.90701,360.67563l4.9744,-7.81312l5.20806,7.65935z" fill="#000000"/><path d="M44.07692,361.52208l4.9744,-7.81312l5.20806,7.65935z" fill="#000000"/><path d="M71.82817,362.56275l4.9744,-7.81312l5.20806,7.65935z" fill="#000000"/><path d="M78.16708,363.44022l4.9744,-7.81312l5.20806,7.65935z" fill="#000000"/><path d="M81.57241,363.3888l4.9744,-7.81312l5.20806,7.65935z" fill="#000000"/><path d="M54.77942,361.36046l4.9744,-7.81312l5.20806,7.65935z" fill="#000000"/></g><g><path d="M20.69835,355.71752l4.18118,-13.98377l4.60153,13.85114z" fill="#ff00ef"/><path d="M0.15102,356.90317l4.18118,-13.98375l4.60153,13.85112z" fill="#ff00ef"/><path d="M29.58932,360.83546l4.18119,-13.98377l4.60153,13.85114z" fill="#ff00ef"/><path d="M9.38228,356.76377l4.18118,-13.98375l4.60154,13.85112z" fill="#ff00ef"/><path d="M3.41055,360.62256l4.9744,-7.81312l5.20806,7.65935z" fill="#000000"/><path d="M15.1154,362.39216l4.9744,-7.81312l5.20806,7.65935z" fill="#000000"/><path d="M21.882,359.37044l4.9744,-7.81312l5.20806,7.65935z" fill="#000000"/><path d="M-1.94804,360.21689l4.9744,-7.81312l5.20806,7.65935z" fill="#000000"/><path d="M25.80323,361.25756l4.9744,-7.81312l5.20806,7.65935z" fill="#000000"/><path d="M32.14213,362.13503l4.9744,-7.81312l5.20806,7.65935z" fill="#000000"/><path d="M35.54747,362.08361l4.9744,-7.81312l5.20806,7.65935z" fill="#000000"/><path d="M8.75447,360.05527l4.9744,-7.81312l5.20806,7.65935z" fill="#000000"/></g><g><path d="M44.69563,355.35513l4.18118,-13.98377l4.60153,13.85114z" fill="#ff00ef"/><path d="M24.14829,356.54078l4.18118,-13.98375l4.60153,13.85112z" fill="#ff00ef"/><path d="M53.58659,360.47307l4.18119,-13.98377l4.60153,13.85114z" fill="#ff00ef"/><path d="M33.37956,356.40137l4.18118,-13.98375l4.60154,13.85112z" fill="#ff00ef"/><path d="M27.40783,360.26017l4.9744,-7.81312l5.20806,7.65935z" fill="#000000"/><path d="M39.11266,362.02977l4.9744,-7.81312l5.20806,7.65935z" fill="#000000"/><path d="M45.87929,359.00805l4.9744,-7.81312l5.20806,7.65935z" fill="#000000"/><path d="M22.04921,359.8545l4.9744,-7.81312l5.20806,7.65935z" fill="#000000"/><path d="M49.80049,360.89517l4.9744,-7.81312l5.20806,7.65935z" fill="#000000"/><path d="M56.13939,361.77264l4.9744,-7.81312l5.20806,7.65935z" fill="#000000"/><path d="M59.54473,361.72122l4.9744,-7.81312l5.20806,7.65935z" fill="#000000"/><path d="M32.75173,359.69288l4.9744,-7.81312l5.20806,7.65935z" fill="#000000"/></g></g><g stroke="#fbffea" stroke-width="0.5"><g><path d="M133.76098,359.01068l4.18118,-13.98377l4.60153,13.85114z" fill="#ff00ef"/><path d="M113.21364,360.19633l4.18118,-13.98375l4.60153,13.85112z" fill="#ff00ef"/><path d="M142.65194,364.12862l4.18119,-13.98377l4.60153,13.85114z" fill="#ff00ef"/><path d="M122.44489,360.05693l4.18118,-13.98375l4.60154,13.85112z" fill="#ff00ef"/><path d="M116.47317,363.91573l4.9744,-7.81312l5.20806,7.65935z" fill="#000000"/><path d="M128.17803,365.68532l4.9744,-7.81312l5.20806,7.65935z" fill="#000000"/><path d="M134.94462,362.6636l4.9744,-7.81312l5.20806,7.65935z" fill="#000000"/><path d="M111.11457,363.51005l4.9744,-7.81312l5.20806,7.65935z" fill="#000000"/><path d="M138.86584,364.55073l4.9744,-7.81312l5.20806,7.65935z" fill="#000000"/><path d="M145.20475,365.42819l4.9744,-7.81312l5.20806,7.65935z" fill="#000000"/><path d="M148.61008,365.37677l4.9744,-7.81312l5.20806,7.65935z" fill="#000000"/><path d="M121.81708,363.34843l4.9744,-7.81312l5.20806,7.65935z" fill="#000000"/></g><g><path d="M87.73602,357.70549l4.18118,-13.98377l4.60153,13.85114z" fill="#ff00ef"/><path d="M67.18867,358.89114l4.18118,-13.98375l4.60153,13.85112z" fill="#ff00ef"/><path d="M96.62699,362.82343l4.18119,-13.98377l4.60153,13.85114z" fill="#ff00ef"/><path d="M76.41995,358.75174l4.18118,-13.98375l4.60154,13.85112z" fill="#ff00ef"/><path d="M70.44822,362.61054l4.9744,-7.81312l5.20806,7.65935z" fill="#000000"/><path d="M82.15307,364.38013l4.9744,-7.81312l5.20806,7.65935z" fill="#000000"/><path d="M88.91967,361.35841l4.9744,-7.81312l5.20806,7.65935z" fill="#000000"/><path d="M65.08963,362.20487l4.9744,-7.81312l5.20806,7.65935z" fill="#000000"/><path d="M92.8409,363.24554l4.9744,-7.81312l5.20806,7.65935z" fill="#000000"/><path d="M99.1798,364.123l4.9744,-7.81312l5.20806,7.65935z" fill="#000000"/><path d="M102.58514,364.07158l4.9744,-7.81312l5.20806,7.65935z" fill="#000000"/><path d="M75.79213,362.04324l4.9744,-7.81312l5.20806,7.65935z" fill="#000000"/></g><g><path d="M111.73329,357.3431l4.18118,-13.98377l4.60153,13.85114z" fill="#ff00ef"/><path d="M91.18595,358.52875l4.18118,-13.98375l4.60153,13.85112z" fill="#ff00ef"/><path d="M120.62425,362.46104l4.18119,-13.98377l4.60153,13.85114z" fill="#ff00ef"/><path d="M100.41721,358.38935l4.18118,-13.98375l4.60154,13.85112z" fill="#ff00ef"/><path d="M94.44549,362.24815l4.9744,-7.81312l5.20806,7.65935z" fill="#000000"/><path d="M106.15033,364.01774l4.9744,-7.81312l5.20806,7.65935z" fill="#000000"/><path d="M112.91694,360.99602l4.9744,-7.81312l5.20806,7.65935z" fill="#000000"/><path d="M89.08688,361.84247l4.9744,-7.81312l5.20806,7.65935z" fill="#000000"/><path d="M116.83816,362.88315l4.9744,-7.81312l5.20806,7.65935z" fill="#000000"/><path d="M123.17706,363.76061l4.9744,-7.81312l5.20806,7.65935z" fill="#000000"/><path d="M126.5824,363.70919l4.9744,-7.81312l5.20806,7.65935z" fill="#000000"/><path d="M99.78939,361.68085l4.9744,-7.81312l5.20806,7.65935z" fill="#000000"/></g></g><g stroke="#fbffea" stroke-width="0.5"><g><path d="M178.75584,358.3312l4.18118,-13.98377l4.60153,13.85114z" fill="#ff00ef"/><path d="M158.20852,359.51686l4.18118,-13.98375l4.60153,13.85112z" fill="#ff00ef"/><path d="M187.64681,363.44915l4.18119,-13.98377l4.60153,13.85114z" fill="#ff00ef"/><path d="M167.43978,359.37745l4.18118,-13.98375l4.60154,13.85112z" fill="#ff00ef"/><path d="M161.46805,363.23624l4.9744,-7.81312l5.20806,7.65935z" fill="#000000"/><path d="M173.17289,365.00584l4.9744,-7.81312l5.20806,7.65935z" fill="#000000"/><path d="M179.93954,361.98413l4.9744,-7.81312l5.20806,7.65935z" fill="#000000"/><path d="M156.10945,362.83058l4.9744,-7.81312l5.20806,7.65935z" fill="#000000"/><path d="M183.8607,363.87124l4.9744,-7.81312l5.20806,7.65935z" fill="#000000"/><path d="M190.19961,364.74872l4.9744,-7.81312l5.20806,7.65935z" fill="#000000"/><path d="M193.60494,364.69729l4.9744,-7.81312l5.20806,7.65935z" fill="#000000"/><path d="M166.81195,362.66896l4.9744,-7.81312l5.20806,7.65935z" fill="#000000"/></g><g><path d="M132.73088,357.02602l4.18118,-13.98377l4.60153,13.85114z" fill="#ff00ef"/><path d="M112.18355,358.21167l4.18118,-13.98375l4.60153,13.85112z" fill="#ff00ef"/><path d="M141.62185,362.14396l4.18119,-13.98377l4.60153,13.85114z" fill="#ff00ef"/><path d="M121.41481,358.07226l4.18118,-13.98375l4.60154,13.85112z" fill="#ff00ef"/><path d="M115.44308,361.93105l4.9744,-7.81312l5.20806,7.65935z" fill="#000000"/><path d="M127.14793,363.70066l4.9744,-7.81312l5.20806,7.65935z" fill="#000000"/><path d="M133.91453,360.67894l4.9744,-7.81312l5.20806,7.65935z" fill="#000000"/><path d="M110.08449,361.52539l4.9744,-7.81312l5.20806,7.65935z" fill="#000000"/><path d="M137.83576,362.56606l4.9744,-7.81312l5.20806,7.65935z" fill="#000000"/><path d="M144.17466,363.44353l4.9744,-7.81312l5.20806,7.65935z" fill="#000000"/><path d="M147.58,363.3921l4.9744,-7.81312l5.20806,7.65935z" fill="#000000"/><path d="M120.787,361.36377l4.9744,-7.81312l5.20806,7.65935z" fill="#000000"/></g><g><path d="M156.72816,356.66362l4.18118,-13.98377l4.60153,13.85114z" fill="#ff00ef"/><path d="M136.18082,357.84928l4.18118,-13.98375l4.60153,13.85112z" fill="#ff00ef"/><path d="M165.61912,361.78157l4.18119,-13.98377l4.60153,13.85114z" fill="#ff00ef"/><path d="M145.41209,357.70987l4.18118,-13.98375l4.60154,13.85112z" fill="#ff00ef"/><path d="M139.44036,361.56866l4.9744,-7.81312l5.20806,7.65935z" fill="#000000"/><path d="M151.14519,363.33827l4.9744,-7.81312l5.20806,7.65935z" fill="#000000"/><path d="M157.91182,360.31655l4.9744,-7.81312l5.20806,7.65935z" fill="#000000"/><path d="M134.08174,361.163l4.9744,-7.81312l5.20806,7.65935z" fill="#000000"/><path d="M161.83302,362.20366l4.9744,-7.81312l5.20806,7.65935z" fill="#000000"/><path d="M168.17192,363.08114l4.9744,-7.81312l5.20806,7.65935z" fill="#000000"/><path d="M171.57726,363.02971l4.9744,-7.81312l5.20806,7.65935z" fill="#000000"/><path d="M144.78426,361.00138l4.9744,-7.81312l5.20806,7.65935z" fill="#000000"/></g></g><g stroke="#fbffea" stroke-width="0.5"><g><path d="M243.77863,359.34949l4.18118,-13.98377l4.60153,13.85114z" fill="#ff00ef"/><path d="M223.2313,360.53514l4.18118,-13.98375l4.60153,13.85112z" fill="#ff00ef"/><path d="M252.6696,364.46743l4.18119,-13.98377l4.60153,13.85114z" fill="#ff00ef"/><path d="M232.46255,360.39574l4.18118,-13.98375l4.60154,13.85112z" fill="#ff00ef"/><path d="M226.49083,364.25454l4.9744,-7.81312l5.20806,7.65935z" fill="#000000"/><path d="M238.19569,366.02413l4.9744,-7.81312l5.20806,7.65935z" fill="#000000"/><path d="M244.96228,363.00241l4.9744,-7.81312l5.20806,7.65935z" fill="#000000"/><path d="M221.13223,363.84886l4.9744,-7.81312l5.20806,7.65935z" fill="#000000"/><path d="M248.8835,364.88954l4.9744,-7.81312l5.20806,7.65935z" fill="#000000"/><path d="M255.22241,365.767l4.9744,-7.81312l5.20806,7.65935z" fill="#000000"/><path d="M258.62774,365.71558l4.9744,-7.81312l5.20806,7.65935z" fill="#000000"/><path d="M231.83474,363.68724l4.9744,-7.81312l5.20806,7.65935z" fill="#000000"/></g><g><path d="M197.75368,358.0443l4.18118,-13.98377l4.60153,13.85114z" fill="#ff00ef"/><path d="M177.20633,359.22995l4.18118,-13.98375l4.60153,13.85112z" fill="#ff00ef"/><path d="M206.64465,363.16224l4.18119,-13.98377l4.60153,13.85114z" fill="#ff00ef"/><path d="M186.43761,359.09055l4.18118,-13.98375l4.60154,13.85112z" fill="#ff00ef"/><path d="M180.46588,362.94935l4.9744,-7.81312l5.20806,7.65935z" fill="#000000"/><path d="M192.17073,364.71894l4.9744,-7.81312l5.20806,7.65935z" fill="#000000"/><path d="M198.93733,361.69722l4.9744,-7.81312l5.20806,7.65935z" fill="#000000"/><path d="M175.10729,362.54368l4.9744,-7.81312l5.20806,7.65935z" fill="#000000"/><path d="M202.85855,363.58435l4.9744,-7.81312l5.20806,7.65935z" fill="#000000"/><path d="M209.19746,364.46181l4.9744,-7.81312l5.20806,7.65935z" fill="#000000"/><path d="M212.6028,364.41039l4.9744,-7.81312l5.20806,7.65935z" fill="#000000"/><path d="M185.80979,362.38205l4.9744,-7.81312l5.20806,7.65935z" fill="#000000"/></g><g><path d="M221.75095,357.68191l4.18118,-13.98377l4.60153,13.85114z" fill="#ff00ef"/><path d="M201.2036,358.86756l4.18118,-13.98375l4.60153,13.85112z" fill="#ff00ef"/><path d="M230.64191,362.79985l4.18119,-13.98377l4.60153,13.85114z" fill="#ff00ef"/><path d="M210.43487,358.72816l4.18118,-13.98375l4.60154,13.85112z" fill="#ff00ef"/><path d="M204.46315,362.58696l4.9744,-7.81312l5.20806,7.65935z" fill="#000000"/><path d="M216.16799,364.35655l4.9744,-7.81312l5.20806,7.65935z" fill="#000000"/><path d="M222.9346,361.33483l4.9744,-7.81312l5.20806,7.65935z" fill="#000000"/><path d="M199.10454,362.18128l4.9744,-7.81312l5.20806,7.65935z" fill="#000000"/><path d="M226.85582,363.22196l4.9744,-7.81312l5.20806,7.65935z" fill="#000000"/><path d="M233.19472,364.09942l4.9744,-7.81312l5.20806,7.65935z" fill="#000000"/><path d="M236.60006,364.048l4.9744,-7.81312l5.20806,7.65935z" fill="#000000"/><path d="M209.80705,362.01966l4.9744,-7.81312l5.20806,7.65935z" fill="#000000"/></g></g><g stroke="#fbffea" stroke-width="0.5"><g><path d="M288.77349,358.67001l4.18118,-13.98377l4.60153,13.85114z" fill="#ff00ef"/><path d="M268.22618,359.85567l4.18118,-13.98375l4.60153,13.85112z" fill="#ff00ef"/><path d="M297.66447,363.78796l4.18119,-13.98377l4.60153,13.85114z" fill="#ff00ef"/><path d="M277.45744,359.71626l4.18118,-13.98375l4.60154,13.85112z" fill="#ff00ef"/><path d="M271.48571,363.57505l4.9744,-7.81312l5.20806,7.65935z" fill="#000000"/><path d="M283.19055,365.34466l4.9744,-7.81312l5.20806,7.65935z" fill="#000000"/><path d="M289.9572,362.32294l4.9744,-7.81312l5.20806,7.65935z" fill="#000000"/><path d="M266.12711,363.16939l4.9744,-7.81312l5.20806,7.65935z" fill="#000000"/><path d="M293.87836,364.21005l4.9744,-7.81312l5.20806,7.65935z" fill="#000000"/><path d="M300.21727,365.08753l4.9744,-7.81312l5.20806,7.65935z" fill="#000000"/><path d="M303.6226,365.0361l4.9744,-7.81312l5.20806,7.65935z" fill="#000000"/><path d="M276.82961,363.00777l4.9744,-7.81312l5.20806,7.65935z" fill="#000000"/></g><g><path d="M242.74854,357.36483l4.18118,-13.98377l4.60153,13.85114z" fill="#ff00ef"/><path d="M222.20121,358.55048l4.18118,-13.98375l4.60153,13.85112z" fill="#ff00ef"/><path d="M251.63951,362.48277l4.18119,-13.98377l4.60153,13.85114z" fill="#ff00ef"/><path d="M231.43247,358.41107l4.18118,-13.98375l4.60154,13.85112z" fill="#ff00ef"/><path d="M225.46074,362.26986l4.9744,-7.81312l5.20806,7.65935z" fill="#000000"/><path d="M237.16559,364.03947l4.9744,-7.81312l5.20806,7.65935z" fill="#000000"/><path d="M243.93219,361.01775l4.9744,-7.81312l5.20806,7.65935z" fill="#000000"/><path d="M220.10215,361.8642l4.9744,-7.81312l5.20806,7.65935z" fill="#000000"/><path d="M247.85341,362.90487l4.9744,-7.81312l5.20806,7.65935z" fill="#000000"/><path d="M254.19232,363.78234l4.9744,-7.81312l5.20806,7.65935z" fill="#000000"/><path d="M257.59766,363.73092l4.9744,-7.81312l5.20806,7.65935z" fill="#000000"/><path d="M230.80466,361.70258l4.9744,-7.81312l5.20806,7.65935z" fill="#000000"/></g><g><path d="M266.74582,357.00243l4.18118,-13.98377l4.60153,13.85114z" fill="#ff00ef"/><path d="M246.19847,358.18809l4.18118,-13.98375l4.60153,13.85112z" fill="#ff00ef"/><path d="M275.63678,362.12038l4.18119,-13.98377l4.60153,13.85114z" fill="#ff00ef"/><path d="M255.42975,358.04868l4.18118,-13.98375l4.60154,13.85112z" fill="#ff00ef"/><path d="M249.45802,361.90747l4.9744,-7.81312l5.20806,7.65935z" fill="#000000"/><path d="M261.16285,363.67708l4.9744,-7.81312l5.20806,7.65935z" fill="#000000"/><path d="M267.92948,360.65536l4.9744,-7.81312l5.20806,7.65935z" fill="#000000"/><path d="M244.0994,361.50181l4.9744,-7.81312l5.20806,7.65935z" fill="#000000"/><path d="M271.85068,362.54247l4.9744,-7.81312l5.20806,7.65935z" fill="#000000"/><path d="M278.18958,363.41995l4.9744,-7.81312l5.20806,7.65935z" fill="#000000"/><path d="M281.59492,363.36852l4.9744,-7.81312l5.20806,7.65935z" fill="#000000"/><path d="M254.80192,361.34019l4.9744,-7.81312l5.20806,7.65935z" fill="#000000"/></g></g><g stroke="#fbffea" stroke-width="0.5"><g><path d="M355.81117,360.65799l4.18118,-13.98377l4.60153,13.85114z" fill="#ff00ef"/><path d="M335.26383,361.84364l4.18118,-13.98375l4.60153,13.85112z" fill="#ff00ef"/><path d="M364.70213,365.77593l4.18119,-13.98377l4.60153,13.85114z" fill="#ff00ef"/><path d="M344.49508,361.70423l4.18118,-13.98375l4.60154,13.85112z" fill="#ff00ef"/><path d="M338.52336,365.56303l4.9744,-7.81312l5.20806,7.65935z" fill="#000000"/><path d="M350.22822,367.33263l4.9744,-7.81312l5.20806,7.65935z" fill="#000000"/><path d="M356.99481,364.31091l4.9744,-7.81312l5.20806,7.65935z" fill="#000000"/><path d="M333.16476,365.15736l4.9744,-7.81312l5.20806,7.65935z" fill="#000000"/><path d="M360.91603,366.19804l4.9744,-7.81312l5.20806,7.65935z" fill="#000000"/><path d="M367.25494,367.0755l4.9744,-7.81312l5.20806,7.65935z" fill="#000000"/><path d="M370.66027,367.02407l4.9744,-7.81312l5.20806,7.65935z" fill="#000000"/><path d="M343.86727,364.99574l4.9744,-7.81312l5.20806,7.65935z" fill="#000000"/></g><g><path d="M309.78621,359.3528l4.18118,-13.98377l4.60153,13.85114z" fill="#ff00ef"/><path d="M289.23886,360.53845l4.18118,-13.98375l4.60153,13.85112z" fill="#ff00ef"/><path d="M318.67718,364.47074l4.18119,-13.98377l4.60153,13.85114z" fill="#ff00ef"/><path d="M298.47014,360.39905l4.18118,-13.98375l4.60154,13.85112z" fill="#ff00ef"/><path d="M292.49841,364.25785l4.9744,-7.81312l5.20806,7.65935z" fill="#000000"/><path d="M304.20326,366.02744l4.9744,-7.81312l5.20806,7.65935z" fill="#000000"/><path d="M310.96986,363.00572l4.9744,-7.81312l5.20806,7.65935z" fill="#000000"/><path d="M287.13982,363.85217l4.9744,-7.81312l5.20806,7.65935z" fill="#000000"/><path d="M314.89108,364.89285l4.9744,-7.81312l5.20806,7.65935z" fill="#000000"/><path d="M321.22999,365.77031l4.9744,-7.81312l5.20806,7.65935z" fill="#000000"/><path d="M324.63533,365.71889l4.9744,-7.81312l5.20806,7.65935z" fill="#000000"/><path d="M297.84232,363.69055l4.9744,-7.81312l5.20806,7.65935z" fill="#000000"/></g><g><path d="M333.78348,358.99041l4.18118,-13.98377l4.60153,13.85114z" fill="#ff00ef"/><path d="M313.23613,360.17606l4.18118,-13.98375l4.60153,13.85112z" fill="#ff00ef"/><path d="M342.67444,364.10835l4.18119,-13.98377l4.60153,13.85114z" fill="#ff00ef"/><path d="M322.4674,360.03665l4.18118,-13.98375l4.60154,13.85112z" fill="#ff00ef"/><path d="M316.49568,363.89545l4.9744,-7.81312l5.20806,7.65935z" fill="#000000"/><path d="M328.20052,365.66505l4.9744,-7.81312l5.20806,7.65935z" fill="#000000"/><path d="M334.96713,362.64333l4.9744,-7.81312l5.20806,7.65935z" fill="#000000"/><path d="M311.13707,363.48978l4.9744,-7.81312l5.20806,7.65935z" fill="#000000"/><path d="M338.88835,364.53046l4.9744,-7.81312l5.20806,7.65935z" fill="#000000"/><path d="M345.22725,365.40792l4.9744,-7.81312l5.20806,7.65935z" fill="#000000"/><path d="M348.63259,365.35649l4.9744,-7.81312l5.20806,7.65935z" fill="#000000"/><path d="M321.83958,363.32816l4.9744,-7.81312l5.20806,7.65935z" fill="#000000"/></g></g><g stroke="#fbffea" stroke-width="0.5"><g><path d="M400.80602,359.97851l4.18118,-13.98377l4.60153,13.85114z" fill="#ff00ef"/><path d="M380.25871,361.16416l4.18118,-13.98375l4.60153,13.85112z" fill="#ff00ef"/><path d="M409.697,365.09645l4.18119,-13.98377l4.60153,13.85114z" fill="#ff00ef"/><path d="M389.48997,361.02476l4.18118,-13.98375l4.60154,13.85112z" fill="#ff00ef"/><path d="M383.51824,364.88355l4.9744,-7.81312l5.20806,7.65935z" fill="#000000"/><path d="M395.22308,366.65315l4.9744,-7.81312l5.20806,7.65935z" fill="#000000"/><path d="M401.98973,363.63143l4.9744,-7.81312l5.20806,7.65935z" fill="#000000"/><path d="M378.15964,364.47789l4.9744,-7.81312l5.20806,7.65935z" fill="#000000"/><path d="M405.91089,365.51855l4.9744,-7.81312l5.20806,7.65935z" fill="#000000"/><path d="M412.2498,366.39603l4.9744,-7.81312l5.20806,7.65935z" fill="#000000"/><path d="M415.65513,366.3446l4.9744,-7.81312l5.20806,7.65935z" fill="#000000"/><path d="M388.86214,364.31626l4.9744,-7.81312l5.20806,7.65935z" fill="#000000"/></g><g><path d="M354.78107,358.67332l4.18118,-13.98377l4.60153,13.85114z" fill="#ff00ef"/><path d="M334.23374,359.85898l4.18118,-13.98375l4.60153,13.85112z" fill="#ff00ef"/><path d="M363.67204,363.79127l4.18119,-13.98377l4.60153,13.85114z" fill="#ff00ef"/><path d="M343.465,359.71957l4.18118,-13.98375l4.60154,13.85112z" fill="#ff00ef"/><path d="M337.49327,363.57836l4.9744,-7.81312l5.20806,7.65935z" fill="#000000"/><path d="M349.19812,365.34796l4.9744,-7.81312l5.20806,7.65935z" fill="#000000"/><path d="M355.96472,362.32625l4.9744,-7.81312l5.20806,7.65935z" fill="#000000"/><path d="M332.13468,363.1727l4.9744,-7.81312l5.20806,7.65935z" fill="#000000"/><path d="M359.88594,364.21336l4.9744,-7.81312l5.20806,7.65935z" fill="#000000"/><path d="M366.22485,365.09084l4.9744,-7.81312l5.20806,7.65935z" fill="#000000"/><path d="M369.63019,365.03941l4.9744,-7.81312l5.20806,7.65935z" fill="#000000"/><path d="M342.83719,363.01108l4.9744,-7.81312l5.20806,7.65935z" fill="#000000"/></g><g><path d="M378.77835,358.31093l4.18118,-13.98377l4.60153,13.85114z" fill="#ff00ef"/><path d="M358.231,359.49658l4.18118,-13.98375l4.60153,13.85112z" fill="#ff00ef"/><path d="M387.66931,363.42887l4.18119,-13.98377l4.60153,13.85114z" fill="#ff00ef"/><path d="M367.46228,359.35718l4.18118,-13.98375l4.60154,13.85112z" fill="#ff00ef"/><path d="M361.49055,363.21597l4.9744,-7.81312l5.20806,7.65935z" fill="#000000"/><path d="M373.19538,364.98557l4.9744,-7.81312l5.20806,7.65935z" fill="#000000"/><path d="M379.96201,361.96385l4.9744,-7.81312l5.20806,7.65935z" fill="#000000"/><path d="M356.13193,362.81031l4.9744,-7.81312l5.20806,7.65935z" fill="#000000"/><path d="M383.88321,363.85097l4.9744,-7.81312l5.20806,7.65935z" fill="#000000"/><path d="M390.22211,364.72845l4.9744,-7.81312l5.20806,7.65935z" fill="#000000"/><path d="M393.62745,364.67702l4.9744,-7.81312l5.20806,7.65935z" fill="#000000"/><path d="M366.83445,362.64868l4.9744,-7.81312l5.20806,7.65935z" fill="#000000"/></g></g><g stroke="#fbffea" stroke-width="0.5"><g><path d="M245.72844,357.70218l4.18118,-13.98377l4.60153,13.85114z" fill="#ff00ef"/><path d="M225.1811,358.88784l4.18118,-13.98375l4.60153,13.85111z" fill="#ff00ef"/><path d="M254.61941,362.82013l4.18119,-13.98377l4.60153,13.85114z" fill="#ff00ef"/><path d="M234.41237,358.74843l4.18118,-13.98375l4.60154,13.85111z" fill="#ff00ef"/><path d="M228.44064,362.60723l4.9744,-7.81313l5.20806,7.65936z" fill="#000000"/><path d="M240.14551,364.37682l4.9744,-7.81312l5.20806,7.65936z" fill="#000000"/><path d="M246.91209,361.35511l4.9744,-7.81312l5.20806,7.65935z" fill="#000000"/><path d="M223.08204,362.20156l4.9744,-7.81312l5.20805,7.65935z" fill="#000000"/><path d="M250.83331,363.24223l4.9744,-7.81312l5.20806,7.65935z" fill="#000000"/><path d="M257.17223,364.1197l4.9744,-7.81312l5.20806,7.65935z" fill="#000000"/><path d="M260.57755,364.06827l4.9744,-7.81312l5.20806,7.65935z" fill="#000000"/><path d="M233.78456,362.03994l4.9744,-7.81313l5.20806,7.65936z" fill="#000000"/></g><g><path d="M199.70349,356.39699l4.18118,-13.98377l4.60153,13.85114z" fill="#ff00ef"/><path d="M179.15614,357.58265l4.18118,-13.98375l4.60153,13.85112z" fill="#ff00ef"/><path d="M208.59446,361.51494l4.18119,-13.98377l4.60153,13.85114z" fill="#ff00ef"/><path d="M188.38742,357.44324l4.18118,-13.98375l4.60154,13.85112z" fill="#ff00ef"/><path d="M182.41569,361.30204l4.9744,-7.81312l5.20806,7.65935z" fill="#000000"/><path d="M194.12054,363.07164l4.9744,-7.81313l5.20806,7.65936z" fill="#000000"/><path d="M200.88714,360.04992l4.9744,-7.81312l5.20806,7.65935z" fill="#000000"/><path d="M177.0571,360.89637l4.9744,-7.81313l5.20805,7.65936z" fill="#000000"/><path d="M204.80836,361.93704l4.9744,-7.81312l5.20806,7.65936z" fill="#000000"/><path d="M211.14727,362.81451l4.9744,-7.81312l5.20806,7.65935z" fill="#000000"/><path d="M214.55261,362.76308l4.9744,-7.81312l5.20806,7.65936z" fill="#000000"/><path d="M187.7596,360.73475l4.9744,-7.81312l5.20805,7.65935z" fill="#000000"/></g><g><path d="M223.70077,356.0346l4.18117,-13.98377l4.60154,13.85114z" fill="#ff00ef"/><path d="M203.15341,357.22026l4.18118,-13.98375l4.60154,13.85112z" fill="#ff00ef"/><path d="M232.59172,361.15255l4.18119,-13.98377l4.60153,13.85114z" fill="#ff00ef"/><path d="M212.38468,357.08085l4.18118,-13.98375l4.60154,13.85112z" fill="#ff00ef"/><path d="M206.41296,360.93965l4.9744,-7.81312l5.20805,7.65936z" fill="#000000"/><path d="M218.1178,362.70924l4.9744,-7.81312l5.20805,7.65936z" fill="#000000"/><path d="M224.88441,359.68753l4.9744,-7.81313l5.20805,7.65936z" fill="#000000"/><path d="M201.05435,360.53398l4.97441,-7.81312l5.20805,7.65935z" fill="#000000"/><path d="M228.80563,361.57465l4.9744,-7.81312l5.20806,7.65935z" fill="#000000"/><path d="M235.14453,362.45212l4.9744,-7.81312l5.20806,7.65935z" fill="#000000"/><path d="M238.54988,362.40069l4.9744,-7.81312l5.20806,7.65935z" fill="#000000"/><path d="M211.75686,360.37236l4.9744,-7.81313l5.20806,7.65936z" fill="#000000"/></g></g><g stroke="#fbffea" stroke-width="0.5"><g><path d="M290.72331,357.02271l4.18118,-13.98376l4.60153,13.85114z" fill="#ff00ef"/><path d="M270.17598,358.20836l4.18118,-13.98375l4.60153,13.85112z" fill="#ff00ef"/><path d="M299.61428,362.14065l4.18118,-13.98377l4.60153,13.85114z" fill="#ff00ef"/><path d="M279.40725,358.06896l4.18118,-13.98375l4.60154,13.85112z" fill="#ff00ef"/><path d="M273.43552,361.92775l4.9744,-7.81312l5.20806,7.65935z" fill="#000000"/><path d="M285.14036,363.69735l4.9744,-7.81312l5.20806,7.65936z" fill="#000000"/><path d="M291.90701,360.67563l4.9744,-7.81313l5.20806,7.65936z" fill="#000000"/><path d="M268.07693,361.52208l4.9744,-7.81312l5.20805,7.65936z" fill="#000000"/><path d="M295.82817,362.56275l4.9744,-7.81312l5.20806,7.65935z" fill="#000000"/><path d="M302.16709,363.44022l4.9744,-7.81312l5.20806,7.65935z" fill="#000000"/><path d="M305.57241,363.3888l4.9744,-7.81312l5.20806,7.65935z" fill="#000000"/><path d="M278.77943,361.36046l4.9744,-7.81313l5.20806,7.65936z" fill="#000000"/></g><g><path d="M244.69835,355.71752l4.18117,-13.98377l4.60154,13.85114z" fill="#ff00ef"/><path d="M224.15102,356.90317l4.18118,-13.98375l4.60153,13.85112z" fill="#ff00ef"/><path d="M253.58933,360.83546l4.18118,-13.98377l4.60153,13.85114z" fill="#ff00ef"/><path d="M233.38228,356.76377l4.18117,-13.98374l4.60154,13.85111z" fill="#ff00ef"/><path d="M227.41056,360.62256l4.9744,-7.81312l5.20806,7.65936z" fill="#000000"/><path d="M239.1154,362.39216l4.9744,-7.81313l5.20806,7.65936z" fill="#000000"/><path d="M245.88201,359.37044l4.9744,-7.81312l5.20806,7.65936z" fill="#000000"/><path d="M222.05196,360.2169l4.9744,-7.81313l5.20806,7.65936z" fill="#000000"/><path d="M249.80323,361.25756l4.9744,-7.81313l5.20806,7.65936z" fill="#000000"/><path d="M256.14213,362.13504l4.9744,-7.81313l5.20806,7.65936z" fill="#000000"/><path d="M259.54747,362.08361l4.9744,-7.81313l5.20806,7.65936z" fill="#000000"/><path d="M232.75447,360.05527l4.9744,-7.81312l5.20805,7.65935z" fill="#000000"/></g><g><path d="M268.69564,355.35513l4.18117,-13.98377l4.60154,13.85114z" fill="#ff00ef"/><path d="M248.14829,356.54078l4.18117,-13.98375l4.60154,13.85112z" fill="#ff00ef"/><path d="M277.58659,360.47307l4.18119,-13.98377l4.60153,13.85114z" fill="#ff00ef"/><path d="M257.37956,356.40138l4.18118,-13.98375l4.60154,13.85112z" fill="#ff00ef"/><path d="M251.40783,360.26017l4.9744,-7.81312l5.20806,7.65935z" fill="#000000"/><path d="M263.11267,362.02977l4.9744,-7.81312l5.20806,7.65935z" fill="#000000"/><path d="M269.87929,359.00805l4.97441,-7.81312l5.20805,7.65935z" fill="#000000"/><path d="M246.04921,359.8545l4.9744,-7.81312l5.20806,7.65936z" fill="#000000"/><path d="M273.80049,360.89517l4.9744,-7.81312l5.20806,7.65935z" fill="#000000"/><path d="M280.13939,361.77264l4.9744,-7.81312l5.20806,7.65935z" fill="#000000"/><path d="M283.54474,361.72122l4.9744,-7.81312l5.20806,7.65935z" fill="#000000"/><path d="M256.75173,359.69288l4.9744,-7.81313l5.20806,7.65936z" fill="#000000"/></g></g><g stroke="#fbffea" stroke-width="0.5"><g><path d="M357.76098,359.01068l4.18118,-13.98377l4.60153,13.85114z" fill="#ff00ef"/><path d="M337.21363,360.19633l4.18118,-13.98375l4.60153,13.85112z" fill="#ff00ef"/><path d="M366.65194,364.12862l4.18119,-13.98377l4.60154,13.85114z" fill="#ff00ef"/><path d="M346.4449,360.05693l4.18117,-13.98375l4.60154,13.85112z" fill="#ff00ef"/><path d="M340.47317,363.91573l4.9744,-7.81312l5.20806,7.65935z" fill="#000000"/><path d="M352.17804,365.68532l4.9744,-7.81313l5.20806,7.65936z" fill="#000000"/><path d="M358.94462,362.6636l4.9744,-7.81312l5.20806,7.65935z" fill="#000000"/><path d="M335.11458,363.51006l4.9744,-7.81313l5.20806,7.65936z" fill="#000000"/><path d="M362.86584,364.55073l4.9744,-7.81312l5.20806,7.65936z" fill="#000000"/><path d="M369.20476,365.42819l4.9744,-7.81312l5.20806,7.65936z" fill="#000000"/><path d="M372.61009,365.37677l4.9744,-7.81312l5.20806,7.65936z" fill="#000000"/><path d="M345.81709,363.34843l4.9744,-7.81312l5.20806,7.65935z" fill="#000000"/></g><g><path d="M311.73602,357.70549l4.18118,-13.98377l4.60153,13.85114z" fill="#ff00ef"/><path d="M291.18867,358.89114l4.18118,-13.98374l4.60153,13.85111z" fill="#ff00ef"/><path d="M320.62699,362.82343l4.18119,-13.98376l4.60153,13.85114z" fill="#ff00ef"/><path d="M300.41995,358.75174l4.18117,-13.98374l4.60155,13.85111z" fill="#ff00ef"/><path d="M294.44822,362.61054l4.9744,-7.81313l5.20806,7.65936z" fill="#000000"/><path d="M306.15307,364.38013l4.9744,-7.81312l5.20806,7.65935z" fill="#000000"/><path d="M312.91968,361.35842l4.9744,-7.81312l5.20806,7.65936z" fill="#000000"/><path d="M289.08963,362.20487l4.9744,-7.81312l5.20806,7.65935z" fill="#000000"/><path d="M316.8409,363.24554l4.9744,-7.81313l5.20806,7.65936z" fill="#000000"/><path d="M323.1798,364.12301l4.9744,-7.81312l5.20806,7.65936z" fill="#000000"/><path d="M326.58514,364.07158l4.9744,-7.81312l5.20806,7.65935z" fill="#000000"/><path d="M299.79213,362.04325l4.9744,-7.81313l5.20806,7.65936z" fill="#000000"/></g><g><path d="M335.7333,357.3431l4.18117,-13.98377l4.60154,13.85114z" fill="#ff00ef"/><path d="M315.18595,358.52875l4.18117,-13.98375l4.60154,13.85112z" fill="#ff00ef"/><path d="M344.62425,362.46104l4.18119,-13.98377l4.60153,13.85114z" fill="#ff00ef"/><path d="M324.41722,358.38935l4.18117,-13.98375l4.60154,13.85112z" fill="#ff00ef"/><path d="M318.44549,362.24815l4.9744,-7.81312l5.20806,7.65936z" fill="#000000"/><path d="M330.15034,364.01774l4.9744,-7.81313l5.20806,7.65936z" fill="#000000"/><path d="M336.91694,360.99602l4.9744,-7.81312l5.20806,7.65935z" fill="#000000"/><path d="M313.08688,361.84248l4.97441,-7.81312l5.20806,7.65936z" fill="#000000"/><path d="M340.83816,362.88315l4.9744,-7.81313l5.20806,7.65936z" fill="#000000"/><path d="M347.17706,363.76061l4.9744,-7.81312l5.20806,7.65936z" fill="#000000"/><path d="M350.58241,363.70919l4.9744,-7.81312l5.20806,7.65936z" fill="#000000"/><path d="M323.78939,361.68085l4.9744,-7.81312l5.20806,7.65935z" fill="#000000"/></g></g><g stroke="#fbffea" stroke-width="0.5"><g><path d="M402.75584,358.33121l4.18118,-13.98377l4.60153,13.85114z" fill="#ff00ef"/><path d="M382.20852,359.51686l4.18118,-13.98375l4.60153,13.85112z" fill="#ff00ef"/><path d="M411.64681,363.44915l4.18119,-13.98377l4.60153,13.85114z" fill="#ff00ef"/><path d="M391.43979,359.37745l4.18117,-13.98374l4.60154,13.85111z" fill="#ff00ef"/><path d="M385.46805,363.23624l4.9744,-7.81312l5.20806,7.65936z" fill="#000000"/><path d="M397.1729,365.00585l4.9744,-7.81313l5.20806,7.65936z" fill="#000000"/><path d="M403.93954,361.98413l4.9744,-7.81312l5.20806,7.65935z" fill="#000000"/><path d="M380.10946,362.83058l4.9744,-7.81313l5.20806,7.65936z" fill="#000000"/><path d="M407.8607,363.87125l4.9744,-7.81313l5.20806,7.65936z" fill="#000000"/><path d="M414.19961,364.74872l4.9744,-7.81313l5.20806,7.65936z" fill="#000000"/><path d="M417.60495,364.6973l4.9744,-7.81313l5.20806,7.65936z" fill="#000000"/><path d="M390.81196,362.66896l4.9744,-7.81312l5.20806,7.65935z" fill="#000000"/></g><g><path d="M356.73088,357.02602l4.18118,-13.98377l4.60153,13.85114z" fill="#ff00ef"/><path d="M336.18355,358.21167l4.18118,-13.98375l4.60153,13.85111z" fill="#ff00ef"/><path d="M365.62186,362.14396l4.18119,-13.98377l4.60153,13.85114z" fill="#ff00ef"/><path d="M345.41481,358.07227l4.18117,-13.98375l4.60154,13.85112z" fill="#ff00ef"/><path d="M339.44309,361.93106l4.9744,-7.81313l5.20806,7.65936z" fill="#000000"/><path d="M351.14793,363.70066l4.9744,-7.81312l5.20806,7.65936z" fill="#000000"/><path d="M357.91454,360.67894l4.9744,-7.81313l5.20806,7.65936z" fill="#000000"/><path d="M334.08449,361.52539l4.9744,-7.81312l5.20806,7.65935z" fill="#000000"/><path d="M361.83576,362.56606l4.9744,-7.81312l5.20806,7.65935z" fill="#000000"/><path d="M368.17466,363.44353l4.9744,-7.81313l5.20806,7.65936z" fill="#000000"/><path d="M371.58,363.39211l4.9744,-7.81313l5.20806,7.65936z" fill="#000000"/><path d="M344.787,361.36377l4.9744,-7.81313l5.20806,7.65936z" fill="#000000"/></g><g><path d="M380.72817,356.66363l4.18117,-13.98377l4.60154,13.85114z" fill="#ff00ef"/><path d="M360.18082,357.84928l4.18117,-13.98374l4.60154,13.85112z" fill="#ff00ef"/><path d="M389.61912,361.78157l4.18118,-13.98377l4.60153,13.85114z" fill="#ff00ef"/><path d="M369.4121,357.70987l4.18117,-13.98374l4.60154,13.85111z" fill="#ff00ef"/><path d="M363.44036,361.56866l4.9744,-7.81312l5.20806,7.65936z" fill="#000000"/><path d="M375.1452,363.33827l4.9744,-7.81312l5.20806,7.65935z" fill="#000000"/><path d="M381.91182,360.31655l4.9744,-7.81312l5.20806,7.65936z" fill="#000000"/><path d="M358.08174,361.163l4.97441,-7.81313l5.20805,7.65936z" fill="#000000"/><path d="M385.83302,362.20367l4.9744,-7.81313l5.20806,7.65936z" fill="#000000"/><path d="M392.17192,363.08114l4.9744,-7.81313l5.20806,7.65936z" fill="#000000"/><path d="M395.57727,363.02972l4.9744,-7.81313l5.20806,7.65936z" fill="#000000"/><path d="M368.78426,361.00138l4.9744,-7.81312l5.20806,7.65935z" fill="#000000"/></g></g><g stroke="#fbffea" stroke-width="0.5"><g><path d="M467.77864,359.34949l4.18117,-13.98377l4.60154,13.85114z" fill="#ff00ef"/><path d="M447.23129,360.53514l4.18118,-13.98375l4.60154,13.85112z" fill="#ff00ef"/><path d="M476.6696,364.46743l4.18119,-13.98377l4.60153,13.85114z" fill="#ff00ef"/><path d="M456.46255,360.39574l4.18118,-13.98374l4.60154,13.85111z" fill="#ff00ef"/><path d="M450.49083,364.25454l4.9744,-7.81312l5.20805,7.65936z" fill="#000000"/><path d="M462.1957,366.02413l4.9744,-7.81313l5.20806,7.65936z" fill="#000000"/><path d="M468.96228,363.00241l4.9744,-7.81312l5.20805,7.65935z" fill="#000000"/><path d="M445.13223,363.84887l4.97441,-7.81313l5.20805,7.65936z" fill="#000000"/><path d="M472.8835,364.88954l4.9744,-7.81313l5.20806,7.65936z" fill="#000000"/><path d="M479.22241,365.76701l4.97441,-7.81312l5.20805,7.65935z" fill="#000000"/><path d="M482.62775,365.71558l4.9744,-7.81312l5.20806,7.65936z" fill="#000000"/><path d="M455.83474,363.68724l4.9744,-7.81312l5.20806,7.65935z" fill="#000000"/></g><g><path d="M421.75368,358.0443l4.18118,-13.98377l4.60154,13.85114z" fill="#ff00ef"/><path d="M401.20633,359.22996l4.18117,-13.98375l4.60153,13.85112z" fill="#ff00ef"/><path d="M430.64465,363.16225l4.18119,-13.98377l4.60153,13.85114z" fill="#ff00ef"/><path d="M410.43761,359.09055l4.18118,-13.98375l4.60154,13.85111z" fill="#ff00ef"/><path d="M404.46588,362.94935l4.9744,-7.81312l5.20806,7.65935z" fill="#000000"/><path d="M416.17073,364.71894l4.9744,-7.81312l5.20805,7.65935z" fill="#000000"/><path d="M422.93733,361.69723l4.9744,-7.81313l5.20805,7.65936z" fill="#000000"/><path d="M399.10728,362.54368l4.97441,-7.81312l5.20806,7.65935z" fill="#000000"/><path d="M426.85855,363.58435l4.9744,-7.81312l5.20806,7.65936z" fill="#000000"/><path d="M433.19746,364.46182l4.97441,-7.81313l5.20805,7.65936z" fill="#000000"/><path d="M436.6028,364.41039l4.9744,-7.81313l5.20806,7.65936z" fill="#000000"/><path d="M409.80979,362.38206l4.9744,-7.81312l5.20806,7.65936z" fill="#000000"/></g><g><path d="M445.75096,357.68191l4.18117,-13.98377l4.60153,13.85114z" fill="#ff00ef"/><path d="M425.20361,358.86756l4.18117,-13.98374l4.60154,13.85111z" fill="#ff00ef"/><path d="M454.6419,362.79985l4.18119,-13.98377l4.60153,13.85114z" fill="#ff00ef"/><path d="M434.43487,358.72816l4.18118,-13.98374l4.60154,13.85111z" fill="#ff00ef"/><path d="M428.46314,362.58696l4.97441,-7.81312l5.20805,7.65936z" fill="#000000"/><path d="M440.16799,364.35655l4.97441,-7.81313l5.20805,7.65936z" fill="#000000"/><path d="M446.93459,361.33483l4.97441,-7.81312l5.20805,7.65936z" fill="#000000"/><path d="M423.10454,362.18129l4.9744,-7.81313l5.20806,7.65936z" fill="#000000"/><path d="M450.85582,363.22196l4.9744,-7.81313l5.20806,7.65936z" fill="#000000"/><path d="M457.19472,364.09943l4.9744,-7.81313l5.20806,7.65936z" fill="#000000"/><path d="M460.60006,364.048l4.97441,-7.81313l5.20805,7.65936z" fill="#000000"/><path d="M433.80705,362.01966l4.9744,-7.81312l5.20806,7.65935z" fill="#000000"/></g></g><g stroke="#fbffea" stroke-width="0.5"><g><path d="M512.77349,358.67002l4.18118,-13.98377l4.60153,13.85114z" fill="#ff00ef"/><path d="M492.22617,359.85567l4.18117,-13.98374l4.60154,13.85111z" fill="#ff00ef"/><path d="M521.66447,363.78796l4.18119,-13.98377l4.60153,13.85114z" fill="#ff00ef"/><path d="M501.45744,359.71626l4.18118,-13.98374l4.60154,13.85112z" fill="#ff00ef"/><path d="M495.48571,363.57506l4.9744,-7.81313l5.20806,7.65936z" fill="#000000"/><path d="M507.19055,365.34466l4.9744,-7.81312l5.20806,7.65935z" fill="#000000"/><path d="M513.95719,362.32294l4.9744,-7.81312l5.20806,7.65936z" fill="#000000"/><path d="M490.12711,363.16939l4.97441,-7.81313l5.20805,7.65936z" fill="#000000"/><path d="M517.87836,364.21006l4.9744,-7.81313l5.20806,7.65936z" fill="#000000"/><path d="M524.21727,365.08753l4.97441,-7.81313l5.20805,7.65936z" fill="#000000"/><path d="M527.62261,365.03611l4.9744,-7.81313l5.20805,7.65936z" fill="#000000"/><path d="M500.82961,363.00777l4.9744,-7.81312l5.20806,7.65936z" fill="#000000"/></g><g><path d="M466.74854,357.36483l4.18117,-13.98377l4.60154,13.85114z" fill="#ff00ef"/><path d="M446.20121,358.55048l4.18118,-13.98375l4.60154,13.85112z" fill="#ff00ef"/><path d="M475.63951,362.48277l4.18119,-13.98377l4.60153,13.85114z" fill="#ff00ef"/><path d="M455.43246,358.41108l4.18118,-13.98375l4.60154,13.85112z" fill="#ff00ef"/><path d="M449.46074,362.26987l4.9744,-7.81312l5.20805,7.65935z" fill="#000000"/><path d="M461.16559,364.03947l4.9744,-7.81312l5.20805,7.65936z" fill="#000000"/><path d="M467.93219,361.01775l4.97441,-7.81312l5.20805,7.65936z" fill="#000000"/><path d="M444.10215,361.8642l4.9744,-7.81312l5.20806,7.65935z" fill="#000000"/><path d="M471.85342,362.90487l4.9744,-7.81312l5.20806,7.65935z" fill="#000000"/><path d="M478.19231,363.78234l4.9744,-7.81312l5.20806,7.65935z" fill="#000000"/><path d="M481.59766,363.73092l4.9744,-7.81312l5.20806,7.65935z" fill="#000000"/><path d="M454.80466,361.70258l4.9744,-7.81313l5.20806,7.65936z" fill="#000000"/></g><g><path d="M490.74582,357.00244l4.18118,-13.98377l4.60153,13.85114z" fill="#ff00ef"/><path d="M470.19848,358.18809l4.18117,-13.98374l4.60153,13.85111z" fill="#ff00ef"/><path d="M499.63677,362.12038l4.18119,-13.98377l4.60153,13.85114z" fill="#ff00ef"/><path d="M479.42975,358.04868l4.18118,-13.98374l4.60154,13.85111z" fill="#ff00ef"/><path d="M473.45801,361.90748l4.97441,-7.81312l5.20805,7.65936z" fill="#000000"/><path d="M485.16285,363.67708l4.97441,-7.81312l5.20805,7.65935z" fill="#000000"/><path d="M491.92948,360.65536l4.97441,-7.81312l5.20805,7.65936z" fill="#000000"/><path d="M468.0994,361.50181l4.9744,-7.81312l5.20806,7.65936z" fill="#000000"/><path d="M495.85068,362.54248l4.9744,-7.81313l5.20805,7.65936z" fill="#000000"/><path d="M502.18958,363.41995l4.9744,-7.81312l5.20806,7.65936z" fill="#000000"/><path d="M505.59492,363.36853l4.9744,-7.81312l5.20806,7.65936z" fill="#000000"/><path d="M478.80192,361.34019l4.9744,-7.81312l5.20806,7.65936z" fill="#000000"/></g></g><path d="M-53.02701,0.66667v-31.33333h586.05405v31.33333z" fill="none" stroke="#ffffff" stroke-width="0"/></g></g></svg>