<svg version="1.1" xmlns="http://www.w3.org/2000/svg" xmlns:xlink="http://www.w3.org/1999/xlink" width="124.14942" height="124.1494" viewBox="0,0,124.14942,124.1494"><defs><linearGradient x1="228.62614" y1="180.72397" x2="269.10009" y2="180.72397" gradientUnits="userSpaceOnUse" id="color-1"><stop offset="0" stop-color="#edff33"/><stop offset="1" stop-color="#ffba33"/></linearGradient><linearGradient x1="227.93235" y1="180.03013" x2="268.40628" y2="180.03013" gradientUnits="userSpaceOnUse" id="color-2"><stop offset="0" stop-color="#edff33"/><stop offset="1" stop-color="#ffba33"/></linearGradient><linearGradient x1="213.08226" y1="172.25" x2="266.41774" y2="172.25" gradientUnits="userSpaceOnUse" id="color-3"><stop offset="0" stop-color="#edff33"/><stop offset="1" stop-color="#ffba33"/></linearGradient></defs><g transform="translate(-180.30028,-120.3003)"><g data-paper-data="{&quot;isPaintingLayer&quot;:true}" fill-rule="nonzero" stroke-linejoin="miter" stroke-miterlimit="10" stroke-dasharray="" stroke-dashoffset="0" style="mix-blend-mode: normal"><g fill-opacity="0.34032" fill="#000000" stroke="none" stroke-width="0" stroke-linecap="butt"><path d="M200.09009,234.90994v-94.8198h94.8198v94.8198z"/><path d="M294.5503,167.84224h9.8994v39.31552h-9.8994z"/><path d="M190.5503,167.84224h9.8994v39.31552h-9.8994z"/><path d="M267.15776,234.5503v9.8994h-39.31552v-9.8994z"/><path d="M267.15776,130.5503v9.8994h-39.31552v-9.8994z"/></g><g stroke="#ffffff" stroke-width="3" stroke-linecap="butt"><path d="M192.59011,227.40994v-94.8198h94.8198v94.8198z" fill="#51eaff"/><path d="M220.34229,236.9497v-113.8994h39.31552v113.8994z" fill="#52ff56"/><path d="M183.05032,160.34224h113.8994v39.31552h-113.8994z" fill="#52ff56"/><path d="M223.80031,225.6754v-91.35079h32.39951v91.35079z" fill="#52ff56"/><path d="M194.32462,164.23386h91.35078v31.53225h-91.35078z" fill="#52ff56"/><path d="M186.69282,180.48271h106.61445v16.03279h-106.61445z" fill="#43d245"/><path d="M223.80031,233.30723v-51.45708h32.39951v51.45709z" fill="#43d245"/></g><path d="M192.5901,227.40989v-94.8198h94.8198v94.8198z" fill="#51eaff" stroke="#ffffff" stroke-width="5.5" stroke-linecap="butt"/><path d="M196.11692,156.75756v-4.85662h87.76615v4.85662z" fill="#29bcd0" stroke="#ffffff" stroke-width="3" stroke-linecap="butt"/><path d="M196.11689,224.40338v-4.85663h87.76614v4.85663z" fill="#29bcd0" stroke="#ffffff" stroke-width="3" stroke-linecap="butt"/><path d="M220.34225,236.9497v-113.8994h39.31552v113.8994z" fill="#52ff56" stroke="#ffffff" stroke-width="5.5" stroke-linecap="butt"/><path d="M183.05028,160.34224h113.8994v39.31552h-113.8994z" fill="#52ff56" stroke="#ffffff" stroke-width="5.5" stroke-linecap="butt"/><path d="M223.80027,225.6754v-91.35079h32.39952v91.35079z" fill="#52ff56" stroke="#ffffff" stroke-width="3" stroke-linecap="butt"/><path d="M194.32459,164.23386h91.35078v31.53225h-91.35078z" fill="#52ff56" stroke="#ffffff" stroke-width="3" stroke-linecap="butt"/><path d="M186.69278,180.48271h106.61446v16.03279h-106.61446z" fill="#43d245" stroke="#ffffff" stroke-width="3" stroke-linecap="butt"/><path d="M223.80031,233.3072v-51.45708h32.39951v51.45709z" fill="#43d245" stroke="#ffffff" stroke-width="3" stroke-linecap="butt"/><path d="M266.27099,182.8135c-7.82961,5.78284 -29.51659,21.80052 -34.21629,25.27164c-1.75254,1.29439 -3.42856,0.94867 -3.42856,-1.69044c0,-11.91214 0,-45.32882 0,-51.68836c0,-2.04535 1.52583,-2.74885 3.15566,-1.54509c4.36993,3.22756 24.61138,18.17759 33.31846,24.6085c2.46042,1.81722 2.93846,3.73812 1.17072,5.04374z" fill="url(#color-1)" stroke="#ffffff" stroke-width="3" stroke-linecap="butt"/><path d="M265.57719,182.11966c-7.8296,5.78286 -29.51661,21.80053 -34.21631,25.27163c-1.75255,1.29439 -3.42854,0.94867 -3.42854,-1.69042c0,-11.91215 0,-45.32882 0,-51.68836c0,-2.04536 1.52582,-2.74885 3.15567,-1.54507c4.36992,3.22757 24.61139,18.17758 33.31846,24.60851c2.46043,1.81725 2.93846,3.73812 1.17072,5.04375z" fill="url(#color-2)" stroke="#ffffff" stroke-width="3" stroke-linecap="butt"/><g stroke="#ffffff" stroke-width="3" stroke-linecap="butt"><path d="M192.59011,227.40994v-94.8198h94.8198v94.8198z" fill="#51eaff"/><path d="M220.34229,236.9497v-113.8994h39.31552v113.8994z" fill="#52ff56"/><path d="M183.05032,160.34224h113.8994v39.31552h-113.8994z" fill="#52ff56"/><path d="M223.80031,225.6754v-91.35079h32.39951v91.35079z" fill="#52ff56"/><path d="M194.32462,164.23386h91.35078v31.53225h-91.35078z" fill="#52ff56"/><path d="M186.69282,180.48271h106.61445v16.03279h-106.61445z" fill="#43d245"/><path d="M223.80031,233.30723v-51.45708h32.39951v51.45709z" fill="#43d245"/></g><path d="M192.59008,227.40994v-94.8198h94.8198v94.8198z" fill="#51eaff" stroke="#000000" stroke-width="3.5" stroke-linecap="butt"/><path d="M194.34108,225.90263v-5.01385h91.31775v5.01385z" fill="#29bcd0" stroke="none" stroke-width="3" stroke-linecap="butt"/><path d="M194.34108,158.77726v-5.01386h91.31775v5.01386z" fill="#29bcd0" stroke="none" stroke-width="3" stroke-linecap="butt"/><path d="M220.34225,236.9497v-113.8994h39.31552v113.8994z" fill="#52ff56" stroke="#000000" stroke-width="3.5" stroke-linecap="butt"/><path d="M183.05028,160.34224h113.8994v39.31552h-113.8994z" fill="#52ff56" stroke="#000000" stroke-width="3.5" stroke-linecap="butt"/><path d="M222.02447,203.65543v-47.31087h35.95112v47.31087z" fill="#52ff56" stroke="#000000" stroke-width="0" stroke-linecap="butt"/><path d="M213.85842,162.45805h52.28311v33.30806h-52.28311z" fill="#52ff56" stroke="#000000" stroke-width="0" stroke-linecap="butt"/><path d="M184.56182,180.48271h110.87638v17.45343h-110.87638z" fill="#43d245" stroke="#000000" stroke-width="0" stroke-linecap="butt"/><path d="M222.0245,235.79332v-55.00869h35.95112v55.00869z" fill="#43d245" stroke="#000000" stroke-width="0" stroke-linecap="butt"/><g fill="none" stroke-linecap="round"><path d="M250.6289,164.78464c0,0 0.54451,-2.50622 0.0286,-4.53025c-0.36939,-1.44922 -1.65775,-2.5574 -2.34841,-2.75406c-0.98411,-0.28021 -3.18314,-1.08021 -4.61937,-0.84929c-1.8251,0.29344 -2.89194,1.77811 -3.84344,2.93483c-2.95968,3.59804 0,11.93791 0,11.93791l26.57147,16.36649h-53.33549l24.646,-14.44102" stroke="#000000" stroke-width="12"/><path d="M251.12889,165.28464c0,0 0.54451,-2.50622 0.0286,-4.53025c-0.36939,-1.44922 -1.65775,-2.5574 -2.34841,-2.75406c-0.98411,-0.28021 -3.18314,-1.08021 -4.61937,-0.84929c-1.8251,0.29344 -2.89194,1.77811 -3.84344,2.93483c-2.95968,3.59804 0,11.93791 0,11.93791l26.57147,16.36649h-53.33549l24.646,-14.44102" stroke="#000000" stroke-width="12"/><path d="M250.6289,164.78464c0,0 0.54451,-2.50622 0.0286,-4.53025c-0.36939,-1.44922 -1.65775,-2.5574 -2.34841,-2.75406c-0.98411,-0.28021 -3.18314,-1.08021 -4.61937,-0.84929c-1.8251,0.29344 -2.89194,1.77811 -3.84344,2.93483c-2.95968,3.59804 0,11.93791 0,11.93791l26.57147,16.36649h-53.33549l24.646,-14.44102" stroke="url(#color-3)" stroke-width="9"/></g></g></g></svg>