<svg version="1.1" xmlns="http://www.w3.org/2000/svg" xmlns:xlink="http://www.w3.org/1999/xlink" width="586.05405" height="392.67763" viewBox="0,0,586.05405,392.67763"><g transform="translate(53.02702,30.66667)"><g data-paper-data="{&quot;isPaintingLayer&quot;:true}" fill-rule="nonzero" stroke-linecap="butt" stroke-linejoin="miter" stroke-miterlimit="10" stroke-dasharray="" stroke-dashoffset="0" style="mix-blend-mode: normal"><g stroke="#fbffea" stroke-width="0.5"><g><path d="M81.69929,355.17138l4.39185,-13.91904l4.39186,13.91904z" fill="#ff00ef"/><path d="M61.13639,356.04664l4.39185,-13.91902l4.39186,13.91902z" fill="#ff00ef"/><path d="M90.51196,360.42299l4.39186,-13.91904l4.39186,13.91904z" fill="#ff00ef"/><path d="M70.36871,356.04664l4.39185,-13.91902l4.39187,13.91902z" fill="#ff00ef"/><path d="M64.3394,359.81483l5.09181,-7.73712l5.09181,7.73712z" fill="#000000"/><path d="M76.0162,361.76096l5.09181,-7.73712l5.09181,7.73712z" fill="#000000"/><path d="M82.82765,358.84176l5.09181,-7.73712l5.09181,7.73712z" fill="#000000"/><path d="M58.98753,359.32829l5.09181,-7.73712l5.09181,7.73712z" fill="#000000"/><path d="M86.71992,360.78788l5.09181,-7.73712l5.09181,7.73712z" fill="#000000"/><path d="M93.04486,361.76096l5.09181,-7.73712l5.09181,7.73712z" fill="#000000"/><path d="M96.45058,361.76096l5.09181,-7.73712l5.09181,7.73712z" fill="#000000"/><path d="M69.69126,359.32829l5.09181,-7.73712l5.09181,7.73712z" fill="#000000"/></g><g><path d="M35.69929,353.17138l4.39185,-13.91904l4.39186,13.91904z" fill="#ff00ef"/><path d="M15.13638,354.04664l4.39185,-13.91902l4.39186,13.91902z" fill="#ff00ef"/><path d="M44.51197,358.42299l4.39186,-13.91904l4.39186,13.91904z" fill="#ff00ef"/><path d="M24.36871,354.04664l4.39185,-13.91902l4.39187,13.91902z" fill="#ff00ef"/><path d="M18.3394,357.81483l5.09181,-7.73712l5.09181,7.73712z" fill="#000000"/><path d="M30.01619,359.76096l5.09181,-7.73712l5.09181,7.73712z" fill="#000000"/><path d="M36.82765,356.84176l5.09181,-7.73712l5.09181,7.73712z" fill="#000000"/><path d="M12.98754,357.32829l5.09181,-7.73712l5.09181,7.73712z" fill="#000000"/><path d="M40.71993,358.78788l5.09181,-7.73712l5.09181,7.73712z" fill="#000000"/><path d="M47.04486,359.76096l5.09181,-7.73712l5.09181,7.73712z" fill="#000000"/><path d="M50.45059,359.76096l5.09181,-7.73712l5.09181,7.73712z" fill="#000000"/><path d="M23.69126,357.32829l5.09181,-7.73712l5.09181,7.73712z" fill="#000000"/></g><g><path d="M59.69931,353.17138l4.39185,-13.91904l4.39186,13.91904z" fill="#ff00ef"/><path d="M39.13639,354.04664l4.39185,-13.91902l4.39186,13.91902z" fill="#ff00ef"/><path d="M68.51196,358.42299l4.39186,-13.91904l4.39186,13.91904z" fill="#ff00ef"/><path d="M48.36871,354.04664l4.39185,-13.91902l4.39187,13.91902z" fill="#ff00ef"/><path d="M42.3394,357.81483l5.09181,-7.73712l5.09181,7.73712z" fill="#000000"/><path d="M54.0162,359.76096l5.09181,-7.73712l5.09181,7.73712z" fill="#000000"/><path d="M60.82765,356.84176l5.09181,-7.73712l5.09181,7.73712z" fill="#000000"/><path d="M36.98753,357.32829l5.09181,-7.73712l5.09181,7.73712z" fill="#000000"/><path d="M64.71993,358.78788l5.09181,-7.73712l5.09181,7.73712z" fill="#000000"/><path d="M71.04486,359.76096l5.09181,-7.73712l5.09181,7.73712z" fill="#000000"/><path d="M74.45059,359.76096l5.09181,-7.73712l5.09181,7.73712z" fill="#000000"/><path d="M47.69126,357.32829l5.09181,-7.73712l5.09181,7.73712z" fill="#000000"/></g></g><g stroke="#fbffea" stroke-width="0.5"><g><path d="M126.69928,355.17139l4.39185,-13.91904l4.39186,13.91904z" fill="#ff00ef"/><path d="M106.1364,356.04665l4.39185,-13.91902l4.39186,13.91902z" fill="#ff00ef"/><path d="M135.51196,360.423l4.39186,-13.91904l4.39186,13.91904z" fill="#ff00ef"/><path d="M115.36872,356.04665l4.39185,-13.91902l4.39187,13.91902z" fill="#ff00ef"/><path d="M109.3394,359.81483l5.09181,-7.73712l5.09181,7.73712z" fill="#000000"/><path d="M121.01619,361.76097l5.09181,-7.73712l5.09181,7.73712z" fill="#000000"/><path d="M127.8277,358.84177l5.09181,-7.73712l5.09181,7.73712z" fill="#000000"/><path d="M103.98754,359.3283l5.09181,-7.73712l5.09181,7.73712z" fill="#000000"/><path d="M131.71992,360.78788l5.09181,-7.73712l5.09181,7.73712z" fill="#000000"/><path d="M138.04485,361.76097l5.09181,-7.73712l5.09181,7.73712z" fill="#000000"/><path d="M141.45058,361.76097l5.09181,-7.73712l5.09181,7.73712z" fill="#000000"/><path d="M114.69126,359.3283l5.09181,-7.73712l5.09181,7.73712z" fill="#000000"/></g><g><path d="M80.69928,353.17139l4.39185,-13.91904l4.39186,13.91904z" fill="#ff00ef"/><path d="M60.13639,354.04665l4.39185,-13.91902l4.39186,13.91902z" fill="#ff00ef"/><path d="M89.51196,358.423l4.39186,-13.91904l4.39186,13.91904z" fill="#ff00ef"/><path d="M69.3687,354.04665l4.39185,-13.91902l4.39187,13.91902z" fill="#ff00ef"/><path d="M63.3394,357.81483l5.09181,-7.73712l5.09181,7.73712z" fill="#000000"/><path d="M75.01619,359.76097l5.09181,-7.73712l5.09181,7.73712z" fill="#000000"/><path d="M81.82765,356.84177l5.09181,-7.73712l5.09181,7.73712z" fill="#000000"/><path d="M57.98753,357.3283l5.09181,-7.73712l5.09181,7.73712z" fill="#000000"/><path d="M85.71992,358.78788l5.09181,-7.73712l5.09181,7.73712z" fill="#000000"/><path d="M92.04485,359.76097l5.09181,-7.73712l5.09181,7.73712z" fill="#000000"/><path d="M95.45058,359.76097l5.09181,-7.73712l5.09181,7.73712z" fill="#000000"/><path d="M68.69126,357.3283l5.09181,-7.73712l5.09181,7.73712z" fill="#000000"/></g><g><path d="M104.6993,353.17139l4.39185,-13.91904l4.39186,13.91904z" fill="#ff00ef"/><path d="M84.1364,354.04665l4.39185,-13.91902l4.39186,13.91902z" fill="#ff00ef"/><path d="M113.51196,358.423l4.39186,-13.91904l4.39186,13.91904z" fill="#ff00ef"/><path d="M93.36872,354.04665l4.39185,-13.91902l4.39187,13.91902z" fill="#ff00ef"/><path d="M87.3394,357.81483l5.09181,-7.73712l5.09181,7.73712z" fill="#000000"/><path d="M99.01619,359.76097l5.09181,-7.73712l5.09181,7.73712z" fill="#000000"/><path d="M105.82766,356.84177l5.09181,-7.73712l5.09181,7.73712z" fill="#000000"/><path d="M81.98753,357.3283l5.09181,-7.73712l5.09181,7.73712z" fill="#000000"/><path d="M109.71992,358.78788l5.09181,-7.73712l5.09181,7.73712z" fill="#000000"/><path d="M116.04485,359.76097l5.09181,-7.73712l5.09181,7.73712z" fill="#000000"/><path d="M119.45058,359.76097l5.09181,-7.73712l5.09181,7.73712z" fill="#000000"/><path d="M92.69126,357.3283l5.09181,-7.73712l5.09181,7.73712z" fill="#000000"/></g></g><path d="M357.29171,323.95833h35.75v35.75h-35.75z" fill="#000000" stroke="#ffffff" stroke-width="2"/><path d="M250.29169,323.95833h35.75v35.75h-35.75z" fill="#000000" stroke="#ffffff" stroke-width="2"/><path d="M392.9584,323.95833h35.75v35.75h-35.75z" fill="#000000" stroke="#ffffff" stroke-width="2"/><path d="M285.95838,323.95833h35.75v35.75h-35.75z" fill="#000000" stroke="#ffffff" stroke-width="2"/><path d="M428.9584,324.29168h35.75v35.75h-35.75z" fill="#000000" stroke="#ffffff" stroke-width="2"/><path d="M321.95838,324.29168h35.75v35.75h-35.75z" fill="#000000" stroke="#ffffff" stroke-width="2"/><path d="M250.29169,323.95833h35.75v35.75h-35.75z" fill="#000000" stroke="#ffffff" stroke-width="2"/><path d="M143.29169,323.95833h35.75v35.75h-35.75z" fill="#000000" stroke="#ffffff" stroke-width="2"/><path d="M108.29169,323.95833h35.75v35.75h-35.75z" fill="#000000" stroke="#ffffff" stroke-width="2"/><path d="M0.29165,323.95833h35.75v35.75h-35.75z" fill="#000000" stroke="#ffffff" stroke-width="2"/><path d="M285.95838,323.95833h35.75v35.75h-35.75z" fill="#000000" stroke="#ffffff" stroke-width="2"/><path d="M178.9584,323.95833h35.75v35.75h-35.75z" fill="#000000" stroke="#ffffff" stroke-width="2"/><path d="M321.95838,324.29168h35.75v35.75h-35.75z" fill="#000000" stroke="#ffffff" stroke-width="2"/><path d="M214.9584,324.29168h35.75v35.75h-35.75z" fill="#000000" stroke="#ffffff" stroke-width="2"/><path d="M270.47024,324.18809l16.17649,-24.58051l16.17649,24.58051z" fill="#000000" stroke="#fbffea" stroke-width="2"/><path d="M-53.02701,0.66667v-31.33333h586.05405v31.33333z" fill="none" stroke="#ffffff" stroke-width="0"/></g></g></svg>