<svg version="1.1" xmlns="http://www.w3.org/2000/svg" xmlns:xlink="http://www.w3.org/1999/xlink" width="586.05405" height="390.88972" viewBox="0,0,586.05405,390.88972"><g transform="translate(53.02702,30.66667)"><g data-paper-data="{&quot;isPaintingLayer&quot;:true}" fill-rule="nonzero" stroke-linecap="butt" stroke-linejoin="miter" stroke-miterlimit="10" stroke-dasharray="" stroke-dashoffset="0" style="mix-blend-mode: normal"><g stroke-width="0"><path d="M12.92652,118.25l-2.92649,25.58051l-2.92649,-25.58051z" fill="#000000" stroke="#fbffea"/><path d="M10.00003,138.29026c1.79493,0 3.25,1.45507 3.25,3.25c0,1.79493 -1.45507,3.25 -3.25,3.25c-1.79493,0 -3.25,-1.45507 -3.25,-3.25c0,-1.79493 1.45507,-3.25 3.25,-3.25z" fill="#ff00ef" stroke="none"/></g><path d="M-7.20835,97.1337h35.75v18.75h-35.75z" fill="#000000" stroke="#ffffff" stroke-width="2"/><path d="M378.35322,323.13971h35.75v35.75h-35.75z" fill="#000000" stroke="#ffffff" stroke-width="2"/><path d="M378.35322,254.13971h35.75v35.75h-35.75z" fill="#000000" stroke="#ffffff" stroke-width="2"/><path d="M378.35322,185.13971h35.75v35.75h-35.75z" fill="#000000" stroke="#ffffff" stroke-width="2"/><path d="M378.35322,288.13971h35.75v35.75h-35.75z" fill="#000000" stroke="#ffffff" stroke-width="2"/><path d="M378.35322,219.13971h35.75v35.75h-35.75z" fill="#000000" stroke="#ffffff" stroke-width="2"/><path d="M378.35322,150.13971h35.75v35.75h-35.75z" fill="#000000" stroke="#ffffff" stroke-width="2"/><path d="M271.35321,323.13971h35.75v35.75h-35.75z" fill="#000000" stroke="#ffffff" stroke-width="2"/><path d="M271.35321,254.13971h35.75v35.75h-35.75z" fill="#000000" stroke="#ffffff" stroke-width="2"/><path d="M271.35321,254.13971h35.75v35.75h-35.75z" fill="#000000" stroke="#ffffff" stroke-width="2"/><path d="M271.35321,185.13971h35.75v35.75h-35.75z" fill="#000000" stroke="#ffffff" stroke-width="2"/><path d="M271.35321,288.13971h35.75v35.75h-35.75z" fill="#000000" stroke="#ffffff" stroke-width="2"/><path d="M271.35321,219.13971h35.75v35.75h-35.75z" fill="#000000" stroke="#ffffff" stroke-width="2"/><path d="M271.35321,219.13971h35.75v35.75h-35.75z" fill="#000000" stroke="#ffffff" stroke-width="2"/><path d="M271.35321,150.13971h35.75v35.75h-35.75z" fill="#000000" stroke="#ffffff" stroke-width="2"/><path d="M414.01991,323.13971h35.75v35.75h-35.75z" fill="#000000" stroke="#ffffff" stroke-width="2"/><path d="M414.01991,254.13971h35.75v35.75h-35.75z" fill="#000000" stroke="#ffffff" stroke-width="2"/><path d="M414.01991,185.13971h35.75v35.75h-35.75z" fill="#000000" stroke="#ffffff" stroke-width="2"/><path d="M414.01991,288.13971h35.75v35.75h-35.75z" fill="#000000" stroke="#ffffff" stroke-width="2"/><path d="M414.01991,219.13971h35.75v35.75h-35.75z" fill="#000000" stroke="#ffffff" stroke-width="2"/><path d="M414.01991,150.13971h35.75v35.75h-35.75z" fill="#000000" stroke="#ffffff" stroke-width="2"/><path d="M307.0199,323.13971h35.75v35.75h-35.75z" fill="#000000" stroke="#ffffff" stroke-width="2"/><path d="M307.0199,254.13971h35.75v35.75h-35.75z" fill="#000000" stroke="#ffffff" stroke-width="2"/><path d="M307.0199,254.13971h35.75v35.75h-35.75z" fill="#000000" stroke="#ffffff" stroke-width="2"/><path d="M307.0199,185.13971h35.75v35.75h-35.75z" fill="#000000" stroke="#ffffff" stroke-width="2"/><path d="M307.0199,288.13971h35.75v35.75h-35.75z" fill="#000000" stroke="#ffffff" stroke-width="2"/><path d="M307.0199,219.13971h35.75v35.75h-35.75z" fill="#000000" stroke="#ffffff" stroke-width="2"/><path d="M307.0199,219.13971h35.75v35.75h-35.75z" fill="#000000" stroke="#ffffff" stroke-width="2"/><path d="M307.0199,150.13971h35.75v35.75h-35.75z" fill="#000000" stroke="#ffffff" stroke-width="2"/><path d="M450.01991,323.47306h35.75v35.75h-35.75z" fill="#000000" stroke="#ffffff" stroke-width="2"/><path d="M450.01991,254.47306h35.75v35.75h-35.75z" fill="#000000" stroke="#ffffff" stroke-width="2"/><path d="M450.01991,185.47306h35.75v35.75h-35.75z" fill="#000000" stroke="#ffffff" stroke-width="2"/><path d="M450.01991,288.47306h35.75v35.75h-35.75z" fill="#000000" stroke="#ffffff" stroke-width="2"/><path d="M450.01991,219.47306h35.75v35.75h-35.75z" fill="#000000" stroke="#ffffff" stroke-width="2"/><path d="M450.01991,150.47305h35.75v35.75h-35.75z" fill="#000000" stroke="#ffffff" stroke-width="2"/><path d="M343.0199,323.47306h35.75v35.75h-35.75z" fill="#000000" stroke="#ffffff" stroke-width="2"/><path d="M343.0199,254.47306h35.75v35.75h-35.75z" fill="#000000" stroke="#ffffff" stroke-width="2"/><path d="M343.0199,254.47306h35.75v35.75h-35.75z" fill="#000000" stroke="#ffffff" stroke-width="2"/><path d="M343.0199,185.47306h35.75v35.75h-35.75z" fill="#000000" stroke="#ffffff" stroke-width="2"/><path d="M343.0199,288.47306h35.75v35.75h-35.75z" fill="#000000" stroke="#ffffff" stroke-width="2"/><path d="M343.0199,219.47306h35.75v35.75h-35.75z" fill="#000000" stroke="#ffffff" stroke-width="2"/><path d="M343.0199,150.47305h35.75v35.75h-35.75z" fill="#000000" stroke="#ffffff" stroke-width="2"/><path d="M271.35321,323.13971h35.75v35.75h-35.75z" fill="#000000" stroke="#ffffff" stroke-width="2"/><path d="M271.35321,254.13971h35.75v35.75h-35.75z" fill="#000000" stroke="#ffffff" stroke-width="2"/><path d="M271.35321,185.13971h35.75v35.75h-35.75z" fill="#000000" stroke="#ffffff" stroke-width="2"/><path d="M271.35321,288.13971h35.75v35.75h-35.75z" fill="#000000" stroke="#ffffff" stroke-width="2"/><path d="M271.35321,219.13971h35.75v35.75h-35.75z" fill="#000000" stroke="#ffffff" stroke-width="2"/><path d="M271.35321,150.13971h35.75v35.75h-35.75z" fill="#000000" stroke="#ffffff" stroke-width="2"/><path d="M164.35321,323.13971h35.75v35.75h-35.75z" fill="#000000" stroke="#ffffff" stroke-width="2"/><path d="M164.35321,254.13971h35.75v35.75h-35.75z" fill="#000000" stroke="#ffffff" stroke-width="2"/><path d="M164.35321,185.13971h35.75v35.75h-35.75z" fill="#000000" stroke="#ffffff" stroke-width="2"/><path d="M164.35321,288.13971h35.75v35.75h-35.75z" fill="#000000" stroke="#ffffff" stroke-width="2"/><path d="M164.35321,219.13971h35.75v35.75h-35.75z" fill="#000000" stroke="#ffffff" stroke-width="2"/><path d="M164.35321,150.13971h35.75v35.75h-35.75z" fill="#000000" stroke="#ffffff" stroke-width="2"/><path d="M93.35321,150.13971h35.75v35.75h-35.75z" fill="#000000" stroke="#ffffff" stroke-width="2"/><path d="M307.0199,323.13971h35.75v35.75h-35.75z" fill="#000000" stroke="#ffffff" stroke-width="2"/><path d="M307.0199,254.13971h35.75v35.75h-35.75z" fill="#000000" stroke="#ffffff" stroke-width="2"/><path d="M307.0199,185.13971h35.75v35.75h-35.75z" fill="#000000" stroke="#ffffff" stroke-width="2"/><path d="M307.0199,288.13971h35.75v35.75h-35.75z" fill="#000000" stroke="#ffffff" stroke-width="2"/><path d="M307.0199,219.13971h35.75v35.75h-35.75z" fill="#000000" stroke="#ffffff" stroke-width="2"/><path d="M307.0199,150.13971h35.75v35.75h-35.75z" fill="#000000" stroke="#ffffff" stroke-width="2"/><path d="M200.01991,323.13971h35.75v35.75h-35.75z" fill="#000000" stroke="#ffffff" stroke-width="2"/><path d="M200.01991,254.13971h35.75v35.75h-35.75z" fill="#000000" stroke="#ffffff" stroke-width="2"/><path d="M200.01991,185.13971h35.75v35.75h-35.75z" fill="#000000" stroke="#ffffff" stroke-width="2"/><path d="M200.01991,288.13971h35.75v35.75h-35.75z" fill="#000000" stroke="#ffffff" stroke-width="2"/><path d="M200.01991,219.13971h35.75v35.75h-35.75z" fill="#000000" stroke="#ffffff" stroke-width="2"/><path d="M200.01991,150.13971h35.75v35.75h-35.75z" fill="#000000" stroke="#ffffff" stroke-width="2"/><path d="M129.01991,150.13971h35.75v35.75h-35.75z" fill="#000000" stroke="#ffffff" stroke-width="2"/><path d="M343.0199,323.47306h35.75v35.75h-35.75z" fill="#000000" stroke="#ffffff" stroke-width="2"/><path d="M343.0199,254.47306h35.75v35.75h-35.75z" fill="#000000" stroke="#ffffff" stroke-width="2"/><path d="M343.0199,185.47306h35.75v35.75h-35.75z" fill="#000000" stroke="#ffffff" stroke-width="2"/><path d="M236.01991,323.47306h35.75v35.75h-35.75z" fill="#000000" stroke="#ffffff" stroke-width="2"/><path d="M236.01991,254.47306h35.75v35.75h-35.75z" fill="#000000" stroke="#ffffff" stroke-width="2"/><path d="M236.01991,185.47306h35.75v35.75h-35.75z" fill="#000000" stroke="#ffffff" stroke-width="2"/><path d="M236.01991,288.47306h35.75v35.75h-35.75z" fill="#000000" stroke="#ffffff" stroke-width="2"/><path d="M236.01991,219.47306h35.75v35.75h-35.75z" fill="#000000" stroke="#ffffff" stroke-width="2"/><path d="M236.01991,150.47305h35.75v35.75h-35.75z" fill="#000000" stroke="#ffffff" stroke-width="2"/><path d="M306.79165,86.1337h35.75v18.75h-35.75z" fill="#000000" stroke="#ffffff" stroke-width="2"/><path d="M339.79165,86.1337h35.75v18.75h-35.75z" fill="#000000" stroke="#ffffff" stroke-width="2"/><path d="M310.47024,150.18809l16.17649,-24.58051l16.17649,24.58051z" fill="#000000" stroke="#fbffea" stroke-width="2"/><path d="M278.00015,150.18809l16.17649,-24.58051l16.17649,24.58051z" fill="#000000" stroke="#fbffea" stroke-width="2"/><path d="M376.47024,150.18809l16.17649,-24.58051l16.17649,24.58051z" fill="#000000" stroke="#fbffea" stroke-width="2"/><path d="M344.00015,150.18809l16.17649,-24.58051l16.17649,24.58051z" fill="#000000" stroke="#fbffea" stroke-width="2"/><path d="M-53.02701,0.66667v-31.33333h586.05405v31.33333z" fill="none" stroke="#ffffff" stroke-width="0"/></g></g></svg>