<svg version="1.1" xmlns="http://www.w3.org/2000/svg" xmlns:xlink="http://www.w3.org/1999/xlink" width="591.29961" height="398.25626" viewBox="0,0,591.29961,398.25626"><g transform="translate(53.027,30.66665)"><g data-paper-data="{&quot;isPaintingLayer&quot;:true}" fill-rule="nonzero" stroke-linecap="butt" stroke-linejoin="miter" stroke-miterlimit="10" stroke-dasharray="" stroke-dashoffset="0" style="mix-blend-mode: normal"><g stroke="#fbffea" stroke-width="0.5"><g><path d="M21.72847,357.70219l4.18118,-13.98377l4.60153,13.85114z" fill="#ff00ef"/><path d="M1.18111,358.88784l4.18118,-13.98375l4.60153,13.85112z" fill="#ff00ef"/><path d="M30.61942,362.82012l4.18119,-13.98377l4.60153,13.85114z" fill="#ff00ef"/><path d="M10.41237,358.74844l4.18118,-13.98375l4.60154,13.85112z" fill="#ff00ef"/><path d="M4.44065,362.60724l4.9744,-7.81312l5.20806,7.65935z" fill="#000000"/><path d="M16.14551,364.37683l4.9744,-7.81312l5.20806,7.65935z" fill="#000000"/><path d="M22.9121,361.35511l4.9744,-7.81312l5.20806,7.65935z" fill="#000000"/><path d="M-0.91795,362.20156l4.9744,-7.81312l5.20806,7.65935z" fill="#000000"/><path d="M26.83333,363.24224l4.9744,-7.81312l5.20806,7.65935z" fill="#000000"/><path d="M33.17222,364.11971l4.9744,-7.81312l5.20806,7.65935z" fill="#000000"/><path d="M36.57755,364.06828l4.9744,-7.81312l5.20806,7.65935z" fill="#000000"/><path d="M9.78455,362.03994l4.9744,-7.81312l5.20806,7.65935z" fill="#000000"/></g><g><path d="M-24.2965,356.397l4.18118,-13.98377l4.60153,13.85114z" fill="#ff00ef"/><path d="M-44.84385,357.58266l4.18118,-13.98375l4.60153,13.85112z" fill="#ff00ef"/><path d="M-15.40553,361.51495l4.18119,-13.98377l4.60153,13.85114z" fill="#ff00ef"/><path d="M-35.61257,357.44325l4.18118,-13.98375l4.60154,13.85112z" fill="#ff00ef"/><path d="M-41.5843,361.30205l4.9744,-7.81312l5.20806,7.65935z" fill="#000000"/><path d="M-29.87945,363.07164l4.9744,-7.81312l5.20806,7.65935z" fill="#000000"/><path d="M-23.11285,360.04993l4.9744,-7.81312l5.20806,7.65935z" fill="#000000"/><path d="M-46.94288,360.89638l4.9744,-7.81312l5.20806,7.65935z" fill="#000000"/><path d="M-19.19162,361.93705l4.9744,-7.81312l5.20806,7.65935z" fill="#000000"/><path d="M-12.85272,362.81452l4.9744,-7.81312l5.20806,7.65935z" fill="#000000"/><path d="M-9.44739,362.76309l4.9744,-7.81312l5.20806,7.65935z" fill="#000000"/><path d="M-36.24039,360.73476l4.9744,-7.81312l5.20806,7.65935z" fill="#000000"/></g><g><path d="M-0.29923,356.03461l4.18118,-13.98377l4.60153,13.85114z" fill="#ff00ef"/><path d="M-20.84658,357.22026l4.18118,-13.98375l4.60153,13.85112z" fill="#ff00ef"/><path d="M8.59173,361.15255l4.18119,-13.98377l4.60153,13.85114z" fill="#ff00ef"/><path d="M-11.61531,357.08086l4.18118,-13.98375l4.60154,13.85112z" fill="#ff00ef"/><path d="M-17.58703,360.93966l4.9744,-7.81312l5.20806,7.65935z" fill="#000000"/><path d="M-5.88219,362.70925l4.9744,-7.81312l5.20806,7.65935z" fill="#000000"/><path d="M0.88442,359.68753l4.9744,-7.81312l5.20806,7.65935z" fill="#000000"/><path d="M-22.94564,360.53399l4.9744,-7.81312l5.20806,7.65935z" fill="#000000"/><path d="M4.80563,361.57466l4.9744,-7.81312l5.20806,7.65935z" fill="#000000"/><path d="M11.14454,362.45213l4.9744,-7.81312l5.20806,7.65935z" fill="#000000"/><path d="M14.54988,362.4007l4.9744,-7.81312l5.20806,7.65935z" fill="#000000"/><path d="M-12.24313,360.37236l4.9744,-7.81312l5.20806,7.65935z" fill="#000000"/></g></g><g stroke="#fbffea" stroke-width="0.5"><g><path d="M66.72332,357.02272l4.18118,-13.98377l4.60153,13.85114z" fill="#ff00ef"/><path d="M46.17601,358.20837l4.18118,-13.98375l4.60153,13.85112z" fill="#ff00ef"/><path d="M75.61428,362.14066l4.18119,-13.98377l4.60153,13.85114z" fill="#ff00ef"/><path d="M55.40726,358.06895l4.18118,-13.98375l4.60154,13.85112z" fill="#ff00ef"/><path d="M49.43553,361.92776l4.9744,-7.81312l5.20806,7.65935z" fill="#000000"/><path d="M61.14037,363.69736l4.9744,-7.81312l5.20806,7.65935z" fill="#000000"/><path d="M67.90703,360.67564l4.9744,-7.81312l5.20806,7.65935z" fill="#000000"/><path d="M44.07693,361.52209l4.9744,-7.81312l5.20806,7.65935z" fill="#000000"/><path d="M71.82818,362.56276l4.9744,-7.81312l5.20806,7.65935z" fill="#000000"/><path d="M78.16709,363.44023l4.9744,-7.81312l5.20806,7.65935z" fill="#000000"/><path d="M81.57242,363.38881l4.9744,-7.81312l5.20806,7.65935z" fill="#000000"/><path d="M54.77943,361.36047l4.9744,-7.81312l5.20806,7.65935z" fill="#000000"/></g><g><path d="M20.69836,355.71753l4.18118,-13.98377l4.60153,13.85114z" fill="#ff00ef"/><path d="M0.15103,356.90318l4.18118,-13.98375l4.60153,13.85112z" fill="#ff00ef"/><path d="M29.58933,360.83547l4.18119,-13.98377l4.60153,13.85114z" fill="#ff00ef"/><path d="M9.38229,356.76378l4.18118,-13.98375l4.60154,13.85112z" fill="#ff00ef"/><path d="M3.41056,360.62257l4.9744,-7.81312l5.20806,7.65935z" fill="#000000"/><path d="M15.11541,362.39217l4.9744,-7.81312l5.20806,7.65935z" fill="#000000"/><path d="M21.88201,359.37045l4.9744,-7.81312l5.20806,7.65935z" fill="#000000"/><path d="M-1.94803,360.2169l4.9744,-7.81312l5.20806,7.65935z" fill="#000000"/><path d="M25.80324,361.25757l4.9744,-7.81312l5.20806,7.65935z" fill="#000000"/><path d="M32.14215,362.13504l4.9744,-7.81312l5.20806,7.65935z" fill="#000000"/><path d="M35.54748,362.08362l4.9744,-7.81312l5.20806,7.65935z" fill="#000000"/><path d="M8.75447,360.05528l4.9744,-7.81312l5.20806,7.65935z" fill="#000000"/></g><g><path d="M44.69564,355.35514l4.18118,-13.98377l4.60153,13.85114z" fill="#ff00ef"/><path d="M24.1483,356.54079l4.18118,-13.98375l4.60153,13.85112z" fill="#ff00ef"/><path d="M53.5866,360.47308l4.18119,-13.98377l4.60153,13.85114z" fill="#ff00ef"/><path d="M33.37957,356.40138l4.18118,-13.98375l4.60154,13.85112z" fill="#ff00ef"/><path d="M27.40784,360.26018l4.9744,-7.81312l5.20806,7.65935z" fill="#000000"/><path d="M39.11267,362.02978l4.9744,-7.81312l5.20806,7.65935z" fill="#000000"/><path d="M45.8793,359.00806l4.9744,-7.81312l5.20806,7.65935z" fill="#000000"/><path d="M22.04922,359.85451l4.9744,-7.81312l5.20806,7.65935z" fill="#000000"/><path d="M49.8005,360.89518l4.9744,-7.81312l5.20806,7.65935z" fill="#000000"/><path d="M56.13941,361.77265l4.9744,-7.81312l5.20806,7.65935z" fill="#000000"/><path d="M59.54474,361.72123l4.9744,-7.81312l5.20806,7.65935z" fill="#000000"/><path d="M32.75173,359.69289l4.9744,-7.81312l5.20806,7.65935z" fill="#000000"/></g></g><g stroke="#fbffea" stroke-width="0.5"><g><path d="M133.76099,359.01069l4.18118,-13.98377l4.60153,13.85114z" fill="#ff00ef"/><path d="M113.21365,360.19634l4.18118,-13.98375l4.60153,13.85112z" fill="#ff00ef"/><path d="M142.65195,364.12863l4.18119,-13.98377l4.60153,13.85114z" fill="#ff00ef"/><path d="M122.44491,360.05694l4.18118,-13.98375l4.60154,13.85112z" fill="#ff00ef"/><path d="M116.47319,363.91574l4.9744,-7.81312l5.20806,7.65935z" fill="#000000"/><path d="M128.17805,365.68533l4.9744,-7.81312l5.20806,7.65935z" fill="#000000"/><path d="M134.94463,362.6636l4.9744,-7.81312l5.20806,7.65935z" fill="#000000"/><path d="M111.11459,363.51006l4.9744,-7.81312l5.20806,7.65935z" fill="#000000"/><path d="M138.86585,364.55074l4.9744,-7.81312l5.20806,7.65935z" fill="#000000"/><path d="M145.20476,365.42819l4.9744,-7.81312l5.20806,7.65935z" fill="#000000"/><path d="M148.6101,365.37678l4.9744,-7.81312l5.20806,7.65935z" fill="#000000"/><path d="M121.8171,363.34844l4.9744,-7.81312l5.20806,7.65935z" fill="#000000"/></g><g><path d="M87.73603,357.7055l4.18118,-13.98377l4.60153,13.85114z" fill="#ff00ef"/><path d="M67.18868,358.89115l4.18118,-13.98375l4.60153,13.85112z" fill="#ff00ef"/><path d="M96.62701,362.82344l4.18119,-13.98377l4.60153,13.85114z" fill="#ff00ef"/><path d="M76.41996,358.75175l4.18118,-13.98375l4.60154,13.85112z" fill="#ff00ef"/><path d="M70.44823,362.61055l4.9744,-7.81312l5.20806,7.65935z" fill="#000000"/><path d="M82.15309,364.38014l4.9744,-7.81312l5.20806,7.65935z" fill="#000000"/><path d="M88.91968,361.35842l4.9744,-7.81312l5.20806,7.65935z" fill="#000000"/><path d="M65.08964,362.20488l4.9744,-7.81312l5.20806,7.65935z" fill="#000000"/><path d="M92.84092,363.24555l4.9744,-7.81312l5.20806,7.65935z" fill="#000000"/><path d="M99.17982,364.12301l4.9744,-7.81312l5.20806,7.65935z" fill="#000000"/><path d="M102.58515,364.07159l4.9744,-7.81312l5.20806,7.65935z" fill="#000000"/><path d="M75.79215,362.04325l4.9744,-7.81312l5.20806,7.65935z" fill="#000000"/></g><g><path d="M111.73331,357.34311l4.18118,-13.98377l4.60153,13.85114z" fill="#ff00ef"/><path d="M91.18596,358.52876l4.18118,-13.98375l4.60153,13.85112z" fill="#ff00ef"/><path d="M120.62427,362.46105l4.18119,-13.98377l4.60153,13.85114z" fill="#ff00ef"/><path d="M100.41723,358.38936l4.18118,-13.98375l4.60154,13.85112z" fill="#ff00ef"/><path d="M94.44551,362.24816l4.9744,-7.81312l5.20806,7.65935z" fill="#000000"/><path d="M106.15034,364.01775l4.9744,-7.81312l5.20806,7.65935z" fill="#000000"/><path d="M112.91696,360.99603l4.9744,-7.81312l5.20806,7.65935z" fill="#000000"/><path d="M89.0869,361.84248l4.9744,-7.81312l5.20806,7.65935z" fill="#000000"/><path d="M116.83818,362.88316l4.9744,-7.81312l5.20806,7.65935z" fill="#000000"/><path d="M123.17708,363.76062l4.9744,-7.81312l5.20806,7.65935z" fill="#000000"/><path d="M126.58242,363.7092l4.9744,-7.81312l5.20806,7.65935z" fill="#000000"/><path d="M99.7894,361.68086l4.9744,-7.81312l5.20806,7.65935z" fill="#000000"/></g></g><g stroke="#fbffea" stroke-width="0.5"><g><path d="M178.75586,358.33121l4.18118,-13.98377l4.60153,13.85114z" fill="#ff00ef"/><path d="M158.20853,359.51687l4.18118,-13.98375l4.60153,13.85112z" fill="#ff00ef"/><path d="M187.64682,363.44916l4.18119,-13.98377l4.60153,13.85114z" fill="#ff00ef"/><path d="M167.43979,359.37746l4.18118,-13.98375l4.60154,13.85112z" fill="#ff00ef"/><path d="M161.46807,363.23625l4.9744,-7.81312l5.20806,7.65935z" fill="#000000"/><path d="M173.17291,365.00585l4.9744,-7.81312l5.20806,7.65935z" fill="#000000"/><path d="M179.93956,361.98414l4.9744,-7.81312l5.20806,7.65935z" fill="#000000"/><path d="M156.10947,362.83059l4.9744,-7.81312l5.20806,7.65935z" fill="#000000"/><path d="M183.86072,363.87125l4.9744,-7.81312l5.20806,7.65935z" fill="#000000"/><path d="M190.19963,364.74873l4.9744,-7.81312l5.20806,7.65935z" fill="#000000"/><path d="M193.60496,364.6973l4.9744,-7.81312l5.20806,7.65935z" fill="#000000"/><path d="M166.81196,362.66897l4.9744,-7.81312l5.20806,7.65935z" fill="#000000"/></g><g><path d="M132.73089,357.02603l4.18118,-13.98377l4.60153,13.85114z" fill="#ff00ef"/><path d="M112.18356,358.21168l4.18118,-13.98375l4.60153,13.85112z" fill="#ff00ef"/><path d="M141.62186,362.14397l4.18119,-13.98377l4.60153,13.85114z" fill="#ff00ef"/><path d="M121.41483,358.07227l4.18118,-13.98375l4.60154,13.85112z" fill="#ff00ef"/><path d="M115.4431,361.93106l4.9744,-7.81312l5.20806,7.65935z" fill="#000000"/><path d="M127.14795,363.70067l4.9744,-7.81312l5.20806,7.65935z" fill="#000000"/><path d="M133.91454,360.67895l4.9744,-7.81312l5.20806,7.65935z" fill="#000000"/><path d="M110.08451,361.5254l4.9744,-7.81312l5.20806,7.65935z" fill="#000000"/><path d="M137.83577,362.56607l4.9744,-7.81312l5.20806,7.65935z" fill="#000000"/><path d="M144.17467,363.44354l4.9744,-7.81312l5.20806,7.65935z" fill="#000000"/><path d="M147.58001,363.39211l4.9744,-7.81312l5.20806,7.65935z" fill="#000000"/><path d="M120.78702,361.36378l4.9744,-7.81312l5.20806,7.65935z" fill="#000000"/></g><g><path d="M156.72816,356.66363l4.18118,-13.98377l4.60153,13.85114z" fill="#ff00ef"/><path d="M136.18083,357.84929l4.18118,-13.98375l4.60153,13.85112z" fill="#ff00ef"/><path d="M165.61914,361.78158l4.18119,-13.98377l4.60153,13.85114z" fill="#ff00ef"/><path d="M145.41211,357.70988l4.18118,-13.98375l4.60154,13.85112z" fill="#ff00ef"/><path d="M139.44037,361.56867l4.9744,-7.81312l5.20806,7.65935z" fill="#000000"/><path d="M151.1452,363.33828l4.9744,-7.81312l5.20806,7.65935z" fill="#000000"/><path d="M157.91184,360.31656l4.9744,-7.81312l5.20806,7.65935z" fill="#000000"/><path d="M134.08175,361.16301l4.9744,-7.81312l5.20806,7.65935z" fill="#000000"/><path d="M161.83304,362.20367l4.9744,-7.81312l5.20806,7.65935z" fill="#000000"/><path d="M168.17194,363.08115l4.9744,-7.81312l5.20806,7.65935z" fill="#000000"/><path d="M171.57728,363.02972l4.9744,-7.81312l5.20806,7.65935z" fill="#000000"/><path d="M144.78427,361.00139l4.9744,-7.81312l5.20806,7.65935z" fill="#000000"/></g></g><g stroke="#fbffea" stroke-width="0.5"><g><path d="M243.77865,359.3495l4.18118,-13.98377l4.60153,13.85114z" fill="#ff00ef"/><path d="M223.23132,360.53515l4.18118,-13.98375l4.60153,13.85112z" fill="#ff00ef"/><path d="M252.66963,364.46744l4.18119,-13.98377l4.60153,13.85114z" fill="#ff00ef"/><path d="M232.46257,360.39575l4.18118,-13.98375l4.60154,13.85112z" fill="#ff00ef"/><path d="M226.49084,364.25455l4.9744,-7.81312l5.20806,7.65935z" fill="#000000"/><path d="M238.1957,366.02414l4.9744,-7.81312l5.20806,7.65935z" fill="#000000"/><path d="M244.9623,363.00242l4.9744,-7.81312l5.20806,7.65935z" fill="#000000"/><path d="M221.13226,363.84887l4.9744,-7.81312l5.20806,7.65935z" fill="#000000"/><path d="M248.88352,364.88955l4.9744,-7.81312l5.20806,7.65935z" fill="#000000"/><path d="M255.22243,365.76701l4.9744,-7.81312l5.20806,7.65935z" fill="#000000"/><path d="M258.62775,365.71559l4.9744,-7.81312l5.20806,7.65935z" fill="#000000"/><path d="M231.83476,363.68724l4.9744,-7.81312l5.20806,7.65935z" fill="#000000"/></g><g><path d="M197.7537,358.04431l4.18118,-13.98377l4.60153,13.85114z" fill="#ff00ef"/><path d="M177.20635,359.22996l4.18118,-13.98375l4.60153,13.85112z" fill="#ff00ef"/><path d="M206.64466,363.16225l4.18119,-13.98377l4.60153,13.85114z" fill="#ff00ef"/><path d="M186.43763,359.09056l4.18118,-13.98375l4.60154,13.85112z" fill="#ff00ef"/><path d="M180.4659,362.94936l4.9744,-7.81312l5.20806,7.65935z" fill="#000000"/><path d="M192.17075,364.71894l4.9744,-7.81312l5.20806,7.65935z" fill="#000000"/><path d="M198.93735,361.69723l4.9744,-7.81312l5.20806,7.65935z" fill="#000000"/><path d="M175.10731,362.54369l4.9744,-7.81312l5.20806,7.65935z" fill="#000000"/><path d="M202.85857,363.58435l4.9744,-7.81312l5.20806,7.65935z" fill="#000000"/><path d="M209.19748,364.46182l4.9744,-7.81312l5.20806,7.65935z" fill="#000000"/><path d="M212.60283,364.4104l4.9744,-7.81312l5.20806,7.65935z" fill="#000000"/><path d="M185.80981,362.38206l4.9744,-7.81312l5.20806,7.65935z" fill="#000000"/></g><g><path d="M221.75098,357.68192l4.18118,-13.98377l4.60153,13.85114z" fill="#ff00ef"/><path d="M201.20362,358.86757l4.18118,-13.98375l4.60153,13.85112z" fill="#ff00ef"/><path d="M230.64194,362.79986l4.18119,-13.98377l4.60153,13.85114z" fill="#ff00ef"/><path d="M210.4349,358.72817l4.18118,-13.98375l4.60154,13.85112z" fill="#ff00ef"/><path d="M204.46317,362.58697l4.9744,-7.81312l5.20806,7.65935z" fill="#000000"/><path d="M216.16801,364.35656l4.9744,-7.81312l5.20806,7.65935z" fill="#000000"/><path d="M222.93463,361.33484l4.9744,-7.81312l5.20806,7.65935z" fill="#000000"/><path d="M199.10455,362.18129l4.9744,-7.81312l5.20806,7.65935z" fill="#000000"/><path d="M226.85585,363.22197l4.9744,-7.81312l5.20806,7.65935z" fill="#000000"/><path d="M233.19473,364.09943l4.9744,-7.81312l5.20806,7.65935z" fill="#000000"/><path d="M236.60008,364.04801l4.9744,-7.81312l5.20806,7.65935z" fill="#000000"/><path d="M209.80708,362.01967l4.9744,-7.81312l5.20806,7.65935z" fill="#000000"/></g></g><g stroke="#fbffea" stroke-width="0.5"><g><path d="M288.77351,358.67002l4.18118,-13.98377l4.60153,13.85114z" fill="#ff00ef"/><path d="M268.22619,359.85568l4.18118,-13.98375l4.60153,13.85112z" fill="#ff00ef"/><path d="M297.6645,363.78797l4.18119,-13.98377l4.60153,13.85114z" fill="#ff00ef"/><path d="M277.45747,359.71627l4.18118,-13.98375l4.60154,13.85112z" fill="#ff00ef"/><path d="M271.48573,363.57506l4.9744,-7.81312l5.20806,7.65935z" fill="#000000"/><path d="M283.19057,365.34467l4.9744,-7.81312l5.20806,7.65935z" fill="#000000"/><path d="M289.95721,362.32295l4.9744,-7.81312l5.20806,7.65935z" fill="#000000"/><path d="M266.12712,363.1694l4.9744,-7.81312l5.20806,7.65935z" fill="#000000"/><path d="M293.87836,364.21006l4.9744,-7.81312l5.20806,7.65935z" fill="#000000"/><path d="M300.21727,365.08754l4.9744,-7.81312l5.20806,7.65935z" fill="#000000"/><path d="M303.62262,365.03611l4.9744,-7.81312l5.20806,7.65935z" fill="#000000"/><path d="M276.82962,363.00778l4.9744,-7.81312l5.20806,7.65935z" fill="#000000"/></g><g><path d="M242.74857,357.36484l4.18118,-13.98377l4.60153,13.85114z" fill="#ff00ef"/><path d="M222.20124,358.55049l4.18118,-13.98375l4.60153,13.85112z" fill="#ff00ef"/><path d="M251.63953,362.48278l4.18119,-13.98377l4.60153,13.85114z" fill="#ff00ef"/><path d="M231.43249,358.41108l4.18118,-13.98375l4.60154,13.85112z" fill="#ff00ef"/><path d="M225.46076,362.26987l4.9744,-7.81312l5.20806,7.65935z" fill="#000000"/><path d="M237.16561,364.03948l4.9744,-7.81312l5.20806,7.65935z" fill="#000000"/><path d="M243.93222,361.01776l4.9744,-7.81312l5.20806,7.65935z" fill="#000000"/><path d="M220.10218,361.86421l4.9744,-7.81312l5.20806,7.65935z" fill="#000000"/><path d="M247.85344,362.90488l4.9744,-7.81312l5.20806,7.65935z" fill="#000000"/><path d="M254.19235,363.78235l4.9744,-7.81312l5.20806,7.65935z" fill="#000000"/><path d="M257.59767,363.73093l4.9744,-7.81312l5.20806,7.65935z" fill="#000000"/><path d="M230.80467,361.70259l4.9744,-7.81312l5.20806,7.65935z" fill="#000000"/></g><g><path d="M266.74584,357.00244l4.18118,-13.98377l4.60153,13.85114z" fill="#ff00ef"/><path d="M246.19849,358.1881l4.18118,-13.98375l4.60153,13.85112z" fill="#ff00ef"/><path d="M275.63678,362.12039l4.18119,-13.98377l4.60153,13.85114z" fill="#ff00ef"/><path d="M255.42976,358.04869l4.18118,-13.98375l4.60154,13.85112z" fill="#ff00ef"/><path d="M249.45804,361.90748l4.9744,-7.81312l5.20806,7.65935z" fill="#000000"/><path d="M261.16285,363.67709l4.9744,-7.81312l5.20806,7.65935z" fill="#000000"/><path d="M267.92949,360.65536l4.9744,-7.81312l5.20806,7.65935z" fill="#000000"/><path d="M244.09943,361.50182l4.9744,-7.81312l5.20806,7.65935z" fill="#000000"/><path d="M271.85069,362.54248l4.9744,-7.81312l5.20806,7.65935z" fill="#000000"/><path d="M278.1896,363.41995l4.9744,-7.81312l5.20806,7.65935z" fill="#000000"/><path d="M281.59493,363.36853l4.9744,-7.81312l5.20806,7.65935z" fill="#000000"/><path d="M254.80195,361.3402l4.9744,-7.81312l5.20806,7.65935z" fill="#000000"/></g></g><g stroke="#fbffea" stroke-width="0.5"><g><path d="M355.8112,360.658l4.18118,-13.98377l4.60153,13.85114z" fill="#ff00ef"/><path d="M335.26383,361.84365l4.18118,-13.98375l4.60153,13.85112z" fill="#ff00ef"/><path d="M364.70216,365.77594l4.18119,-13.98377l4.60153,13.85114z" fill="#ff00ef"/><path d="M344.49511,361.70424l4.18118,-13.98375l4.60154,13.85112z" fill="#ff00ef"/><path d="M338.52338,365.56304l4.9744,-7.81312l5.20806,7.65935z" fill="#000000"/><path d="M350.22825,367.33264l4.9744,-7.81312l5.20806,7.65935z" fill="#000000"/><path d="M356.99484,364.31092l4.9744,-7.81312l5.20806,7.65935z" fill="#000000"/><path d="M333.16477,365.15737l4.9744,-7.81312l5.20806,7.65935z" fill="#000000"/><path d="M360.91606,366.19805l4.9744,-7.81312l5.20806,7.65935z" fill="#000000"/><path d="M367.25497,367.07551l4.9744,-7.81312l5.20806,7.65935z" fill="#000000"/><path d="M370.66029,367.02408l4.9744,-7.81312l5.20806,7.65935z" fill="#000000"/><path d="M343.8673,364.99575l4.9744,-7.81312l5.20806,7.65935z" fill="#000000"/></g><g><path d="M309.78623,359.35281l4.18118,-13.98377l4.60153,13.85114z" fill="#ff00ef"/><path d="M289.23886,360.53846l4.18118,-13.98375l4.60153,13.85112z" fill="#ff00ef"/><path d="M318.67721,364.47075l4.18119,-13.98377l4.60153,13.85114z" fill="#ff00ef"/><path d="M298.47015,360.39906l4.18118,-13.98375l4.60154,13.85112z" fill="#ff00ef"/><path d="M292.49843,364.25786l4.9744,-7.81312l5.20806,7.65935z" fill="#000000"/><path d="M304.20327,366.02745l4.9744,-7.81312l5.20806,7.65935z" fill="#000000"/><path d="M310.96988,363.00573l4.9744,-7.81312l5.20806,7.65935z" fill="#000000"/><path d="M287.13982,363.85218l4.9744,-7.81312l5.20806,7.65935z" fill="#000000"/><path d="M314.89108,364.89286l4.9744,-7.81312l5.20806,7.65935z" fill="#000000"/><path d="M321.22999,365.77032l4.9744,-7.81312l5.20806,7.65935z" fill="#000000"/><path d="M324.63534,365.7189l4.9744,-7.81312l5.20806,7.65935z" fill="#000000"/><path d="M297.84234,363.69056l4.9744,-7.81312l5.20806,7.65935z" fill="#000000"/></g><g><path d="M333.78349,358.99042l4.18118,-13.98377l4.60153,13.85114z" fill="#ff00ef"/><path d="M313.23614,360.17607l4.18118,-13.98375l4.60153,13.85112z" fill="#ff00ef"/><path d="M342.67447,364.10835l4.18119,-13.98377l4.60153,13.85114z" fill="#ff00ef"/><path d="M322.46741,360.03666l4.18118,-13.98375l4.60154,13.85112z" fill="#ff00ef"/><path d="M316.49568,363.89546l4.9744,-7.81312l5.20806,7.65935z" fill="#000000"/><path d="M328.20054,365.66506l4.9744,-7.81312l5.20806,7.65935z" fill="#000000"/><path d="M334.96714,362.64334l4.9744,-7.81312l5.20806,7.65935z" fill="#000000"/><path d="M311.1371,363.48979l4.9744,-7.81312l5.20806,7.65935z" fill="#000000"/><path d="M338.88838,364.53047l4.9744,-7.81312l5.20806,7.65935z" fill="#000000"/><path d="M345.22728,365.40793l4.9744,-7.81312l5.20806,7.65935z" fill="#000000"/><path d="M348.63262,365.3565l4.9744,-7.81312l5.20806,7.65935z" fill="#000000"/><path d="M321.83959,363.32817l4.9744,-7.81312l5.20806,7.65935z" fill="#000000"/></g></g><g stroke="#fbffea" stroke-width="0.5"><g><path d="M400.80605,359.97852l4.18118,-13.98377l4.60153,13.85114z" fill="#ff00ef"/><path d="M380.25874,361.16417l4.18118,-13.98375l4.60153,13.85112z" fill="#ff00ef"/><path d="M409.69703,365.09646l4.18119,-13.98377l4.60153,13.85114z" fill="#ff00ef"/><path d="M389.49,361.02477l4.18118,-13.98375l4.60154,13.85112z" fill="#ff00ef"/><path d="M383.51827,364.88356l4.9744,-7.81312l5.20806,7.65935z" fill="#000000"/><path d="M395.22311,366.65316l4.9744,-7.81312l5.20806,7.65935z" fill="#000000"/><path d="M401.98976,363.63144l4.9744,-7.81312l5.20806,7.65935z" fill="#000000"/><path d="M378.15966,364.4779l4.9744,-7.81312l5.20806,7.65935z" fill="#000000"/><path d="M405.91092,365.51856l4.9744,-7.81312l5.20806,7.65935z" fill="#000000"/><path d="M412.24983,366.39604l4.9744,-7.81312l5.20806,7.65935z" fill="#000000"/><path d="M415.65516,366.34461l4.9744,-7.81312l5.20806,7.65935z" fill="#000000"/><path d="M388.86217,364.31627l4.9744,-7.81312l5.20806,7.65935z" fill="#000000"/></g><g><path d="M354.78108,358.67333l4.18118,-13.98377l4.60153,13.85114z" fill="#ff00ef"/><path d="M334.23375,359.85898l4.18118,-13.98375l4.60153,13.85112z" fill="#ff00ef"/><path d="M363.67207,363.79128l4.18119,-13.98377l4.60153,13.85114z" fill="#ff00ef"/><path d="M343.46503,359.71958l4.18118,-13.98375l4.60154,13.85112z" fill="#ff00ef"/><path d="M337.4933,363.57836l4.9744,-7.81312l5.20806,7.65935z" fill="#000000"/><path d="M349.19815,365.34797l4.9744,-7.81312l5.20806,7.65935z" fill="#000000"/><path d="M355.96473,362.32626l4.9744,-7.81312l5.20806,7.65935z" fill="#000000"/><path d="M332.13469,363.17271l4.9744,-7.81312l5.20806,7.65935z" fill="#000000"/><path d="M359.88597,364.21337l4.9744,-7.81312l5.20806,7.65935z" fill="#000000"/><path d="M366.22488,365.09085l4.9744,-7.81312l5.20806,7.65935z" fill="#000000"/><path d="M369.63022,365.03941l4.9744,-7.81312l5.20806,7.65935z" fill="#000000"/><path d="M342.83722,363.01109l4.9744,-7.81312l5.20806,7.65935z" fill="#000000"/></g><g><path d="M378.77838,358.31094l4.18118,-13.98377l4.60153,13.85114z" fill="#ff00ef"/><path d="M358.23103,359.49659l4.18118,-13.98375l4.60153,13.85112z" fill="#ff00ef"/><path d="M387.66934,363.42888l4.18119,-13.98377l4.60153,13.85114z" fill="#ff00ef"/><path d="M367.46231,359.35719l4.18118,-13.98375l4.60154,13.85112z" fill="#ff00ef"/><path d="M361.49058,363.21598l4.9744,-7.81312l5.20806,7.65935z" fill="#000000"/><path d="M373.19539,364.98558l4.9744,-7.81312l5.20806,7.65935z" fill="#000000"/><path d="M379.96204,361.96386l4.9744,-7.81312l5.20806,7.65935z" fill="#000000"/><path d="M356.13196,362.81032l4.9744,-7.81312l5.20806,7.65935z" fill="#000000"/><path d="M383.88324,363.85098l4.9744,-7.81312l5.20806,7.65935z" fill="#000000"/><path d="M390.22214,364.72846l4.9744,-7.81312l5.20806,7.65935z" fill="#000000"/><path d="M393.62748,364.67703l4.9744,-7.81312l5.20806,7.65935z" fill="#000000"/><path d="M366.83448,362.64869l4.9744,-7.81312l5.20806,7.65935z" fill="#000000"/></g></g><g stroke="#fbffea" stroke-width="0.5"><g><path d="M245.72846,357.70219l4.18118,-13.98377l4.60153,13.85114z" fill="#ff00ef"/><path d="M225.18111,358.88785l4.18118,-13.98375l4.60153,13.85111z" fill="#ff00ef"/><path d="M254.61942,362.82014l4.18119,-13.98377l4.60153,13.85114z" fill="#ff00ef"/><path d="M234.41239,358.74844l4.18118,-13.98375l4.60154,13.85111z" fill="#ff00ef"/><path d="M228.44066,362.60724l4.9744,-7.81313l5.20806,7.65936z" fill="#000000"/><path d="M240.14554,364.37683l4.9744,-7.81312l5.20806,7.65936z" fill="#000000"/><path d="M246.91211,361.35512l4.9744,-7.81312l5.20806,7.65935z" fill="#000000"/><path d="M223.08207,362.20156l4.9744,-7.81312l5.20805,7.65935z" fill="#000000"/><path d="M250.83333,363.24224l4.9744,-7.81312l5.20806,7.65935z" fill="#000000"/><path d="M257.17224,364.11971l4.9744,-7.81312l5.20806,7.65935z" fill="#000000"/><path d="M260.57757,364.06828l4.9744,-7.81312l5.20806,7.65935z" fill="#000000"/><path d="M233.78459,362.03995l4.9744,-7.81313l5.20806,7.65936z" fill="#000000"/></g><g><path d="M199.7035,356.397l4.18118,-13.98377l4.60153,13.85114z" fill="#ff00ef"/><path d="M179.15616,357.58266l4.18118,-13.98375l4.60153,13.85112z" fill="#ff00ef"/><path d="M208.59448,361.51495l4.18119,-13.98377l4.60153,13.85114z" fill="#ff00ef"/><path d="M188.38744,357.44325l4.18118,-13.98375l4.60154,13.85112z" fill="#ff00ef"/><path d="M182.4157,361.30205l4.9744,-7.81312l5.20806,7.65935z" fill="#000000"/><path d="M194.12056,363.07165l4.9744,-7.81313l5.20806,7.65936z" fill="#000000"/><path d="M200.88715,360.04993l4.9744,-7.81312l5.20806,7.65935z" fill="#000000"/><path d="M177.05712,360.89638l4.9744,-7.81313l5.20805,7.65936z" fill="#000000"/><path d="M204.80839,361.93705l4.9744,-7.81312l5.20806,7.65936z" fill="#000000"/><path d="M211.1473,362.81452l4.9744,-7.81312l5.20806,7.65935z" fill="#000000"/><path d="M214.55262,362.76309l4.9744,-7.81312l5.20806,7.65936z" fill="#000000"/><path d="M187.75962,360.73476l4.9744,-7.81312l5.20805,7.65935z" fill="#000000"/></g><g><path d="M223.70079,356.03461l4.18117,-13.98377l4.60154,13.85114z" fill="#ff00ef"/><path d="M203.15343,357.22027l4.18118,-13.98375l4.60154,13.85112z" fill="#ff00ef"/><path d="M232.59174,361.15256l4.18119,-13.98377l4.60153,13.85114z" fill="#ff00ef"/><path d="M212.38471,357.08086l4.18118,-13.98375l4.60154,13.85112z" fill="#ff00ef"/><path d="M206.41299,360.93966l4.9744,-7.81312l5.20805,7.65936z" fill="#000000"/><path d="M218.11783,362.70925l4.9744,-7.81312l5.20805,7.65936z" fill="#000000"/><path d="M224.88444,359.68754l4.9744,-7.81313l5.20805,7.65936z" fill="#000000"/><path d="M201.05437,360.53399l4.97441,-7.81312l5.20805,7.65935z" fill="#000000"/><path d="M228.80566,361.57466l4.9744,-7.81312l5.20806,7.65935z" fill="#000000"/><path d="M235.14455,362.45213l4.9744,-7.81312l5.20806,7.65935z" fill="#000000"/><path d="M238.5499,362.4007l4.9744,-7.81312l5.20806,7.65935z" fill="#000000"/><path d="M211.75687,360.37237l4.9744,-7.81313l5.20806,7.65936z" fill="#000000"/></g></g><g stroke="#fbffea" stroke-width="0.5"><g><path d="M290.72333,357.02272l4.18118,-13.98376l4.60153,13.85114z" fill="#ff00ef"/><path d="M270.176,358.20837l4.18118,-13.98375l4.60153,13.85112z" fill="#ff00ef"/><path d="M299.61429,362.14066l4.18118,-13.98377l4.60153,13.85114z" fill="#ff00ef"/><path d="M279.40727,358.06897l4.18118,-13.98375l4.60154,13.85112z" fill="#ff00ef"/><path d="M273.43555,361.92776l4.9744,-7.81312l5.20806,7.65935z" fill="#000000"/><path d="M285.14036,363.69736l4.9744,-7.81312l5.20806,7.65936z" fill="#000000"/><path d="M291.90702,360.67564l4.9744,-7.81313l5.20806,7.65936z" fill="#000000"/><path d="M268.07694,361.52209l4.9744,-7.81312l5.20805,7.65936z" fill="#000000"/><path d="M295.82818,362.56276l4.9744,-7.81312l5.20806,7.65935z" fill="#000000"/><path d="M302.16711,363.44023l4.9744,-7.81312l5.20806,7.65935z" fill="#000000"/><path d="M305.57241,363.38881l4.9744,-7.81312l5.20806,7.65935z" fill="#000000"/><path d="M278.77943,361.36047l4.9744,-7.81313l5.20806,7.65936z" fill="#000000"/></g><g><path d="M244.69838,355.71753l4.18117,-13.98377l4.60154,13.85114z" fill="#ff00ef"/><path d="M224.15103,356.90318l4.18118,-13.98375l4.60153,13.85112z" fill="#ff00ef"/><path d="M253.58934,360.83547l4.18118,-13.98377l4.60153,13.85114z" fill="#ff00ef"/><path d="M233.3823,356.76378l4.18117,-13.98374l4.60154,13.85111z" fill="#ff00ef"/><path d="M227.41058,360.62257l4.9744,-7.81312l5.20806,7.65936z" fill="#000000"/><path d="M239.11542,362.39217l4.9744,-7.81313l5.20806,7.65936z" fill="#000000"/><path d="M245.88203,359.37045l4.9744,-7.81312l5.20806,7.65936z" fill="#000000"/><path d="M222.05198,360.21691l4.9744,-7.81313l5.20806,7.65936z" fill="#000000"/><path d="M249.80325,361.25757l4.9744,-7.81313l5.20806,7.65936z" fill="#000000"/><path d="M256.14214,362.13505l4.9744,-7.81313l5.20806,7.65936z" fill="#000000"/><path d="M259.54749,362.08362l4.9744,-7.81313l5.20806,7.65936z" fill="#000000"/><path d="M232.75449,360.05528l4.9744,-7.81312l5.20805,7.65935z" fill="#000000"/></g><g><path d="M268.69566,355.35514l4.18117,-13.98377l4.60154,13.85114z" fill="#ff00ef"/><path d="M248.14831,356.54079l4.18117,-13.98375l4.60154,13.85112z" fill="#ff00ef"/><path d="M277.5866,360.47308l4.18119,-13.98377l4.60153,13.85114z" fill="#ff00ef"/><path d="M257.37958,356.40139l4.18118,-13.98375l4.60154,13.85112z" fill="#ff00ef"/><path d="M251.40786,360.26018l4.9744,-7.81312l5.20806,7.65935z" fill="#000000"/><path d="M263.11269,362.02978l4.9744,-7.81312l5.20806,7.65935z" fill="#000000"/><path d="M269.87931,359.00806l4.97441,-7.81312l5.20805,7.65935z" fill="#000000"/><path d="M246.04922,359.85451l4.9744,-7.81312l5.20806,7.65936z" fill="#000000"/><path d="M273.80051,360.89518l4.9744,-7.81312l5.20806,7.65935z" fill="#000000"/><path d="M280.13939,361.77265l4.9744,-7.81312l5.20806,7.65935z" fill="#000000"/><path d="M283.54474,361.72123l4.9744,-7.81312l5.20806,7.65935z" fill="#000000"/><path d="M256.75174,359.69289l4.9744,-7.81313l5.20806,7.65936z" fill="#000000"/></g></g><g stroke="#fbffea" stroke-width="0.5"><g><path d="M357.76101,359.01069l4.18118,-13.98377l4.60153,13.85114z" fill="#ff00ef"/><path d="M337.21365,360.19634l4.18118,-13.98375l4.60153,13.85112z" fill="#ff00ef"/><path d="M366.65196,364.12863l4.18119,-13.98377l4.60154,13.85114z" fill="#ff00ef"/><path d="M346.44493,360.05694l4.18117,-13.98375l4.60154,13.85112z" fill="#ff00ef"/><path d="M340.4732,363.91574l4.9744,-7.81312l5.20806,7.65935z" fill="#000000"/><path d="M352.17807,365.68533l4.9744,-7.81313l5.20806,7.65936z" fill="#000000"/><path d="M358.94465,362.6636l4.9744,-7.81312l5.20806,7.65935z" fill="#000000"/><path d="M335.11458,363.51007l4.9744,-7.81313l5.20806,7.65936z" fill="#000000"/><path d="M362.86587,364.55074l4.9744,-7.81312l5.20806,7.65936z" fill="#000000"/><path d="M369.20479,365.42819l4.9744,-7.81312l5.20806,7.65936z" fill="#000000"/><path d="M372.61012,365.37678l4.9744,-7.81312l5.20806,7.65936z" fill="#000000"/><path d="M345.81712,363.34844l4.9744,-7.81312l5.20806,7.65935z" fill="#000000"/></g><g><path d="M311.73605,357.7055l4.18118,-13.98377l4.60153,13.85114z" fill="#ff00ef"/><path d="M291.18868,358.89115l4.18118,-13.98374l4.60153,13.85111z" fill="#ff00ef"/><path d="M320.62701,362.82344l4.18119,-13.98376l4.60153,13.85114z" fill="#ff00ef"/><path d="M300.41997,358.75175l4.18117,-13.98374l4.60155,13.85111z" fill="#ff00ef"/><path d="M294.44822,362.61055l4.9744,-7.81313l5.20806,7.65936z" fill="#000000"/><path d="M306.15308,364.38014l4.9744,-7.81312l5.20806,7.65935z" fill="#000000"/><path d="M312.9197,361.35843l4.9744,-7.81312l5.20806,7.65936z" fill="#000000"/><path d="M289.08964,362.20488l4.9744,-7.81312l5.20806,7.65935z" fill="#000000"/><path d="M316.84092,363.24555l4.9744,-7.81313l5.20806,7.65936z" fill="#000000"/><path d="M323.17981,364.12302l4.9744,-7.81312l5.20806,7.65936z" fill="#000000"/><path d="M326.58516,364.07159l4.9744,-7.81312l5.20806,7.65935z" fill="#000000"/><path d="M299.79213,362.04326l4.9744,-7.81313l5.20806,7.65936z" fill="#000000"/></g><g><path d="M335.73333,357.34311l4.18117,-13.98377l4.60154,13.85114z" fill="#ff00ef"/><path d="M315.18595,358.52876l4.18117,-13.98375l4.60154,13.85112z" fill="#ff00ef"/><path d="M344.62428,362.46105l4.18119,-13.98377l4.60153,13.85114z" fill="#ff00ef"/><path d="M324.41722,358.38936l4.18117,-13.98375l4.60154,13.85112z" fill="#ff00ef"/><path d="M318.4455,362.24816l4.9744,-7.81312l5.20806,7.65936z" fill="#000000"/><path d="M330.15036,364.01775l4.9744,-7.81313l5.20806,7.65936z" fill="#000000"/><path d="M336.91697,360.99603l4.9744,-7.81312l5.20806,7.65935z" fill="#000000"/><path d="M313.08689,361.84249l4.97441,-7.81312l5.20806,7.65936z" fill="#000000"/><path d="M340.83819,362.88316l4.9744,-7.81313l5.20806,7.65936z" fill="#000000"/><path d="M347.17709,363.76062l4.9744,-7.81312l5.20806,7.65936z" fill="#000000"/><path d="M350.58244,363.7092l4.9744,-7.81312l5.20806,7.65936z" fill="#000000"/><path d="M323.78941,361.68086l4.9744,-7.81312l5.20806,7.65935z" fill="#000000"/></g></g><g stroke="#fbffea" stroke-width="0.5"><g><path d="M402.75587,358.33122l4.18118,-13.98377l4.60153,13.85114z" fill="#ff00ef"/><path d="M382.20855,359.51687l4.18118,-13.98375l4.60153,13.85112z" fill="#ff00ef"/><path d="M411.64684,363.44916l4.18119,-13.98377l4.60153,13.85114z" fill="#ff00ef"/><path d="M391.43982,359.37746l4.18117,-13.98374l4.60154,13.85111z" fill="#ff00ef"/><path d="M385.46808,363.23625l4.9744,-7.81312l5.20806,7.65936z" fill="#000000"/><path d="M397.17293,365.00586l4.9744,-7.81313l5.20806,7.65936z" fill="#000000"/><path d="M403.93956,361.98414l4.9744,-7.81312l5.20806,7.65935z" fill="#000000"/><path d="M380.10949,362.83059l4.9744,-7.81313l5.20806,7.65936z" fill="#000000"/><path d="M407.86073,363.87126l4.9744,-7.81313l5.20806,7.65936z" fill="#000000"/><path d="M414.19964,364.74873l4.9744,-7.81313l5.20806,7.65936z" fill="#000000"/><path d="M417.60498,364.69731l4.9744,-7.81313l5.20806,7.65936z" fill="#000000"/><path d="M390.81197,362.66897l4.9744,-7.81312l5.20806,7.65935z" fill="#000000"/></g><g><path d="M356.73091,357.02603l4.18118,-13.98377l4.60153,13.85114z" fill="#ff00ef"/><path d="M336.18357,358.21168l4.18118,-13.98375l4.60153,13.85111z" fill="#ff00ef"/><path d="M365.62189,362.14397l4.18119,-13.98377l4.60153,13.85114z" fill="#ff00ef"/><path d="M345.41484,358.07228l4.18117,-13.98375l4.60154,13.85112z" fill="#ff00ef"/><path d="M339.44312,361.93107l4.9744,-7.81313l5.20806,7.65936z" fill="#000000"/><path d="M351.14796,363.70067l4.9744,-7.81312l5.20806,7.65936z" fill="#000000"/><path d="M357.91457,360.67895l4.9744,-7.81313l5.20806,7.65936z" fill="#000000"/><path d="M334.0845,361.5254l4.9744,-7.81312l5.20806,7.65935z" fill="#000000"/><path d="M361.83579,362.56607l4.9744,-7.81312l5.20806,7.65935z" fill="#000000"/><path d="M368.17469,363.44354l4.9744,-7.81313l5.20806,7.65936z" fill="#000000"/><path d="M371.58003,363.39212l4.9744,-7.81313l5.20806,7.65936z" fill="#000000"/><path d="M344.78703,361.36378l4.9744,-7.81313l5.20806,7.65936z" fill="#000000"/></g><g><path d="M380.7282,356.66364l4.18117,-13.98377l4.60154,13.85114z" fill="#ff00ef"/><path d="M360.18085,357.84929l4.18117,-13.98374l4.60154,13.85112z" fill="#ff00ef"/><path d="M389.61915,361.78158l4.18118,-13.98377l4.60153,13.85114z" fill="#ff00ef"/><path d="M369.41213,357.70988l4.18117,-13.98374l4.60154,13.85111z" fill="#ff00ef"/><path d="M363.44037,361.56867l4.9744,-7.81312l5.20806,7.65936z" fill="#000000"/><path d="M375.14523,363.33828l4.9744,-7.81312l5.20806,7.65935z" fill="#000000"/><path d="M381.91185,360.31656l4.9744,-7.81312l5.20806,7.65936z" fill="#000000"/><path d="M358.08176,361.16301l4.97441,-7.81313l5.20805,7.65936z" fill="#000000"/><path d="M385.83305,362.20368l4.9744,-7.81313l5.20806,7.65936z" fill="#000000"/><path d="M392.17193,363.08115l4.9744,-7.81313l5.20806,7.65936z" fill="#000000"/><path d="M395.57728,363.02973l4.9744,-7.81313l5.20806,7.65936z" fill="#000000"/><path d="M368.78429,361.00139l4.9744,-7.81312l5.20806,7.65935z" fill="#000000"/></g></g><g stroke="#fbffea" stroke-width="0.5"><g><path d="M467.77866,359.3495l4.18117,-13.98377l4.60154,13.85114z" fill="#ff00ef"/><path d="M447.23132,360.53515l4.18118,-13.98375l4.60154,13.85112z" fill="#ff00ef"/><path d="M476.66963,364.46744l4.18119,-13.98377l4.60153,13.85114z" fill="#ff00ef"/><path d="M456.46258,360.39575l4.18118,-13.98374l4.60154,13.85111z" fill="#ff00ef"/><path d="M450.49086,364.25455l4.9744,-7.81312l5.20805,7.65936z" fill="#000000"/><path d="M462.19572,366.02414l4.9744,-7.81313l5.20806,7.65936z" fill="#000000"/><path d="M468.96231,363.00242l4.9744,-7.81312l5.20805,7.65935z" fill="#000000"/><path d="M445.13226,363.84888l4.97441,-7.81313l5.20805,7.65936z" fill="#000000"/><path d="M472.88353,364.88955l4.9744,-7.81313l5.20806,7.65936z" fill="#000000"/><path d="M479.22243,365.76702l4.97441,-7.81312l5.20805,7.65935z" fill="#000000"/><path d="M482.62777,365.71559l4.9744,-7.81312l5.20806,7.65936z" fill="#000000"/><path d="M455.83477,363.68724l4.9744,-7.81312l5.20806,7.65935z" fill="#000000"/></g><g><path d="M421.75371,358.04431l4.18118,-13.98377l4.60154,13.85114z" fill="#ff00ef"/><path d="M401.20636,359.22997l4.18117,-13.98375l4.60153,13.85112z" fill="#ff00ef"/><path d="M430.64468,363.16225l4.18119,-13.98377l4.60153,13.85114z" fill="#ff00ef"/><path d="M410.43764,359.09056l4.18118,-13.98375l4.60154,13.85111z" fill="#ff00ef"/><path d="M404.46591,362.94936l4.9744,-7.81312l5.20806,7.65935z" fill="#000000"/><path d="M416.17076,364.71894l4.9744,-7.81312l5.20805,7.65935z" fill="#000000"/><path d="M422.93736,361.69724l4.9744,-7.81313l5.20805,7.65936z" fill="#000000"/><path d="M399.10731,362.54369l4.97441,-7.81312l5.20806,7.65935z" fill="#000000"/><path d="M426.85858,363.58435l4.9744,-7.81312l5.20806,7.65936z" fill="#000000"/><path d="M433.19749,364.46183l4.97441,-7.81313l5.20805,7.65936z" fill="#000000"/><path d="M436.60283,364.4104l4.9744,-7.81313l5.20806,7.65936z" fill="#000000"/><path d="M409.80982,362.38207l4.9744,-7.81312l5.20806,7.65936z" fill="#000000"/></g><g><path d="M445.75099,357.68192l4.18117,-13.98377l4.60153,13.85114z" fill="#ff00ef"/><path d="M425.20364,358.86757l4.18117,-13.98374l4.60154,13.85111z" fill="#ff00ef"/><path d="M454.64193,362.79986l4.18119,-13.98377l4.60153,13.85114z" fill="#ff00ef"/><path d="M434.4349,358.72817l4.18118,-13.98374l4.60154,13.85111z" fill="#ff00ef"/><path d="M428.46317,362.58697l4.97441,-7.81312l5.20805,7.65936z" fill="#000000"/><path d="M440.16802,364.35656l4.97441,-7.81313l5.20805,7.65936z" fill="#000000"/><path d="M446.93462,361.33484l4.97441,-7.81312l5.20805,7.65936z" fill="#000000"/><path d="M423.10457,362.1813l4.9744,-7.81313l5.20806,7.65936z" fill="#000000"/><path d="M450.85585,363.22197l4.9744,-7.81313l5.20806,7.65936z" fill="#000000"/><path d="M457.19475,364.09944l4.9744,-7.81313l5.20806,7.65936z" fill="#000000"/><path d="M460.60008,364.04801l4.97441,-7.81313l5.20805,7.65936z" fill="#000000"/><path d="M433.80708,362.01967l4.9744,-7.81312l5.20806,7.65935z" fill="#000000"/></g></g><g stroke="#fbffea" stroke-width="0.5"><g><path d="M512.77352,358.67003l4.18118,-13.98377l4.60153,13.85114z" fill="#ff00ef"/><path d="M492.22619,359.85568l4.18117,-13.98374l4.60154,13.85111z" fill="#ff00ef"/><path d="M521.6645,363.78797l4.18119,-13.98377l4.60153,13.85114z" fill="#ff00ef"/><path d="M501.45746,359.71627l4.18118,-13.98374l4.60154,13.85112z" fill="#ff00ef"/><path d="M495.48574,363.57507l4.9744,-7.81313l5.20806,7.65936z" fill="#000000"/><path d="M507.19058,365.34467l4.9744,-7.81312l5.20806,7.65935z" fill="#000000"/><path d="M513.95719,362.32295l4.9744,-7.81312l5.20806,7.65936z" fill="#000000"/><path d="M490.12713,363.1694l4.97441,-7.81313l5.20805,7.65936z" fill="#000000"/><path d="M517.87839,364.21007l4.9744,-7.81313l5.20806,7.65936z" fill="#000000"/><path d="M524.21728,365.08754l4.97441,-7.81313l5.20805,7.65936z" fill="#000000"/><path d="M527.62263,365.03612l4.9744,-7.81313l5.20805,7.65936z" fill="#000000"/><path d="M500.82963,363.00778l4.9744,-7.81312l5.20806,7.65936z" fill="#000000"/></g><g><path d="M466.74857,357.36484l4.18117,-13.98377l4.60154,13.85114z" fill="#ff00ef"/><path d="M446.20124,358.55049l4.18118,-13.98375l4.60154,13.85112z" fill="#ff00ef"/><path d="M475.63953,362.48278l4.18119,-13.98377l4.60153,13.85114z" fill="#ff00ef"/><path d="M455.43249,358.41109l4.18118,-13.98375l4.60154,13.85112z" fill="#ff00ef"/><path d="M449.46077,362.26988l4.9744,-7.81312l5.20805,7.65935z" fill="#000000"/><path d="M461.16562,364.03948l4.9744,-7.81312l5.20805,7.65936z" fill="#000000"/><path d="M467.93221,361.01776l4.97441,-7.81312l5.20805,7.65936z" fill="#000000"/><path d="M444.10218,361.86421l4.9744,-7.81312l5.20806,7.65935z" fill="#000000"/><path d="M471.85345,362.90488l4.9744,-7.81312l5.20806,7.65935z" fill="#000000"/><path d="M478.19233,363.78235l4.9744,-7.81312l5.20806,7.65935z" fill="#000000"/><path d="M481.59768,363.73093l4.9744,-7.81312l5.20806,7.65935z" fill="#000000"/><path d="M454.80469,361.70259l4.9744,-7.81313l5.20806,7.65936z" fill="#000000"/></g><g><path d="M490.74584,357.00245l4.18118,-13.98377l4.60153,13.85114z" fill="#ff00ef"/><path d="M470.1985,358.1881l4.18117,-13.98374l4.60153,13.85111z" fill="#ff00ef"/><path d="M499.6368,362.12039l4.18119,-13.98377l4.60153,13.85114z" fill="#ff00ef"/><path d="M479.42977,358.04869l4.18118,-13.98374l4.60154,13.85111z" fill="#ff00ef"/><path d="M473.45804,361.90749l4.97441,-7.81312l5.20805,7.65936z" fill="#000000"/><path d="M485.16288,363.67709l4.97441,-7.81312l5.20805,7.65935z" fill="#000000"/><path d="M491.9295,360.65536l4.97441,-7.81312l5.20805,7.65936z" fill="#000000"/><path d="M468.09943,361.50182l4.9744,-7.81312l5.20806,7.65936z" fill="#000000"/><path d="M495.8507,362.54249l4.9744,-7.81313l5.20805,7.65936z" fill="#000000"/><path d="M502.1896,363.41995l4.9744,-7.81312l5.20806,7.65936z" fill="#000000"/><path d="M505.59494,363.36854l4.9744,-7.81312l5.20806,7.65936z" fill="#000000"/><path d="M478.80194,361.3402l4.9744,-7.81312l5.20806,7.65936z" fill="#000000"/></g></g><g stroke-width="0"><path d="M41.44905,188.25002l-2.92649,25.58051l-2.92649,-25.58051z" fill="#000000" stroke="#fbffea"/><path d="M38.52256,208.29027c1.79493,0 3.25,1.45507 3.25,3.25c0,1.79493 -1.45507,3.25 -3.25,3.25c-1.79493,0 -3.25,-1.45507 -3.25,-3.25c0,-1.79493 1.45507,-3.25 3.25,-3.25z" fill="#ff00ef" stroke="none"/></g><path d="M23.31419,172.13371h35.75v18.75h-35.75z" fill="#000000" stroke="#ffffff" stroke-width="2"/><g stroke-width="0"><path d="M146.44904,158.25002l-2.92649,25.58051l-2.92649,-25.58051z" fill="#000000" stroke="#fbffea"/><path d="M143.52255,178.29027c1.79493,0 3.25,1.45507 3.25,3.25c0,1.79493 -1.45507,3.25 -3.25,3.25c-1.79493,0 -3.25,-1.45507 -3.25,-3.25c0,-1.79493 1.45507,-3.25 3.25,-3.25z" fill="#ff00ef" stroke="none"/></g><path d="M128.31418,142.13371h35.75v18.75h-35.75z" fill="#000000" stroke="#ffffff" stroke-width="2"/><g stroke-width="0"><path d="M146.44905,158.25002l-2.92649,25.58051l-2.92649,-25.58051z" fill="#000000" stroke="#fbffea"/><path d="M143.52256,178.29027c1.79493,0 3.25,1.45507 3.25,3.25c0,1.79493 -1.45507,3.25 -3.25,3.25c-1.79493,0 -3.25,-1.45507 -3.25,-3.25c0,-1.79493 1.45507,-3.25 3.25,-3.25z" fill="#ff00ef" stroke="none"/></g><path d="M128.31419,142.13371h35.75v18.75h-35.75z" fill="#000000" stroke="#ffffff" stroke-width="2"/><g stroke-width="0"><path d="M266.44905,128.25002l-2.92649,25.58051l-2.92649,-25.58051z" fill="#000000" stroke="#fbffea"/><path d="M263.52254,148.29027c1.79493,0 3.25,1.45507 3.25,3.25c0,1.79493 -1.45507,3.25 -3.25,3.25c-1.79493,0 -3.25,-1.45507 -3.25,-3.25c0,-1.79493 1.45507,-3.25 3.25,-3.25z" fill="#ff00ef" stroke="none"/></g><path d="M248.31418,112.13371h35.75v18.75h-35.75z" fill="#000000" stroke="#ffffff" stroke-width="2"/><path d="M398.29245,99.88371h-35.75v-18.75h35.75z" data-paper-data="{&quot;index&quot;:null}" fill="#000000" stroke="#ffffff" stroke-width="2"/><path d="M364.73097,81.1881l16.17649,-24.58051l16.17649,24.58051z" data-paper-data="{&quot;index&quot;:null}" fill="#000000" stroke="#fbffea" stroke-width="2"/><path d="M-53.027,0.66668v-31.33333h586.05405v31.33333z" fill="none" stroke="#ffffff" stroke-width="0"/><path d="M355.19334,289.88972h-35.75v-35.75h35.75z" data-paper-data="{&quot;index&quot;:null}" fill="#000000" stroke="#ffffff" stroke-width="2"/><path d="M391.19334,289.88972h-35.75v-35.75h35.75z" data-paper-data="{&quot;index&quot;:null}" fill="#000000" stroke="#ffffff" stroke-width="2"/><path d="M355.19334,289.88972h-35.75v-35.75h35.75z" data-paper-data="{&quot;index&quot;:null}" fill="#000000" stroke="#ffffff" stroke-width="2"/><path d="M391.19334,289.88972h-35.75v-35.75h35.75z" data-paper-data="{&quot;index&quot;:null}" fill="#000000" stroke="#ffffff" stroke-width="2"/><path d="M355.52665,289.88972h-35.75v-35.75h35.75z" data-paper-data="{&quot;index&quot;:null}" fill="#000000" stroke="#ffffff" stroke-width="2"/><path d="M355.52665,289.88972h-35.75v-35.75h35.75z" data-paper-data="{&quot;index&quot;:null}" fill="#000000" stroke="#ffffff" stroke-width="2"/><path d="M355.19334,289.88972h-35.75v-35.75h35.75z" data-paper-data="{&quot;index&quot;:null}" fill="#000000" stroke="#ffffff" stroke-width="2"/><path d="M391.19334,289.88972h-35.75v-35.75h35.75z" data-paper-data="{&quot;index&quot;:null}" fill="#000000" stroke="#ffffff" stroke-width="2"/><path d="M462.19334,289.88972h-35.75v-35.75h35.75z" data-paper-data="{&quot;index&quot;:null}" fill="#000000" stroke="#ffffff" stroke-width="2"/><path d="M498.19334,289.88972h-35.75v-35.75h35.75z" data-paper-data="{&quot;index&quot;:null}" fill="#000000" stroke="#ffffff" stroke-width="2"/><path d="M426.52664,289.88972h-35.75v-35.75h35.75z" data-paper-data="{&quot;index&quot;:null}" fill="#000000" stroke="#ffffff" stroke-width="2"/><path d="M462.52664,289.88972h-35.75v-35.75h35.75z" data-paper-data="{&quot;index&quot;:null}" fill="#000000" stroke="#ffffff" stroke-width="2"/><path d="M390.52664,290.22307h-35.75v-35.75h35.75z" data-paper-data="{&quot;index&quot;:null}" fill="#000000" stroke="#ffffff" stroke-width="2"/></g></g></svg>