<svg version="1.1" xmlns="http://www.w3.org/2000/svg" xmlns:xlink="http://www.w3.org/1999/xlink" width="33.51726" height="42.49757" viewBox="0,0,33.51726,42.49757"><g transform="translate(-223.24137,-162.86463)"><g data-paper-data="{&quot;isPaintingLayer&quot;:true}" fill-rule="nonzero" stroke-linejoin="miter" stroke-miterlimit="10" stroke-dasharray="" stroke-dashoffset="0" style="mix-blend-mode: normal"><path d="M255.75863,163.86463v31.51726h-31.51726v-31.51726z" data-paper-data="{&quot;index&quot;:null}" fill="#898989" stroke="#000000" stroke-width="2" stroke-linecap="butt"/><path d="M240,178.21243c-1.10476,0 -2.00035,-1.88713 -2.00035,-4.21502c0,-2.32789 0.89559,-4.21502 2.00035,-4.21502c1.10476,0 2.00035,1.88713 2.00035,4.21502c0,2.32789 -0.89559,4.21502 -2.00035,4.21502z" data-paper-data="{&quot;index&quot;:null}" fill="#ffcafb" stroke="#000000" stroke-width="1" stroke-linecap="butt"/><path d="M240,178.62818c-0.64441,0 -1.16682,-0.30078 -1.16682,-0.67181c0,-0.37103 0.5224,-0.67181 1.16682,-0.67181c0.64441,0 1.16682,0.30078 1.16682,0.67181c0,0.37103 -0.5224,0.67181 -1.16682,0.67181z" data-paper-data="{&quot;index&quot;:null}" fill="none" stroke="#000000" stroke-width="2" stroke-linecap="butt"/><path d="M232.66063,177.51598c0.3562,-1.53111 1.85464,-2.68037 3.64908,-2.68037c1.88222,0 3.43878,1.26445 3.69306,2.90773" data-paper-data="{&quot;index&quot;:null}" fill="none" stroke="#000000" stroke-width="2" stroke-linecap="butt"/><path d="M239.99723,177.74334c0.25428,-1.64328 1.81083,-2.90773 3.69306,-2.90773c1.79444,0 3.29288,1.14925 3.64908,2.68037" data-paper-data="{&quot;index&quot;:null}" fill="none" stroke="#000000" stroke-width="2" stroke-linecap="butt"/><path d="M231.66554,183.56824c1.50364,0 2.72259,1.21895 2.72259,2.72259c0,1.50364 -1.21895,2.72259 -2.72259,2.72259c-1.50364,0 -2.72259,-1.21895 -2.72259,-2.72259c0,-1.50364 1.21895,-2.72259 2.72259,-2.72259z" data-paper-data="{&quot;index&quot;:null}" fill="#000000" stroke="#000000" stroke-width="2" stroke-linecap="butt"/><path d="M233.06573,185.31869c0.9665,0 1.75,0.7835 1.75,1.75c0,0.9665 -0.7835,1.75 -1.75,1.75c-0.9665,0 -1.75,-0.7835 -1.75,-1.75c0,-0.9665 0.7835,-1.75 1.75,-1.75z" data-paper-data="{&quot;index&quot;:null}" fill="#ffffff" stroke="none" stroke-width="0.5" stroke-linecap="butt"/><path d="M229.84307,184.56842c0.27614,0 0.5,0.22386 0.5,0.5c0,0.27614 -0.22386,0.5 -0.5,0.5c-0.27614,0 -0.5,-0.22386 -0.5,-0.5c0,-0.27614 0.22386,-0.5 0.5,-0.5z" data-paper-data="{&quot;index&quot;:null}" fill="#ffffff" stroke="none" stroke-width="0.5" stroke-linecap="butt"/><path d="M248.33446,183.56823c1.50365,0 2.72259,1.21894 2.72259,2.72259c0,1.50365 -1.21894,2.72259 -2.72259,2.72259c-1.50365,0 -2.72259,-1.21894 -2.72259,-2.72259c0,-1.50365 1.21894,-2.72259 2.72259,-2.72259z" data-paper-data="{&quot;index&quot;:null}" fill="#000000" stroke="#000000" stroke-width="2" stroke-linecap="butt"/><path d="M249.73465,185.31869c0.9665,0 1.75,0.7835 1.75,1.75c0,0.9665 -0.7835,1.75 -1.75,1.75c-0.9665,0 -1.75,-0.7835 -1.75,-1.75c0,-0.9665 0.7835,-1.75 1.75,-1.75z" data-paper-data="{&quot;index&quot;:null}" fill="#ffffff" stroke="none" stroke-width="0.5" stroke-linecap="butt"/><path d="M246.51199,184.56842c0.27614,0 0.5,0.22386 0.5,0.5c0,0.27614 -0.22386,0.5 -0.5,0.5c-0.27614,0 -0.5,-0.22386 -0.5,-0.5c0,-0.27614 0.22386,-0.5 0.5,-0.5z" data-paper-data="{&quot;index&quot;:null}" fill="#ffffff" stroke="none" stroke-width="0.5" stroke-linecap="butt"/><path d="M235.57332,195.6119l-5.22691,7.93279l-5.22691,-7.93279z" data-paper-data="{&quot;index&quot;:null}" fill="#898989" stroke="#000000" stroke-width="2" stroke-linecap="butt"/><path d="M254.86238,195.6119l-5.22691,7.93278l-5.2269,-7.93278z" data-paper-data="{&quot;index&quot;:null}" fill="#898989" stroke="#000000" stroke-width="2" stroke-linecap="butt"/><path d="M224.91361,172.12175h5.16771" data-paper-data="{&quot;index&quot;:null}" fill="none" stroke="#545454" stroke-width="3" stroke-linecap="round"/><path d="M230.08132,167.12074h-5.16771" data-paper-data="{&quot;index&quot;:null}" fill="none" stroke="#545454" stroke-width="3" stroke-linecap="round"/><path d="M255.08639,172.12175h-5.16771" data-paper-data="{&quot;index&quot;:null}" fill="none" stroke="#545454" stroke-width="3" stroke-linecap="round"/><path d="M249.91868,167.12073h5.16771" data-paper-data="{&quot;index&quot;:null}" fill="none" stroke="#545454" stroke-width="3" stroke-linecap="round"/><path d="M244.00081,189.54195v5.16771" data-paper-data="{&quot;index&quot;:null}" fill="none" stroke="#545454" stroke-width="3" stroke-linecap="round"/><path d="M235.99919,194.70966v-5.16771" data-paper-data="{&quot;index&quot;:null}" fill="none" stroke="#545454" stroke-width="3" stroke-linecap="round"/><path d="M240,188.54174v5.83452" data-paper-data="{&quot;index&quot;:null}" fill="none" stroke="#545454" stroke-width="3" stroke-linecap="round"/><path d="M255.75863,163.86463v31.51726h-31.51726v-31.51726z" data-paper-data="{&quot;index&quot;:null}" fill="none" stroke="#000000" stroke-width="2" stroke-linecap="butt"/></g></g></svg>