<svg version="1.1" xmlns="http://www.w3.org/2000/svg" xmlns:xlink="http://www.w3.org/1999/xlink" width="586.05405" height="246.59351" viewBox="0,0,586.05405,246.59351"><defs><linearGradient x1="185.9362" y1="118.84352" x2="195.10289" y2="118.84352" gradientUnits="userSpaceOnUse" id="color-1"><stop offset="0" stop-color="#ff79f6"/><stop offset="1" stop-color="#ff00ef"/></linearGradient><linearGradient x1="185.26953" y1="210.84352" x2="194.4362" y2="210.84352" gradientUnits="userSpaceOnUse" id="color-2"><stop offset="0" stop-color="#ff79f6"/><stop offset="1" stop-color="#ff00ef"/></linearGradient><linearGradient x1="176.96126" y1="128.9818" x2="176.96126" y2="201.34782" gradientUnits="userSpaceOnUse" id="color-3"><stop offset="0" stop-color="#ff79f6"/><stop offset="1" stop-color="#ff00ef"/></linearGradient><linearGradient x1="200.93622" y1="142.51496" x2="210.1029" y2="142.51496" gradientUnits="userSpaceOnUse" id="color-4"><stop offset="0" stop-color="#ff79f6"/><stop offset="1" stop-color="#ff00ef"/></linearGradient><linearGradient x1="200.93622" y1="183.85582" x2="210.1029" y2="183.85582" gradientUnits="userSpaceOnUse" id="color-5"><stop offset="0" stop-color="#ff79f6"/><stop offset="1" stop-color="#ff00ef"/></linearGradient></defs><g transform="translate(53.02697,30.66665)"><g data-paper-data="{&quot;isPaintingLayer&quot;:true}" fill-rule="nonzero" stroke-linejoin="miter" stroke-miterlimit="10" stroke-dasharray="" stroke-dashoffset="0" style="mix-blend-mode: normal"><path d="M-53.02697,0.66668v-31.33333h586.05405v31.33333z" fill="none" stroke="#ffffff" stroke-width="0" stroke-linecap="butt"/><path d="M70.19334,7.60743h-35.75v-35.75h35.75z" data-paper-data="{&quot;index&quot;:null}" fill="#000000" stroke="#ffffff" stroke-width="2" stroke-linecap="butt"/><path d="M248.19335,7.60743h-35.75v-35.75h35.75z" data-paper-data="{&quot;index&quot;:null}" fill="#000000" stroke="#ffffff" stroke-width="2" stroke-linecap="butt"/><path d="M177.19336,7.60743h-35.75v-35.75h35.75z" data-paper-data="{&quot;index&quot;:null}" fill="#000000" stroke="#ffffff" stroke-width="2" stroke-linecap="butt"/><path d="M177.19336,7.60743h-35.75v-35.75h35.75z" data-paper-data="{&quot;index&quot;:null}" fill="#000000" stroke="#ffffff" stroke-width="2" stroke-linecap="butt"/><path d="M34.52666,7.60743h-35.75v-35.75h35.75z" data-paper-data="{&quot;index&quot;:null}" fill="#000000" stroke="#ffffff" stroke-width="2" stroke-linecap="butt"/><path d="M212.52664,7.60743h-35.75v-35.75h35.75z" data-paper-data="{&quot;index&quot;:null}" fill="#000000" stroke="#ffffff" stroke-width="2" stroke-linecap="butt"/><path d="M248.52664,46.64646h-35.75v-35.75h35.75z" data-paper-data="{&quot;index&quot;:null}" fill="#000000" stroke="#ffffff" stroke-width="2" stroke-linecap="butt"/><path d="M141.52666,7.60743h-35.75v-35.75h35.75z" data-paper-data="{&quot;index&quot;:null}" fill="#000000" stroke="#ffffff" stroke-width="2" stroke-linecap="butt"/><path d="M141.52666,7.60743h-35.75v-35.75h35.75z" data-paper-data="{&quot;index&quot;:null}" fill="#000000" stroke="#ffffff" stroke-width="2" stroke-linecap="butt"/><path d="M176.52665,7.94078h-35.75v-35.75h35.75z" data-paper-data="{&quot;index&quot;:null}" fill="#000000" stroke="#ffffff" stroke-width="2" stroke-linecap="butt"/><path d="M212.52664,7.94078h-35.75v-35.75h35.75z" data-paper-data="{&quot;index&quot;:null}" fill="#000000" stroke="#ffffff" stroke-width="2" stroke-linecap="butt"/><path d="M105.52667,7.94078h-35.75v-35.75h35.75z" data-paper-data="{&quot;index&quot;:null}" fill="#000000" stroke="#ffffff" stroke-width="2" stroke-linecap="butt"/><path d="M105.52667,7.94078h-35.75v-35.75h35.75z" data-paper-data="{&quot;index&quot;:null}" fill="#000000" stroke="#ffffff" stroke-width="2" stroke-linecap="butt"/><path d="M177.19336,7.60743h-35.75v-35.75h35.75z" data-paper-data="{&quot;index&quot;:null}" fill="#000000" stroke="#ffffff" stroke-width="2" stroke-linecap="butt"/><path d="M141.52666,7.60743h-35.75v-35.75h35.75z" data-paper-data="{&quot;index&quot;:null}" fill="#000000" stroke="#ffffff" stroke-width="2" stroke-linecap="butt"/><path d="M105.52667,7.94078h-35.75v-35.75h35.75z" data-paper-data="{&quot;index&quot;:null}" fill="#000000" stroke="#ffffff" stroke-width="2" stroke-linecap="butt"/><g><path d="M190.51955,114.26019c2.53131,0 4.58333,2.05202 4.58333,4.58333c0,2.53131 -2.05202,4.58333 -4.58333,4.58333c-2.53131,0 -4.58333,-2.05202 -4.58333,-4.58333c0,-2.53131 2.05202,-4.58333 4.58333,-4.58333z" fill="url(#color-1)" stroke="#ffe8e8" stroke-width="1" stroke-linecap="butt"/><path d="M189.85289,206.26019c2.53131,0 4.58333,2.05202 4.58333,4.58333c0,2.53131 -2.05202,4.58333 -4.58333,4.58333c-2.53131,0 -4.58333,-2.05202 -4.58333,-4.58333c0,-2.53131 2.05202,-4.58333 4.58333,-4.58333z" fill="url(#color-2)" stroke="#ffe8e8" stroke-width="1" stroke-linecap="butt"/><path d="M206.11107,128.39782h-24.90039" fill="none" stroke="#000000" stroke-width="7.5" stroke-linecap="round"/><path d="M206.11109,201.74078h-28.6839" fill="none" stroke="#000000" stroke-width="7.5" stroke-linecap="round"/><path d="M214.47316,136.39129h-37.35058" fill="none" stroke="#000000" stroke-width="4.5" stroke-linecap="round"/><path d="M217.81799,147.06755h-48.01725" fill="none" stroke="#000000" stroke-width="4.5" stroke-linecap="round"/><path d="M177.68005,191.96245h37.35058" data-paper-data="{&quot;index&quot;:null}" fill="none" stroke="#000000" stroke-width="4.5" stroke-linecap="round"/><path d="M181.58232,178.87235h37.35058" data-paper-data="{&quot;index&quot;:null}" fill="none" stroke="#000000" stroke-width="4.5" stroke-linecap="round"/><path d="M194.09539,129.18879c0.40717,-0.13681 0.82069,-0.20699 1.23943,-0.20699c6.36208,0 11.51955,16.19969 11.51955,36.18301c0,18.14896 -4.25407,33.17704 -9.80104,35.7831" fill="none" stroke="#000000" stroke-width="2.5" stroke-linecap="butt"/><path d="M169.01049,136.53728h29.01725" data-paper-data="{&quot;index&quot;:null}" fill="none" stroke="#000000" stroke-width="4.5" stroke-linecap="round"/><path d="M167.45302,191.96245h30.01725" data-paper-data="{&quot;index&quot;:null}" fill="none" stroke="#000000" stroke-width="4.5" stroke-linecap="round"/><path d="M193.56798,179.01834h-29.01725" data-paper-data="{&quot;index&quot;:null}" fill="none" stroke="#000000" stroke-width="4.5" stroke-linecap="round"/><path d="M165.60868,162.32449h25.12548" data-paper-data="{&quot;index&quot;:null}" fill="none" stroke="#000000" stroke-width="7.5" stroke-linecap="round"/><path d="M184.41615,162.32449h31.12548" fill="none" stroke="#000000" stroke-width="7.5" stroke-linecap="round"/><path d="M200.13023,165.16481c0,19.98333 -5.15747,36.18301 -11.51955,36.18301c-6.36208,0 -11.51955,-16.19969 -11.51955,-36.18301c0,-19.98333 5.15747,-36.18301 11.51955,-36.18301c6.36208,0 11.51955,16.19969 11.51955,36.18301z" fill="none" stroke="#000000" stroke-width="2.5" stroke-linecap="butt"/><path d="M189.65628,165.16482c0,20.79896 -5.68376,37.65987 -12.69502,37.65987c-7.01127,0 -12.69502,-16.8609 -12.69502,-37.65987c0,-20.79896 5.68376,-37.65987 12.69502,-37.65987c7.01127,0 12.69502,16.8609 12.69502,37.65987z" fill="none" stroke="#ffe8e8" stroke-width="7.5" stroke-linecap="butt"/><path d="M188.48082,165.16481c0,19.98333 -5.15747,36.18301 -11.51955,36.18301c-6.36208,0 -11.51955,-16.19969 -11.51955,-36.18301c0,-19.98333 5.15747,-36.18301 11.51955,-36.18301c6.36208,0 11.51955,16.19969 11.51955,36.18301z" fill="none" stroke="url(#color-3)" stroke-width="7.5" stroke-linecap="butt"/><path d="M206.26212,129.01538c0.16606,-0.02232 0.33304,-0.03359 0.50085,-0.03359c6.36208,0 11.51955,16.19969 11.51955,36.18301c0,18.85706 -4.59251,34.34497 -10.45605,36.03085" fill="none" stroke="#000000" stroke-width="7.5" stroke-linecap="butt"/><path d="M205.51955,138.30432c2.53131,0 4.58333,1.88516 4.58333,4.21064c0,2.32548 -2.05202,4.21064 -4.58333,4.21064c-2.53131,0 -4.58333,-1.88516 -4.58333,-4.21064c0,-2.32548 2.05202,-4.21064 4.58333,-4.21064z" fill="url(#color-4)" stroke="#ffe8e8" stroke-width="1" stroke-linecap="butt"/><path d="M205.51955,179.64518c2.53131,0 4.58333,1.88516 4.58333,4.21064c0,2.32548 -2.05202,4.21064 -4.58333,4.21064c-2.53131,0 -4.58333,-1.88516 -4.58333,-4.21064c0,-2.32548 2.05202,-4.21064 4.58333,-4.21064z" fill="url(#color-5)" stroke="#ffe8e8" stroke-width="1" stroke-linecap="butt"/></g><path d="M98.24827,11.98689c0,6.7078 -8.60975,12.14554 -19.23043,12.14554c-10.62067,0 -19.23043,-5.43774 -19.23043,-12.14554c0,-3.49887 38.46087,-3.20893 38.46087,0z" data-paper-data="{&quot;index&quot;:null}" fill="#ec72ff" stroke="#ffffff" stroke-width="0" stroke-linecap="butt"/></g></g></svg>