<svg version="1.1" xmlns="http://www.w3.org/2000/svg" xmlns:xlink="http://www.w3.org/1999/xlink" width="586.05405" height="392.06496" viewBox="0,0,586.05405,392.06496"><g transform="translate(53.02697,30.66665)"><g data-paper-data="{&quot;isPaintingLayer&quot;:true}" fill-rule="nonzero" stroke-linecap="butt" stroke-linejoin="miter" stroke-miterlimit="10" stroke-dasharray="" stroke-dashoffset="0" style="mix-blend-mode: normal"><path d="M-53.02697,0.66668v-31.33333h586.05405v31.33333z" fill="none" stroke="#ffffff" stroke-width="0"/><path d="M173.2909,360.39831l16.17649,-24.58051l16.17649,24.58051z" data-paper-data="{&quot;index&quot;:null}" fill="#000000" stroke="#fbffea" stroke-width="2"/><path d="M205.76099,360.39831l16.17649,-24.58051l16.17649,24.58051z" data-paper-data="{&quot;index&quot;:null}" fill="#000000" stroke="#fbffea" stroke-width="2"/><path d="M107.2909,360.39831l16.17649,-24.58051l16.17649,24.58051z" data-paper-data="{&quot;index&quot;:null}" fill="#000000" stroke="#fbffea" stroke-width="2"/><path d="M139.76099,360.39831l16.17649,-24.58051l16.17649,24.58051z" data-paper-data="{&quot;index&quot;:null}" fill="#000000" stroke="#fbffea" stroke-width="2"/><g><path d="M155.57937,299.36937c0,-7.23455 5.86476,-13.09931 13.09931,-13.09931c7.23455,0 13.09931,5.86476 13.09931,13.09931c0,7.23455 -5.86476,13.09931 -13.09931,13.09931c-7.23455,0 -13.09931,-5.86476 -13.09931,-13.09931z" fill="#d567e6" stroke="none" stroke-width="0"/><path d="M152.16216,299.36937c0,-9.12182 7.3947,-16.51652 16.51652,-16.51652c9.12182,0 16.51652,7.3947 16.51652,16.51652c0,9.12182 -7.3947,16.51652 -16.51652,16.51652c-9.12182,0 -16.51652,-7.3947 -16.51652,-16.51652z" fill="none" stroke="#d8ffff" stroke-width="1.5"/></g></g></g></svg>