<svg version="1.1" xmlns="http://www.w3.org/2000/svg" xmlns:xlink="http://www.w3.org/1999/xlink" width="586.05405" height="392.63692" viewBox="0,0,586.05405,392.63692"><defs><linearGradient x1="137.50186" y1="161.53132" x2="137.50186" y2="233.89733" gradientUnits="userSpaceOnUse" id="color-1"><stop offset="0" stop-color="#fff880"/><stop offset="1" stop-color="#fff429"/></linearGradient></defs><g transform="translate(53.02697,30.66665)"><g data-paper-data="{&quot;isPaintingLayer&quot;:true}" fill-rule="nonzero" stroke-linejoin="miter" stroke-miterlimit="10" stroke-dasharray="" stroke-dashoffset="0" style="mix-blend-mode: normal"><path d="M-53.02697,0.66668v-31.33333h586.05405v31.33333z" fill="none" stroke="#ffffff" stroke-width="0" stroke-linecap="butt"/><g fill="none"><path d="M141.83638,225.30955h-13.23344" stroke="#000000" stroke-width="7.5" stroke-linecap="round"/><path d="M128.60288,170.51044h13.23343" stroke="#000000" stroke-width="7.5" stroke-linecap="round"/><path d="M141.51959,178.42939h-13.23344" stroke="#000000" stroke-width="7.5" stroke-linecap="round"/><path d="M128.67539,186.98187h10.2791" stroke="#000000" stroke-width="8.5" stroke-linecap="round"/><path d="M128.28616,215.49003h13.23344" data-paper-data="{&quot;index&quot;:null}" stroke="#000000" stroke-width="7.5" stroke-linecap="round"/><path d="M138.95448,206.62083h-10.2791" stroke="#000000" stroke-width="8.5" stroke-linecap="round"/><path d="M132.68347,196.80132l-4.20273,-0.31676" stroke="#000000" stroke-width="9.5" stroke-linecap="round"/><path d="M142.81975,158.47364h7.78437" stroke="#000000" stroke-width="4.5" stroke-linecap="round"/><path d="M154.88553,163.85856h-7.78437" stroke="#000000" stroke-width="5.5" stroke-linecap="round"/><path d="M148.46344,170.82722h10.11969" stroke="#000000" stroke-width="6.5" stroke-linecap="round"/><path d="M149.82566,178.42939h13.23344" stroke="#000000" stroke-width="7.5" stroke-linecap="round"/><path d="M167.14592,186.98187h-16.93102" stroke="#000000" stroke-width="8.5" stroke-linecap="round"/><path d="M150.60412,237.02957h-7.78438" data-paper-data="{&quot;index&quot;:null}" stroke="#000000" stroke-width="4.5" stroke-linecap="round"/><path d="M154.88554,231.64471h-7.78437" data-paper-data="{&quot;index&quot;:null}" stroke="#000000" stroke-width="5.5" stroke-linecap="round"/><path d="M158.58311,224.676h-10.11969" data-paper-data="{&quot;index&quot;:null}" stroke="#000000" stroke-width="6.5" stroke-linecap="round"/><path d="M163.0591,215.49003h-13.23344" data-paper-data="{&quot;index&quot;:null}" stroke="#000000" stroke-width="7.5" stroke-linecap="round"/><path d="M150.2149,206.62083h16.93102" stroke="#000000" stroke-width="8.5" stroke-linecap="round"/><path d="M150.0203,196.48455l22.57469,0.31676" stroke="#000000" stroke-width="9.5" stroke-linecap="round"/><path d="M150.19687,197.71432c0,20.79896 -5.68376,37.65987 -12.69502,37.65987c-7.01127,0 -12.69502,-16.8609 -12.69502,-37.65987c0,-20.79896 5.68376,-37.65987 12.69502,-37.65987c7.01127,0 12.69502,16.8609 12.69502,37.65987z" stroke="#ffe8e8" stroke-width="7.5" stroke-linecap="butt"/><path d="M149.0214,197.71432c0,19.98333 -5.15747,36.18301 -11.51955,36.18301c-6.36208,0 -11.51955,-16.19969 -11.51955,-36.18301c0,-19.98333 5.15747,-36.18301 11.51955,-36.18301c6.36208,0 11.51955,16.19969 11.51955,36.18301z" stroke="url(#color-1)" stroke-width="7.5" stroke-linecap="butt"/></g><path d="M70.19334,7.60743h-35.75v-35.75h35.75z" data-paper-data="{&quot;index&quot;:null}" fill="#000000" stroke="#ffffff" stroke-width="2" stroke-linecap="butt"/><path d="M248.19335,7.60743h-35.75v-35.75h35.75z" data-paper-data="{&quot;index&quot;:null}" fill="#000000" stroke="#ffffff" stroke-width="2" stroke-linecap="butt"/><path d="M284.19335,7.60743h-35.75v-35.75h35.75z" data-paper-data="{&quot;index&quot;:null}" fill="#000000" stroke="#ffffff" stroke-width="2" stroke-linecap="butt"/><path d="M177.19336,7.60743h-35.75v-35.75h35.75z" data-paper-data="{&quot;index&quot;:null}" fill="#000000" stroke="#ffffff" stroke-width="2" stroke-linecap="butt"/><path d="M355.19336,7.60743h-35.75v-35.75h35.75z" data-paper-data="{&quot;index&quot;:null}" fill="#000000" stroke="#ffffff" stroke-width="2" stroke-linecap="butt"/><path d="M391.19336,7.60743h-35.75v-35.75h35.75z" data-paper-data="{&quot;index&quot;:null}" fill="#000000" stroke="#ffffff" stroke-width="2" stroke-linecap="butt"/><path d="M177.19336,7.60743h-35.75v-35.75h35.75z" data-paper-data="{&quot;index&quot;:null}" fill="#000000" stroke="#ffffff" stroke-width="2" stroke-linecap="butt"/><path d="M355.19336,7.60743h-35.75v-35.75h35.75z" data-paper-data="{&quot;index&quot;:null}" fill="#000000" stroke="#ffffff" stroke-width="2" stroke-linecap="butt"/><path d="M391.19336,7.60743h-35.75v-35.75h35.75z" data-paper-data="{&quot;index&quot;:null}" fill="#000000" stroke="#ffffff" stroke-width="2" stroke-linecap="butt"/><path d="M34.52666,7.60743h-35.75v-35.75h35.75z" data-paper-data="{&quot;index&quot;:null}" fill="#000000" stroke="#ffffff" stroke-width="2" stroke-linecap="butt"/><path d="M212.52664,7.60743h-35.75v-35.75h35.75z" data-paper-data="{&quot;index&quot;:null}" fill="#000000" stroke="#ffffff" stroke-width="2" stroke-linecap="butt"/><path d="M248.52664,7.60743h-35.75v-35.75h35.75z" data-paper-data="{&quot;index&quot;:null}" fill="#000000" stroke="#ffffff" stroke-width="2" stroke-linecap="butt"/><path d="M141.52666,7.60743h-35.75v-35.75h35.75z" data-paper-data="{&quot;index&quot;:null}" fill="#000000" stroke="#ffffff" stroke-width="2" stroke-linecap="butt"/><path d="M319.52664,7.60743h-35.75v-35.75h35.75z" data-paper-data="{&quot;index&quot;:null}" fill="#000000" stroke="#ffffff" stroke-width="2" stroke-linecap="butt"/><path d="M355.52667,7.60743h-35.75v-35.75h35.75z" data-paper-data="{&quot;index&quot;:null}" fill="#000000" stroke="#ffffff" stroke-width="2" stroke-linecap="butt"/><path d="M141.52666,7.60743h-35.75v-35.75h35.75z" data-paper-data="{&quot;index&quot;:null}" fill="#000000" stroke="#ffffff" stroke-width="2" stroke-linecap="butt"/><path d="M319.52664,7.60743h-35.75v-35.75h35.75z" data-paper-data="{&quot;index&quot;:null}" fill="#000000" stroke="#ffffff" stroke-width="2" stroke-linecap="butt"/><path d="M355.52667,7.60743h-35.75v-35.75h35.75z" data-paper-data="{&quot;index&quot;:null}" fill="#000000" stroke="#ffffff" stroke-width="2" stroke-linecap="butt"/><path d="M176.52665,7.94078h-35.75v-35.75h35.75z" data-paper-data="{&quot;index&quot;:null}" fill="#000000" stroke="#ffffff" stroke-width="2" stroke-linecap="butt"/><path d="M212.52664,7.94078h-35.75v-35.75h35.75z" data-paper-data="{&quot;index&quot;:null}" fill="#000000" stroke="#ffffff" stroke-width="2" stroke-linecap="butt"/><path d="M105.52667,7.94078h-35.75v-35.75h35.75z" data-paper-data="{&quot;index&quot;:null}" fill="#000000" stroke="#ffffff" stroke-width="2" stroke-linecap="butt"/><path d="M283.52664,7.94078h-35.75v-35.75h35.75z" data-paper-data="{&quot;index&quot;:null}" fill="#000000" stroke="#ffffff" stroke-width="2" stroke-linecap="butt"/><path d="M319.52664,7.94078h-35.75v-35.75h35.75z" data-paper-data="{&quot;index&quot;:null}" fill="#000000" stroke="#ffffff" stroke-width="2" stroke-linecap="butt"/><path d="M105.52667,7.94078h-35.75v-35.75h35.75z" data-paper-data="{&quot;index&quot;:null}" fill="#000000" stroke="#ffffff" stroke-width="2" stroke-linecap="butt"/><path d="M283.52664,7.94078h-35.75v-35.75h35.75z" data-paper-data="{&quot;index&quot;:null}" fill="#000000" stroke="#ffffff" stroke-width="2" stroke-linecap="butt"/><path d="M319.52664,7.94078h-35.75v-35.75h35.75z" data-paper-data="{&quot;index&quot;:null}" fill="#000000" stroke="#ffffff" stroke-width="2" stroke-linecap="butt"/><path d="M177.19336,7.60743h-35.75v-35.75h35.75z" data-paper-data="{&quot;index&quot;:null}" fill="#000000" stroke="#ffffff" stroke-width="2" stroke-linecap="butt"/><path d="M355.19336,7.60743h-35.75v-35.75h35.75z" data-paper-data="{&quot;index&quot;:null}" fill="#000000" stroke="#ffffff" stroke-width="2" stroke-linecap="butt"/><path d="M391.19336,7.60743h-35.75v-35.75h35.75z" data-paper-data="{&quot;index&quot;:null}" fill="#000000" stroke="#ffffff" stroke-width="2" stroke-linecap="butt"/><path d="M284.19335,7.60743h-35.75v-35.75h35.75z" data-paper-data="{&quot;index&quot;:null}" fill="#000000" stroke="#ffffff" stroke-width="2" stroke-linecap="butt"/><path d="M462.19336,7.60743h-35.75v-35.75h35.75z" data-paper-data="{&quot;index&quot;:null}" fill="#000000" stroke="#ffffff" stroke-width="2" stroke-linecap="butt"/><path d="M498.19336,7.60743h-35.75v-35.75h35.75z" data-paper-data="{&quot;index&quot;:null}" fill="#000000" stroke="#ffffff" stroke-width="2" stroke-linecap="butt"/><path d="M141.52666,7.60743h-35.75v-35.75h35.75z" data-paper-data="{&quot;index&quot;:null}" fill="#000000" stroke="#ffffff" stroke-width="2" stroke-linecap="butt"/><path d="M319.52664,7.60743h-35.75v-35.75h35.75z" data-paper-data="{&quot;index&quot;:null}" fill="#000000" stroke="#ffffff" stroke-width="2" stroke-linecap="butt"/><path d="M426.52666,7.60743h-35.75v-35.75h35.75z" data-paper-data="{&quot;index&quot;:null}" fill="#000000" stroke="#ffffff" stroke-width="2" stroke-linecap="butt"/><path d="M462.52666,7.60743h-35.75v-35.75h35.75z" data-paper-data="{&quot;index&quot;:null}" fill="#000000" stroke="#ffffff" stroke-width="2" stroke-linecap="butt"/><path d="M105.52667,7.94078h-35.75v-35.75h35.75z" data-paper-data="{&quot;index&quot;:null}" fill="#000000" stroke="#ffffff" stroke-width="2" stroke-linecap="butt"/><path d="M390.52666,7.94078h-35.75v-35.75h35.75z" data-paper-data="{&quot;index&quot;:null}" fill="#000000" stroke="#ffffff" stroke-width="2" stroke-linecap="butt"/><path d="M98.24828,359.45367c0,3.20893 -38.46087,3.49887 -38.46087,0c0,-6.7078 8.60976,-12.14554 19.23043,-12.14554c10.62068,0 19.23043,5.43774 19.23043,12.14554z" fill="#ec72ff" stroke="#ffffff" stroke-width="0" stroke-linecap="butt"/></g></g></svg>