<svg version="1.1" xmlns="http://www.w3.org/2000/svg" xmlns:xlink="http://www.w3.org/1999/xlink" width="586.05406" height="479.45573" viewBox="0,0,586.05406,479.45573"><defs><linearGradient x1="163.41371" y1="148.87355" x2="172.58039" y2="148.87355" gradientUnits="userSpaceOnUse" id="color-1"><stop offset="0" stop-color="#91ff72"/><stop offset="1" stop-color="#91ff72"/></linearGradient><linearGradient x1="162.74703" y1="240.87354" x2="171.91371" y2="240.87354" gradientUnits="userSpaceOnUse" id="color-2"><stop offset="0" stop-color="#91ff72"/><stop offset="1" stop-color="#91ff72"/></linearGradient><linearGradient x1="154.43877" y1="159.01183" x2="154.43877" y2="231.37785" gradientUnits="userSpaceOnUse" id="color-3"><stop offset="0" stop-color="#91ff72"/><stop offset="1" stop-color="#00d07e"/></linearGradient><linearGradient x1="178.41373" y1="172.54499" x2="187.5804" y2="172.54499" gradientUnits="userSpaceOnUse" id="color-4"><stop offset="0" stop-color="#91ff72"/><stop offset="1" stop-color="#91ff72"/></linearGradient><linearGradient x1="178.41373" y1="213.88585" x2="187.5804" y2="213.88585" gradientUnits="userSpaceOnUse" id="color-5"><stop offset="0" stop-color="#91ff72"/><stop offset="1" stop-color="#91ff72"/></linearGradient></defs><g transform="translate(53.027,119.23266)"><g data-paper-data="{&quot;isPaintingLayer&quot;:true}" fill-rule="nonzero" stroke-linejoin="miter" stroke-miterlimit="10" stroke-dasharray="" stroke-dashoffset="0" style="mix-blend-mode: normal"><path d="M-53.027,-44.37838v-31.33333h586.05405v31.33333z" fill="none" stroke="#ffffff" stroke-width="0" stroke-linecap="butt"/><g><path d="M167.99705,144.29022c2.53131,0 4.58333,2.05202 4.58333,4.58333c0,2.53131 -2.05202,4.58333 -4.58333,4.58333c-2.53131,0 -4.58333,-2.05202 -4.58333,-4.58333c0,-2.53131 2.05202,-4.58333 4.58333,-4.58333z" fill="url(#color-1)" stroke="#ffe8e8" stroke-width="1" stroke-linecap="butt"/><path d="M167.33039,236.29022c2.53131,0 4.58333,2.05202 4.58333,4.58333c0,2.53131 -2.05202,4.58333 -4.58333,4.58333c-2.53131,0 -4.58333,-2.05202 -4.58333,-4.58333c0,-2.53131 2.05202,-4.58333 4.58333,-4.58333z" fill="url(#color-2)" stroke="#ffe8e8" stroke-width="1" stroke-linecap="butt"/><path d="M183.58858,158.42785h-24.90039" fill="none" stroke="#000000" stroke-width="7.5" stroke-linecap="round"/><path d="M183.58859,231.77081h-28.6839" fill="none" stroke="#000000" stroke-width="7.5" stroke-linecap="round"/><path d="M154.60008,166.42132h37.35058" fill="none" stroke="#000000" stroke-width="4.5" stroke-linecap="round"/><path d="M147.27824,177.09758h48.01725" fill="none" stroke="#000000" stroke-width="4.5" stroke-linecap="round"/><path d="M192.50813,221.99248h-37.35058" data-paper-data="{&quot;index&quot;:null}" fill="none" stroke="#000000" stroke-width="4.5" stroke-linecap="round"/><path d="M196.41041,208.90238h-37.35058" data-paper-data="{&quot;index&quot;:null}" fill="none" stroke="#000000" stroke-width="4.5" stroke-linecap="round"/><path d="M171.57289,159.21882c0.40717,-0.13681 0.82069,-0.20699 1.23943,-0.20699c6.36208,0 11.51955,16.19969 11.51955,36.18301c0,18.14896 -4.25407,33.17704 -9.80104,35.7831" fill="none" stroke="#000000" stroke-width="2.5" stroke-linecap="butt"/><path d="M175.50524,166.56731h-29.01725" data-paper-data="{&quot;index&quot;:null}" fill="none" stroke="#000000" stroke-width="4.5" stroke-linecap="round"/><path d="M144.93052,221.99248h30.01725" data-paper-data="{&quot;index&quot;:null}" fill="none" stroke="#000000" stroke-width="4.5" stroke-linecap="round"/><path d="M142.02824,209.04837h29.01725" data-paper-data="{&quot;index&quot;:null}" fill="none" stroke="#000000" stroke-width="4.5" stroke-linecap="round"/><path d="M143.08619,192.35452h25.12548" data-paper-data="{&quot;index&quot;:null}" fill="none" stroke="#000000" stroke-width="7.5" stroke-linecap="round"/><path d="M161.89366,192.35452h31.12548" fill="none" stroke="#000000" stroke-width="7.5" stroke-linecap="round"/><path d="M177.60774,195.19484c0,19.98333 -5.15747,36.18301 -11.51955,36.18301c-6.36208,0 -11.51955,-16.19969 -11.51955,-36.18301c0,-19.98333 5.15747,-36.18301 11.51955,-36.18301c6.36208,0 11.51955,16.19969 11.51955,36.18301z" fill="none" stroke="#000000" stroke-width="2.5" stroke-linecap="butt"/><path d="M167.13378,195.19485c0,20.79896 -5.68376,37.65987 -12.69502,37.65987c-7.01127,0 -12.69502,-16.8609 -12.69502,-37.65987c0,-20.79896 5.68376,-37.65987 12.69502,-37.65987c7.01127,0 12.69502,16.8609 12.69502,37.65987z" fill="none" stroke="#ffe8e8" stroke-width="7.5" stroke-linecap="butt"/><path d="M165.95832,195.19484c0,19.98333 -5.15747,36.18301 -11.51955,36.18301c-6.36208,0 -11.51955,-16.19969 -11.51955,-36.18301c0,-19.98333 5.15747,-36.18301 11.51955,-36.18301c6.36208,0 11.51955,16.19969 11.51955,36.18301z" fill="none" stroke="url(#color-3)" stroke-width="7.5" stroke-linecap="butt"/><path d="M183.73963,159.04541c0.16606,-0.02232 0.33304,-0.03359 0.50085,-0.03359c6.36208,0 11.51955,16.19969 11.51955,36.18301c0,18.85706 -4.59251,34.34497 -10.45605,36.03085" fill="none" stroke="#000000" stroke-width="7.5" stroke-linecap="butt"/><path d="M182.99706,168.33435c2.53131,0 4.58333,1.88516 4.58333,4.21064c0,2.32548 -2.05202,4.21064 -4.58333,4.21064c-2.53131,0 -4.58333,-1.88516 -4.58333,-4.21064c0,-2.32548 2.05202,-4.21064 4.58333,-4.21064z" fill="url(#color-4)" stroke="#ffe8e8" stroke-width="1" stroke-linecap="butt"/><path d="M182.99706,209.67521c2.53131,0 4.58333,1.88516 4.58333,4.21064c0,2.32548 -2.05202,4.21064 -4.58333,4.21064c-2.53131,0 -4.58333,-1.88516 -4.58333,-4.21064c0,-2.32548 2.05202,-4.21064 4.58333,-4.21064z" fill="url(#color-5)" stroke="#ffe8e8" stroke-width="1" stroke-linecap="butt"/></g><path d="M53.67683,358.88972h-35.75v-35.75h35.75z" data-paper-data="{&quot;index&quot;:null}" fill="#000000" stroke="#ffffff" stroke-width="2" stroke-linecap="butt"/><path d="M53.67683,289.88972h-35.75v-35.75h35.75z" data-paper-data="{&quot;index&quot;:null}" fill="#000000" stroke="#ffffff" stroke-width="2" stroke-linecap="butt"/><path d="M53.67683,323.88972h-35.75v-35.75h35.75z" data-paper-data="{&quot;index&quot;:null}" fill="#000000" stroke="#ffffff" stroke-width="2" stroke-linecap="butt"/><path d="M160.67683,358.88972h-35.75v-35.75h35.75z" data-paper-data="{&quot;index&quot;:null}" fill="#000000" stroke="#ffffff" stroke-width="2" stroke-linecap="butt"/><path d="M160.67683,289.88972h-35.75v-35.75h35.75z" data-paper-data="{&quot;index&quot;:null}" fill="#000000" stroke="#ffffff" stroke-width="2" stroke-linecap="butt"/><path d="M160.67683,289.88972h-35.75v-35.75h35.75z" data-paper-data="{&quot;index&quot;:null}" fill="#000000" stroke="#ffffff" stroke-width="2" stroke-linecap="butt"/><path d="M160.67683,323.88972h-35.75v-35.75h35.75z" data-paper-data="{&quot;index&quot;:null}" fill="#000000" stroke="#ffffff" stroke-width="2" stroke-linecap="butt"/><path d="M18.01012,358.88972h-35.75v-35.75h35.75z" data-paper-data="{&quot;index&quot;:null}" fill="#000000" stroke="#ffffff" stroke-width="2" stroke-linecap="butt"/><path d="M196.01014,358.88972h-35.75v-35.75h35.75z" data-paper-data="{&quot;index&quot;:null}" fill="#000000" stroke="#ffffff" stroke-width="2" stroke-linecap="butt"/><path d="M18.01012,289.88972h-35.75v-35.75h35.75z" data-paper-data="{&quot;index&quot;:null}" fill="#000000" stroke="#ffffff" stroke-width="2" stroke-linecap="butt"/><path d="M196.01014,289.88972h-35.75v-35.75h35.75z" data-paper-data="{&quot;index&quot;:null}" fill="#000000" stroke="#ffffff" stroke-width="2" stroke-linecap="butt"/><path d="M18.01012,323.88972h-35.75v-35.75h35.75z" data-paper-data="{&quot;index&quot;:null}" fill="#000000" stroke="#ffffff" stroke-width="2" stroke-linecap="butt"/><path d="M196.01014,323.88972h-35.75v-35.75h35.75z" data-paper-data="{&quot;index&quot;:null}" fill="#000000" stroke="#ffffff" stroke-width="2" stroke-linecap="butt"/><path d="M125.01015,358.88972h-35.75v-35.75h35.75z" data-paper-data="{&quot;index&quot;:null}" fill="#000000" stroke="#ffffff" stroke-width="2" stroke-linecap="butt"/><path d="M125.01015,289.88972h-35.75v-35.75h35.75z" data-paper-data="{&quot;index&quot;:null}" fill="#000000" stroke="#ffffff" stroke-width="2" stroke-linecap="butt"/><path d="M125.01015,289.88972h-35.75v-35.75h35.75z" data-paper-data="{&quot;index&quot;:null}" fill="#000000" stroke="#ffffff" stroke-width="2" stroke-linecap="butt"/><path d="M125.01015,323.88972h-35.75v-35.75h35.75z" data-paper-data="{&quot;index&quot;:null}" fill="#000000" stroke="#ffffff" stroke-width="2" stroke-linecap="butt"/><path d="M160.01012,359.22307h-35.75v-35.75h35.75z" data-paper-data="{&quot;index&quot;:null}" fill="#000000" stroke="#ffffff" stroke-width="2" stroke-linecap="butt"/><path d="M160.01012,290.22307h-35.75v-35.75h35.75z" data-paper-data="{&quot;index&quot;:null}" fill="#000000" stroke="#ffffff" stroke-width="2" stroke-linecap="butt"/><path d="M196.01014,290.22307h-35.75v-35.75h35.75z" data-paper-data="{&quot;index&quot;:null}" fill="#000000" stroke="#ffffff" stroke-width="2" stroke-linecap="butt"/><path d="M160.01012,324.22307h-35.75v-35.75h35.75z" data-paper-data="{&quot;index&quot;:null}" fill="#000000" stroke="#ffffff" stroke-width="2" stroke-linecap="butt"/><path d="M196.01014,324.22307h-35.75v-35.75h35.75z" data-paper-data="{&quot;index&quot;:null}" fill="#000000" stroke="#ffffff" stroke-width="2" stroke-linecap="butt"/><path d="M89.01015,359.22307h-35.75v-35.75h35.75z" data-paper-data="{&quot;index&quot;:null}" fill="#000000" stroke="#ffffff" stroke-width="2" stroke-linecap="butt"/><path d="M89.01015,290.22307h-35.75v-35.75h35.75z" data-paper-data="{&quot;index&quot;:null}" fill="#000000" stroke="#ffffff" stroke-width="2" stroke-linecap="butt"/><path d="M89.01015,290.22307h-35.75v-35.75h35.75z" data-paper-data="{&quot;index&quot;:null}" fill="#000000" stroke="#ffffff" stroke-width="2" stroke-linecap="butt"/><path d="M89.01015,324.22307h-35.75v-35.75h35.75z" data-paper-data="{&quot;index&quot;:null}" fill="#000000" stroke="#ffffff" stroke-width="2" stroke-linecap="butt"/><path d="M160.67683,358.88972h-35.75v-35.75h35.75z" data-paper-data="{&quot;index&quot;:null}" fill="#000000" stroke="#ffffff" stroke-width="2" stroke-linecap="butt"/><path d="M160.67683,289.88972h-35.75v-35.75h35.75z" data-paper-data="{&quot;index&quot;:null}" fill="#000000" stroke="#ffffff" stroke-width="2" stroke-linecap="butt"/><path d="M160.67683,323.88972h-35.75v-35.75h35.75z" data-paper-data="{&quot;index&quot;:null}" fill="#000000" stroke="#ffffff" stroke-width="2" stroke-linecap="butt"/><path d="M125.01015,358.88972h-35.75v-35.75h35.75z" data-paper-data="{&quot;index&quot;:null}" fill="#000000" stroke="#ffffff" stroke-width="2" stroke-linecap="butt"/><path d="M125.01015,289.88972h-35.75v-35.75h35.75z" data-paper-data="{&quot;index&quot;:null}" fill="#000000" stroke="#ffffff" stroke-width="2" stroke-linecap="butt"/><path d="M125.01015,323.88972h-35.75v-35.75h35.75z" data-paper-data="{&quot;index&quot;:null}" fill="#000000" stroke="#ffffff" stroke-width="2" stroke-linecap="butt"/><path d="M89.01015,359.22307h-35.75v-35.75h35.75z" data-paper-data="{&quot;index&quot;:null}" fill="#000000" stroke="#ffffff" stroke-width="2" stroke-linecap="butt"/><path d="M89.01015,290.22307h-35.75v-35.75h35.75z" data-paper-data="{&quot;index&quot;:null}" fill="#000000" stroke="#ffffff" stroke-width="2" stroke-linecap="butt"/><path d="M53.67683,-13.48266h-35.75v-35.75h35.75z" data-paper-data="{&quot;index&quot;:null}" fill="#000000" stroke="#ffffff" stroke-width="2" stroke-linecap="butt"/><path d="M53.67683,90.12095h-35.75v-35.75h35.75z" data-paper-data="{&quot;index&quot;:null}" fill="#000000" stroke="#ffffff" stroke-width="2" stroke-linecap="butt"/><path d="M53.67683,-82.48266h-35.75v-35.75h35.75z" data-paper-data="{&quot;index&quot;:null}" fill="#000000" stroke="#ffffff" stroke-width="2" stroke-linecap="butt"/><path d="M53.67683,21.12094h-35.75v-35.75h35.75z" data-paper-data="{&quot;index&quot;:null}" fill="#000000" stroke="#ffffff" stroke-width="2" stroke-linecap="butt"/><path d="M53.67683,-48.48266h-35.75v-35.75h35.75z" data-paper-data="{&quot;index&quot;:null}" fill="#000000" stroke="#ffffff" stroke-width="2" stroke-linecap="butt"/><path d="M53.67683,55.12095h-35.75v-35.75h35.75z" data-paper-data="{&quot;index&quot;:null}" fill="#000000" stroke="#ffffff" stroke-width="2" stroke-linecap="butt"/><path d="M160.67683,-13.48266h-35.75v-35.75h35.75z" data-paper-data="{&quot;index&quot;:null}" fill="#000000" stroke="#ffffff" stroke-width="2" stroke-linecap="butt"/><path d="M160.67683,90.12095h-35.75v-35.75h35.75z" data-paper-data="{&quot;index&quot;:null}" fill="#000000" stroke="#ffffff" stroke-width="2" stroke-linecap="butt"/><path d="M160.67683,-82.48266h-35.75v-35.75h35.75z" data-paper-data="{&quot;index&quot;:null}" fill="#000000" stroke="#ffffff" stroke-width="2" stroke-linecap="butt"/><path d="M160.67683,21.12094h-35.75v-35.75h35.75z" data-paper-data="{&quot;index&quot;:null}" fill="#000000" stroke="#ffffff" stroke-width="2" stroke-linecap="butt"/><path d="M160.67683,-82.48266h-35.75v-35.75h35.75z" data-paper-data="{&quot;index&quot;:null}" fill="#000000" stroke="#ffffff" stroke-width="2" stroke-linecap="butt"/><path d="M160.67683,21.12094h-35.75v-35.75h35.75z" data-paper-data="{&quot;index&quot;:null}" fill="#000000" stroke="#ffffff" stroke-width="2" stroke-linecap="butt"/><path d="M160.67683,-48.48266h-35.75v-35.75h35.75z" data-paper-data="{&quot;index&quot;:null}" fill="#000000" stroke="#ffffff" stroke-width="2" stroke-linecap="butt"/><path d="M160.67683,55.12095h-35.75v-35.75h35.75z" data-paper-data="{&quot;index&quot;:null}" fill="#000000" stroke="#ffffff" stroke-width="2" stroke-linecap="butt"/><path d="M18.01012,-13.48266h-35.75v-35.75h35.75z" data-paper-data="{&quot;index&quot;:null}" fill="#000000" stroke="#ffffff" stroke-width="2" stroke-linecap="butt"/><path d="M18.01012,90.12095h-35.75v-35.75h35.75z" data-paper-data="{&quot;index&quot;:null}" fill="#000000" stroke="#ffffff" stroke-width="2" stroke-linecap="butt"/><path d="M196.01014,-13.48266h-35.75v-35.75h35.75z" data-paper-data="{&quot;index&quot;:null}" fill="#000000" stroke="#ffffff" stroke-width="2" stroke-linecap="butt"/><path d="M196.01014,90.12095h-35.75v-35.75h35.75z" data-paper-data="{&quot;index&quot;:null}" fill="#000000" stroke="#ffffff" stroke-width="2" stroke-linecap="butt"/><path d="M18.01012,-82.48266h-35.75v-35.75h35.75z" data-paper-data="{&quot;index&quot;:null}" fill="#000000" stroke="#ffffff" stroke-width="2" stroke-linecap="butt"/><path d="M18.01012,21.12094h-35.75v-35.75h35.75z" data-paper-data="{&quot;index&quot;:null}" fill="#000000" stroke="#ffffff" stroke-width="2" stroke-linecap="butt"/><path d="M196.01014,-82.48266h-35.75v-35.75h35.75z" data-paper-data="{&quot;index&quot;:null}" fill="#000000" stroke="#ffffff" stroke-width="2" stroke-linecap="butt"/><path d="M196.01014,21.12094h-35.75v-35.75h35.75z" data-paper-data="{&quot;index&quot;:null}" fill="#000000" stroke="#ffffff" stroke-width="2" stroke-linecap="butt"/><path d="M18.01012,-48.48266h-35.75v-35.75h35.75z" data-paper-data="{&quot;index&quot;:null}" fill="#000000" stroke="#ffffff" stroke-width="2" stroke-linecap="butt"/><path d="M18.01012,55.12095h-35.75v-35.75h35.75z" data-paper-data="{&quot;index&quot;:null}" fill="#000000" stroke="#ffffff" stroke-width="2" stroke-linecap="butt"/><path d="M196.01014,-48.48266h-35.75v-35.75h35.75z" data-paper-data="{&quot;index&quot;:null}" fill="#000000" stroke="#ffffff" stroke-width="2" stroke-linecap="butt"/><path d="M196.01014,55.12095h-35.75v-35.75h35.75z" data-paper-data="{&quot;index&quot;:null}" fill="#000000" stroke="#ffffff" stroke-width="2" stroke-linecap="butt"/><path d="M125.01015,-13.48266h-35.75v-35.75h35.75z" data-paper-data="{&quot;index&quot;:null}" fill="#000000" stroke="#ffffff" stroke-width="2" stroke-linecap="butt"/><path d="M125.01015,90.12095h-35.75v-35.75h35.75z" data-paper-data="{&quot;index&quot;:null}" fill="#000000" stroke="#ffffff" stroke-width="2" stroke-linecap="butt"/><path d="M125.01015,-82.48266h-35.75v-35.75h35.75z" data-paper-data="{&quot;index&quot;:null}" fill="#000000" stroke="#ffffff" stroke-width="2" stroke-linecap="butt"/><path d="M125.01015,21.12094h-35.75v-35.75h35.75z" data-paper-data="{&quot;index&quot;:null}" fill="#000000" stroke="#ffffff" stroke-width="2" stroke-linecap="butt"/><path d="M125.01015,-82.48266h-35.75v-35.75h35.75z" data-paper-data="{&quot;index&quot;:null}" fill="#000000" stroke="#ffffff" stroke-width="2" stroke-linecap="butt"/><path d="M125.01015,21.12094h-35.75v-35.75h35.75z" data-paper-data="{&quot;index&quot;:null}" fill="#000000" stroke="#ffffff" stroke-width="2" stroke-linecap="butt"/><path d="M125.01015,-48.48266h-35.75v-35.75h35.75z" data-paper-data="{&quot;index&quot;:null}" fill="#000000" stroke="#ffffff" stroke-width="2" stroke-linecap="butt"/><path d="M125.01015,55.12095h-35.75v-35.75h35.75z" data-paper-data="{&quot;index&quot;:null}" fill="#000000" stroke="#ffffff" stroke-width="2" stroke-linecap="butt"/><path d="M160.01012,-13.14931h-35.75v-35.75h35.75z" data-paper-data="{&quot;index&quot;:null}" fill="#000000" stroke="#ffffff" stroke-width="2" stroke-linecap="butt"/><path d="M160.01012,90.4543h-35.75v-35.75h35.75z" data-paper-data="{&quot;index&quot;:null}" fill="#000000" stroke="#ffffff" stroke-width="2" stroke-linecap="butt"/><path d="M196.01014,-13.14931h-35.75v-35.75h35.75z" data-paper-data="{&quot;index&quot;:null}" fill="#000000" stroke="#ffffff" stroke-width="2" stroke-linecap="butt"/><path d="M196.01014,90.4543h-35.75v-35.75h35.75z" data-paper-data="{&quot;index&quot;:null}" fill="#000000" stroke="#ffffff" stroke-width="2" stroke-linecap="butt"/><path d="M160.01012,-82.14931h-35.75v-35.75h35.75z" data-paper-data="{&quot;index&quot;:null}" fill="#000000" stroke="#ffffff" stroke-width="2" stroke-linecap="butt"/><path d="M160.01012,21.4543h-35.75v-35.75h35.75z" data-paper-data="{&quot;index&quot;:null}" fill="#000000" stroke="#ffffff" stroke-width="2" stroke-linecap="butt"/><path d="M196.01014,-82.14931h-35.75v-35.75h35.75z" data-paper-data="{&quot;index&quot;:null}" fill="#000000" stroke="#ffffff" stroke-width="2" stroke-linecap="butt"/><path d="M196.01014,21.4543h-35.75v-35.75h35.75z" data-paper-data="{&quot;index&quot;:null}" fill="#000000" stroke="#ffffff" stroke-width="2" stroke-linecap="butt"/><path d="M160.01012,-48.14931h-35.75v-35.75h35.75z" data-paper-data="{&quot;index&quot;:null}" fill="#000000" stroke="#ffffff" stroke-width="2" stroke-linecap="butt"/><path d="M160.01012,55.4543h-35.75v-35.75h35.75z" data-paper-data="{&quot;index&quot;:null}" fill="#000000" stroke="#ffffff" stroke-width="2" stroke-linecap="butt"/><path d="M196.01014,-48.14931h-35.75v-35.75h35.75z" data-paper-data="{&quot;index&quot;:null}" fill="#000000" stroke="#ffffff" stroke-width="2" stroke-linecap="butt"/><path d="M196.01014,55.4543h-35.75v-35.75h35.75z" data-paper-data="{&quot;index&quot;:null}" fill="#000000" stroke="#ffffff" stroke-width="2" stroke-linecap="butt"/><path d="M89.01015,-13.14931h-35.75v-35.75h35.75z" data-paper-data="{&quot;index&quot;:null}" fill="#000000" stroke="#ffffff" stroke-width="2" stroke-linecap="butt"/><path d="M89.01015,90.4543h-35.75v-35.75h35.75z" data-paper-data="{&quot;index&quot;:null}" fill="#000000" stroke="#ffffff" stroke-width="2" stroke-linecap="butt"/><path d="M89.01015,-82.14931h-35.75v-35.75h35.75z" data-paper-data="{&quot;index&quot;:null}" fill="#000000" stroke="#ffffff" stroke-width="2" stroke-linecap="butt"/><path d="M89.01015,21.4543h-35.75v-35.75h35.75z" data-paper-data="{&quot;index&quot;:null}" fill="#000000" stroke="#ffffff" stroke-width="2" stroke-linecap="butt"/><path d="M89.01015,-82.14931h-35.75v-35.75h35.75z" data-paper-data="{&quot;index&quot;:null}" fill="#000000" stroke="#ffffff" stroke-width="2" stroke-linecap="butt"/><path d="M89.01015,21.4543h-35.75v-35.75h35.75z" data-paper-data="{&quot;index&quot;:null}" fill="#000000" stroke="#ffffff" stroke-width="2" stroke-linecap="butt"/><path d="M89.01015,-48.14931h-35.75v-35.75h35.75z" data-paper-data="{&quot;index&quot;:null}" fill="#000000" stroke="#ffffff" stroke-width="2" stroke-linecap="butt"/><path d="M89.01015,55.4543h-35.75v-35.75h35.75z" data-paper-data="{&quot;index&quot;:null}" fill="#000000" stroke="#ffffff" stroke-width="2" stroke-linecap="butt"/><path d="M160.67683,-13.48266h-35.75v-35.75h35.75z" data-paper-data="{&quot;index&quot;:null}" fill="#000000" stroke="#ffffff" stroke-width="2" stroke-linecap="butt"/><path d="M160.67683,90.12095h-35.75v-35.75h35.75z" data-paper-data="{&quot;index&quot;:null}" fill="#000000" stroke="#ffffff" stroke-width="2" stroke-linecap="butt"/><path d="M160.67683,-82.48266h-35.75v-35.75h35.75z" data-paper-data="{&quot;index&quot;:null}" fill="#000000" stroke="#ffffff" stroke-width="2" stroke-linecap="butt"/><path d="M160.67683,21.12094h-35.75v-35.75h35.75z" data-paper-data="{&quot;index&quot;:null}" fill="#000000" stroke="#ffffff" stroke-width="2" stroke-linecap="butt"/><path d="M160.67683,-48.48266h-35.75v-35.75h35.75z" data-paper-data="{&quot;index&quot;:null}" fill="#000000" stroke="#ffffff" stroke-width="2" stroke-linecap="butt"/><path d="M160.67683,55.12095h-35.75v-35.75h35.75z" data-paper-data="{&quot;index&quot;:null}" fill="#000000" stroke="#ffffff" stroke-width="2" stroke-linecap="butt"/><path d="M125.01015,-13.48266h-35.75v-35.75h35.75z" data-paper-data="{&quot;index&quot;:null}" fill="#000000" stroke="#ffffff" stroke-width="2" stroke-linecap="butt"/><path d="M125.01015,90.12095h-35.75v-35.75h35.75z" data-paper-data="{&quot;index&quot;:null}" fill="#000000" stroke="#ffffff" stroke-width="2" stroke-linecap="butt"/><path d="M125.01015,-82.48266h-35.75v-35.75h35.75z" data-paper-data="{&quot;index&quot;:null}" fill="#000000" stroke="#ffffff" stroke-width="2" stroke-linecap="butt"/><path d="M125.01015,21.12094h-35.75v-35.75h35.75z" data-paper-data="{&quot;index&quot;:null}" fill="#000000" stroke="#ffffff" stroke-width="2" stroke-linecap="butt"/><path d="M125.01015,-48.48266h-35.75v-35.75h35.75z" data-paper-data="{&quot;index&quot;:null}" fill="#000000" stroke="#ffffff" stroke-width="2" stroke-linecap="butt"/><path d="M125.01015,55.12095h-35.75v-35.75h35.75z" data-paper-data="{&quot;index&quot;:null}" fill="#000000" stroke="#ffffff" stroke-width="2" stroke-linecap="butt"/><path d="M89.01015,-13.14931h-35.75v-35.75h35.75z" data-paper-data="{&quot;index&quot;:null}" fill="#000000" stroke="#ffffff" stroke-width="2" stroke-linecap="butt"/><path d="M89.01015,90.4543h-35.75v-35.75h35.75z" data-paper-data="{&quot;index&quot;:null}" fill="#000000" stroke="#ffffff" stroke-width="2" stroke-linecap="butt"/><path d="M89.01015,-82.14931h-35.75v-35.75h35.75z" data-paper-data="{&quot;index&quot;:null}" fill="#000000" stroke="#ffffff" stroke-width="2" stroke-linecap="butt"/><path d="M89.01015,21.4543h-35.75v-35.75h35.75z" data-paper-data="{&quot;index&quot;:null}" fill="#000000" stroke="#ffffff" stroke-width="2" stroke-linecap="butt"/><path d="M-53.02699,0.66667v-31.33333h586.05405v31.33333z" fill="none" stroke="#ffffff" stroke-width="0" stroke-linecap="butt"/></g></g></svg>