<svg version="1.1" xmlns="http://www.w3.org/2000/svg" xmlns:xlink="http://www.w3.org/1999/xlink" width="33.51726" height="42.49755" viewBox="0,0,33.51726,42.49755"><g transform="translate(-223.24137,-154.41945)"><g data-paper-data="{&quot;isPaintingLayer&quot;:true}" fill-rule="nonzero" stroke-linejoin="miter" stroke-miterlimit="10" stroke-dasharray="" stroke-dashoffset="0" style="mix-blend-mode: normal"><path d="M224.24137,195.91701v-31.51726h31.51726v31.51726z" fill="#ffc1c1" stroke="#000000" stroke-width="2" stroke-linecap="butt"/><path d="M241.16682,181.82528c0,0.37103 -0.52241,0.67181 -1.16682,0.67181c-0.64442,0 -1.16682,-0.30078 -1.16682,-0.67181c0,-0.37103 0.52241,-0.67181 1.16682,-0.67181c0.64442,0 1.16682,0.30078 1.16682,0.67181z" fill="none" stroke="#000000" stroke-width="2" stroke-linecap="butt"/><path d="M232.66063,187.22622c0.3562,-1.53111 1.85464,-2.68037 3.64908,-2.68037c1.88222,0 3.43878,1.26445 3.69306,2.90773" data-paper-data="{&quot;index&quot;:null}" fill="none" stroke="#000000" stroke-width="2" stroke-linecap="butt"/><path d="M239.99723,187.45358c0.25428,-1.64328 1.81083,-2.90773 3.69306,-2.90773c1.79444,0 3.29288,1.14925 3.64908,2.68037" data-paper-data="{&quot;index&quot;:null}" fill="none" stroke="#000000" stroke-width="2" stroke-linecap="butt"/><path d="M228.94295,173.49082c0,-1.50364 1.21895,-2.72259 2.72259,-2.72259c1.50364,0 2.72259,1.21895 2.72259,2.72259c0,1.50364 -1.21895,2.72259 -2.72259,2.72259c-1.50364,0 -2.72259,-1.21895 -2.72259,-2.72259z" fill="#000000" stroke="#000000" stroke-width="2" stroke-linecap="butt"/><path d="M231.31573,172.71296c0,-0.9665 0.7835,-1.75 1.75,-1.75c0.9665,0 1.75,0.7835 1.75,1.75c0,0.9665 -0.7835,1.75 -1.75,1.75c-0.9665,0 -1.75,-0.7835 -1.75,-1.75z" fill="#ffffff" stroke="none" stroke-width="0.5" stroke-linecap="butt"/><path d="M229.34307,174.71323c0,-0.27614 0.22386,-0.5 0.5,-0.5c0.27614,0 0.5,0.22386 0.5,0.5c0,0.27614 -0.22386,0.5 -0.5,0.5c-0.27614,0 -0.5,-0.22386 -0.5,-0.5z" fill="#ffffff" stroke="none" stroke-width="0.5" stroke-linecap="butt"/><path d="M245.61187,173.49083c0,-1.50365 1.21894,-2.72259 2.72259,-2.72259c1.50365,0 2.72259,1.21894 2.72259,2.72259c0,1.50365 -1.21894,2.72259 -2.72259,2.72259c-1.50365,0 -2.72259,-1.21894 -2.72259,-2.72259z" fill="#000000" stroke="#000000" stroke-width="2" stroke-linecap="butt"/><path d="M247.98465,172.71296c0,-0.9665 0.7835,-1.75 1.75,-1.75c0.9665,0 1.75,0.7835 1.75,1.75c0,0.9665 -0.7835,1.75 -1.75,1.75c-0.9665,0 -1.75,-0.7835 -1.75,-1.75z" fill="#ffffff" stroke="none" stroke-width="0.5" stroke-linecap="butt"/><path d="M246.01199,174.71323c0,-0.27614 0.22386,-0.5 0.5,-0.5c0.27614,0 0.5,0.22386 0.5,0.5c0,0.27614 -0.22386,0.5 -0.5,0.5c-0.27614,0 -0.5,-0.22386 -0.5,-0.5z" fill="#ffffff" stroke="none" stroke-width="0.5" stroke-linecap="butt"/><path d="M225.1195,164.16976l5.22691,-7.93279l5.22691,7.93279z" fill="#ffc1c1" stroke="#000000" stroke-width="2" stroke-linecap="butt"/><path d="M244.40857,164.16976l5.2269,-7.93278l5.22691,7.93278z" fill="#ffc1c1" stroke="#000000" stroke-width="2" stroke-linecap="butt"/><path d="M240.08774,182.22979v4.42506" fill="none" stroke="#000000" stroke-width="2" stroke-linecap="round"/><path d="M244.95531,166.19707c0.25,0 0.25,0.25 0.25,0.25v0.1475c-0.07632,1.56678 -2.02573,1.13501 -3.14255,1.13501c-2.47797,0 -4.83464,-0.94984 -7.1376,-0.88501c0,0 -0.25,0 -0.25,-0.25c0,-0.25 0.25,-0.25 0.25,-0.25c2.39829,0.04551 4.59159,0.88501 7.1376,0.88501c0.66044,0 2.74236,0.41047 2.64255,-0.63501v-0.1475c0,0 0,-0.25 0.25,-0.25z" fill="#000000" stroke="none" stroke-width="0.5" stroke-linecap="butt"/><path d="M245.84032,168.11459c0.25,0 0.25,0.25 0.25,0.25v0.295c-0.06191,1.27095 -2.2753,1.13501 -3.23256,1.13501c-2.68254,0 -5.36498,-0.92961 -7.9326,-0.88501c0,0 -0.25,0 -0.25,-0.25c0,-0.25 0.25,-0.25 0.25,-0.25c2.62126,0.03506 5.21459,0.88501 7.9326,0.88501c0.53674,0 2.80191,0.09142 2.73256,-0.63501v-0.295c0,0 0,-0.25 0.25,-0.25z" fill="#000000" stroke="none" stroke-width="0.5" stroke-linecap="butt"/></g></g></svg>