<svg version="1.1" xmlns="http://www.w3.org/2000/svg" xmlns:xlink="http://www.w3.org/1999/xlink" width="593" height="479.25487" viewBox="0,0,593,479.25487"><defs><linearGradient x1="226.60001" y1="182.62743" x2="250.60001" y2="182.62743" gradientUnits="userSpaceOnUse" id="color-1"><stop offset="0" stop-color="#ff9e9e" stop-opacity="0"/><stop offset="1" stop-color="#ff9e9e"/></linearGradient></defs><g transform="translate(56.5,59.62744)"><g data-paper-data="{&quot;isPaintingLayer&quot;:true}" fill-rule="nonzero" stroke-linejoin="miter" stroke-miterlimit="10" stroke-dasharray="" stroke-dashoffset="0" style="mix-blend-mode: normal"><path d="M-56.5,55.72744v-31h593v31z" fill="none" stroke="none" stroke-width="2" stroke-linecap="butt"/><path d="M226.60001,418.62743v-472h24v472z" fill="url(#color-1)" stroke="none" stroke-width="0" stroke-linecap="butt"/><path d="M248.3143,-31.37257v449" fill="none" stroke="#ff6b6b" stroke-width="4" stroke-linecap="round"/><g fill="#000000" stroke="#ffffff" stroke-width="2" stroke-linecap="butt"><path d="M250.8,-26.62744v-32h32v32z"/><path d="M250.8,4.37256v-32h32v32z"/><path d="M250.8,132.37256v-32h32v32z"/><path d="M250.8,164.37256v-32h32v32z"/><path d="M250.8,196.37256v-32h32v32z"/><path d="M250.8,68.37256v-32h32v32z"/><path d="M250.8,100.37256v-32h32v32z"/><path d="M250.8,228.37256v-32h32v32z"/><path d="M250.8,260.37256v-32h32v32z"/><path d="M250.8,292.37256v-32h32v32z"/><path d="M250.8,323.37256v-32h32v32z"/><path d="M250.8,36.37256v-32h32v32z"/><g><path d="M250.8,355.37256v-32h32v32z"/><path d="M250.8,387.37256v-32h32v32z"/><path d="M250.8,418.37256v-32h32v32z"/></g></g></g></g></svg>