<svg version="1.1" xmlns="http://www.w3.org/2000/svg" xmlns:xlink="http://www.w3.org/1999/xlink" width="586.05405" height="335.45693" viewBox="0,0,586.05405,335.45693"><g transform="translate(53.02702,30.66667)"><g data-paper-data="{&quot;isPaintingLayer&quot;:true}" fill-rule="nonzero" stroke-linecap="butt" stroke-linejoin="miter" stroke-miterlimit="10" stroke-dasharray="" stroke-dashoffset="0" style="mix-blend-mode: normal"><g stroke-width="0"><path d="M395.92652,148.25l-2.92649,25.58051l-2.92649,-25.58051z" fill="#000000" stroke="#fbffea"/><path d="M393.00003,168.29026c1.79493,0 3.25,1.45507 3.25,3.25c0,1.79493 -1.45507,3.25 -3.25,3.25c-1.79493,0 -3.25,-1.45507 -3.25,-3.25c0,-1.79493 1.45507,-3.25 3.25,-3.25z" fill="#ff00ef" stroke="none"/></g><g stroke-width="0"><path d="M275.92652,193.25001l-2.92649,25.58051l-2.92649,-25.58051z" fill="#000000" stroke="#fbffea"/><path d="M273.00003,213.29026c1.79493,0 3.25,1.45507 3.25,3.25c0,1.79493 -1.45507,3.25 -3.25,3.25c-1.79493,0 -3.25,-1.45507 -3.25,-3.25c0,-1.79493 1.45507,-3.25 3.25,-3.25z" fill="#ff00ef" stroke="none"/></g><g stroke-width="0"><path d="M155.92652,238.25001l-2.92649,25.58051l-2.92649,-25.58051z" fill="#000000" stroke="#fbffea"/><path d="M153.00003,258.29026c1.79493,0 3.25,1.45507 3.25,3.25c0,1.79493 -1.45507,3.25 -3.25,3.25c-1.79493,0 -3.25,-1.45507 -3.25,-3.25c0,-1.79493 1.45507,-3.25 3.25,-3.25z" fill="#ff00ef" stroke="none"/></g><g stroke-width="0"><path d="M33.92651,278.25001l-2.92649,25.58051l-2.92649,-25.58051z" fill="#000000" stroke="#fbffea"/><path d="M31.00002,298.29026c1.79493,0 3.25,1.45507 3.25,3.25c0,1.79493 -1.45507,3.25 -3.25,3.25c-1.79493,0 -3.25,-1.45507 -3.25,-3.25c0,-1.79493 1.45507,-3.25 3.25,-3.25z" fill="#ff00ef" stroke="none"/></g><path d="M15.79165,262.1337h35.75v18.75h-35.75z" fill="#000000" stroke="#ffffff" stroke-width="2"/><path d="M135.79165,217.1337h35.75v18.75h-35.75z" fill="#000000" stroke="#ffffff" stroke-width="2"/><path d="M255.79165,172.1337h35.75v18.75h-35.75z" fill="#000000" stroke="#ffffff" stroke-width="2"/><path d="M375.79165,127.1337h35.75v18.75h-35.75z" fill="#000000" stroke="#ffffff" stroke-width="2"/><path d="M-53.02701,0.66667v-31.33333h586.05405v31.33333z" fill="none" stroke="#ffffff" stroke-width="0"/></g></g></svg>