<svg version="1.1" xmlns="http://www.w3.org/2000/svg" xmlns:xlink="http://www.w3.org/1999/xlink" width="33.51726" height="42.49756" viewBox="0,0,33.51726,42.49756"><g transform="translate(-223.24137,-154.41945)"><g data-paper-data="{&quot;isPaintingLayer&quot;:true}" fill-rule="nonzero" stroke-linecap="butt" stroke-linejoin="miter" stroke-miterlimit="10" stroke-dasharray="" stroke-dashoffset="0" style="mix-blend-mode: normal"><path d="M224.24137,195.91701v-31.51726h31.51726v31.51726z" fill="#ffbb4d" stroke="#000000" stroke-width="2"/><path d="M225.24151,194.97999v-15.30795h29.51699v15.30795z" fill="#ffffff" stroke="#000000" stroke-width="0"/><path d="M242.00035,185.78423c0,2.32789 -0.89559,4.21502 -2.00035,4.21502c-1.10476,0 -2.00035,-1.88713 -2.00035,-4.21502c0,-2.32789 0.89559,-4.21502 2.00035,-4.21502c1.10476,0 2.00035,1.88713 2.00035,4.21502z" fill="#ffcafb" stroke="#000000" stroke-width="1"/><path d="M241.16682,181.82527c0,0.37103 -0.52241,0.67181 -1.16682,0.67181c-0.64442,0 -1.16682,-0.30078 -1.16682,-0.67181c0,-0.37103 0.52241,-0.67181 1.16682,-0.67181c0.64442,0 1.16682,0.30078 1.16682,0.67181z" fill="none" stroke="#000000" stroke-width="2"/><path d="M240.00277,182.0383c-0.25428,1.64328 -1.81084,2.90773 -3.69306,2.90773c-1.79444,0 -3.29288,-1.14926 -3.64908,-2.68037" fill="none" stroke="#000000" stroke-width="2"/><path d="M247.33937,182.26566c-0.3562,1.53112 -1.85464,2.68037 -3.64908,2.68037c-1.88223,0 -3.43878,-1.26445 -3.69306,-2.90773" data-paper-data="{&quot;index&quot;:null}" fill="none" stroke="#000000" stroke-width="2"/><path d="M228.94295,173.49081c0,-1.50364 1.21895,-2.72259 2.72259,-2.72259c1.50364,0 2.72259,1.21895 2.72259,2.72259c0,1.50364 -1.21895,2.72259 -2.72259,2.72259c-1.50364,0 -2.72259,-1.21895 -2.72259,-2.72259z" fill="#000000" stroke="#000000" stroke-width="2"/><path d="M231.31573,172.71295c0,-0.9665 0.7835,-1.75 1.75,-1.75c0.9665,0 1.75,0.7835 1.75,1.75c0,0.9665 -0.7835,1.75 -1.75,1.75c-0.9665,0 -1.75,-0.7835 -1.75,-1.75z" fill="#ffffff" stroke="none" stroke-width="0.5"/><path d="M229.34307,174.71322c0,-0.27614 0.22386,-0.5 0.5,-0.5c0.27614,0 0.5,0.22386 0.5,0.5c0,0.27614 -0.22386,0.5 -0.5,0.5c-0.27614,0 -0.5,-0.22386 -0.5,-0.5z" fill="#ffffff" stroke="none" stroke-width="0.5"/><path d="M245.61187,173.49082c0,-1.50365 1.21894,-2.72259 2.72259,-2.72259c1.50365,0 2.72259,1.21894 2.72259,2.72259c0,1.50365 -1.21894,2.72259 -2.72259,2.72259c-1.50365,0 -2.72259,-1.21894 -2.72259,-2.72259z" fill="#000000" stroke="#000000" stroke-width="2"/><path d="M247.98465,172.71295c0,-0.9665 0.7835,-1.75 1.75,-1.75c0.9665,0 1.75,0.7835 1.75,1.75c0,0.9665 -0.7835,1.75 -1.75,1.75c-0.9665,0 -1.75,-0.7835 -1.75,-1.75z" fill="#ffffff" stroke="none" stroke-width="0.5"/><path d="M246.01199,174.71322c0,-0.27614 0.22386,-0.5 0.5,-0.5c0.27614,0 0.5,0.22386 0.5,0.5c0,0.27614 -0.22386,0.5 -0.5,0.5c-0.27614,0 -0.5,-0.22386 -0.5,-0.5z" fill="#ffffff" stroke="none" stroke-width="0.5"/><path d="M225.1195,164.16975l5.22691,-7.93279l5.22691,7.93279z" fill="#ffbb4d" stroke="#000000" stroke-width="2"/><path d="M244.40857,164.16975l5.2269,-7.93278l5.22691,7.93278z" fill="#ffbb4d" stroke="#000000" stroke-width="2"/></g></g></svg>