<svg version="1.1" xmlns="http://www.w3.org/2000/svg" xmlns:xlink="http://www.w3.org/1999/xlink" width="159.28816" height="86.05594" viewBox="0,0,159.28816,86.05594"><defs><linearGradient x1="137.50185" y1="221.5914" x2="137.50185" y2="293.95743" gradientUnits="userSpaceOnUse" id="color-1"><stop offset="0" stop-color="#fff880"/><stop offset="1" stop-color="#fff429"/></linearGradient><linearGradient x1="240.50185" y1="218.5914" x2="240.50185" y2="290.95743" gradientUnits="userSpaceOnUse" id="color-2"><stop offset="0" stop-color="#7fd6ff"/><stop offset="1" stop-color="#04afff"/></linearGradient></defs><g transform="translate(-121.05681,-213.28372)"><g data-paper-data="{&quot;isPaintingLayer&quot;:true}" fill="none" fill-rule="nonzero" stroke-linejoin="miter" stroke-miterlimit="10" stroke-dasharray="" stroke-dashoffset="0" style="mix-blend-mode: normal"><g><path d="M128.60293,285.36963h13.23344" stroke="#000000" stroke-width="7.5" stroke-linecap="round"/><path d="M128.60289,230.57052h13.23343" stroke="#000000" stroke-width="7.5" stroke-linecap="round"/><path d="M128.28614,238.48948h13.23344" stroke="#000000" stroke-width="7.5" stroke-linecap="round"/><path d="M138.95448,247.04195h-10.2791" stroke="#000000" stroke-width="8.5" stroke-linecap="round"/><path d="M141.51959,275.55012h-13.23344" data-paper-data="{&quot;index&quot;:null}" stroke="#000000" stroke-width="7.5" stroke-linecap="round"/><path d="M128.67537,266.68091h10.2791" stroke="#000000" stroke-width="8.5" stroke-linecap="round"/><path d="M132.68347,256.86141l-4.20273,-0.31676" stroke="#000000" stroke-width="9.5" stroke-linecap="round"/><path d="M150.60411,218.53372h-7.78437" stroke="#000000" stroke-width="4.5" stroke-linecap="round"/><path d="M147.10114,223.91864h7.78437" stroke="#000000" stroke-width="5.5" stroke-linecap="round"/><path d="M148.46342,230.88731h10.11969" stroke="#000000" stroke-width="6.5" stroke-linecap="round"/><path d="M163.0591,238.48948h-13.23344" stroke="#000000" stroke-width="7.5" stroke-linecap="round"/><path d="M150.21489,247.04195h16.93102" stroke="#000000" stroke-width="8.5" stroke-linecap="round"/><path d="M142.81973,297.08966h7.78438" data-paper-data="{&quot;index&quot;:null}" stroke="#000000" stroke-width="4.5" stroke-linecap="round"/><path d="M154.88552,291.7048h-7.78437" data-paper-data="{&quot;index&quot;:null}" stroke="#000000" stroke-width="5.5" stroke-linecap="round"/><path d="M148.46341,284.73609h10.11969" data-paper-data="{&quot;index&quot;:null}" stroke="#000000" stroke-width="6.5" stroke-linecap="round"/><path d="M163.0591,275.55012h-13.23344" data-paper-data="{&quot;index&quot;:null}" stroke="#000000" stroke-width="7.5" stroke-linecap="round"/><path d="M167.14592,266.68091h-16.93102" stroke="#000000" stroke-width="8.5" stroke-linecap="round"/><path d="M150.02029,256.54465l22.57469,0.31676" stroke="#000000" stroke-width="9.5" stroke-linecap="round"/><path d="M150.19686,257.77441c0,20.79896 -5.68376,37.65987 -12.69502,37.65987c-7.01127,0 -12.69502,-16.8609 -12.69502,-37.65987c0,-20.79896 5.68376,-37.65987 12.69502,-37.65987c7.01127,0 12.69502,16.8609 12.69502,37.65987z" stroke="#ffe8e8" stroke-width="7.5" stroke-linecap="butt"/><path d="M149.02139,257.77441c0,19.98333 -5.15747,36.18301 -11.51955,36.18301c-6.36208,0 -11.51955,-16.19969 -11.51955,-36.18301c0,-19.98333 5.15747,-36.18301 11.51955,-36.18301c6.36208,0 11.51955,16.19969 11.51955,36.18301z" stroke="url(#color-1)" stroke-width="7.5" stroke-linecap="butt"/></g><g><path d="M244.83637,282.36963h-13.23344" stroke="#000000" stroke-width="7.5" stroke-linecap="round"/><path d="M231.60292,227.57052h13.23343" stroke="#000000" stroke-width="7.5" stroke-linecap="round"/><path d="M231.28615,235.48948h13.23344" stroke="#000000" stroke-width="7.5" stroke-linecap="round"/><path d="M241.95447,244.04195h-10.2791" stroke="#000000" stroke-width="8.5" stroke-linecap="round"/><path d="M244.51959,272.55012h-13.23344" data-paper-data="{&quot;index&quot;:null}" stroke="#000000" stroke-width="7.5" stroke-linecap="round"/><path d="M231.67538,263.68091h10.2791" stroke="#000000" stroke-width="8.5" stroke-linecap="round"/><path d="M231.48076,253.54465l4.20273,0.31676" stroke="#000000" stroke-width="9.5" stroke-linecap="round"/><path d="M253.60411,215.53372h-7.78437" stroke="#000000" stroke-width="4.5" stroke-linecap="round"/><path d="M257.88552,220.91864h-7.78437" stroke="#000000" stroke-width="5.5" stroke-linecap="round"/><path d="M251.46342,227.88731h10.11969" stroke="#000000" stroke-width="6.5" stroke-linecap="round"/><path d="M266.05912,235.48948h-13.23344" stroke="#000000" stroke-width="7.5" stroke-linecap="round"/><path d="M270.1459,244.04195h-16.93102" stroke="#000000" stroke-width="8.5" stroke-linecap="round"/><path d="M253.60411,294.08966h-7.78438" data-paper-data="{&quot;index&quot;:null}" stroke="#000000" stroke-width="4.5" stroke-linecap="round"/><path d="M250.10113,288.7048h7.78437" data-paper-data="{&quot;index&quot;:null}" stroke="#000000" stroke-width="5.5" stroke-linecap="round"/><path d="M261.58312,281.73609h-10.11969" data-paper-data="{&quot;index&quot;:null}" stroke="#000000" stroke-width="6.5" stroke-linecap="round"/><path d="M266.05911,272.55012h-13.23344" data-paper-data="{&quot;index&quot;:null}" stroke="#000000" stroke-width="7.5" stroke-linecap="round"/><path d="M270.1459,263.68091h-16.93102" stroke="#000000" stroke-width="8.5" stroke-linecap="round"/><path d="M253.02029,253.54466l22.57469,0.31676" stroke="#000000" stroke-width="9.5" stroke-linecap="round"/><path d="M253.19686,254.77441c0,20.79896 -5.68376,37.65987 -12.69502,37.65987c-7.01127,0 -12.69502,-16.8609 -12.69502,-37.65987c0,-20.79896 5.68376,-37.65987 12.69502,-37.65987c7.01127,0 12.69502,16.8609 12.69502,37.65987z" stroke="#ffe8e8" stroke-width="7.5" stroke-linecap="butt"/><path d="M252.02139,254.77441c0,19.98333 -5.15747,36.18301 -11.51955,36.18301c-6.36208,0 -11.51955,-16.19969 -11.51955,-36.18301c0,-19.98333 5.15747,-36.18301 11.51955,-36.18301c6.36208,0 11.51955,16.19969 11.51955,36.18301z" stroke="url(#color-2)" stroke-width="7.5" stroke-linecap="butt"/></g></g></g></svg>