<svg version="1.1" xmlns="http://www.w3.org/2000/svg" xmlns:xlink="http://www.w3.org/1999/xlink" width="45.25" height="36.10014" viewBox="0,0,45.25,36.10014"><g transform="translate(-217.375,-161.04571)"><g data-paper-data="{&quot;isPaintingLayer&quot;:true}" fill-rule="nonzero" stroke-linecap="butt" stroke-linejoin="miter" stroke-miterlimit="10" stroke-dasharray="" stroke-dashoffset="0" style="mix-blend-mode: normal"><path d="M217.375,197.14584v-34.29167h45.25v34.29167z" fill="none" stroke="none" stroke-width="1.5"/><path d="M232.36761,182.29819v-16.22495h16.22495v16.22495z" fill="#ffbb4d" stroke="#000000" stroke-width="1"/><path d="M232.88248,181.81581v-7.88047h15.19521v7.88047z" fill="#ffffff" stroke="#000000" stroke-width="0"/><path d="M241.50985,177.0819c0,1.19839 -0.46105,2.16987 -1.02977,2.16987c-0.56873,0 -1.02977,-0.97149 -1.02977,-2.16987c0,-1.19839 0.46104,-2.16988 1.02977,-2.16988c0.56873,0 1.02977,0.97149 1.02977,2.16988z" fill="#ffcafb" stroke="#000000" stroke-width="0.5"/><path d="M241.08076,175.04385c0,0.191 -0.26894,0.34584 -0.60068,0.34584c-0.33175,0 -0.60067,-0.15484 -0.60067,-0.34584c0,-0.191 0.26893,-0.34584 0.60067,-0.34584c0.33175,0 0.60068,0.15484 0.60068,0.34584z" fill="none" stroke="#000000" stroke-width="1"/><path d="M240.48151,175.15349c-0.1309,0.84596 -0.93221,1.49689 -1.90117,1.49689c-0.92377,0 -1.69516,-0.59164 -1.87853,-1.37985" fill="none" stroke="#000000" stroke-width="1"/><path d="M244.25836,175.27053c-0.18337,0.78822 -0.95476,1.37985 -1.87853,1.37985c-0.96896,0 -1.77027,-0.65094 -1.90117,-1.49689" data-paper-data="{&quot;index&quot;:null}" fill="none" stroke="#000000" stroke-width="1"/><path d="M234.78796,170.75331c0,-0.77407 0.62751,-1.40158 1.40158,-1.40158c0.77407,0 1.40158,0.62751 1.40158,1.40158c0,0.77407 -0.62751,1.40158 -1.40158,1.40158c-0.77407,0 -1.40158,-0.62751 -1.40158,-1.40158z" fill="#00ffff" stroke="#00ffff" stroke-width="1"/><path d="M236.00946,170.35286c0,-0.49755 0.40335,-0.90089 0.90089,-0.90089c0.49755,0 0.90089,0.40334 0.90089,0.90089c0,0.49755 -0.40334,0.90089 -0.90089,0.90089c-0.49755,0 -0.90089,-0.40335 -0.90089,-0.90089z" fill="#ffffff" stroke="none" stroke-width="1"/><path d="M234.99394,171.38259c0,-0.14216 0.11524,-0.2574 0.2574,-0.2574c0.14216,0 0.2574,0.11524 0.2574,0.2574c0,0.14216 -0.11524,0.2574 -0.2574,0.2574c-0.14216,0 -0.2574,-0.11524 -0.2574,-0.2574z" fill="#ffffff" stroke="none" stroke-width="1"/><path d="M243.36905,170.75331c0,-0.77408 0.6275,-1.40158 1.40158,-1.40158c0.77408,0 1.40158,0.6275 1.40158,1.40158c0,0.77408 -0.6275,1.40158 -1.40158,1.40158c-0.77408,0 -1.40158,-0.6275 -1.40158,-1.40158z" fill="#00ffff" stroke="#00ffff" stroke-width="1"/><path d="M244.59055,170.35286c0,-0.49755 0.40334,-0.90089 0.90089,-0.90089c0.49755,0 0.90089,0.40334 0.90089,0.90089c0,0.49755 -0.40335,0.90089 -0.90089,0.90089c-0.49755,0 -0.90089,-0.40335 -0.90089,-0.90089z" fill="#ffffff" stroke="none" stroke-width="1"/><path d="M243.57503,171.38259c0,-0.14216 0.11524,-0.2574 0.2574,-0.2574c0.14216,0 0.2574,0.11524 0.2574,0.2574c0,0.14216 -0.11524,0.2574 -0.2574,0.2574c-0.14216,0 -0.2574,-0.11524 -0.2574,-0.2574z" fill="#ffffff" stroke="none" stroke-width="1"/><path d="M219.80073,194.99116l4.44504,-7.65687l-4.44504,-7.11171l12.29085,3.49728v7.7535z" fill="#54a2a2" stroke="#000000" stroke-width="1.5"/><path d="M246.12174,193.50405v-11.63026l14.0631,2.5845v6.46125z" fill="#54a2a2" stroke="#000000" stroke-width="1.5"/><path d="M246.7885,192.95263l0.01685,-4.01368l13.26836,-0.06266l-0.55563,1.73691z" fill="#dff881" stroke="#000000" stroke-width="0"/><path d="M231.81468,193.50405v-11.63026h14.49167v11.63026z" fill="#54a2a2" stroke="#000000" stroke-width="1.5"/><path d="M231.81468,193.50405v-2.40679l14.49167,-2.1114v4.51819z" fill="#dff881" stroke="none" stroke-width="0"/><path d="M246.12174,193.50406v-11.63026l14.0631,2.5845v6.46125z" fill="none" stroke="#000000" stroke-width="1.5"/><path d="M231.81468,193.50405v-11.63026h14.15829v11.63026z" fill="none" stroke="#000000" stroke-width="1.5"/><path d="M252.48139,186.64434c0,-0.77408 0.6275,-1.40158 1.40158,-1.40158c0.77408,0 1.40158,0.6275 1.40158,1.40158c0,0.77408 -0.6275,1.40158 -1.40158,1.40158c-0.77408,0 -1.40158,-0.6275 -1.40158,-1.40158z" fill="#ffb0b0" stroke="#ffb0b0" stroke-width="1"/><path d="M253.70289,186.24389c0,-0.49755 0.40334,-0.90089 0.90089,-0.90089c0.49755,0 0.90089,0.40334 0.90089,0.90089c0,0.49755 -0.40335,0.90089 -0.90089,0.90089c-0.49755,0 -0.90089,-0.40335 -0.90089,-0.90089z" fill="#ffffff" stroke="none" stroke-width="1"/><path d="M252.68737,187.27362c0,-0.14216 0.11524,-0.2574 0.2574,-0.2574c0.14216,0 0.2574,0.11524 0.2574,0.2574c0,0.14216 -0.11524,0.2574 -0.2574,0.2574c-0.14216,0 -0.2574,-0.11524 -0.2574,-0.2574z" fill="#ffffff" stroke="none" stroke-width="1"/><path d="M232.15016,188.98373c-1.22412,-3.29266 7.57433,-0.37267 7.57433,-0.37267c0,0 2.91824,-2.5722 3.65194,-0.59869c0.7337,1.97352 -3.59594,3.6349 -3.59594,3.6349c0,0 -6.40621,0.62911 -7.63032,-2.66354z" fill="#54a2a2" stroke="#000000" stroke-width="1"/><path d="M217.375,197.14584v-34.29167h45.25v34.29167z" fill="none" stroke="none" stroke-width="1.5"/><path d="M232.81966,166.03824l2.69079,-4.08377l2.69079,4.08377z" fill="#ffbb4d" stroke="#000000" stroke-width="1"/><path d="M242.74959,166.03824l2.69079,-4.08376l2.69079,4.08376z" fill="#ffbb4d" stroke="#000000" stroke-width="1"/><path d="M217.375,197.14585v-34.29167h45.25v34.29167z" fill="none" stroke="none" stroke-width="1.5"/></g></g></svg>