<svg version="1.1" xmlns="http://www.w3.org/2000/svg" xmlns:xlink="http://www.w3.org/1999/xlink" width="595.06305" height="608.25151" viewBox="0,0,595.06305,608.25151"><g transform="translate(53.02697,159.7732)"><g data-paper-data="{&quot;isPaintingLayer&quot;:true}" fill-rule="nonzero" stroke="#ffffff" stroke-linecap="butt" stroke-linejoin="miter" stroke-miterlimit="10" stroke-dasharray="" stroke-dashoffset="0" style="mix-blend-mode: normal"><path d="M-53.02697,8.17419v-31.33333h586.05405v31.33333z" fill="none" stroke-width="0"/><path d="M-44.01797,-68.40239v-31.33333h586.05405v31.33333z" fill="none" stroke-width="0"/><path d="M85.5777,-123.0232h-35.75v-35.75h35.75z" data-paper-data="{&quot;index&quot;:null}" fill="#000000" stroke-width="2"/><path d="M85.5777,-54.0232h-35.75v-35.75h35.75z" data-paper-data="{&quot;index&quot;:null}" fill="#000000" stroke-width="2"/><path d="M85.5777,-88.0232h-35.75v-35.75h35.75z" data-paper-data="{&quot;index&quot;:null}" fill="#000000" stroke-width="2"/><path d="M376.19037,273.37319h-35.75v-35.75h35.75z" data-paper-data="{&quot;index&quot;:null}" fill="#000000" stroke-width="2"/><path d="M376.19037,169.76958h-35.75v-35.75h35.75z" data-paper-data="{&quot;index&quot;:null}" fill="#000000" stroke-width="2"/><path d="M376.19037,342.37319h-35.75v-35.75h35.75z" data-paper-data="{&quot;index&quot;:null}" fill="#000000" stroke-width="2"/><path d="M376.19037,238.76958h-35.75v-35.75h35.75z" data-paper-data="{&quot;index&quot;:null}" fill="#000000" stroke-width="2"/><path d="M376.19037,308.37319h-35.75v-35.75h35.75z" data-paper-data="{&quot;index&quot;:null}" fill="#000000" stroke-width="2"/><path d="M376.19037,204.76958h-35.75v-35.75h35.75z" data-paper-data="{&quot;index&quot;:null}" fill="#000000" stroke-width="2"/><path d="M376.19037,273.03984h-35.75v-35.75h35.75z" data-paper-data="{&quot;index&quot;:null}" fill="#000000" stroke-width="2"/><path d="M376.19037,169.43623h-35.75v-35.75h35.75z" data-paper-data="{&quot;index&quot;:null}" fill="#000000" stroke-width="2"/><path d="M376.19037,342.03984h-35.75v-35.75h35.75z" data-paper-data="{&quot;index&quot;:null}" fill="#000000" stroke-width="2"/><path d="M376.19037,238.43623h-35.75v-35.75h35.75z" data-paper-data="{&quot;index&quot;:null}" fill="#000000" stroke-width="2"/><path d="M376.19037,308.03984h-35.75v-35.75h35.75z" data-paper-data="{&quot;index&quot;:null}" fill="#000000" stroke-width="2"/><path d="M376.19037,204.43623h-35.75v-35.75h35.75z" data-paper-data="{&quot;index&quot;:null}" fill="#000000" stroke-width="2"/><path d="M85.57771,-17.91809h-35.75v-35.75h35.75z" data-paper-data="{&quot;index&quot;:null}" fill="#000000" stroke-width="2"/><path d="M85.57771,51.08191h-35.75v-35.75h35.75z" data-paper-data="{&quot;index&quot;:null}" fill="#000000" stroke-width="2"/><path d="M85.57771,17.08191h-35.75v-35.75h35.75z" data-paper-data="{&quot;index&quot;:null}" fill="#000000" stroke-width="2"/><path d="M376.19037,378.4783h-35.75v-35.75h35.75z" data-paper-data="{&quot;index&quot;:null}" fill="#000000" stroke-width="2"/><path d="M376.19037,274.87469h-35.75v-35.75h35.75z" data-paper-data="{&quot;index&quot;:null}" fill="#000000" stroke-width="2"/><path d="M376.19037,447.4783h-35.75v-35.75h35.75z" data-paper-data="{&quot;index&quot;:null}" fill="#000000" stroke-width="2"/><path d="M376.19037,343.87469h-35.75v-35.75h35.75z" data-paper-data="{&quot;index&quot;:null}" fill="#000000" stroke-width="2"/><path d="M376.19037,413.4783h-35.75v-35.75h35.75z" data-paper-data="{&quot;index&quot;:null}" fill="#000000" stroke-width="2"/><path d="M376.19037,309.87469h-35.75v-35.75h35.75z" data-paper-data="{&quot;index&quot;:null}" fill="#000000" stroke-width="2"/><path d="M376.19037,378.14495h-35.75v-35.75h35.75z" data-paper-data="{&quot;index&quot;:null}" fill="#000000" stroke-width="2"/><path d="M376.19037,274.54134h-35.75v-35.75h35.75z" data-paper-data="{&quot;index&quot;:null}" fill="#000000" stroke-width="2"/><path d="M376.19037,447.14495h-35.75v-35.75h35.75z" data-paper-data="{&quot;index&quot;:null}" fill="#000000" stroke-width="2"/><path d="M376.19037,343.54134h-35.75v-35.75h35.75z" data-paper-data="{&quot;index&quot;:null}" fill="#000000" stroke-width="2"/><path d="M376.19037,413.14495h-35.75v-35.75h35.75z" data-paper-data="{&quot;index&quot;:null}" fill="#000000" stroke-width="2"/><path d="M376.19037,309.54134h-35.75v-35.75h35.75z" data-paper-data="{&quot;index&quot;:null}" fill="#000000" stroke-width="2"/></g></g></svg>