<svg version="1.1" xmlns="http://www.w3.org/2000/svg" xmlns:xlink="http://www.w3.org/1999/xlink" width="45.25" height="38.28847" viewBox="0,0,45.25,38.28847"><g transform="translate(-217.375,-159.76615)"><g data-paper-data="{&quot;isPaintingLayer&quot;:true}" fill-rule="nonzero" stroke-linejoin="miter" stroke-miterlimit="10" stroke-dasharray="" stroke-dashoffset="0" style="mix-blend-mode: normal"><path d="M262.625,159.76616v34.29167h-45.25v-34.29167z" data-paper-data="{&quot;index&quot;:null}" fill="none" stroke="none" stroke-width="1.5" stroke-linecap="butt"/><path d="M262.625,159.76616v34.29167h-45.25v-34.29167z" data-paper-data="{&quot;index&quot;:null}" fill="none" stroke="none" stroke-width="1.5" stroke-linecap="butt"/><path d="M262.625,159.76615v34.29167h-45.25v-34.29167z" data-paper-data="{&quot;index&quot;:null}" fill="none" stroke="none" stroke-width="1.5" stroke-linecap="butt"/><path d="M248.59256,174.61381v16.22495h-16.22495v-16.22495z" data-paper-data="{&quot;index&quot;:null}" fill="#2f2f2f" stroke="#000000" stroke-width="1" stroke-linecap="butt"/><path d="M248.07769,175.09619v7.88047h-15.19521v-7.88047z" data-paper-data="{&quot;index&quot;:null}" fill="#2f2f2f" stroke="#000000" stroke-width="0" stroke-linecap="butt"/><path d="M242.37989,176.29815c2.18551,0 5.41621,0.76186 2.85165,3.45413c-0.23095,0.24246 -1.52237,0.42298 -2.03948,0.42877c-2.29506,0.0257 -4.82904,0.80095 -6.88193,-0.2255c-1.23147,-0.61573 -1.23147,-2.6787 0,-3.29443c0.39963,-0.19983 2.52132,-0.23953 2.62061,-0.41459c0.37085,-0.65383 0.96644,-1.46056 1.71812,-1.46056c0.60601,0 1.05232,0.60133 1.57848,0.90199z" data-paper-data="{&quot;index&quot;:null}" fill="#ffffff" stroke="none" stroke-width="0.5" stroke-linecap="butt"/><path d="M240.48008,181.99998c-0.56873,0 -1.02977,-0.97149 -1.02977,-2.16988c0,-1.19838 0.46104,-2.16987 1.02977,-2.16987c0.56872,0 1.02977,0.97148 1.02977,2.16987c0,1.19839 -0.46104,2.16988 -1.02977,2.16988z" data-paper-data="{&quot;index&quot;:null}" fill="#ffcafb" stroke="#000000" stroke-width="0.5" stroke-linecap="butt"/><path d="M240.48008,182.21399c-0.33174,0 -0.60067,-0.15484 -0.60067,-0.34584c0,-0.191 0.26892,-0.34584 0.60067,-0.34584c0.33174,0 0.60068,0.15484 0.60068,0.34584c0,0.191 -0.26893,0.34584 -0.60068,0.34584z" data-paper-data="{&quot;index&quot;:null}" fill="none" stroke="#000000" stroke-width="1" stroke-linecap="butt"/><path d="M236.70181,181.64147c0.18337,-0.78821 0.95476,-1.37985 1.87853,-1.37985c0.96896,0 1.77027,0.65093 1.90117,1.49689" data-paper-data="{&quot;index&quot;:null}" fill="none" stroke="#000000" stroke-width="1" stroke-linecap="butt"/><path d="M240.47866,181.75851c0.1309,-0.84595 0.93221,-1.49689 1.90117,-1.49689c0.92377,0 1.69516,0.59163 1.87853,1.37985" data-paper-data="{&quot;index&quot;:null}" fill="none" stroke="#000000" stroke-width="1" stroke-linecap="butt"/><path d="M236.18954,184.75711c0.77407,0 1.40158,0.62751 1.40158,1.40158c0,0.77407 -0.62751,1.40158 -1.40158,1.40158c-0.77407,0 -1.40158,-0.62751 -1.40158,-1.40158c0,-0.77407 0.62751,-1.40158 1.40158,-1.40158z" data-paper-data="{&quot;index&quot;:null}" fill="#00ffff" stroke="#00ffff" stroke-width="1" stroke-linecap="butt"/><path d="M236.91035,185.65825c0.49755,0 0.90089,0.40334 0.90089,0.90089c0,0.49755 -0.40334,0.90089 -0.90089,0.90089c-0.49754,0 -0.90089,-0.40334 -0.90089,-0.90089c0,-0.49754 0.40334,-0.90089 0.90089,-0.90089z" data-paper-data="{&quot;index&quot;:null}" fill="#ffffff" stroke="none" stroke-width="1" stroke-linecap="butt"/><path d="M235.25134,185.27201c0.14216,0 0.2574,0.11524 0.2574,0.2574c0,0.14216 -0.11524,0.2574 -0.2574,0.2574c-0.14216,0 -0.2574,-0.11524 -0.2574,-0.2574c0,-0.14216 0.11524,-0.2574 0.2574,-0.2574z" data-paper-data="{&quot;index&quot;:null}" fill="#ffffff" stroke="none" stroke-width="1" stroke-linecap="butt"/><path d="M244.77063,184.75711c0.77408,0 1.40158,0.6275 1.40158,1.40158c0,0.77408 -0.6275,1.40158 -1.40158,1.40158c-0.77408,0 -1.40158,-0.6275 -1.40158,-1.40158c0,-0.77408 0.6275,-1.40158 1.40158,-1.40158z" data-paper-data="{&quot;index&quot;:null}" fill="#00ffff" stroke="#00ffff" stroke-width="1" stroke-linecap="butt"/><path d="M245.49144,185.65825c0.49754,0 0.90089,0.40334 0.90089,0.90089c0,0.49755 -0.40334,0.90089 -0.90089,0.90089c-0.49755,0 -0.90089,-0.40334 -0.90089,-0.90089c0,-0.49754 0.40334,-0.90089 0.90089,-0.90089z" data-paper-data="{&quot;index&quot;:null}" fill="#ffffff" stroke="none" stroke-width="1" stroke-linecap="butt"/><path d="M243.83243,185.27201c0.14216,0 0.2574,0.11524 0.2574,0.2574c0,0.14216 -0.11524,0.2574 -0.2574,0.2574c-0.14216,0 -0.2574,-0.11524 -0.2574,-0.2574c0,-0.14216 0.11524,-0.2574 0.2574,-0.2574z" data-paper-data="{&quot;index&quot;:null}" fill="#ffffff" stroke="none" stroke-width="1" stroke-linecap="butt"/><path d="M232.09158,165.43864v7.7535l-12.29085,3.49728l4.44504,-7.11171l-4.44504,-7.65687z" data-paper-data="{&quot;index&quot;:null}" fill="#84ff5e" stroke="#000000" stroke-width="1.5" stroke-linecap="butt"/><path d="M260.18484,165.99246v6.46125l-14.0631,2.5845v-11.63026z" data-paper-data="{&quot;index&quot;:null}" fill="#84ff5e" stroke="#000000" stroke-width="1.5" stroke-linecap="butt"/><path d="M259.51808,166.2988l0.55563,1.73691l-13.26836,-0.06266l-0.01685,-4.01368z" data-paper-data="{&quot;index&quot;:null}" fill="#6f3b9f" stroke="#000000" stroke-width="0" stroke-linecap="butt"/><path d="M246.30635,163.40795v11.63026h-14.49167v-11.63026z" data-paper-data="{&quot;index&quot;:null}" fill="#84ff5e" stroke="#000000" stroke-width="1.5" stroke-linecap="butt"/><path d="M246.30635,163.40795v4.51819l-14.49167,-2.1114v-2.40679z" data-paper-data="{&quot;index&quot;:null}" fill="#6f3b9f" stroke="none" stroke-width="0" stroke-linecap="butt"/><path d="M232.15017,167.92827c1.22411,-3.29265 7.63032,-2.66354 7.63032,-2.66354c0,0 4.32964,1.66138 3.59594,3.6349c-0.7337,1.97351 -3.65194,-0.59869 -3.65194,-0.59869c0,0 -8.79845,2.91999 -7.57433,-0.37267z" data-paper-data="{&quot;index&quot;:null}" fill="#84ff5e" stroke="#000000" stroke-width="1" stroke-linecap="butt"/><path d="M238.20124,190.87377l-2.69079,4.08377l-2.69079,-4.08377z" data-paper-data="{&quot;index&quot;:null}" fill="#2f2f2f" stroke="#000000" stroke-width="1" stroke-linecap="butt"/><path d="M248.13117,190.87377l-2.69079,4.08376l-2.69079,-4.08376z" data-paper-data="{&quot;index&quot;:null}" fill="#2f2f2f" stroke="#000000" stroke-width="1" stroke-linecap="butt"/><path d="M249.37307,175.53324v17.16658h-17.16658v-17.16658z" data-paper-data="{&quot;index&quot;:null}" fill="#ffc1c1" stroke="#000000" stroke-width="1" stroke-linecap="butt"/><path d="M240.78978,183.57454c-0.35099,0 -0.63553,-0.16383 -0.63553,-0.36592c0,-0.20209 0.28453,-0.36592 0.63553,-0.36592c0.35099,0 0.63553,0.16383 0.63553,0.36592c0,0.20209 -0.28453,0.36592 -0.63553,0.36592z" data-paper-data="{&quot;index&quot;:null}" fill="none" stroke="#000000" stroke-width="1" stroke-linecap="butt"/><path d="M240.79128,180.14304c-0.1385,0.89505 -0.98632,1.58376 -2.01151,1.58376c-0.97738,0 -1.79354,-0.62597 -1.98755,-1.45992" data-paper-data="{&quot;index&quot;:null}" fill="none" stroke="#000000" stroke-width="1" stroke-linecap="butt"/><path d="M244.78733,180.26688c-0.19401,0.83396 -1.01017,1.45992 -1.98755,1.45992c-1.0252,0 -1.87301,-0.68871 -2.01151,-1.58376" data-paper-data="{&quot;index&quot;:null}" fill="none" stroke="#000000" stroke-width="1" stroke-linecap="butt"/><path d="M236.25023,186.26525c0.81899,0 1.48292,0.66393 1.48292,1.48292c0,0.81899 -0.66393,1.48292 -1.48292,1.48292c-0.81899,0 -1.48292,-0.66393 -1.48292,-1.48292c0,-0.81899 0.66393,-1.48292 1.48292,-1.48292z" data-paper-data="{&quot;index&quot;:null}" fill="#000000" stroke="#000000" stroke-width="1" stroke-linecap="butt"/><path d="M237.01287,187.21867c0.52643,0 0.95318,0.42675 0.95318,0.95318c0,0.52643 -0.42675,0.95318 -0.95318,0.95318c-0.52643,0 -0.95318,-0.42675 -0.95318,-0.95318c0,-0.52643 0.42675,-0.95318 0.95318,-0.95318z" data-paper-data="{&quot;index&quot;:null}" fill="#ffffff" stroke="none" stroke-width="1" stroke-linecap="butt"/><path d="M235.25758,186.81002c0.15041,0 0.27234,0.12193 0.27234,0.27234c0,0.15041 -0.12193,0.27234 -0.27234,0.27234c-0.15041,0 -0.27234,-0.12193 -0.27234,-0.27234c0,-0.15041 0.12193,-0.27234 0.27234,-0.27234z" data-paper-data="{&quot;index&quot;:null}" fill="#ffffff" stroke="none" stroke-width="1" stroke-linecap="butt"/><path d="M245.32933,186.26524c0.819,0 1.48292,0.66392 1.48292,1.48292c0,0.819 -0.66392,1.48292 -1.48292,1.48292c-0.819,0 -1.48292,-0.66392 -1.48292,-1.48292c0,-0.819 0.66392,-1.48292 1.48292,-1.48292z" data-paper-data="{&quot;index&quot;:null}" fill="#000000" stroke="#000000" stroke-width="1" stroke-linecap="butt"/><path d="M246.09198,187.21867c0.52643,0 0.95318,0.42675 0.95318,0.95318c0,0.52643 -0.42675,0.95318 -0.95318,0.95318c-0.52643,0 -0.95318,-0.42675 -0.95318,-0.95318c0,-0.52643 0.42675,-0.95318 0.95318,-0.95318z" data-paper-data="{&quot;index&quot;:null}" fill="#ffffff" stroke="none" stroke-width="1" stroke-linecap="butt"/><path d="M244.33668,186.81002c0.15041,0 0.27234,0.12193 0.27234,0.27234c0,0.15041 -0.12193,0.27234 -0.27234,0.27234c-0.15041,0 -0.27234,-0.12193 -0.27234,-0.27234c0,-0.15041 0.12193,-0.27234 0.27234,-0.27234z" data-paper-data="{&quot;index&quot;:null}" fill="#ffffff" stroke="none" stroke-width="1" stroke-linecap="butt"/><path d="M238.37868,192.82509l-2.84695,4.32077l-2.84695,-4.32077z" data-paper-data="{&quot;index&quot;:null}" fill="#ffc1c1" stroke="#000000" stroke-width="1" stroke-linecap="butt"/><path d="M248.8849,192.82509l-2.84695,4.32077l-2.84695,-4.32077z" data-paper-data="{&quot;index&quot;:null}" fill="#ffc1c1" stroke="#000000" stroke-width="1" stroke-linecap="butt"/><path d="M240.83756,182.98829v-2.41021" data-paper-data="{&quot;index&quot;:null}" fill="none" stroke="#000000" stroke-width="1" stroke-linecap="round"/><path d="M243.35263,191.58471v-0.08034c0.05437,-0.56944 -1.0796,-0.34587 -1.43932,-0.34587c-1.38674,0 -2.58137,0.45725 -3.88765,0.48204c0,0 -0.13617,0 -0.13617,-0.13617c0,-0.13617 0.13617,-0.13617 0.13617,-0.13617c1.25435,0.03531 2.53797,-0.48204 3.88765,-0.48204c0.6083,0 1.67009,-0.23517 1.71166,0.61821v0.08034c0,0 0,0.13617 -0.13617,0.13617c-0.13617,0 -0.13617,-0.13617 -0.13617,-0.13617z" data-paper-data="{&quot;index&quot;:null}" fill="#000000" stroke="none" stroke-width="1" stroke-linecap="butt"/><path d="M243.83467,190.54028v-0.16068c0.03777,-0.39566 -1.196,-0.34587 -1.48835,-0.34587c-1.48042,0 -2.89294,0.46294 -4.32067,0.48204c0,0 -0.13617,0 -0.13617,-0.13617c0,-0.13617 0.13617,-0.13617 0.13617,-0.13617c1.39851,0.02429 2.85957,-0.48204 4.32067,-0.48204c0.5214,0 1.72697,-0.07404 1.76069,0.61821v0.16068c0,0 0,0.13617 -0.13617,0.13617c-0.13617,0 -0.13617,-0.13617 -0.13617,-0.13617z" data-paper-data="{&quot;index&quot;:null}" fill="#000000" stroke="none" stroke-width="1" stroke-linecap="butt"/><path d="M253.96809,171.45717l2.05022,-2.05022" data-paper-data="{&quot;index&quot;:null}" fill="none" stroke="#000000" stroke-width="1" stroke-linecap="round"/><path d="M256.01831,171.34327l-1.93632,-1.93632" data-paper-data="{&quot;index&quot;:null}" fill="none" stroke="#000000" stroke-width="1" stroke-linecap="round"/><path d="M260.18484,165.99246v6.46125l-14.0631,2.5845v-11.63026z" data-paper-data="{&quot;index&quot;:null}" fill="none" stroke="#000000" stroke-width="1.5" stroke-linecap="butt"/><path d="M245.97297,163.40796v11.63026h-14.15829v-11.63026z" data-paper-data="{&quot;index&quot;:null}" fill="none" stroke="#000000" stroke-width="1.5" stroke-linecap="butt"/></g></g></svg>