<svg version="1.1" xmlns="http://www.w3.org/2000/svg" xmlns:xlink="http://www.w3.org/1999/xlink" width="45.25" height="36.10015" viewBox="0,0,45.25,36.10015"><g transform="translate(-217.375,-161.95447)"><g data-paper-data="{&quot;isPaintingLayer&quot;:true}" fill-rule="nonzero" stroke-linecap="butt" stroke-linejoin="miter" stroke-miterlimit="10" stroke-dasharray="" stroke-dashoffset="0" style="mix-blend-mode: normal"><path d="M262.625,161.95448v34.29167h-45.25v-34.29167z" data-paper-data="{&quot;index&quot;:null}" fill="none" stroke="none" stroke-width="1.5"/><path d="M262.625,161.95448v34.29167h-45.25v-34.29167z" data-paper-data="{&quot;index&quot;:null}" fill="none" stroke="none" stroke-width="1.5"/><path d="M262.625,161.95447v34.29167h-45.25v-34.29167z" data-paper-data="{&quot;index&quot;:null}" fill="none" stroke="none" stroke-width="1.5"/><path d="M248.59256,176.80213v16.22495h-16.22495v-16.22495z" data-paper-data="{&quot;index&quot;:null}" fill="#2f2f2f" stroke="#000000" stroke-width="1"/><path d="M248.07769,177.28451v7.88047h-15.19521v-7.88047z" data-paper-data="{&quot;index&quot;:null}" fill="#2f2f2f" stroke="#000000" stroke-width="0"/><path d="M242.37989,178.48647c2.18551,0 5.41621,0.76186 2.85165,3.45413c-0.23095,0.24246 -1.52237,0.42298 -2.03948,0.42877c-2.29506,0.0257 -4.82904,0.80095 -6.88193,-0.2255c-1.23147,-0.61573 -1.23147,-2.6787 0,-3.29443c0.39963,-0.19983 2.52132,-0.23953 2.62061,-0.41459c0.37085,-0.65383 0.96644,-1.46056 1.71812,-1.46056c0.60601,0 1.05232,0.60133 1.57848,0.90199z" data-paper-data="{&quot;index&quot;:null}" fill="#ffffff" stroke="none" stroke-width="0.5"/><path d="M240.48008,184.1883c-0.56873,0 -1.02977,-0.97149 -1.02977,-2.16988c0,-1.19838 0.46104,-2.16987 1.02977,-2.16987c0.56872,0 1.02977,0.97148 1.02977,2.16987c0,1.19839 -0.46104,2.16988 -1.02977,2.16988z" data-paper-data="{&quot;index&quot;:null}" fill="#ffcafb" stroke="#000000" stroke-width="0.5"/><path d="M240.48008,184.40231c-0.33174,0 -0.60067,-0.15484 -0.60067,-0.34584c0,-0.191 0.26892,-0.34584 0.60067,-0.34584c0.33174,0 0.60068,0.15484 0.60068,0.34584c0,0.191 -0.26893,0.34584 -0.60068,0.34584z" data-paper-data="{&quot;index&quot;:null}" fill="none" stroke="#000000" stroke-width="1"/><path d="M236.70181,183.82979c0.18337,-0.78821 0.95476,-1.37985 1.87853,-1.37985c0.96896,0 1.77027,0.65093 1.90117,1.49689" data-paper-data="{&quot;index&quot;:null}" fill="none" stroke="#000000" stroke-width="1"/><path d="M240.47866,183.94683c0.1309,-0.84595 0.93221,-1.49689 1.90117,-1.49689c0.92377,0 1.69516,0.59163 1.87853,1.37985" data-paper-data="{&quot;index&quot;:null}" fill="none" stroke="#000000" stroke-width="1"/><path d="M236.18954,186.94543c0.77407,0 1.40158,0.62751 1.40158,1.40158c0,0.77407 -0.62751,1.40158 -1.40158,1.40158c-0.77407,0 -1.40158,-0.62751 -1.40158,-1.40158c0,-0.77407 0.62751,-1.40158 1.40158,-1.40158z" data-paper-data="{&quot;index&quot;:null}" fill="#00ffff" stroke="#00ffff" stroke-width="1"/><path d="M236.91035,187.84657c0.49755,0 0.90089,0.40334 0.90089,0.90089c0,0.49755 -0.40334,0.90089 -0.90089,0.90089c-0.49754,0 -0.90089,-0.40334 -0.90089,-0.90089c0,-0.49754 0.40334,-0.90089 0.90089,-0.90089z" data-paper-data="{&quot;index&quot;:null}" fill="#ffffff" stroke="none" stroke-width="1"/><path d="M235.25134,187.46033c0.14216,0 0.2574,0.11524 0.2574,0.2574c0,0.14216 -0.11524,0.2574 -0.2574,0.2574c-0.14216,0 -0.2574,-0.11524 -0.2574,-0.2574c0,-0.14216 0.11524,-0.2574 0.2574,-0.2574z" data-paper-data="{&quot;index&quot;:null}" fill="#ffffff" stroke="none" stroke-width="1"/><path d="M244.77063,186.94543c0.77408,0 1.40158,0.6275 1.40158,1.40158c0,0.77408 -0.6275,1.40158 -1.40158,1.40158c-0.77408,0 -1.40158,-0.6275 -1.40158,-1.40158c0,-0.77408 0.6275,-1.40158 1.40158,-1.40158z" data-paper-data="{&quot;index&quot;:null}" fill="#00ffff" stroke="#00ffff" stroke-width="1"/><path d="M245.49144,187.84657c0.49754,0 0.90089,0.40334 0.90089,0.90089c0,0.49755 -0.40334,0.90089 -0.90089,0.90089c-0.49755,0 -0.90089,-0.40334 -0.90089,-0.90089c0,-0.49754 0.40334,-0.90089 0.90089,-0.90089z" data-paper-data="{&quot;index&quot;:null}" fill="#ffffff" stroke="none" stroke-width="1"/><path d="M243.83243,187.46033c0.14216,0 0.2574,0.11524 0.2574,0.2574c0,0.14216 -0.11524,0.2574 -0.2574,0.2574c-0.14216,0 -0.2574,-0.11524 -0.2574,-0.2574c0,-0.14216 0.11524,-0.2574 0.2574,-0.2574z" data-paper-data="{&quot;index&quot;:null}" fill="#ffffff" stroke="none" stroke-width="1"/><path d="M232.09158,167.62696v7.7535l-12.29085,3.49728l4.44504,-7.11171l-4.44504,-7.65687z" data-paper-data="{&quot;index&quot;:null}" fill="#484779" stroke="#000000" stroke-width="1.5"/><path d="M260.18484,168.18078v6.46125l-14.0631,2.5845v-11.63026z" data-paper-data="{&quot;index&quot;:null}" fill="#484779" stroke="#000000" stroke-width="1.5"/><path d="M259.51808,168.48712l0.55563,1.73691l-13.26836,-0.06266l-0.01685,-4.01368z" data-paper-data="{&quot;index&quot;:null}" fill="#bab9ec" stroke="#000000" stroke-width="0"/><path d="M246.30635,165.59627v11.63026h-14.49167v-11.63026z" data-paper-data="{&quot;index&quot;:null}" fill="#484779" stroke="#000000" stroke-width="1.5"/><path d="M246.30635,165.59627v4.51819l-14.49167,-2.1114v-2.40679z" data-paper-data="{&quot;index&quot;:null}" fill="#bab9ec" stroke="none" stroke-width="0"/><path d="M253.88297,171.0544c0.77408,0 1.40158,0.6275 1.40158,1.40158c0,0.77408 -0.6275,1.40158 -1.40158,1.40158c-0.77408,0 -1.40158,-0.6275 -1.40158,-1.40158c0,-0.77408 0.6275,-1.40158 1.40158,-1.40158z" data-paper-data="{&quot;index&quot;:null}" fill="#ffb0b0" stroke="#ffb0b0" stroke-width="1"/><path d="M254.60378,171.95554c0.49754,0 0.90089,0.40334 0.90089,0.90089c0,0.49755 -0.40334,0.90089 -0.90089,0.90089c-0.49755,0 -0.90089,-0.40334 -0.90089,-0.90089c0,-0.49754 0.40334,-0.90089 0.90089,-0.90089z" data-paper-data="{&quot;index&quot;:null}" fill="#ffffff" stroke="none" stroke-width="1"/><path d="M252.94477,171.5693c0.14216,0 0.2574,0.11524 0.2574,0.2574c0,0.14216 -0.11524,0.2574 -0.2574,0.2574c-0.14216,0 -0.2574,-0.11524 -0.2574,-0.2574c0,-0.14216 0.11524,-0.2574 0.2574,-0.2574z" data-paper-data="{&quot;index&quot;:null}" fill="#ffffff" stroke="none" stroke-width="1"/><path d="M232.15017,170.11659c1.22411,-3.29265 7.63032,-2.66354 7.63032,-2.66354c0,0 4.32964,1.66138 3.59594,3.6349c-0.7337,1.97351 -3.65194,-0.59869 -3.65194,-0.59869c0,0 -8.79845,2.91999 -7.57433,-0.37267z" data-paper-data="{&quot;index&quot;:null}" fill="#484779" stroke="#000000" stroke-width="1"/><path d="M238.20124,193.06209l-2.69079,4.08377l-2.69079,-4.08377z" data-paper-data="{&quot;index&quot;:null}" fill="#2f2f2f" stroke="#000000" stroke-width="1"/><path d="M248.13117,193.06209l-2.69079,4.08376l-2.69079,-4.08376z" data-paper-data="{&quot;index&quot;:null}" fill="#2f2f2f" stroke="#000000" stroke-width="1"/><path d="M260.18484,168.18078v6.46125l-14.0631,2.5845v-11.63026z" data-paper-data="{&quot;index&quot;:null}" fill="none" stroke="#000000" stroke-width="1.5"/><path d="M245.97297,165.59628v11.63026h-14.15829v-11.63026z" data-paper-data="{&quot;index&quot;:null}" fill="none" stroke="#000000" stroke-width="1.5"/></g></g></svg>