<svg version="1.1" xmlns="http://www.w3.org/2000/svg" xmlns:xlink="http://www.w3.org/1999/xlink" width="45.25" height="36.10014" viewBox="0,0,45.25,36.10014"><g transform="translate(-217.375,-161.95447)"><g data-paper-data="{&quot;isPaintingLayer&quot;:true}" fill-rule="nonzero" stroke-linejoin="miter" stroke-miterlimit="10" stroke-dasharray="" stroke-dashoffset="0" style="mix-blend-mode: normal"><path d="M262.625,161.95448v34.29167h-45.25v-34.29167z" data-paper-data="{&quot;index&quot;:null}" fill="none" stroke="none" stroke-width="1.5" stroke-linecap="butt"/><path d="M262.625,161.95448v34.29167h-45.25v-34.29167z" data-paper-data="{&quot;index&quot;:null}" fill="none" stroke="none" stroke-width="1.5" stroke-linecap="butt"/><path d="M262.625,161.95447v34.29167h-45.25v-34.29167z" data-paper-data="{&quot;index&quot;:null}" fill="none" stroke="none" stroke-width="1.5" stroke-linecap="butt"/><path d="M248.59256,176.80213v16.22495h-16.22495v-16.22495z" data-paper-data="{&quot;index&quot;:null}" fill="#898989" stroke="#000000" stroke-width="1" stroke-linecap="butt"/><path d="M240.48008,184.1883c-0.56873,0 -1.02977,-0.97149 -1.02977,-2.16988c0,-1.19838 0.46104,-2.16987 1.02977,-2.16987c0.56872,0 1.02977,0.97148 1.02977,2.16987c0,1.19839 -0.46104,2.16988 -1.02977,2.16988z" data-paper-data="{&quot;index&quot;:null}" fill="#ffcafb" stroke="#000000" stroke-width="0.5" stroke-linecap="butt"/><path d="M240.48008,184.40231c-0.33174,0 -0.60067,-0.15484 -0.60067,-0.34584c0,-0.191 0.26892,-0.34584 0.60067,-0.34584c0.33174,0 0.60068,0.15484 0.60068,0.34584c0,0.191 -0.26893,0.34584 -0.60068,0.34584z" data-paper-data="{&quot;index&quot;:null}" fill="none" stroke="#000000" stroke-width="1" stroke-linecap="butt"/><path d="M236.70181,183.82979c0.18337,-0.78821 0.95476,-1.37985 1.87853,-1.37985c0.96896,0 1.77027,0.65093 1.90117,1.49689" data-paper-data="{&quot;index&quot;:null}" fill="none" stroke="#000000" stroke-width="1" stroke-linecap="butt"/><path d="M240.47866,183.94683c0.1309,-0.84595 0.93221,-1.49689 1.90117,-1.49689c0.92377,0 1.69516,0.59163 1.87853,1.37985" data-paper-data="{&quot;index&quot;:null}" fill="none" stroke="#000000" stroke-width="1" stroke-linecap="butt"/><path d="M236.18954,186.94543c0.77407,0 1.40158,0.62751 1.40158,1.40158c0,0.77407 -0.62751,1.40158 -1.40158,1.40158c-0.77407,0 -1.40158,-0.62751 -1.40158,-1.40158c0,-0.77407 0.62751,-1.40158 1.40158,-1.40158z" data-paper-data="{&quot;index&quot;:null}" fill="#00ffff" stroke="#00ffff" stroke-width="1" stroke-linecap="butt"/><path d="M236.91035,187.84657c0.49755,0 0.90089,0.40334 0.90089,0.90089c0,0.49755 -0.40334,0.90089 -0.90089,0.90089c-0.49754,0 -0.90089,-0.40334 -0.90089,-0.90089c0,-0.49754 0.40334,-0.90089 0.90089,-0.90089z" data-paper-data="{&quot;index&quot;:null}" fill="#ffffff" stroke="none" stroke-width="1" stroke-linecap="butt"/><path d="M235.25134,187.46033c0.14216,0 0.2574,0.11524 0.2574,0.2574c0,0.14216 -0.11524,0.2574 -0.2574,0.2574c-0.14216,0 -0.2574,-0.11524 -0.2574,-0.2574c0,-0.14216 0.11524,-0.2574 0.2574,-0.2574z" data-paper-data="{&quot;index&quot;:null}" fill="#ffffff" stroke="none" stroke-width="1" stroke-linecap="butt"/><path d="M244.77063,186.94543c0.77408,0 1.40158,0.6275 1.40158,1.40158c0,0.77408 -0.6275,1.40158 -1.40158,1.40158c-0.77408,0 -1.40158,-0.6275 -1.40158,-1.40158c0,-0.77408 0.6275,-1.40158 1.40158,-1.40158z" data-paper-data="{&quot;index&quot;:null}" fill="#00ffff" stroke="#00ffff" stroke-width="1" stroke-linecap="butt"/><path d="M245.49144,187.84657c0.49754,0 0.90089,0.40334 0.90089,0.90089c0,0.49755 -0.40334,0.90089 -0.90089,0.90089c-0.49755,0 -0.90089,-0.40334 -0.90089,-0.90089c0,-0.49754 0.40334,-0.90089 0.90089,-0.90089z" data-paper-data="{&quot;index&quot;:null}" fill="#ffffff" stroke="none" stroke-width="1" stroke-linecap="butt"/><path d="M243.83243,187.46033c0.14216,0 0.2574,0.11524 0.2574,0.2574c0,0.14216 -0.11524,0.2574 -0.2574,0.2574c-0.14216,0 -0.2574,-0.11524 -0.2574,-0.2574c0,-0.14216 0.11524,-0.2574 0.2574,-0.2574z" data-paper-data="{&quot;index&quot;:null}" fill="#ffffff" stroke="none" stroke-width="1" stroke-linecap="butt"/><path d="M232.09158,167.62696v7.7535l-12.29085,3.49728l4.44504,-7.11171l-4.44504,-7.65687z" data-paper-data="{&quot;index&quot;:null}" fill="#e36f6f" stroke="#000000" stroke-width="1.5" stroke-linecap="butt"/><path d="M260.18484,168.18078v6.46125l-14.0631,2.5845v-11.63026z" data-paper-data="{&quot;index&quot;:null}" fill="#e36f6f" stroke="#000000" stroke-width="1.5" stroke-linecap="butt"/><path d="M259.51808,168.48712l0.55563,1.73691l-13.26836,-0.06266l-0.01685,-4.01368z" data-paper-data="{&quot;index&quot;:null}" fill="#6fe387" stroke="#000000" stroke-width="0" stroke-linecap="butt"/><path d="M246.30635,165.59627v11.63026h-14.49167v-11.63026z" data-paper-data="{&quot;index&quot;:null}" fill="#e36f6f" stroke="#000000" stroke-width="1.5" stroke-linecap="butt"/><path d="M246.30635,165.59627v4.51819l-14.49167,-2.1114v-2.40679z" data-paper-data="{&quot;index&quot;:null}" fill="#6fe387" stroke="none" stroke-width="0" stroke-linecap="butt"/><path d="M253.88297,171.0544c0.77408,0 1.40158,0.6275 1.40158,1.40158c0,0.77408 -0.6275,1.40158 -1.40158,1.40158c-0.77408,0 -1.40158,-0.6275 -1.40158,-1.40158c0,-0.77408 0.6275,-1.40158 1.40158,-1.40158z" data-paper-data="{&quot;index&quot;:null}" fill="#8b6fe3" stroke="#8b6fe3" stroke-width="1" stroke-linecap="butt"/><path d="M254.60378,171.95554c0.49754,0 0.90089,0.40334 0.90089,0.90089c0,0.49755 -0.40334,0.90089 -0.90089,0.90089c-0.49755,0 -0.90089,-0.40334 -0.90089,-0.90089c0,-0.49754 0.40334,-0.90089 0.90089,-0.90089z" data-paper-data="{&quot;index&quot;:null}" fill="#ffffff" stroke="none" stroke-width="1" stroke-linecap="butt"/><path d="M252.94477,171.5693c0.14216,0 0.2574,0.11524 0.2574,0.2574c0,0.14216 -0.11524,0.2574 -0.2574,0.2574c-0.14216,0 -0.2574,-0.11524 -0.2574,-0.2574c0,-0.14216 0.11524,-0.2574 0.2574,-0.2574z" data-paper-data="{&quot;index&quot;:null}" fill="#ffffff" stroke="none" stroke-width="1" stroke-linecap="butt"/><path d="M232.15017,170.11659c1.22411,-3.29265 7.63032,-2.66354 7.63032,-2.66354c0,0 4.32964,1.66138 3.59594,3.6349c-0.7337,1.97351 -3.65194,-0.59869 -3.65194,-0.59869c0,0 -8.79845,2.91999 -7.57433,-0.37267z" data-paper-data="{&quot;index&quot;:null}" fill="#54a2a2" stroke="#000000" stroke-width="1" stroke-linecap="butt"/><path d="M238.20124,193.06208l-2.69079,4.08377l-2.69079,-4.08377z" data-paper-data="{&quot;index&quot;:null}" fill="#898989" stroke="#000000" stroke-width="1" stroke-linecap="butt"/><path d="M248.13117,193.06208l-2.69079,4.08376l-2.69079,-4.08376z" data-paper-data="{&quot;index&quot;:null}" fill="#898989" stroke="#000000" stroke-width="1" stroke-linecap="butt"/><path d="M235.80192,181.60992h-2.47565" data-paper-data="{&quot;index&quot;:null}" fill="none" stroke="#545454" stroke-width="1.5" stroke-linecap="round"/><path d="M233.32627,179.21412h2.47565" data-paper-data="{&quot;index&quot;:null}" fill="none" stroke="#545454" stroke-width="1.5" stroke-linecap="round"/><path d="M247.7809,181.60992h-2.47565" data-paper-data="{&quot;index&quot;:null}" fill="none" stroke="#545454" stroke-width="1.5" stroke-linecap="round"/><path d="M247.7809,179.21412h-2.47565" data-paper-data="{&quot;index&quot;:null}" fill="none" stroke="#545454" stroke-width="1.5" stroke-linecap="round"/><path d="M242.47022,192.43092v-2.47565" data-paper-data="{&quot;index&quot;:null}" fill="none" stroke="#545454" stroke-width="1.5" stroke-linecap="round"/><path d="M238.63695,189.95527v2.47565" data-paper-data="{&quot;index&quot;:null}" fill="none" stroke="#545454" stroke-width="1.5" stroke-linecap="round"/><path d="M240.55359,189.4761v2.7951" data-paper-data="{&quot;index&quot;:null}" fill="none" stroke="#545454" stroke-width="1.5" stroke-linecap="round"/><path d="M248.59256,176.80213v16.22495h-16.22495v-16.22495z" data-paper-data="{&quot;index&quot;:null}" fill="none" stroke="#000000" stroke-width="1" stroke-linecap="butt"/><path d="M260.18484,168.18077v6.46125l-14.0631,2.5845v-11.63026z" data-paper-data="{&quot;index&quot;:null}" fill="none" stroke="#000000" stroke-width="1.5" stroke-linecap="butt"/><path d="M245.97297,165.59627v11.63026h-14.15829v-11.63026z" data-paper-data="{&quot;index&quot;:null}" fill="none" stroke="#000000" stroke-width="1.5" stroke-linecap="butt"/></g></g></svg>