<svg version="1.1" xmlns="http://www.w3.org/2000/svg" xmlns:xlink="http://www.w3.org/1999/xlink" width="586.05405" height="434.41068" viewBox="0,0,586.05405,434.41068"><g transform="translate(53.02702,74.18762)"><g data-paper-data="{&quot;isPaintingLayer&quot;:true}" fill-rule="nonzero" stroke="#ffffff" stroke-linecap="butt" stroke-linejoin="miter" stroke-miterlimit="10" stroke-dasharray="" stroke-dashoffset="0" style="mix-blend-mode: normal"><path d="M70.19332,358.88971h-35.75v-35.75h35.75z" data-paper-data="{&quot;index&quot;:null}" fill="#000000" stroke-width="2"/><path d="M248.19332,358.88971h-35.75v-35.75h35.75z" data-paper-data="{&quot;index&quot;:null}" fill="#000000" stroke-width="2"/><path d="M284.19332,358.88971h-35.75v-35.75h35.75z" data-paper-data="{&quot;index&quot;:null}" fill="#000000" stroke-width="2"/><path d="M70.19332,289.88971h-35.75v-35.75h35.75z" data-paper-data="{&quot;index&quot;:null}" fill="#000000" stroke-width="2"/><path d="M248.19332,289.88971h-35.75v-35.75h35.75z" data-paper-data="{&quot;index&quot;:null}" fill="#000000" stroke-width="2"/><path d="M284.19332,289.88971h-35.75v-35.75h35.75z" data-paper-data="{&quot;index&quot;:null}" fill="#000000" stroke-width="2"/><path d="M70.19332,323.88971h-35.75v-35.75h35.75z" data-paper-data="{&quot;index&quot;:null}" fill="#000000" stroke-width="2"/><path d="M248.19332,323.88971h-35.75v-35.75h35.75z" data-paper-data="{&quot;index&quot;:null}" fill="#000000" stroke-width="2"/><path d="M284.19332,323.88971h-35.75v-35.75h35.75z" data-paper-data="{&quot;index&quot;:null}" fill="#000000" stroke-width="2"/><path d="M177.19333,358.88971h-35.75v-35.75h35.75z" data-paper-data="{&quot;index&quot;:null}" fill="#000000" stroke-width="2"/><path d="M355.19333,358.88971h-35.75v-35.75h35.75z" data-paper-data="{&quot;index&quot;:null}" fill="#000000" stroke-width="2"/><path d="M391.19333,358.88971h-35.75v-35.75h35.75z" data-paper-data="{&quot;index&quot;:null}" fill="#000000" stroke-width="2"/><path d="M177.19333,289.88971h-35.75v-35.75h35.75z" data-paper-data="{&quot;index&quot;:null}" fill="#000000" stroke-width="2"/><path d="M355.19333,289.88971h-35.75v-35.75h35.75z" data-paper-data="{&quot;index&quot;:null}" fill="#000000" stroke-width="2"/><path d="M391.19333,289.88971h-35.75v-35.75h35.75z" data-paper-data="{&quot;index&quot;:null}" fill="#000000" stroke-width="2"/><path d="M177.19333,289.88971h-35.75v-35.75h35.75z" data-paper-data="{&quot;index&quot;:null}" fill="#000000" stroke-width="2"/><path d="M355.19333,289.88971h-35.75v-35.75h35.75z" data-paper-data="{&quot;index&quot;:null}" fill="#000000" stroke-width="2"/><path d="M391.19333,289.88971h-35.75v-35.75h35.75z" data-paper-data="{&quot;index&quot;:null}" fill="#000000" stroke-width="2"/><path d="M177.19333,323.88971h-35.75v-35.75h35.75z" data-paper-data="{&quot;index&quot;:null}" fill="#000000" stroke-width="2"/><path d="M355.19333,323.88971h-35.75v-35.75h35.75z" data-paper-data="{&quot;index&quot;:null}" fill="#000000" stroke-width="2"/><path d="M391.19333,323.88971h-35.75v-35.75h35.75z" data-paper-data="{&quot;index&quot;:null}" fill="#000000" stroke-width="2"/><path d="M34.52663,358.88971h-35.75v-35.75h35.75z" data-paper-data="{&quot;index&quot;:null}" fill="#000000" stroke-width="2"/><path d="M212.52663,358.88971h-35.75v-35.75h35.75z" data-paper-data="{&quot;index&quot;:null}" fill="#000000" stroke-width="2"/><path d="M248.52663,358.88971h-35.75v-35.75h35.75z" data-paper-data="{&quot;index&quot;:null}" fill="#000000" stroke-width="2"/><path d="M34.52663,289.88971h-35.75v-35.75h35.75z" data-paper-data="{&quot;index&quot;:null}" fill="#000000" stroke-width="2"/><path d="M212.52663,289.88971h-35.75v-35.75h35.75z" data-paper-data="{&quot;index&quot;:null}" fill="#000000" stroke-width="2"/><path d="M248.52663,289.88971h-35.75v-35.75h35.75z" data-paper-data="{&quot;index&quot;:null}" fill="#000000" stroke-width="2"/><path d="M34.52663,323.88971h-35.75v-35.75h35.75z" data-paper-data="{&quot;index&quot;:null}" fill="#000000" stroke-width="2"/><path d="M212.52663,323.88971h-35.75v-35.75h35.75z" data-paper-data="{&quot;index&quot;:null}" fill="#000000" stroke-width="2"/><path d="M248.52663,323.88971h-35.75v-35.75h35.75z" data-paper-data="{&quot;index&quot;:null}" fill="#000000" stroke-width="2"/><path d="M141.52664,358.88971h-35.75v-35.75h35.75z" data-paper-data="{&quot;index&quot;:null}" fill="#000000" stroke-width="2"/><path d="M319.52664,358.88971h-35.75v-35.75h35.75z" data-paper-data="{&quot;index&quot;:null}" fill="#000000" stroke-width="2"/><path d="M355.52664,358.88971h-35.75v-35.75h35.75z" data-paper-data="{&quot;index&quot;:null}" fill="#000000" stroke-width="2"/><path d="M141.52664,289.88971h-35.75v-35.75h35.75z" data-paper-data="{&quot;index&quot;:null}" fill="#000000" stroke-width="2"/><path d="M319.52664,289.88971h-35.75v-35.75h35.75z" data-paper-data="{&quot;index&quot;:null}" fill="#000000" stroke-width="2"/><path d="M355.52664,289.88971h-35.75v-35.75h35.75z" data-paper-data="{&quot;index&quot;:null}" fill="#000000" stroke-width="2"/><path d="M141.52664,289.88971h-35.75v-35.75h35.75z" data-paper-data="{&quot;index&quot;:null}" fill="#000000" stroke-width="2"/><path d="M319.52664,289.88971h-35.75v-35.75h35.75z" data-paper-data="{&quot;index&quot;:null}" fill="#000000" stroke-width="2"/><path d="M355.52664,289.88971h-35.75v-35.75h35.75z" data-paper-data="{&quot;index&quot;:null}" fill="#000000" stroke-width="2"/><path d="M141.52664,323.88971h-35.75v-35.75h35.75z" data-paper-data="{&quot;index&quot;:null}" fill="#000000" stroke-width="2"/><path d="M319.52664,323.88971h-35.75v-35.75h35.75z" data-paper-data="{&quot;index&quot;:null}" fill="#000000" stroke-width="2"/><path d="M355.52664,323.88971h-35.75v-35.75h35.75z" data-paper-data="{&quot;index&quot;:null}" fill="#000000" stroke-width="2"/><path d="M176.52663,359.22306h-35.75v-35.75h35.75z" data-paper-data="{&quot;index&quot;:null}" fill="#000000" stroke-width="2"/><path d="M212.52663,359.22306h-35.75v-35.75h35.75z" data-paper-data="{&quot;index&quot;:null}" fill="#000000" stroke-width="2"/><path d="M176.52663,290.22306h-35.75v-35.75h35.75z" data-paper-data="{&quot;index&quot;:null}" fill="#000000" stroke-width="2"/><path d="M212.52663,290.22306h-35.75v-35.75h35.75z" data-paper-data="{&quot;index&quot;:null}" fill="#000000" stroke-width="2"/><path d="M176.52663,324.22306h-35.75v-35.75h35.75z" data-paper-data="{&quot;index&quot;:null}" fill="#000000" stroke-width="2"/><path d="M212.52663,324.22306h-35.75v-35.75h35.75z" data-paper-data="{&quot;index&quot;:null}" fill="#000000" stroke-width="2"/><path d="M105.52664,359.22306h-35.75v-35.75h35.75z" data-paper-data="{&quot;index&quot;:null}" fill="#000000" stroke-width="2"/><path d="M283.52664,359.22306h-35.75v-35.75h35.75z" data-paper-data="{&quot;index&quot;:null}" fill="#000000" stroke-width="2"/><path d="M319.52664,359.22306h-35.75v-35.75h35.75z" data-paper-data="{&quot;index&quot;:null}" fill="#000000" stroke-width="2"/><path d="M105.52664,290.22306h-35.75v-35.75h35.75z" data-paper-data="{&quot;index&quot;:null}" fill="#000000" stroke-width="2"/><path d="M283.52664,290.22306h-35.75v-35.75h35.75z" data-paper-data="{&quot;index&quot;:null}" fill="#000000" stroke-width="2"/><path d="M319.52664,290.22306h-35.75v-35.75h35.75z" data-paper-data="{&quot;index&quot;:null}" fill="#000000" stroke-width="2"/><path d="M105.52664,290.22306h-35.75v-35.75h35.75z" data-paper-data="{&quot;index&quot;:null}" fill="#000000" stroke-width="2"/><path d="M283.52664,290.22306h-35.75v-35.75h35.75z" data-paper-data="{&quot;index&quot;:null}" fill="#000000" stroke-width="2"/><path d="M319.52664,290.22306h-35.75v-35.75h35.75z" data-paper-data="{&quot;index&quot;:null}" fill="#000000" stroke-width="2"/><path d="M105.52664,324.22306h-35.75v-35.75h35.75z" data-paper-data="{&quot;index&quot;:null}" fill="#000000" stroke-width="2"/><path d="M283.52664,324.22306h-35.75v-35.75h35.75z" data-paper-data="{&quot;index&quot;:null}" fill="#000000" stroke-width="2"/><path d="M319.52664,324.22306h-35.75v-35.75h35.75z" data-paper-data="{&quot;index&quot;:null}" fill="#000000" stroke-width="2"/><path d="M177.19333,358.88971h-35.75v-35.75h35.75z" data-paper-data="{&quot;index&quot;:null}" fill="#000000" stroke-width="2"/><path d="M355.19333,358.88971h-35.75v-35.75h35.75z" data-paper-data="{&quot;index&quot;:null}" fill="#000000" stroke-width="2"/><path d="M391.19333,358.88971h-35.75v-35.75h35.75z" data-paper-data="{&quot;index&quot;:null}" fill="#000000" stroke-width="2"/><path d="M177.19333,289.88971h-35.75v-35.75h35.75z" data-paper-data="{&quot;index&quot;:null}" fill="#000000" stroke-width="2"/><path d="M355.19333,289.88971h-35.75v-35.75h35.75z" data-paper-data="{&quot;index&quot;:null}" fill="#000000" stroke-width="2"/><path d="M391.19333,289.88971h-35.75v-35.75h35.75z" data-paper-data="{&quot;index&quot;:null}" fill="#000000" stroke-width="2"/><path d="M177.19333,323.88971h-35.75v-35.75h35.75z" data-paper-data="{&quot;index&quot;:null}" fill="#000000" stroke-width="2"/><path d="M355.19333,323.88971h-35.75v-35.75h35.75z" data-paper-data="{&quot;index&quot;:null}" fill="#000000" stroke-width="2"/><path d="M391.19333,323.88971h-35.75v-35.75h35.75z" data-paper-data="{&quot;index&quot;:null}" fill="#000000" stroke-width="2"/><path d="M284.19333,358.88971h-35.75v-35.75h35.75z" data-paper-data="{&quot;index&quot;:null}" fill="#000000" stroke-width="2"/><path d="M462.19333,358.88971h-35.75v-35.75h35.75z" data-paper-data="{&quot;index&quot;:null}" fill="#000000" stroke-width="2"/><path d="M498.19333,358.88971h-35.75v-35.75h35.75z" data-paper-data="{&quot;index&quot;:null}" fill="#000000" stroke-width="2"/><path d="M284.19333,289.88971h-35.75v-35.75h35.75z" data-paper-data="{&quot;index&quot;:null}" fill="#000000" stroke-width="2"/><path d="M462.19333,289.88971h-35.75v-35.75h35.75z" data-paper-data="{&quot;index&quot;:null}" fill="#000000" stroke-width="2"/><path d="M498.19333,289.88971h-35.75v-35.75h35.75z" data-paper-data="{&quot;index&quot;:null}" fill="#000000" stroke-width="2"/><path d="M462.19333,323.88971h-35.75v-35.75h35.75z" data-paper-data="{&quot;index&quot;:null}" fill="#000000" stroke-width="2"/><path d="M498.19333,323.88971h-35.75v-35.75h35.75z" data-paper-data="{&quot;index&quot;:null}" fill="#000000" stroke-width="2"/><path d="M141.52664,358.88971h-35.75v-35.75h35.75z" data-paper-data="{&quot;index&quot;:null}" fill="#000000" stroke-width="2"/><path d="M319.52664,358.88971h-35.75v-35.75h35.75z" data-paper-data="{&quot;index&quot;:null}" fill="#000000" stroke-width="2"/><path d="M141.52664,289.88971h-35.75v-35.75h35.75z" data-paper-data="{&quot;index&quot;:null}" fill="#000000" stroke-width="2"/><path d="M319.52664,289.88971h-35.75v-35.75h35.75z" data-paper-data="{&quot;index&quot;:null}" fill="#000000" stroke-width="2"/><path d="M141.52664,323.88971h-35.75v-35.75h35.75z" data-paper-data="{&quot;index&quot;:null}" fill="#000000" stroke-width="2"/><path d="M426.52663,358.88971h-35.75v-35.75h35.75z" data-paper-data="{&quot;index&quot;:null}" fill="#000000" stroke-width="2"/><path d="M462.52663,358.88971h-35.75v-35.75h35.75z" data-paper-data="{&quot;index&quot;:null}" fill="#000000" stroke-width="2"/><path d="M426.52663,289.88971h-35.75v-35.75h35.75z" data-paper-data="{&quot;index&quot;:null}" fill="#000000" stroke-width="2"/><path d="M462.52663,289.88971h-35.75v-35.75h35.75z" data-paper-data="{&quot;index&quot;:null}" fill="#000000" stroke-width="2"/><path d="M426.52663,323.88971h-35.75v-35.75h35.75z" data-paper-data="{&quot;index&quot;:null}" fill="#000000" stroke-width="2"/><path d="M462.52663,323.88971h-35.75v-35.75h35.75z" data-paper-data="{&quot;index&quot;:null}" fill="#000000" stroke-width="2"/><path d="M105.52664,359.22306h-35.75v-35.75h35.75z" data-paper-data="{&quot;index&quot;:null}" fill="#000000" stroke-width="2"/><path d="M105.52664,290.22306h-35.75v-35.75h35.75z" data-paper-data="{&quot;index&quot;:null}" fill="#000000" stroke-width="2"/><path d="M390.52663,359.22306h-35.75v-35.75h35.75z" data-paper-data="{&quot;index&quot;:null}" fill="#000000" stroke-width="2"/><path d="M426.52663,359.22306h-35.75v-35.75h35.75z" data-paper-data="{&quot;index&quot;:null}" fill="#000000" stroke-width="2"/><path d="M390.52663,290.22306h-35.75v-35.75h35.75z" data-paper-data="{&quot;index&quot;:null}" fill="#000000" stroke-width="2"/><path d="M390.52663,324.22306h-35.75v-35.75h35.75z" data-paper-data="{&quot;index&quot;:null}" fill="#000000" stroke-width="2"/><path d="M426.52663,324.22306h-35.75v-35.75h35.75z" data-paper-data="{&quot;index&quot;:null}" fill="#000000" stroke-width="2"/><path d="M70.19332,31.56238h-35.75v-35.75h35.75z" data-paper-data="{&quot;index&quot;:null}" fill="#000000" stroke-width="2"/><path d="M70.19332,135.16599h-35.75v-35.75h35.75z" data-paper-data="{&quot;index&quot;:null}" fill="#000000" stroke-width="2"/><path d="M248.19332,31.56238h-35.75v-35.75h35.75z" data-paper-data="{&quot;index&quot;:null}" fill="#000000" stroke-width="2"/><path d="M248.19332,135.16599h-35.75v-35.75h35.75z" data-paper-data="{&quot;index&quot;:null}" fill="#000000" stroke-width="2"/><path d="M248.19332,171.20202h-35.75v-35.75h35.75z" data-paper-data="{&quot;index&quot;:null}" fill="#000000" stroke-width="2"/><path d="M284.19332,31.56238h-35.75v-35.75h35.75z" data-paper-data="{&quot;index&quot;:null}" fill="#000000" stroke-width="2"/><path d="M284.19332,135.16599h-35.75v-35.75h35.75z" data-paper-data="{&quot;index&quot;:null}" fill="#000000" stroke-width="2"/><path d="M284.19332,171.20202h-35.75v-35.75h35.75z" data-paper-data="{&quot;index&quot;:null}" fill="#000000" stroke-width="2"/><path d="M70.19332,-37.43762h-35.75v-35.75h35.75z" data-paper-data="{&quot;index&quot;:null}" fill="#000000" stroke-width="2"/><path d="M70.19332,66.16599h-35.75v-35.75h35.75z" data-paper-data="{&quot;index&quot;:null}" fill="#000000" stroke-width="2"/><path d="M248.19332,-37.43762h-35.75v-35.75h35.75z" data-paper-data="{&quot;index&quot;:null}" fill="#000000" stroke-width="2"/><path d="M248.19332,66.16599h-35.75v-35.75h35.75z" data-paper-data="{&quot;index&quot;:null}" fill="#000000" stroke-width="2"/><path d="M284.19332,-37.43762h-35.75v-35.75h35.75z" data-paper-data="{&quot;index&quot;:null}" fill="#000000" stroke-width="2"/><path d="M284.19332,66.16599h-35.75v-35.75h35.75z" data-paper-data="{&quot;index&quot;:null}" fill="#000000" stroke-width="2"/><path d="M70.19332,-3.43762h-35.75v-35.75h35.75z" data-paper-data="{&quot;index&quot;:null}" fill="#000000" stroke-width="2"/><path d="M70.19332,100.16599h-35.75v-35.75h35.75z" data-paper-data="{&quot;index&quot;:null}" fill="#000000" stroke-width="2"/><path d="M248.19332,-3.43762h-35.75v-35.75h35.75z" data-paper-data="{&quot;index&quot;:null}" fill="#000000" stroke-width="2"/><path d="M248.19332,100.16599h-35.75v-35.75h35.75z" data-paper-data="{&quot;index&quot;:null}" fill="#000000" stroke-width="2"/><path d="M284.19332,-3.43762h-35.75v-35.75h35.75z" data-paper-data="{&quot;index&quot;:null}" fill="#000000" stroke-width="2"/><path d="M284.19332,100.16599h-35.75v-35.75h35.75z" data-paper-data="{&quot;index&quot;:null}" fill="#000000" stroke-width="2"/><path d="M177.19333,31.56238h-35.75v-35.75h35.75z" data-paper-data="{&quot;index&quot;:null}" fill="#000000" stroke-width="2"/><path d="M177.19333,135.16599h-35.75v-35.75h35.75z" data-paper-data="{&quot;index&quot;:null}" fill="#000000" stroke-width="2"/><path d="M177.19333,171.20202h-35.75v-35.75h35.75z" data-paper-data="{&quot;index&quot;:null}" fill="#000000" stroke-width="2"/><path d="M355.19333,31.56238h-35.75v-35.75h35.75z" data-paper-data="{&quot;index&quot;:null}" fill="#000000" stroke-width="2"/><path d="M355.19333,135.16599h-35.75v-35.75h35.75z" data-paper-data="{&quot;index&quot;:null}" fill="#000000" stroke-width="2"/><path d="M355.19333,171.20202h-35.75v-35.75h35.75z" data-paper-data="{&quot;index&quot;:null}" fill="#000000" stroke-width="2"/><path d="M391.19333,31.56238h-35.75v-35.75h35.75z" data-paper-data="{&quot;index&quot;:null}" fill="#000000" stroke-width="2"/><path d="M391.19333,135.16599h-35.75v-35.75h35.75z" data-paper-data="{&quot;index&quot;:null}" fill="#000000" stroke-width="2"/><path d="M391.19333,171.20202h-35.75v-35.75h35.75z" data-paper-data="{&quot;index&quot;:null}" fill="#000000" stroke-width="2"/><path d="M177.19333,-37.43762h-35.75v-35.75h35.75z" data-paper-data="{&quot;index&quot;:null}" fill="#000000" stroke-width="2"/><path d="M177.19333,66.16599h-35.75v-35.75h35.75z" data-paper-data="{&quot;index&quot;:null}" fill="#000000" stroke-width="2"/><path d="M355.19333,-37.43762h-35.75v-35.75h35.75z" data-paper-data="{&quot;index&quot;:null}" fill="#000000" stroke-width="2"/><path d="M355.19333,66.16599h-35.75v-35.75h35.75z" data-paper-data="{&quot;index&quot;:null}" fill="#000000" stroke-width="2"/><path d="M391.19333,-37.43762h-35.75v-35.75h35.75z" data-paper-data="{&quot;index&quot;:null}" fill="#000000" stroke-width="2"/><path d="M391.19333,66.16599h-35.75v-35.75h35.75z" data-paper-data="{&quot;index&quot;:null}" fill="#000000" stroke-width="2"/><path d="M177.19333,-37.43762h-35.75v-35.75h35.75z" data-paper-data="{&quot;index&quot;:null}" fill="#000000" stroke-width="2"/><path d="M177.19333,66.16599h-35.75v-35.75h35.75z" data-paper-data="{&quot;index&quot;:null}" fill="#000000" stroke-width="2"/><path d="M355.19333,-37.43762h-35.75v-35.75h35.75z" data-paper-data="{&quot;index&quot;:null}" fill="#000000" stroke-width="2"/><path d="M355.19333,66.16599h-35.75v-35.75h35.75z" data-paper-data="{&quot;index&quot;:null}" fill="#000000" stroke-width="2"/><path d="M391.19333,-37.43762h-35.75v-35.75h35.75z" data-paper-data="{&quot;index&quot;:null}" fill="#000000" stroke-width="2"/><path d="M391.19333,66.16599h-35.75v-35.75h35.75z" data-paper-data="{&quot;index&quot;:null}" fill="#000000" stroke-width="2"/><path d="M177.19333,-3.43762h-35.75v-35.75h35.75z" data-paper-data="{&quot;index&quot;:null}" fill="#000000" stroke-width="2"/><path d="M177.19333,100.16599h-35.75v-35.75h35.75z" data-paper-data="{&quot;index&quot;:null}" fill="#000000" stroke-width="2"/><path d="M355.19333,-3.43762h-35.75v-35.75h35.75z" data-paper-data="{&quot;index&quot;:null}" fill="#000000" stroke-width="2"/><path d="M355.19333,100.16599h-35.75v-35.75h35.75z" data-paper-data="{&quot;index&quot;:null}" fill="#000000" stroke-width="2"/><path d="M391.19333,-3.43762h-35.75v-35.75h35.75z" data-paper-data="{&quot;index&quot;:null}" fill="#000000" stroke-width="2"/><path d="M391.19333,100.16599h-35.75v-35.75h35.75z" data-paper-data="{&quot;index&quot;:null}" fill="#000000" stroke-width="2"/><path d="M34.52663,31.56238h-35.75v-35.75h35.75z" data-paper-data="{&quot;index&quot;:null}" fill="#000000" stroke-width="2"/><path d="M34.52663,135.16599h-35.75v-35.75h35.75z" data-paper-data="{&quot;index&quot;:null}" fill="#000000" stroke-width="2"/><path d="M212.52663,31.56238h-35.75v-35.75h35.75z" data-paper-data="{&quot;index&quot;:null}" fill="#000000" stroke-width="2"/><path d="M212.52663,135.16599h-35.75v-35.75h35.75z" data-paper-data="{&quot;index&quot;:null}" fill="#000000" stroke-width="2"/><path d="M212.52663,171.20202h-35.75v-35.75h35.75z" data-paper-data="{&quot;index&quot;:null}" fill="#000000" stroke-width="2"/><path d="M248.52663,31.56238h-35.75v-35.75h35.75z" data-paper-data="{&quot;index&quot;:null}" fill="#000000" stroke-width="2"/><path d="M248.52663,135.16599h-35.75v-35.75h35.75z" data-paper-data="{&quot;index&quot;:null}" fill="#000000" stroke-width="2"/><path d="M248.52663,171.20202h-35.75v-35.75h35.75z" data-paper-data="{&quot;index&quot;:null}" fill="#000000" stroke-width="2"/><path d="M34.52663,-37.43762h-35.75v-35.75h35.75z" data-paper-data="{&quot;index&quot;:null}" fill="#000000" stroke-width="2"/><path d="M34.52663,66.16599h-35.75v-35.75h35.75z" data-paper-data="{&quot;index&quot;:null}" fill="#000000" stroke-width="2"/><path d="M212.52663,-37.43762h-35.75v-35.75h35.75z" data-paper-data="{&quot;index&quot;:null}" fill="#000000" stroke-width="2"/><path d="M212.52663,66.16599h-35.75v-35.75h35.75z" data-paper-data="{&quot;index&quot;:null}" fill="#000000" stroke-width="2"/><path d="M248.52663,-37.43762h-35.75v-35.75h35.75z" data-paper-data="{&quot;index&quot;:null}" fill="#000000" stroke-width="2"/><path d="M248.52663,66.16599h-35.75v-35.75h35.75z" data-paper-data="{&quot;index&quot;:null}" fill="#000000" stroke-width="2"/><path d="M34.52663,-3.43762h-35.75v-35.75h35.75z" data-paper-data="{&quot;index&quot;:null}" fill="#000000" stroke-width="2"/><path d="M34.52663,100.16599h-35.75v-35.75h35.75z" data-paper-data="{&quot;index&quot;:null}" fill="#000000" stroke-width="2"/><path d="M212.52663,-3.43762h-35.75v-35.75h35.75z" data-paper-data="{&quot;index&quot;:null}" fill="#000000" stroke-width="2"/><path d="M212.52663,100.16599h-35.75v-35.75h35.75z" data-paper-data="{&quot;index&quot;:null}" fill="#000000" stroke-width="2"/><path d="M248.52663,-3.43762h-35.75v-35.75h35.75z" data-paper-data="{&quot;index&quot;:null}" fill="#000000" stroke-width="2"/><path d="M248.52663,100.16599h-35.75v-35.75h35.75z" data-paper-data="{&quot;index&quot;:null}" fill="#000000" stroke-width="2"/><path d="M141.52664,31.56238h-35.75v-35.75h35.75z" data-paper-data="{&quot;index&quot;:null}" fill="#000000" stroke-width="2"/><path d="M141.52664,135.16599h-35.75v-35.75h35.75z" data-paper-data="{&quot;index&quot;:null}" fill="#000000" stroke-width="2"/><path d="M319.52664,31.56238h-35.75v-35.75h35.75z" data-paper-data="{&quot;index&quot;:null}" fill="#000000" stroke-width="2"/><path d="M319.52664,135.16599h-35.75v-35.75h35.75z" data-paper-data="{&quot;index&quot;:null}" fill="#000000" stroke-width="2"/><path d="M319.52664,171.20202h-35.75v-35.75h35.75z" data-paper-data="{&quot;index&quot;:null}" fill="#000000" stroke-width="2"/><path d="M355.52664,31.56238h-35.75v-35.75h35.75z" data-paper-data="{&quot;index&quot;:null}" fill="#000000" stroke-width="2"/><path d="M355.52664,135.16599h-35.75v-35.75h35.75z" data-paper-data="{&quot;index&quot;:null}" fill="#000000" stroke-width="2"/><path d="M355.52664,171.20202h-35.75v-35.75h35.75z" data-paper-data="{&quot;index&quot;:null}" fill="#000000" stroke-width="2"/><path d="M141.52664,-37.43762h-35.75v-35.75h35.75z" data-paper-data="{&quot;index&quot;:null}" fill="#000000" stroke-width="2"/><path d="M141.52664,66.16599h-35.75v-35.75h35.75z" data-paper-data="{&quot;index&quot;:null}" fill="#000000" stroke-width="2"/><path d="M319.52664,-37.43762h-35.75v-35.75h35.75z" data-paper-data="{&quot;index&quot;:null}" fill="#000000" stroke-width="2"/><path d="M319.52664,66.16599h-35.75v-35.75h35.75z" data-paper-data="{&quot;index&quot;:null}" fill="#000000" stroke-width="2"/><path d="M355.52664,-37.43762h-35.75v-35.75h35.75z" data-paper-data="{&quot;index&quot;:null}" fill="#000000" stroke-width="2"/><path d="M355.52664,66.16599h-35.75v-35.75h35.75z" data-paper-data="{&quot;index&quot;:null}" fill="#000000" stroke-width="2"/><path d="M141.52664,-37.43762h-35.75v-35.75h35.75z" data-paper-data="{&quot;index&quot;:null}" fill="#000000" stroke-width="2"/><path d="M141.52664,66.16599h-35.75v-35.75h35.75z" data-paper-data="{&quot;index&quot;:null}" fill="#000000" stroke-width="2"/><path d="M319.52664,-37.43762h-35.75v-35.75h35.75z" data-paper-data="{&quot;index&quot;:null}" fill="#000000" stroke-width="2"/><path d="M319.52664,66.16599h-35.75v-35.75h35.75z" data-paper-data="{&quot;index&quot;:null}" fill="#000000" stroke-width="2"/><path d="M355.52664,-37.43762h-35.75v-35.75h35.75z" data-paper-data="{&quot;index&quot;:null}" fill="#000000" stroke-width="2"/><path d="M355.52664,66.16599h-35.75v-35.75h35.75z" data-paper-data="{&quot;index&quot;:null}" fill="#000000" stroke-width="2"/><path d="M141.52664,-3.43762h-35.75v-35.75h35.75z" data-paper-data="{&quot;index&quot;:null}" fill="#000000" stroke-width="2"/><path d="M141.52664,100.16599h-35.75v-35.75h35.75z" data-paper-data="{&quot;index&quot;:null}" fill="#000000" stroke-width="2"/><path d="M319.52664,-3.43762h-35.75v-35.75h35.75z" data-paper-data="{&quot;index&quot;:null}" fill="#000000" stroke-width="2"/><path d="M319.52664,100.16599h-35.75v-35.75h35.75z" data-paper-data="{&quot;index&quot;:null}" fill="#000000" stroke-width="2"/><path d="M355.52664,-3.43762h-35.75v-35.75h35.75z" data-paper-data="{&quot;index&quot;:null}" fill="#000000" stroke-width="2"/><path d="M355.52664,100.16599h-35.75v-35.75h35.75z" data-paper-data="{&quot;index&quot;:null}" fill="#000000" stroke-width="2"/><path d="M176.52663,31.89573h-35.75v-35.75h35.75z" data-paper-data="{&quot;index&quot;:null}" fill="#000000" stroke-width="2"/><path d="M176.52663,135.49934h-35.75v-35.75h35.75z" data-paper-data="{&quot;index&quot;:null}" fill="#000000" stroke-width="2"/><path d="M176.52663,171.53537h-35.75v-35.75h35.75z" data-paper-data="{&quot;index&quot;:null}" fill="#000000" stroke-width="2"/><path d="M212.52663,31.89573h-35.75v-35.75h35.75z" data-paper-data="{&quot;index&quot;:null}" fill="#000000" stroke-width="2"/><path d="M212.52663,135.49934h-35.75v-35.75h35.75z" data-paper-data="{&quot;index&quot;:null}" fill="#000000" stroke-width="2"/><path d="M212.52663,171.53537h-35.75v-35.75h35.75z" data-paper-data="{&quot;index&quot;:null}" fill="#000000" stroke-width="2"/><path d="M176.52663,-37.10427h-35.75v-35.75h35.75z" data-paper-data="{&quot;index&quot;:null}" fill="#000000" stroke-width="2"/><path d="M176.52663,66.49934h-35.75v-35.75h35.75z" data-paper-data="{&quot;index&quot;:null}" fill="#000000" stroke-width="2"/><path d="M212.52663,-37.10427h-35.75v-35.75h35.75z" data-paper-data="{&quot;index&quot;:null}" fill="#000000" stroke-width="2"/><path d="M212.52663,66.49934h-35.75v-35.75h35.75z" data-paper-data="{&quot;index&quot;:null}" fill="#000000" stroke-width="2"/><path d="M176.52663,-3.10427h-35.75v-35.75h35.75z" data-paper-data="{&quot;index&quot;:null}" fill="#000000" stroke-width="2"/><path d="M176.52663,100.49934h-35.75v-35.75h35.75z" data-paper-data="{&quot;index&quot;:null}" fill="#000000" stroke-width="2"/><path d="M212.52663,-3.10427h-35.75v-35.75h35.75z" data-paper-data="{&quot;index&quot;:null}" fill="#000000" stroke-width="2"/><path d="M212.52663,100.49934h-35.75v-35.75h35.75z" data-paper-data="{&quot;index&quot;:null}" fill="#000000" stroke-width="2"/><path d="M105.52664,31.89573h-35.75v-35.75h35.75z" data-paper-data="{&quot;index&quot;:null}" fill="#000000" stroke-width="2"/><path d="M105.52664,135.49934h-35.75v-35.75h35.75z" data-paper-data="{&quot;index&quot;:null}" fill="#000000" stroke-width="2"/><path d="M283.52664,31.89573h-35.75v-35.75h35.75z" data-paper-data="{&quot;index&quot;:null}" fill="#000000" stroke-width="2"/><path d="M283.52664,135.49934h-35.75v-35.75h35.75z" data-paper-data="{&quot;index&quot;:null}" fill="#000000" stroke-width="2"/><path d="M283.52664,171.53537h-35.75v-35.75h35.75z" data-paper-data="{&quot;index&quot;:null}" fill="#000000" stroke-width="2"/><path d="M319.52664,31.89573h-35.75v-35.75h35.75z" data-paper-data="{&quot;index&quot;:null}" fill="#000000" stroke-width="2"/><path d="M319.52664,135.49934h-35.75v-35.75h35.75z" data-paper-data="{&quot;index&quot;:null}" fill="#000000" stroke-width="2"/><path d="M319.52664,171.53537h-35.75v-35.75h35.75z" data-paper-data="{&quot;index&quot;:null}" fill="#000000" stroke-width="2"/><path d="M105.52664,-37.10427h-35.75v-35.75h35.75z" data-paper-data="{&quot;index&quot;:null}" fill="#000000" stroke-width="2"/><path d="M105.52664,66.49934h-35.75v-35.75h35.75z" data-paper-data="{&quot;index&quot;:null}" fill="#000000" stroke-width="2"/><path d="M283.52664,-37.10427h-35.75v-35.75h35.75z" data-paper-data="{&quot;index&quot;:null}" fill="#000000" stroke-width="2"/><path d="M283.52664,66.49934h-35.75v-35.75h35.75z" data-paper-data="{&quot;index&quot;:null}" fill="#000000" stroke-width="2"/><path d="M319.52664,-37.10427h-35.75v-35.75h35.75z" data-paper-data="{&quot;index&quot;:null}" fill="#000000" stroke-width="2"/><path d="M319.52664,66.49934h-35.75v-35.75h35.75z" data-paper-data="{&quot;index&quot;:null}" fill="#000000" stroke-width="2"/><path d="M105.52664,-37.10427h-35.75v-35.75h35.75z" data-paper-data="{&quot;index&quot;:null}" fill="#000000" stroke-width="2"/><path d="M105.52664,66.49934h-35.75v-35.75h35.75z" data-paper-data="{&quot;index&quot;:null}" fill="#000000" stroke-width="2"/><path d="M283.52664,-37.10427h-35.75v-35.75h35.75z" data-paper-data="{&quot;index&quot;:null}" fill="#000000" stroke-width="2"/><path d="M283.52664,66.49934h-35.75v-35.75h35.75z" data-paper-data="{&quot;index&quot;:null}" fill="#000000" stroke-width="2"/><path d="M319.52664,-37.10427h-35.75v-35.75h35.75z" data-paper-data="{&quot;index&quot;:null}" fill="#000000" stroke-width="2"/><path d="M319.52664,66.49934h-35.75v-35.75h35.75z" data-paper-data="{&quot;index&quot;:null}" fill="#000000" stroke-width="2"/><path d="M105.52664,-3.10427h-35.75v-35.75h35.75z" data-paper-data="{&quot;index&quot;:null}" fill="#000000" stroke-width="2"/><path d="M105.52664,100.49934h-35.75v-35.75h35.75z" data-paper-data="{&quot;index&quot;:null}" fill="#000000" stroke-width="2"/><path d="M283.52664,-3.10427h-35.75v-35.75h35.75z" data-paper-data="{&quot;index&quot;:null}" fill="#000000" stroke-width="2"/><path d="M283.52664,100.49934h-35.75v-35.75h35.75z" data-paper-data="{&quot;index&quot;:null}" fill="#000000" stroke-width="2"/><path d="M319.52664,-3.10427h-35.75v-35.75h35.75z" data-paper-data="{&quot;index&quot;:null}" fill="#000000" stroke-width="2"/><path d="M319.52664,100.49934h-35.75v-35.75h35.75z" data-paper-data="{&quot;index&quot;:null}" fill="#000000" stroke-width="2"/><path d="M177.19333,31.56238h-35.75v-35.75h35.75z" data-paper-data="{&quot;index&quot;:null}" fill="#000000" stroke-width="2"/><path d="M177.19333,135.16599h-35.75v-35.75h35.75z" data-paper-data="{&quot;index&quot;:null}" fill="#000000" stroke-width="2"/><path d="M177.19333,171.20202h-35.75v-35.75h35.75z" data-paper-data="{&quot;index&quot;:null}" fill="#000000" stroke-width="2"/><path d="M355.19333,31.56238h-35.75v-35.75h35.75z" data-paper-data="{&quot;index&quot;:null}" fill="#000000" stroke-width="2"/><path d="M355.19333,135.16599h-35.75v-35.75h35.75z" data-paper-data="{&quot;index&quot;:null}" fill="#000000" stroke-width="2"/><path d="M355.19333,171.20202h-35.75v-35.75h35.75z" data-paper-data="{&quot;index&quot;:null}" fill="#000000" stroke-width="2"/><path d="M391.19333,31.56238h-35.75v-35.75h35.75z" data-paper-data="{&quot;index&quot;:null}" fill="#000000" stroke-width="2"/><path d="M391.19333,135.16599h-35.75v-35.75h35.75z" data-paper-data="{&quot;index&quot;:null}" fill="#000000" stroke-width="2"/><path d="M391.19333,171.20202h-35.75v-35.75h35.75z" data-paper-data="{&quot;index&quot;:null}" fill="#000000" stroke-width="2"/><path d="M177.19333,-37.43762h-35.75v-35.75h35.75z" data-paper-data="{&quot;index&quot;:null}" fill="#000000" stroke-width="2"/><path d="M177.19333,66.16599h-35.75v-35.75h35.75z" data-paper-data="{&quot;index&quot;:null}" fill="#000000" stroke-width="2"/><path d="M355.19333,-37.43762h-35.75v-35.75h35.75z" data-paper-data="{&quot;index&quot;:null}" fill="#000000" stroke-width="2"/><path d="M355.19333,66.16599h-35.75v-35.75h35.75z" data-paper-data="{&quot;index&quot;:null}" fill="#000000" stroke-width="2"/><path d="M391.19333,-37.43762h-35.75v-35.75h35.75z" data-paper-data="{&quot;index&quot;:null}" fill="#000000" stroke-width="2"/><path d="M391.19333,66.16599h-35.75v-35.75h35.75z" data-paper-data="{&quot;index&quot;:null}" fill="#000000" stroke-width="2"/><path d="M177.19333,-3.43762h-35.75v-35.75h35.75z" data-paper-data="{&quot;index&quot;:null}" fill="#000000" stroke-width="2"/><path d="M177.19333,100.16599h-35.75v-35.75h35.75z" data-paper-data="{&quot;index&quot;:null}" fill="#000000" stroke-width="2"/><path d="M355.19333,-3.43762h-35.75v-35.75h35.75z" data-paper-data="{&quot;index&quot;:null}" fill="#000000" stroke-width="2"/><path d="M355.19333,100.16599h-35.75v-35.75h35.75z" data-paper-data="{&quot;index&quot;:null}" fill="#000000" stroke-width="2"/><path d="M391.19333,-3.43762h-35.75v-35.75h35.75z" data-paper-data="{&quot;index&quot;:null}" fill="#000000" stroke-width="2"/><path d="M391.19333,100.16599h-35.75v-35.75h35.75z" data-paper-data="{&quot;index&quot;:null}" fill="#000000" stroke-width="2"/><path d="M284.19333,31.56238h-35.75v-35.75h35.75z" data-paper-data="{&quot;index&quot;:null}" fill="#000000" stroke-width="2"/><path d="M284.19333,135.16599h-35.75v-35.75h35.75z" data-paper-data="{&quot;index&quot;:null}" fill="#000000" stroke-width="2"/><path d="M284.19333,171.20202h-35.75v-35.75h35.75z" data-paper-data="{&quot;index&quot;:null}" fill="#000000" stroke-width="2"/><path d="M462.19333,31.56238h-35.75v-35.75h35.75z" data-paper-data="{&quot;index&quot;:null}" fill="#000000" stroke-width="2"/><path d="M462.19333,135.16599h-35.75v-35.75h35.75z" data-paper-data="{&quot;index&quot;:null}" fill="#000000" stroke-width="2"/><path d="M462.19333,171.20202h-35.75v-35.75h35.75z" data-paper-data="{&quot;index&quot;:null}" fill="#000000" stroke-width="2"/><path d="M498.19333,31.56238h-35.75v-35.75h35.75z" data-paper-data="{&quot;index&quot;:null}" fill="#000000" stroke-width="2"/><path d="M498.19333,135.16599h-35.75v-35.75h35.75z" data-paper-data="{&quot;index&quot;:null}" fill="#000000" stroke-width="2"/><path d="M284.19333,-37.43762h-35.75v-35.75h35.75z" data-paper-data="{&quot;index&quot;:null}" fill="#000000" stroke-width="2"/><path d="M284.19333,66.16599h-35.75v-35.75h35.75z" data-paper-data="{&quot;index&quot;:null}" fill="#000000" stroke-width="2"/><path d="M462.19333,-37.43762h-35.75v-35.75h35.75z" data-paper-data="{&quot;index&quot;:null}" fill="#000000" stroke-width="2"/><path d="M462.19333,66.16599h-35.75v-35.75h35.75z" data-paper-data="{&quot;index&quot;:null}" fill="#000000" stroke-width="2"/><path d="M498.19333,-37.43762h-35.75v-35.75h35.75z" data-paper-data="{&quot;index&quot;:null}" fill="#000000" stroke-width="2"/><path d="M498.19333,66.16599h-35.75v-35.75h35.75z" data-paper-data="{&quot;index&quot;:null}" fill="#000000" stroke-width="2"/><path d="M462.19333,-3.43762h-35.75v-35.75h35.75z" data-paper-data="{&quot;index&quot;:null}" fill="#000000" stroke-width="2"/><path d="M462.19333,100.16599h-35.75v-35.75h35.75z" data-paper-data="{&quot;index&quot;:null}" fill="#000000" stroke-width="2"/><path d="M498.19333,-3.43762h-35.75v-35.75h35.75z" data-paper-data="{&quot;index&quot;:null}" fill="#000000" stroke-width="2"/><path d="M498.19333,100.16599h-35.75v-35.75h35.75z" data-paper-data="{&quot;index&quot;:null}" fill="#000000" stroke-width="2"/><path d="M141.52664,31.56238h-35.75v-35.75h35.75z" data-paper-data="{&quot;index&quot;:null}" fill="#000000" stroke-width="2"/><path d="M141.52664,135.16599h-35.75v-35.75h35.75z" data-paper-data="{&quot;index&quot;:null}" fill="#000000" stroke-width="2"/><path d="M319.52664,31.56238h-35.75v-35.75h35.75z" data-paper-data="{&quot;index&quot;:null}" fill="#000000" stroke-width="2"/><path d="M319.52664,135.16599h-35.75v-35.75h35.75z" data-paper-data="{&quot;index&quot;:null}" fill="#000000" stroke-width="2"/><path d="M319.52664,171.20202h-35.75v-35.75h35.75z" data-paper-data="{&quot;index&quot;:null}" fill="#000000" stroke-width="2"/><path d="M141.52664,-37.43762h-35.75v-35.75h35.75z" data-paper-data="{&quot;index&quot;:null}" fill="#000000" stroke-width="2"/><path d="M141.52664,66.16599h-35.75v-35.75h35.75z" data-paper-data="{&quot;index&quot;:null}" fill="#000000" stroke-width="2"/><path d="M319.52664,-37.43762h-35.75v-35.75h35.75z" data-paper-data="{&quot;index&quot;:null}" fill="#000000" stroke-width="2"/><path d="M319.52664,66.16599h-35.75v-35.75h35.75z" data-paper-data="{&quot;index&quot;:null}" fill="#000000" stroke-width="2"/><path d="M141.52664,-3.43762h-35.75v-35.75h35.75z" data-paper-data="{&quot;index&quot;:null}" fill="#000000" stroke-width="2"/><path d="M141.52664,100.16599h-35.75v-35.75h35.75z" data-paper-data="{&quot;index&quot;:null}" fill="#000000" stroke-width="2"/><path d="M426.52663,31.56238h-35.75v-35.75h35.75z" data-paper-data="{&quot;index&quot;:null}" fill="#000000" stroke-width="2"/><path d="M426.52663,135.16599h-35.75v-35.75h35.75z" data-paper-data="{&quot;index&quot;:null}" fill="#000000" stroke-width="2"/><path d="M426.52663,171.20202h-35.75v-35.75h35.75z" data-paper-data="{&quot;index&quot;:null}" fill="#000000" stroke-width="2"/><path d="M462.52663,31.56238h-35.75v-35.75h35.75z" data-paper-data="{&quot;index&quot;:null}" fill="#000000" stroke-width="2"/><path d="M462.52663,135.16599h-35.75v-35.75h35.75z" data-paper-data="{&quot;index&quot;:null}" fill="#000000" stroke-width="2"/><path d="M462.52663,171.20202h-35.75v-35.75h35.75z" data-paper-data="{&quot;index&quot;:null}" fill="#000000" stroke-width="2"/><path d="M426.52663,-37.43762h-35.75v-35.75h35.75z" data-paper-data="{&quot;index&quot;:null}" fill="#000000" stroke-width="2"/><path d="M426.52663,66.16599h-35.75v-35.75h35.75z" data-paper-data="{&quot;index&quot;:null}" fill="#000000" stroke-width="2"/><path d="M462.52663,-37.43762h-35.75v-35.75h35.75z" data-paper-data="{&quot;index&quot;:null}" fill="#000000" stroke-width="2"/><path d="M462.52663,66.16599h-35.75v-35.75h35.75z" data-paper-data="{&quot;index&quot;:null}" fill="#000000" stroke-width="2"/><path d="M426.52663,-3.43762h-35.75v-35.75h35.75z" data-paper-data="{&quot;index&quot;:null}" fill="#000000" stroke-width="2"/><path d="M426.52663,100.16599h-35.75v-35.75h35.75z" data-paper-data="{&quot;index&quot;:null}" fill="#000000" stroke-width="2"/><path d="M462.52663,-3.43762h-35.75v-35.75h35.75z" data-paper-data="{&quot;index&quot;:null}" fill="#000000" stroke-width="2"/><path d="M462.52663,100.16599h-35.75v-35.75h35.75z" data-paper-data="{&quot;index&quot;:null}" fill="#000000" stroke-width="2"/><path d="M105.52664,31.89573h-35.75v-35.75h35.75z" data-paper-data="{&quot;index&quot;:null}" fill="#000000" stroke-width="2"/><path d="M105.52664,135.49934h-35.75v-35.75h35.75z" data-paper-data="{&quot;index&quot;:null}" fill="#000000" stroke-width="2"/><path d="M105.52664,-37.10427h-35.75v-35.75h35.75z" data-paper-data="{&quot;index&quot;:null}" fill="#000000" stroke-width="2"/><path d="M105.52664,66.49934h-35.75v-35.75h35.75z" data-paper-data="{&quot;index&quot;:null}" fill="#000000" stroke-width="2"/><path d="M390.52663,31.89573h-35.75v-35.75h35.75z" data-paper-data="{&quot;index&quot;:null}" fill="#000000" stroke-width="2"/><path d="M390.52663,135.49934h-35.75v-35.75h35.75z" data-paper-data="{&quot;index&quot;:null}" fill="#000000" stroke-width="2"/><path d="M390.52663,171.53537h-35.75v-35.75h35.75z" data-paper-data="{&quot;index&quot;:null}" fill="#000000" stroke-width="2"/><path d="M426.52663,31.89573h-35.75v-35.75h35.75z" data-paper-data="{&quot;index&quot;:null}" fill="#000000" stroke-width="2"/><path d="M426.52663,135.49934h-35.75v-35.75h35.75z" data-paper-data="{&quot;index&quot;:null}" fill="#000000" stroke-width="2"/><path d="M426.52663,171.53537h-35.75v-35.75h35.75z" data-paper-data="{&quot;index&quot;:null}" fill="#000000" stroke-width="2"/><path d="M390.52663,-37.10427h-35.75v-35.75h35.75z" data-paper-data="{&quot;index&quot;:null}" fill="#000000" stroke-width="2"/><path d="M390.52663,66.49934h-35.75v-35.75h35.75z" data-paper-data="{&quot;index&quot;:null}" fill="#000000" stroke-width="2"/><path d="M390.52663,-3.10427h-35.75v-35.75h35.75z" data-paper-data="{&quot;index&quot;:null}" fill="#000000" stroke-width="2"/><path d="M390.52663,100.49934h-35.75v-35.75h35.75z" data-paper-data="{&quot;index&quot;:null}" fill="#000000" stroke-width="2"/><path d="M426.52663,-3.10427h-35.75v-35.75h35.75z" data-paper-data="{&quot;index&quot;:null}" fill="#000000" stroke-width="2"/><path d="M426.52663,100.49934h-35.75v-35.75h35.75z" data-paper-data="{&quot;index&quot;:null}" fill="#000000" stroke-width="2"/><path d="M-53.02701,0.66667v-31.33333h586.05405v31.33333z" fill="none" stroke-width="0"/></g></g></svg>