<svg version="1.1" xmlns="http://www.w3.org/2000/svg" xmlns:xlink="http://www.w3.org/1999/xlink" width="33.51726" height="42.49756" viewBox="0,0,33.51726,42.49756"><g transform="translate(-223.24137,-163.09629)"><g data-paper-data="{&quot;isPaintingLayer&quot;:true}" fill-rule="nonzero" stroke-linecap="butt" stroke-linejoin="miter" stroke-miterlimit="10" stroke-dasharray="" stroke-dashoffset="0" style="mix-blend-mode: normal"><path d="M255.75863,164.09629v31.51726h-31.51726v-31.51726z" data-paper-data="{&quot;index&quot;:null}" fill="#2f2f2f" stroke="#000000" stroke-width="2"/><path d="M243.35132,167.00806c4.5431,0 11.25887,1.58371 5.92782,7.18023c-0.48009,0.504 -3.16462,0.87925 -4.23954,0.89129c-4.77084,0.05343 -10.0383,1.66497 -14.30573,-0.46875c-2.5599,-1.27994 -2.5599,-5.56831 0,-6.84826c0.83072,-0.41537 5.24116,-0.49791 5.44757,-0.86181c0.77091,-1.35913 2.00899,-3.03611 3.57153,-3.03611c1.25973,0 2.1875,1.25 3.28125,1.875z" data-paper-data="{&quot;index&quot;:null}" fill="#ffffff" stroke="none" stroke-width="0.5"/><path d="M240,178.44409c-1.10476,0 -2.00035,-1.88713 -2.00035,-4.21502c0,-2.32789 0.89559,-4.21502 2.00035,-4.21502c1.10476,0 2.00035,1.88713 2.00035,4.21502c0,2.32789 -0.89559,4.21502 -2.00035,4.21502z" data-paper-data="{&quot;index&quot;:null}" fill="#ffcafb" stroke="#000000" stroke-width="1"/><path d="M240,178.85984c-0.64441,0 -1.16682,-0.30078 -1.16682,-0.67181c0,-0.37103 0.5224,-0.67181 1.16682,-0.67181c0.64441,0 1.16682,0.30078 1.16682,0.67181c0,0.37103 -0.5224,0.67181 -1.16682,0.67181z" data-paper-data="{&quot;index&quot;:null}" fill="none" stroke="#000000" stroke-width="2"/><path d="M232.66063,177.74764c0.3562,-1.53111 1.85464,-2.68037 3.64908,-2.68037c1.88222,0 3.43878,1.26445 3.69306,2.90773" data-paper-data="{&quot;index&quot;:null}" fill="none" stroke="#000000" stroke-width="2"/><path d="M239.99723,177.975c0.25428,-1.64328 1.81083,-2.90773 3.69306,-2.90773c1.79444,0 3.29288,1.14925 3.64908,2.68037" data-paper-data="{&quot;index&quot;:null}" fill="none" stroke="#000000" stroke-width="2"/><path d="M231.66554,183.7999c1.50364,0 2.72259,1.21895 2.72259,2.72259c0,1.50364 -1.21895,2.72259 -2.72259,2.72259c-1.50364,0 -2.72259,-1.21895 -2.72259,-2.72259c0,-1.50364 1.21895,-2.72259 2.72259,-2.72259z" data-paper-data="{&quot;index&quot;:null}" fill="#000000" stroke="#000000" stroke-width="2"/><path d="M233.06573,185.55035c0.9665,0 1.75,0.7835 1.75,1.75c0,0.9665 -0.7835,1.75 -1.75,1.75c-0.9665,0 -1.75,-0.7835 -1.75,-1.75c0,-0.9665 0.7835,-1.75 1.75,-1.75z" data-paper-data="{&quot;index&quot;:null}" fill="#ffffff" stroke="none" stroke-width="0.5"/><path d="M229.84307,184.80008c0.27614,0 0.5,0.22386 0.5,0.5c0,0.27614 -0.22386,0.5 -0.5,0.5c-0.27614,0 -0.5,-0.22386 -0.5,-0.5c0,-0.27614 0.22386,-0.5 0.5,-0.5z" data-paper-data="{&quot;index&quot;:null}" fill="#ffffff" stroke="none" stroke-width="0.5"/><path d="M248.33446,183.79989c1.50365,0 2.72259,1.21894 2.72259,2.72259c0,1.50365 -1.21894,2.72259 -2.72259,2.72259c-1.50365,0 -2.72259,-1.21894 -2.72259,-2.72259c0,-1.50365 1.21894,-2.72259 2.72259,-2.72259z" data-paper-data="{&quot;index&quot;:null}" fill="#000000" stroke="#000000" stroke-width="2"/><path d="M249.73465,185.55035c0.9665,0 1.75,0.7835 1.75,1.75c0,0.9665 -0.7835,1.75 -1.75,1.75c-0.9665,0 -1.75,-0.7835 -1.75,-1.75c0,-0.9665 0.7835,-1.75 1.75,-1.75z" data-paper-data="{&quot;index&quot;:null}" fill="#ffffff" stroke="none" stroke-width="0.5"/><path d="M246.51199,184.80008c0.27614,0 0.5,0.22386 0.5,0.5c0,0.27614 -0.22386,0.5 -0.5,0.5c-0.27614,0 -0.5,-0.22386 -0.5,-0.5c0,-0.27614 0.22386,-0.5 0.5,-0.5z" data-paper-data="{&quot;index&quot;:null}" fill="#ffffff" stroke="none" stroke-width="0.5"/><path d="M235.57332,195.84355l-5.22691,7.93279l-5.22691,-7.93279z" data-paper-data="{&quot;index&quot;:null}" fill="#2f2f2f" stroke="#000000" stroke-width="2"/><path d="M254.86238,195.84355l-5.22691,7.93278l-5.2269,-7.93278z" data-paper-data="{&quot;index&quot;:null}" fill="#2f2f2f" stroke="#000000" stroke-width="2"/><path d="M255.75863,164.09629v31.51726h-31.51726v-31.51726z" data-paper-data="{&quot;index&quot;:null}" fill="none" stroke="#000000" stroke-width="2"/></g></g></svg>