<svg version="1.1" xmlns="http://www.w3.org/2000/svg" xmlns:xlink="http://www.w3.org/1999/xlink" width="586.05405" height="390.88973" viewBox="0,0,586.05405,390.88973"><g transform="translate(53.02702,30.66667)"><g data-paper-data="{&quot;isPaintingLayer&quot;:true}" fill-rule="nonzero" stroke-linecap="butt" stroke-linejoin="miter" stroke-miterlimit="10" stroke-dasharray="" stroke-dashoffset="0" style="mix-blend-mode: normal"><path d="M85.20834,358.88971h-35.75v-35.75h35.75z" data-paper-data="{&quot;index&quot;:null}" fill="#000000" stroke="#ffffff" stroke-width="2"/><path d="M263.20834,358.88971h-35.75v-35.75h35.75z" data-paper-data="{&quot;index&quot;:null}" fill="#000000" stroke="#ffffff" stroke-width="2"/><path d="M299.20834,358.88971h-35.75v-35.75h35.75z" data-paper-data="{&quot;index&quot;:null}" fill="#000000" stroke="#ffffff" stroke-width="2"/><path d="M85.20834,289.88971h-35.75v-35.75h35.75z" data-paper-data="{&quot;index&quot;:null}" fill="#000000" stroke="#ffffff" stroke-width="2"/><path d="M263.20834,289.88971h-35.75v-35.75h35.75z" data-paper-data="{&quot;index&quot;:null}" fill="#000000" stroke="#ffffff" stroke-width="2"/><path d="M299.20834,289.88971h-35.75v-35.75h35.75z" data-paper-data="{&quot;index&quot;:null}" fill="#000000" stroke="#ffffff" stroke-width="2"/><path d="M85.20834,220.88971h-35.75v-35.75h35.75z" data-paper-data="{&quot;index&quot;:null}" fill="#000000" stroke="#ffffff" stroke-width="2"/><path d="M263.20834,220.88971h-35.75v-35.75h35.75z" data-paper-data="{&quot;index&quot;:null}" fill="#000000" stroke="#ffffff" stroke-width="2"/><path d="M299.20834,220.88971h-35.75v-35.75h35.75z" data-paper-data="{&quot;index&quot;:null}" fill="#000000" stroke="#ffffff" stroke-width="2"/><path d="M85.20834,323.88971h-35.75v-35.75h35.75z" data-paper-data="{&quot;index&quot;:null}" fill="#000000" stroke="#ffffff" stroke-width="2"/><path d="M263.20834,323.88971h-35.75v-35.75h35.75z" data-paper-data="{&quot;index&quot;:null}" fill="#000000" stroke="#ffffff" stroke-width="2"/><path d="M299.20834,323.88971h-35.75v-35.75h35.75z" data-paper-data="{&quot;index&quot;:null}" fill="#000000" stroke="#ffffff" stroke-width="2"/><path d="M85.20834,254.88971h-35.75v-35.75h35.75z" data-paper-data="{&quot;index&quot;:null}" fill="#000000" stroke="#ffffff" stroke-width="2"/><path d="M263.20834,254.88971h-35.75v-35.75h35.75z" data-paper-data="{&quot;index&quot;:null}" fill="#000000" stroke="#ffffff" stroke-width="2"/><path d="M299.20834,254.88971h-35.75v-35.75h35.75z" data-paper-data="{&quot;index&quot;:null}" fill="#000000" stroke="#ffffff" stroke-width="2"/><path d="M85.20834,185.88971h-35.75v-35.75h35.75z" data-paper-data="{&quot;index&quot;:null}" fill="#000000" stroke="#ffffff" stroke-width="2"/><path d="M192.20835,358.88971h-35.75v-35.75h35.75z" data-paper-data="{&quot;index&quot;:null}" fill="#000000" stroke="#ffffff" stroke-width="2"/><path d="M370.20835,358.88971h-35.75v-35.75h35.75z" data-paper-data="{&quot;index&quot;:null}" fill="#000000" stroke="#ffffff" stroke-width="2"/><path d="M406.20835,358.88971h-35.75v-35.75h35.75z" data-paper-data="{&quot;index&quot;:null}" fill="#000000" stroke="#ffffff" stroke-width="2"/><path d="M192.20835,289.88971h-35.75v-35.75h35.75z" data-paper-data="{&quot;index&quot;:null}" fill="#000000" stroke="#ffffff" stroke-width="2"/><path d="M370.20835,289.88971h-35.75v-35.75h35.75z" data-paper-data="{&quot;index&quot;:null}" fill="#000000" stroke="#ffffff" stroke-width="2"/><path d="M406.20835,289.88971h-35.75v-35.75h35.75z" data-paper-data="{&quot;index&quot;:null}" fill="#000000" stroke="#ffffff" stroke-width="2"/><path d="M192.20835,289.88971h-35.75v-35.75h35.75z" data-paper-data="{&quot;index&quot;:null}" fill="#000000" stroke="#ffffff" stroke-width="2"/><path d="M370.20835,289.88971h-35.75v-35.75h35.75z" data-paper-data="{&quot;index&quot;:null}" fill="#000000" stroke="#ffffff" stroke-width="2"/><path d="M406.20835,289.88971h-35.75v-35.75h35.75z" data-paper-data="{&quot;index&quot;:null}" fill="#000000" stroke="#ffffff" stroke-width="2"/><path d="M192.20835,220.88971h-35.75v-35.75h35.75z" data-paper-data="{&quot;index&quot;:null}" fill="#000000" stroke="#ffffff" stroke-width="2"/><path d="M370.20835,220.88971h-35.75v-35.75h35.75z" data-paper-data="{&quot;index&quot;:null}" fill="#000000" stroke="#ffffff" stroke-width="2"/><path d="M406.20835,220.88971h-35.75v-35.75h35.75z" data-paper-data="{&quot;index&quot;:null}" fill="#000000" stroke="#ffffff" stroke-width="2"/><path d="M192.20835,323.88971h-35.75v-35.75h35.75z" data-paper-data="{&quot;index&quot;:null}" fill="#000000" stroke="#ffffff" stroke-width="2"/><path d="M370.20835,323.88971h-35.75v-35.75h35.75z" data-paper-data="{&quot;index&quot;:null}" fill="#000000" stroke="#ffffff" stroke-width="2"/><path d="M406.20835,323.88971h-35.75v-35.75h35.75z" data-paper-data="{&quot;index&quot;:null}" fill="#000000" stroke="#ffffff" stroke-width="2"/><path d="M192.20835,254.88971h-35.75v-35.75h35.75z" data-paper-data="{&quot;index&quot;:null}" fill="#000000" stroke="#ffffff" stroke-width="2"/><path d="M370.20835,254.88971h-35.75v-35.75h35.75z" data-paper-data="{&quot;index&quot;:null}" fill="#000000" stroke="#ffffff" stroke-width="2"/><path d="M406.20835,254.88971h-35.75v-35.75h35.75z" data-paper-data="{&quot;index&quot;:null}" fill="#000000" stroke="#ffffff" stroke-width="2"/><path d="M192.20835,254.88971h-35.75v-35.75h35.75z" data-paper-data="{&quot;index&quot;:null}" fill="#000000" stroke="#ffffff" stroke-width="2"/><path d="M370.20835,254.88971h-35.75v-35.75h35.75z" data-paper-data="{&quot;index&quot;:null}" fill="#000000" stroke="#ffffff" stroke-width="2"/><path d="M406.20835,254.88971h-35.75v-35.75h35.75z" data-paper-data="{&quot;index&quot;:null}" fill="#000000" stroke="#ffffff" stroke-width="2"/><path d="M192.20835,185.88971h-35.75v-35.75h35.75z" data-paper-data="{&quot;index&quot;:null}" fill="#000000" stroke="#ffffff" stroke-width="2"/><path d="M49.54165,358.88971h-35.75v-35.75h35.75z" data-paper-data="{&quot;index&quot;:null}" fill="#000000" stroke="#ffffff" stroke-width="2"/><path d="M227.54165,358.88971h-35.75v-35.75h35.75z" data-paper-data="{&quot;index&quot;:null}" fill="#000000" stroke="#ffffff" stroke-width="2"/><path d="M263.54165,358.88971h-35.75v-35.75h35.75z" data-paper-data="{&quot;index&quot;:null}" fill="#000000" stroke="#ffffff" stroke-width="2"/><path d="M49.54165,289.88971h-35.75v-35.75h35.75z" data-paper-data="{&quot;index&quot;:null}" fill="#000000" stroke="#ffffff" stroke-width="2"/><path d="M227.54165,289.88971h-35.75v-35.75h35.75z" data-paper-data="{&quot;index&quot;:null}" fill="#000000" stroke="#ffffff" stroke-width="2"/><path d="M263.54165,289.88971h-35.75v-35.75h35.75z" data-paper-data="{&quot;index&quot;:null}" fill="#000000" stroke="#ffffff" stroke-width="2"/><path d="M49.54165,220.88971h-35.75v-35.75h35.75z" data-paper-data="{&quot;index&quot;:null}" fill="#000000" stroke="#ffffff" stroke-width="2"/><path d="M227.54165,220.88971h-35.75v-35.75h35.75z" data-paper-data="{&quot;index&quot;:null}" fill="#000000" stroke="#ffffff" stroke-width="2"/><path d="M263.54165,220.88971h-35.75v-35.75h35.75z" data-paper-data="{&quot;index&quot;:null}" fill="#000000" stroke="#ffffff" stroke-width="2"/><path d="M49.54165,323.88971h-35.75v-35.75h35.75z" data-paper-data="{&quot;index&quot;:null}" fill="#000000" stroke="#ffffff" stroke-width="2"/><path d="M227.54165,323.88971h-35.75v-35.75h35.75z" data-paper-data="{&quot;index&quot;:null}" fill="#000000" stroke="#ffffff" stroke-width="2"/><path d="M263.54165,323.88971h-35.75v-35.75h35.75z" data-paper-data="{&quot;index&quot;:null}" fill="#000000" stroke="#ffffff" stroke-width="2"/><path d="M49.54165,254.88971h-35.75v-35.75h35.75z" data-paper-data="{&quot;index&quot;:null}" fill="#000000" stroke="#ffffff" stroke-width="2"/><path d="M227.54165,254.88971h-35.75v-35.75h35.75z" data-paper-data="{&quot;index&quot;:null}" fill="#000000" stroke="#ffffff" stroke-width="2"/><path d="M263.54165,254.88971h-35.75v-35.75h35.75z" data-paper-data="{&quot;index&quot;:null}" fill="#000000" stroke="#ffffff" stroke-width="2"/><path d="M49.54165,185.88971h-35.75v-35.75h35.75z" data-paper-data="{&quot;index&quot;:null}" fill="#000000" stroke="#ffffff" stroke-width="2"/><path d="M156.54166,358.88971h-35.75v-35.75h35.75z" data-paper-data="{&quot;index&quot;:null}" fill="#000000" stroke="#ffffff" stroke-width="2"/><path d="M334.54166,358.88971h-35.75v-35.75h35.75z" data-paper-data="{&quot;index&quot;:null}" fill="#000000" stroke="#ffffff" stroke-width="2"/><path d="M370.54166,358.88971h-35.75v-35.75h35.75z" data-paper-data="{&quot;index&quot;:null}" fill="#000000" stroke="#ffffff" stroke-width="2"/><path d="M156.54166,289.88971h-35.75v-35.75h35.75z" data-paper-data="{&quot;index&quot;:null}" fill="#000000" stroke="#ffffff" stroke-width="2"/><path d="M334.54166,289.88971h-35.75v-35.75h35.75z" data-paper-data="{&quot;index&quot;:null}" fill="#000000" stroke="#ffffff" stroke-width="2"/><path d="M370.54166,289.88971h-35.75v-35.75h35.75z" data-paper-data="{&quot;index&quot;:null}" fill="#000000" stroke="#ffffff" stroke-width="2"/><path d="M156.54166,289.88971h-35.75v-35.75h35.75z" data-paper-data="{&quot;index&quot;:null}" fill="#000000" stroke="#ffffff" stroke-width="2"/><path d="M334.54166,289.88971h-35.75v-35.75h35.75z" data-paper-data="{&quot;index&quot;:null}" fill="#000000" stroke="#ffffff" stroke-width="2"/><path d="M370.54166,289.88971h-35.75v-35.75h35.75z" data-paper-data="{&quot;index&quot;:null}" fill="#000000" stroke="#ffffff" stroke-width="2"/><path d="M156.54166,220.88971h-35.75v-35.75h35.75z" data-paper-data="{&quot;index&quot;:null}" fill="#000000" stroke="#ffffff" stroke-width="2"/><path d="M334.54166,220.88971h-35.75v-35.75h35.75z" data-paper-data="{&quot;index&quot;:null}" fill="#000000" stroke="#ffffff" stroke-width="2"/><path d="M370.54166,220.88971h-35.75v-35.75h35.75z" data-paper-data="{&quot;index&quot;:null}" fill="#000000" stroke="#ffffff" stroke-width="2"/><path d="M156.54166,323.88971h-35.75v-35.75h35.75z" data-paper-data="{&quot;index&quot;:null}" fill="#000000" stroke="#ffffff" stroke-width="2"/><path d="M334.54166,323.88971h-35.75v-35.75h35.75z" data-paper-data="{&quot;index&quot;:null}" fill="#000000" stroke="#ffffff" stroke-width="2"/><path d="M370.54166,323.88971h-35.75v-35.75h35.75z" data-paper-data="{&quot;index&quot;:null}" fill="#000000" stroke="#ffffff" stroke-width="2"/><path d="M156.54166,254.88971h-35.75v-35.75h35.75z" data-paper-data="{&quot;index&quot;:null}" fill="#000000" stroke="#ffffff" stroke-width="2"/><path d="M334.54166,254.88971h-35.75v-35.75h35.75z" data-paper-data="{&quot;index&quot;:null}" fill="#000000" stroke="#ffffff" stroke-width="2"/><path d="M370.54166,254.88971h-35.75v-35.75h35.75z" data-paper-data="{&quot;index&quot;:null}" fill="#000000" stroke="#ffffff" stroke-width="2"/><path d="M156.54166,254.88971h-35.75v-35.75h35.75z" data-paper-data="{&quot;index&quot;:null}" fill="#000000" stroke="#ffffff" stroke-width="2"/><path d="M334.54166,254.88971h-35.75v-35.75h35.75z" data-paper-data="{&quot;index&quot;:null}" fill="#000000" stroke="#ffffff" stroke-width="2"/><path d="M370.54166,254.88971h-35.75v-35.75h35.75z" data-paper-data="{&quot;index&quot;:null}" fill="#000000" stroke="#ffffff" stroke-width="2"/><path d="M156.54166,185.88971h-35.75v-35.75h35.75z" data-paper-data="{&quot;index&quot;:null}" fill="#000000" stroke="#ffffff" stroke-width="2"/><path d="M13.54165,359.22306h-35.75v-35.75h35.75z" data-paper-data="{&quot;index&quot;:null}" fill="#000000" stroke="#ffffff" stroke-width="2"/><path d="M191.54165,359.22306h-35.75v-35.75h35.75z" data-paper-data="{&quot;index&quot;:null}" fill="#000000" stroke="#ffffff" stroke-width="2"/><path d="M227.54165,359.22306h-35.75v-35.75h35.75z" data-paper-data="{&quot;index&quot;:null}" fill="#000000" stroke="#ffffff" stroke-width="2"/><path d="M13.54165,290.22306h-35.75v-35.75h35.75z" data-paper-data="{&quot;index&quot;:null}" fill="#000000" stroke="#ffffff" stroke-width="2"/><path d="M191.54165,290.22306h-35.75v-35.75h35.75z" data-paper-data="{&quot;index&quot;:null}" fill="#000000" stroke="#ffffff" stroke-width="2"/><path d="M227.54165,290.22306h-35.75v-35.75h35.75z" data-paper-data="{&quot;index&quot;:null}" fill="#000000" stroke="#ffffff" stroke-width="2"/><path d="M13.54165,221.22306h-35.75v-35.75h35.75z" data-paper-data="{&quot;index&quot;:null}" fill="#000000" stroke="#ffffff" stroke-width="2"/><path d="M191.54165,221.22306h-35.75v-35.75h35.75z" data-paper-data="{&quot;index&quot;:null}" fill="#000000" stroke="#ffffff" stroke-width="2"/><path d="M227.54165,221.22306h-35.75v-35.75h35.75z" data-paper-data="{&quot;index&quot;:null}" fill="#000000" stroke="#ffffff" stroke-width="2"/><path d="M13.54165,324.22306h-35.75v-35.75h35.75z" data-paper-data="{&quot;index&quot;:null}" fill="#000000" stroke="#ffffff" stroke-width="2"/><path d="M191.54165,324.22306h-35.75v-35.75h35.75z" data-paper-data="{&quot;index&quot;:null}" fill="#000000" stroke="#ffffff" stroke-width="2"/><path d="M227.54165,324.22306h-35.75v-35.75h35.75z" data-paper-data="{&quot;index&quot;:null}" fill="#000000" stroke="#ffffff" stroke-width="2"/><path d="M13.54165,255.22306h-35.75v-35.75h35.75z" data-paper-data="{&quot;index&quot;:null}" fill="#000000" stroke="#ffffff" stroke-width="2"/><path d="M191.54165,255.22306h-35.75v-35.75h35.75z" data-paper-data="{&quot;index&quot;:null}" fill="#000000" stroke="#ffffff" stroke-width="2"/><path d="M227.54165,255.22306h-35.75v-35.75h35.75z" data-paper-data="{&quot;index&quot;:null}" fill="#000000" stroke="#ffffff" stroke-width="2"/><path d="M13.54165,186.22305h-35.75v-35.75h35.75z" data-paper-data="{&quot;index&quot;:null}" fill="#000000" stroke="#ffffff" stroke-width="2"/><path d="M120.54166,359.22306h-35.75v-35.75h35.75z" data-paper-data="{&quot;index&quot;:null}" fill="#000000" stroke="#ffffff" stroke-width="2"/><path d="M298.54166,359.22306h-35.75v-35.75h35.75z" data-paper-data="{&quot;index&quot;:null}" fill="#000000" stroke="#ffffff" stroke-width="2"/><path d="M334.54166,359.22306h-35.75v-35.75h35.75z" data-paper-data="{&quot;index&quot;:null}" fill="#000000" stroke="#ffffff" stroke-width="2"/><path d="M120.54166,290.22306h-35.75v-35.75h35.75z" data-paper-data="{&quot;index&quot;:null}" fill="#000000" stroke="#ffffff" stroke-width="2"/><path d="M298.54166,290.22306h-35.75v-35.75h35.75z" data-paper-data="{&quot;index&quot;:null}" fill="#000000" stroke="#ffffff" stroke-width="2"/><path d="M334.54166,290.22306h-35.75v-35.75h35.75z" data-paper-data="{&quot;index&quot;:null}" fill="#000000" stroke="#ffffff" stroke-width="2"/><path d="M120.54166,290.22306h-35.75v-35.75h35.75z" data-paper-data="{&quot;index&quot;:null}" fill="#000000" stroke="#ffffff" stroke-width="2"/><path d="M298.54166,290.22306h-35.75v-35.75h35.75z" data-paper-data="{&quot;index&quot;:null}" fill="#000000" stroke="#ffffff" stroke-width="2"/><path d="M334.54166,290.22306h-35.75v-35.75h35.75z" data-paper-data="{&quot;index&quot;:null}" fill="#000000" stroke="#ffffff" stroke-width="2"/><path d="M120.54166,221.22306h-35.75v-35.75h35.75z" data-paper-data="{&quot;index&quot;:null}" fill="#000000" stroke="#ffffff" stroke-width="2"/><path d="M298.54166,221.22306h-35.75v-35.75h35.75z" data-paper-data="{&quot;index&quot;:null}" fill="#000000" stroke="#ffffff" stroke-width="2"/><path d="M334.54166,221.22306h-35.75v-35.75h35.75z" data-paper-data="{&quot;index&quot;:null}" fill="#000000" stroke="#ffffff" stroke-width="2"/><path d="M120.54166,324.22306h-35.75v-35.75h35.75z" data-paper-data="{&quot;index&quot;:null}" fill="#000000" stroke="#ffffff" stroke-width="2"/><path d="M298.54166,324.22306h-35.75v-35.75h35.75z" data-paper-data="{&quot;index&quot;:null}" fill="#000000" stroke="#ffffff" stroke-width="2"/><path d="M334.54166,324.22306h-35.75v-35.75h35.75z" data-paper-data="{&quot;index&quot;:null}" fill="#000000" stroke="#ffffff" stroke-width="2"/><path d="M120.54166,255.22306h-35.75v-35.75h35.75z" data-paper-data="{&quot;index&quot;:null}" fill="#000000" stroke="#ffffff" stroke-width="2"/><path d="M298.54166,255.22306h-35.75v-35.75h35.75z" data-paper-data="{&quot;index&quot;:null}" fill="#000000" stroke="#ffffff" stroke-width="2"/><path d="M334.54166,255.22306h-35.75v-35.75h35.75z" data-paper-data="{&quot;index&quot;:null}" fill="#000000" stroke="#ffffff" stroke-width="2"/><path d="M120.54166,186.22305h-35.75v-35.75h35.75z" data-paper-data="{&quot;index&quot;:null}" fill="#000000" stroke="#ffffff" stroke-width="2"/><path d="M192.20835,358.88971h-35.75v-35.75h35.75z" data-paper-data="{&quot;index&quot;:null}" fill="#000000" stroke="#ffffff" stroke-width="2"/><path d="M370.20835,358.88971h-35.75v-35.75h35.75z" data-paper-data="{&quot;index&quot;:null}" fill="#000000" stroke="#ffffff" stroke-width="2"/><path d="M406.20835,358.88971h-35.75v-35.75h35.75z" data-paper-data="{&quot;index&quot;:null}" fill="#000000" stroke="#ffffff" stroke-width="2"/><path d="M192.20835,289.88971h-35.75v-35.75h35.75z" data-paper-data="{&quot;index&quot;:null}" fill="#000000" stroke="#ffffff" stroke-width="2"/><path d="M370.20835,289.88971h-35.75v-35.75h35.75z" data-paper-data="{&quot;index&quot;:null}" fill="#000000" stroke="#ffffff" stroke-width="2"/><path d="M406.20835,289.88971h-35.75v-35.75h35.75z" data-paper-data="{&quot;index&quot;:null}" fill="#000000" stroke="#ffffff" stroke-width="2"/><path d="M192.20835,220.88971h-35.75v-35.75h35.75z" data-paper-data="{&quot;index&quot;:null}" fill="#000000" stroke="#ffffff" stroke-width="2"/><path d="M370.20835,220.88971h-35.75v-35.75h35.75z" data-paper-data="{&quot;index&quot;:null}" fill="#000000" stroke="#ffffff" stroke-width="2"/><path d="M406.20835,220.88971h-35.75v-35.75h35.75z" data-paper-data="{&quot;index&quot;:null}" fill="#000000" stroke="#ffffff" stroke-width="2"/><path d="M192.20835,323.88971h-35.75v-35.75h35.75z" data-paper-data="{&quot;index&quot;:null}" fill="#000000" stroke="#ffffff" stroke-width="2"/><path d="M370.20835,323.88971h-35.75v-35.75h35.75z" data-paper-data="{&quot;index&quot;:null}" fill="#000000" stroke="#ffffff" stroke-width="2"/><path d="M406.20835,323.88971h-35.75v-35.75h35.75z" data-paper-data="{&quot;index&quot;:null}" fill="#000000" stroke="#ffffff" stroke-width="2"/><path d="M192.20835,254.88971h-35.75v-35.75h35.75z" data-paper-data="{&quot;index&quot;:null}" fill="#000000" stroke="#ffffff" stroke-width="2"/><path d="M370.20835,254.88971h-35.75v-35.75h35.75z" data-paper-data="{&quot;index&quot;:null}" fill="#000000" stroke="#ffffff" stroke-width="2"/><path d="M406.20835,254.88971h-35.75v-35.75h35.75z" data-paper-data="{&quot;index&quot;:null}" fill="#000000" stroke="#ffffff" stroke-width="2"/><path d="M192.20835,185.88971h-35.75v-35.75h35.75z" data-paper-data="{&quot;index&quot;:null}" fill="#000000" stroke="#ffffff" stroke-width="2"/><path d="M299.20835,358.88971h-35.75v-35.75h35.75z" data-paper-data="{&quot;index&quot;:null}" fill="#000000" stroke="#ffffff" stroke-width="2"/><path d="M477.20835,358.88971h-35.75v-35.75h35.75z" data-paper-data="{&quot;index&quot;:null}" fill="#000000" stroke="#ffffff" stroke-width="2"/><path d="M513.20835,358.88971h-35.75v-35.75h35.75z" data-paper-data="{&quot;index&quot;:null}" fill="#000000" stroke="#ffffff" stroke-width="2"/><path d="M299.20835,289.88971h-35.75v-35.75h35.75z" data-paper-data="{&quot;index&quot;:null}" fill="#000000" stroke="#ffffff" stroke-width="2"/><path d="M477.20835,289.88971h-35.75v-35.75h35.75z" data-paper-data="{&quot;index&quot;:null}" fill="#000000" stroke="#ffffff" stroke-width="2"/><path d="M513.20835,289.88971h-35.75v-35.75h35.75z" data-paper-data="{&quot;index&quot;:null}" fill="#000000" stroke="#ffffff" stroke-width="2"/><path d="M299.20835,220.88971h-35.75v-35.75h35.75z" data-paper-data="{&quot;index&quot;:null}" fill="#000000" stroke="#ffffff" stroke-width="2"/><path d="M477.20835,220.88971h-35.75v-35.75h35.75z" data-paper-data="{&quot;index&quot;:null}" fill="#000000" stroke="#ffffff" stroke-width="2"/><path d="M513.20835,220.88971h-35.75v-35.75h35.75z" data-paper-data="{&quot;index&quot;:null}" fill="#000000" stroke="#ffffff" stroke-width="2"/><path d="M477.20835,323.88971h-35.75v-35.75h35.75z" data-paper-data="{&quot;index&quot;:null}" fill="#000000" stroke="#ffffff" stroke-width="2"/><path d="M513.20835,323.88971h-35.75v-35.75h35.75z" data-paper-data="{&quot;index&quot;:null}" fill="#000000" stroke="#ffffff" stroke-width="2"/><path d="M477.20835,254.88971h-35.75v-35.75h35.75z" data-paper-data="{&quot;index&quot;:null}" fill="#000000" stroke="#ffffff" stroke-width="2"/><path d="M513.20835,254.88971h-35.75v-35.75h35.75z" data-paper-data="{&quot;index&quot;:null}" fill="#000000" stroke="#ffffff" stroke-width="2"/><path d="M299.20835,185.88971h-35.75v-35.75h35.75z" data-paper-data="{&quot;index&quot;:null}" fill="#000000" stroke="#ffffff" stroke-width="2"/><path d="M156.54166,358.88971h-35.75v-35.75h35.75z" data-paper-data="{&quot;index&quot;:null}" fill="#000000" stroke="#ffffff" stroke-width="2"/><path d="M334.54166,358.88971h-35.75v-35.75h35.75z" data-paper-data="{&quot;index&quot;:null}" fill="#000000" stroke="#ffffff" stroke-width="2"/><path d="M156.54166,289.88971h-35.75v-35.75h35.75z" data-paper-data="{&quot;index&quot;:null}" fill="#000000" stroke="#ffffff" stroke-width="2"/><path d="M334.54166,289.88971h-35.75v-35.75h35.75z" data-paper-data="{&quot;index&quot;:null}" fill="#000000" stroke="#ffffff" stroke-width="2"/><path d="M156.54166,220.88971h-35.75v-35.75h35.75z" data-paper-data="{&quot;index&quot;:null}" fill="#000000" stroke="#ffffff" stroke-width="2"/><path d="M334.54166,220.88971h-35.75v-35.75h35.75z" data-paper-data="{&quot;index&quot;:null}" fill="#000000" stroke="#ffffff" stroke-width="2"/><path d="M156.54166,323.88971h-35.75v-35.75h35.75z" data-paper-data="{&quot;index&quot;:null}" fill="#000000" stroke="#ffffff" stroke-width="2"/><path d="M156.54166,254.88971h-35.75v-35.75h35.75z" data-paper-data="{&quot;index&quot;:null}" fill="#000000" stroke="#ffffff" stroke-width="2"/><path d="M156.54166,185.88971h-35.75v-35.75h35.75z" data-paper-data="{&quot;index&quot;:null}" fill="#000000" stroke="#ffffff" stroke-width="2"/><path d="M441.54165,358.88971h-35.75v-35.75h35.75z" data-paper-data="{&quot;index&quot;:null}" fill="#000000" stroke="#ffffff" stroke-width="2"/><path d="M477.54165,358.88971h-35.75v-35.75h35.75z" data-paper-data="{&quot;index&quot;:null}" fill="#000000" stroke="#ffffff" stroke-width="2"/><path d="M441.54165,289.88971h-35.75v-35.75h35.75z" data-paper-data="{&quot;index&quot;:null}" fill="#000000" stroke="#ffffff" stroke-width="2"/><path d="M477.54165,289.88971h-35.75v-35.75h35.75z" data-paper-data="{&quot;index&quot;:null}" fill="#000000" stroke="#ffffff" stroke-width="2"/><path d="M441.54165,220.88971h-35.75v-35.75h35.75z" data-paper-data="{&quot;index&quot;:null}" fill="#000000" stroke="#ffffff" stroke-width="2"/><path d="M477.54165,220.88971h-35.75v-35.75h35.75z" data-paper-data="{&quot;index&quot;:null}" fill="#000000" stroke="#ffffff" stroke-width="2"/><path d="M441.54165,323.88971h-35.75v-35.75h35.75z" data-paper-data="{&quot;index&quot;:null}" fill="#000000" stroke="#ffffff" stroke-width="2"/><path d="M477.54165,323.88971h-35.75v-35.75h35.75z" data-paper-data="{&quot;index&quot;:null}" fill="#000000" stroke="#ffffff" stroke-width="2"/><path d="M441.54165,254.88971h-35.75v-35.75h35.75z" data-paper-data="{&quot;index&quot;:null}" fill="#000000" stroke="#ffffff" stroke-width="2"/><path d="M477.54165,254.88971h-35.75v-35.75h35.75z" data-paper-data="{&quot;index&quot;:null}" fill="#000000" stroke="#ffffff" stroke-width="2"/><path d="M263.54165,185.88971h-35.75v-35.75h35.75z" data-paper-data="{&quot;index&quot;:null}" fill="#000000" stroke="#ffffff" stroke-width="2"/><path d="M120.54166,359.22306h-35.75v-35.75h35.75z" data-paper-data="{&quot;index&quot;:null}" fill="#000000" stroke="#ffffff" stroke-width="2"/><path d="M120.54166,290.22306h-35.75v-35.75h35.75z" data-paper-data="{&quot;index&quot;:null}" fill="#000000" stroke="#ffffff" stroke-width="2"/><path d="M120.54166,221.22306h-35.75v-35.75h35.75z" data-paper-data="{&quot;index&quot;:null}" fill="#000000" stroke="#ffffff" stroke-width="2"/><path d="M405.54165,359.22306h-35.75v-35.75h35.75z" data-paper-data="{&quot;index&quot;:null}" fill="#000000" stroke="#ffffff" stroke-width="2"/><path d="M441.54165,359.22306h-35.75v-35.75h35.75z" data-paper-data="{&quot;index&quot;:null}" fill="#000000" stroke="#ffffff" stroke-width="2"/><path d="M405.54165,290.22306h-35.75v-35.75h35.75z" data-paper-data="{&quot;index&quot;:null}" fill="#000000" stroke="#ffffff" stroke-width="2"/><path d="M405.54165,221.22306h-35.75v-35.75h35.75z" data-paper-data="{&quot;index&quot;:null}" fill="#000000" stroke="#ffffff" stroke-width="2"/><path d="M441.54165,221.22306h-35.75v-35.75h35.75z" data-paper-data="{&quot;index&quot;:null}" fill="#000000" stroke="#ffffff" stroke-width="2"/><path d="M405.54165,324.22306h-35.75v-35.75h35.75z" data-paper-data="{&quot;index&quot;:null}" fill="#000000" stroke="#ffffff" stroke-width="2"/><path d="M441.54165,324.22306h-35.75v-35.75h35.75z" data-paper-data="{&quot;index&quot;:null}" fill="#000000" stroke="#ffffff" stroke-width="2"/><path d="M405.54165,255.22306h-35.75v-35.75h35.75z" data-paper-data="{&quot;index&quot;:null}" fill="#000000" stroke="#ffffff" stroke-width="2"/><path d="M441.54165,255.22306h-35.75v-35.75h35.75z" data-paper-data="{&quot;index&quot;:null}" fill="#000000" stroke="#ffffff" stroke-width="2"/><path d="M227.54165,186.22305h-35.75v-35.75h35.75z" data-paper-data="{&quot;index&quot;:null}" fill="#000000" stroke="#ffffff" stroke-width="2"/><path d="M156.76991,104.8837h-35.75v-18.75h35.75z" data-paper-data="{&quot;index&quot;:null}" fill="#000000" stroke="#ffffff" stroke-width="2"/><path d="M123.76991,104.8837h-35.75v-18.75h35.75z" data-paper-data="{&quot;index&quot;:null}" fill="#000000" stroke="#ffffff" stroke-width="2"/><path d="M120.73834,150.18809l16.17649,-24.58051l16.17649,24.58051z" data-paper-data="{&quot;index&quot;:null}" fill="#000000" stroke="#fbffea" stroke-width="2"/><path d="M153.20843,150.18809l16.17649,-24.58051l16.17649,24.58051z" data-paper-data="{&quot;index&quot;:null}" fill="#000000" stroke="#fbffea" stroke-width="2"/><path d="M54.73834,150.18809l16.17649,-24.58051l16.17649,24.58051z" data-paper-data="{&quot;index&quot;:null}" fill="#000000" stroke="#fbffea" stroke-width="2"/><path d="M87.20843,150.18809l16.17649,-24.58051l16.17649,24.58051z" data-paper-data="{&quot;index&quot;:null}" fill="#000000" stroke="#fbffea" stroke-width="2"/><path d="M516.76991,119.8837h-35.75v-18.75h35.75z" data-paper-data="{&quot;index&quot;:null}" fill="#000000" stroke="#ffffff" stroke-width="2"/><path d="M483.76991,119.8837h-35.75v-18.75h35.75z" data-paper-data="{&quot;index&quot;:null}" fill="#000000" stroke="#ffffff" stroke-width="2"/><path d="M449.76991,119.8837h-35.75v-18.75h35.75z" data-paper-data="{&quot;index&quot;:null}" fill="#000000" stroke="#ffffff" stroke-width="2"/><path d="M450.73834,101.18809l16.17649,-24.58051l16.17649,24.58051z" data-paper-data="{&quot;index&quot;:null}" fill="#000000" stroke="#fbffea" stroke-width="2"/><path d="M483.20843,101.18809l16.17649,-24.58051l16.17649,24.58051z" data-paper-data="{&quot;index&quot;:null}" fill="#000000" stroke="#fbffea" stroke-width="2"/><path d="M417.20843,101.18809l16.17649,-24.58051l16.17649,24.58051z" data-paper-data="{&quot;index&quot;:null}" fill="#000000" stroke="#fbffea" stroke-width="2"/><path d="M-53.02701,0.66667v-31.33333h586.05405v31.33333z" fill="none" stroke="#ffffff" stroke-width="0"/></g></g></svg>