<svg version="1.1" xmlns="http://www.w3.org/2000/svg" xmlns:xlink="http://www.w3.org/1999/xlink" width="586.05406" height="394.67761" viewBox="0,0,586.05406,394.67761"><g transform="translate(53.02702,30.66667)"><g data-paper-data="{&quot;isPaintingLayer&quot;:true}" fill-rule="nonzero" stroke-linecap="butt" stroke-linejoin="miter" stroke-miterlimit="10" stroke-dasharray="" stroke-dashoffset="0" style="mix-blend-mode: normal"><g stroke-width="0"><path d="M403.07352,250.79025l2.92649,-49.58051l2.92649,49.58051z" fill="#000000" stroke="#fbffea"/><path d="M402.75001,203.50001c0,-1.79493 1.45507,-3.25 3.25,-3.25c1.79493,0 3.25,1.45507 3.25,3.25c0,1.79493 -1.45507,3.25 -3.25,3.25c-1.79493,0 -3.25,-1.45507 -3.25,-3.25z" fill="#ff00ef" stroke="none"/></g><g stroke-width="0"><path d="M296.07354,286.79026l2.92649,-49.58051l2.92649,49.58051z" fill="#000000" stroke="#fbffea"/><path d="M295.75001,239.50001c0,-1.79493 1.45507,-3.25 3.25,-3.25c1.79493,0 3.25,1.45507 3.25,3.25c0,1.79493 -1.45507,3.25 -3.25,3.25c-1.79493,0 -3.25,-1.45507 -3.25,-3.25z" fill="#ff00ef" stroke="none"/></g><g stroke-width="0"><path d="M186.07354,322.79026l2.92649,-49.58051l2.92649,49.58051z" fill="#000000" stroke="#fbffea"/><path d="M185.75003,275.50001c0,-1.79493 1.45507,-3.25 3.25,-3.25c1.79493,0 3.25,1.45507 3.25,3.25c0,1.79493 -1.45507,3.25 -3.25,3.25c-1.79493,0 -3.25,-1.45507 -3.25,-3.25z" fill="#ff00ef" stroke="none"/></g><g stroke="#fbffea" stroke-width="0.5"><g><path d="M375.69929,355.17137l4.39185,-13.91904l4.39186,13.91904z" fill="#ff00ef"/><path d="M355.13638,356.04663l4.39185,-13.91902l4.39186,13.91902z" fill="#ff00ef"/><path d="M384.51196,360.42298l4.39186,-13.91904l4.39186,13.91904z" fill="#ff00ef"/><path d="M364.36872,356.04663l4.39185,-13.91902l4.39187,13.91902z" fill="#ff00ef"/><path d="M358.3394,359.81482l5.09181,-7.73712l5.09181,7.73712z" fill="#000000"/><path d="M370.0162,361.76095l5.09181,-7.73712l5.09181,7.73712z" fill="#000000"/><path d="M376.82766,358.84175l5.09181,-7.73712l5.09181,7.73712z" fill="#000000"/><path d="M352.98754,359.32827l5.09181,-7.73712l5.09181,7.73712z" fill="#000000"/><path d="M380.71993,360.78788l5.09181,-7.73712l5.09181,7.73712z" fill="#000000"/><path d="M387.04486,361.76095l5.09181,-7.73712l5.09181,7.73712z" fill="#000000"/><path d="M390.45059,361.76095l5.09181,-7.73712l5.09181,7.73712z" fill="#000000"/><path d="M363.69126,359.32827l5.09181,-7.73712l5.09181,7.73712z" fill="#000000"/></g><g><path d="M329.69928,353.17137l4.39185,-13.91904l4.39186,13.91904z" fill="#ff00ef"/><path d="M309.13638,354.04663l4.39185,-13.91902l4.39186,13.91902z" fill="#ff00ef"/><path d="M338.51196,358.42298l4.39186,-13.91904l4.39186,13.91904z" fill="#ff00ef"/><path d="M318.3687,354.04663l4.39185,-13.91902l4.39187,13.91902z" fill="#ff00ef"/><path d="M312.33939,357.81482l5.09181,-7.73712l5.09181,7.73712z" fill="#000000"/><path d="M324.0162,359.76095l5.09181,-7.73712l5.09181,7.73712z" fill="#000000"/><path d="M330.82766,356.84175l5.09181,-7.73712l5.09181,7.73712z" fill="#000000"/><path d="M306.98753,357.32827l5.09181,-7.73712l5.09181,7.73712z" fill="#000000"/><path d="M334.71993,358.78788l5.09181,-7.73712l5.09181,7.73712z" fill="#000000"/><path d="M341.04486,359.76095l5.09181,-7.73712l5.09181,7.73712z" fill="#000000"/><path d="M344.45059,359.76095l5.09181,-7.73712l5.09181,7.73712z" fill="#000000"/><path d="M317.69126,357.32827l5.09181,-7.73712l5.09181,7.73712z" fill="#000000"/></g><g><path d="M353.6993,353.17137l4.39185,-13.91904l4.39186,13.91904z" fill="#ff00ef"/><path d="M333.13638,354.04663l4.39185,-13.91902l4.39186,13.91902z" fill="#ff00ef"/><path d="M362.51196,358.42298l4.39186,-13.91904l4.39186,13.91904z" fill="#ff00ef"/><path d="M342.36872,354.04663l4.39185,-13.91902l4.39187,13.91902z" fill="#ff00ef"/><path d="M336.3394,357.81482l5.09181,-7.73712l5.09181,7.73712z" fill="#000000"/><path d="M348.0162,359.76095l5.09181,-7.73712l5.09181,7.73712z" fill="#000000"/><path d="M354.82766,356.84175l5.09181,-7.73712l5.09181,7.73712z" fill="#000000"/><path d="M330.98753,357.32827l5.09181,-7.73712l5.09181,7.73712z" fill="#000000"/><path d="M358.71993,358.78788l5.09181,-7.73712l5.09181,7.73712z" fill="#000000"/><path d="M365.04486,359.76095l5.09181,-7.73712l5.09181,7.73712z" fill="#000000"/><path d="M368.45059,359.76095l5.09181,-7.73712l5.09181,7.73712z" fill="#000000"/><path d="M341.69126,357.32827l5.09181,-7.73712l5.09181,7.73712z" fill="#000000"/></g></g><g stroke="#fbffea" stroke-width="0.5"><path d="M270.69928,357.17137l4.39185,-13.91904l4.39186,13.91904z" fill="#ff00ef"/><path d="M250.1364,358.04663l4.39185,-13.91902l4.39186,13.91902z" fill="#ff00ef"/><path d="M279.51196,362.42298l4.39186,-13.91904l4.39186,13.91904z" fill="#ff00ef"/><path d="M259.3687,358.04663l4.39185,-13.91902l4.39186,13.91902z" fill="#ff00ef"/><path d="M253.3394,361.81482l5.09181,-7.73712l5.09181,7.73712z" fill="#000000"/><path d="M265.0162,363.76095l5.09181,-7.73712l5.09181,7.73712z" fill="#000000"/><path d="M271.82766,360.84175l5.09181,-7.73712l5.09181,7.73712z" fill="#000000"/><path d="M247.98753,361.32827l5.09181,-7.73712l5.09181,7.73712z" fill="#000000"/><path d="M275.71993,362.78788l5.09181,-7.73712l5.09181,7.73712z" fill="#000000"/><path d="M282.04486,363.76095l5.09181,-7.73712l5.09181,7.73712z" fill="#000000"/><path d="M285.45059,363.76095l5.09181,-7.73712l5.09181,7.73712z" fill="#000000"/><path d="M258.69127,361.32827l5.09181,-7.73712l5.09181,7.73712z" fill="#000000"/></g><g stroke="#fbffea" stroke-width="0.5"><path d="M224.6993,355.17137l4.39185,-13.91904l4.39186,13.91904z" fill="#ff00ef"/><path d="M204.1364,356.04663l4.39185,-13.91902l4.39186,13.91902z" fill="#ff00ef"/><path d="M233.51196,360.42298l4.39186,-13.91904l4.39186,13.91904z" fill="#ff00ef"/><path d="M213.36872,356.04663l4.39185,-13.91902l4.39186,13.91902z" fill="#ff00ef"/><path d="M207.3394,359.81482l5.09181,-7.73712l5.09181,7.73712z" fill="#000000"/><path d="M219.0162,361.76095l5.09181,-7.73712l5.09181,7.73712z" fill="#000000"/><path d="M225.82767,358.84175l5.09181,-7.73712l5.09181,7.73712z" fill="#000000"/><path d="M201.98753,359.32827l5.09181,-7.73712l5.09181,7.73712z" fill="#000000"/><path d="M229.71993,360.78788l5.09181,-7.73712l5.09181,7.73712z" fill="#000000"/><path d="M236.04486,361.76095l5.09181,-7.73712l5.09181,7.73712z" fill="#000000"/><path d="M239.4506,361.76095l5.09181,-7.73712l5.09181,7.73712z" fill="#000000"/><path d="M212.69127,359.32827l5.09181,-7.73712l5.09181,7.73712z" fill="#000000"/></g><path d="M280.7917,359.20836v-35.75h35.75v35.75z" fill="#000000" stroke="#ffffff" stroke-width="2"/><path d="M388.79172,359.20836v-35.75h35.75v35.75z" fill="#000000" stroke="#ffffff" stroke-width="2"/><path d="M172.12506,359.20836v-35.75h35.75v35.75z" fill="#000000" stroke="#ffffff" stroke-width="2"/><path d="M280.7917,323.54166v-35.75h35.75v35.75z" fill="#000000" stroke="#ffffff" stroke-width="2"/><path d="M388.79172,323.54166v-35.75h35.75v35.75z" fill="#000000" stroke="#ffffff" stroke-width="2"/><path d="M389.12505,287.54166v-35.75h35.75v35.75z" fill="#000000" stroke="#ffffff" stroke-width="2"/><path d="M280.7917,323.54166v-35.75h35.75v35.75z" fill="#000000" stroke="#ffffff" stroke-width="2"/><path d="M-53.027,0.6667v-31.33333h586.05405v31.33333z" fill="none" stroke="#ffffff" stroke-width="0"/><path d="M137.38753,359.1881l16.17649,-24.58051l16.17649,24.58051z" fill="#000000" stroke="#fbffea" stroke-width="2"/><path d="M104.35448,359.1881l16.17649,-24.58051l16.17649,24.58051z" fill="#000000" stroke="#fbffea" stroke-width="2"/><g stroke="#fbffea" stroke-width="0.5"><path d="M248.6993,355.17137l4.39185,-13.91904l4.39186,13.91904z" fill="#ff00ef"/><path d="M228.1364,356.04663l4.39185,-13.91902l4.39186,13.91902z" fill="#ff00ef"/><path d="M257.51196,360.42298l4.39186,-13.91904l4.39186,13.91904z" fill="#ff00ef"/><path d="M237.36872,356.04663l4.39185,-13.91902l4.39186,13.91902z" fill="#ff00ef"/><path d="M231.3394,359.81482l5.09181,-7.73712l5.09181,7.73712z" fill="#000000"/><path d="M243.0162,361.76095l5.09181,-7.73712l5.09181,7.73712z" fill="#000000"/><path d="M249.82767,358.84175l5.09181,-7.73712l5.09181,7.73712z" fill="#000000"/><path d="M225.98753,359.32827l5.09181,-7.73712l5.09181,7.73712z" fill="#000000"/><path d="M253.71993,360.78788l5.09181,-7.73712l5.09181,7.73712z" fill="#000000"/><path d="M260.04486,361.76095l5.09181,-7.73712l5.09181,7.73712z" fill="#000000"/><path d="M263.45059,361.76095l5.09181,-7.73712l5.09181,7.73712z" fill="#000000"/><path d="M236.69127,359.32827l5.09181,-7.73712l5.09181,7.73712z" fill="#000000"/></g><path d="M-53.02701,0.66667v-31.33333h586.05405v31.33333z" fill="none" stroke="#ffffff" stroke-width="0"/></g></g></svg>