<svg version="1.1" xmlns="http://www.w3.org/2000/svg" xmlns:xlink="http://www.w3.org/1999/xlink" width="586.05405" height="393.67763" viewBox="0,0,586.05405,393.67763"><g transform="translate(53.02701,30.66665)"><g data-paper-data="{&quot;isPaintingLayer&quot;:true}" fill-rule="nonzero" stroke-linecap="butt" stroke-linejoin="miter" stroke-miterlimit="10" stroke-dasharray="" stroke-dashoffset="0" style="mix-blend-mode: normal"><g stroke="#fbffea" stroke-width="0.5"><g><path d="M431.69931,356.17139l4.39185,-13.91904l4.39186,13.91904z" fill="#ff00ef"/><path d="M411.13641,357.04665l4.39185,-13.91902l4.39186,13.91902z" fill="#ff00ef"/><path d="M440.51198,361.423l4.39186,-13.91904l4.39186,13.91904z" fill="#ff00ef"/><path d="M420.36873,357.04665l4.39185,-13.91902l4.39187,13.91902z" fill="#ff00ef"/><path d="M414.33942,360.81484l5.09181,-7.73712l5.09181,7.73712z" fill="#000000"/><path d="M426.01622,362.76097l5.09181,-7.73712l5.09181,7.73712z" fill="#000000"/><path d="M432.82767,359.84177l5.09181,-7.73712l5.09181,7.73712z" fill="#000000"/><path d="M408.98755,360.3283l5.09181,-7.73712l5.09181,7.73712z" fill="#000000"/><path d="M436.71994,361.78788l5.09181,-7.73712l5.09181,7.73712z" fill="#000000"/><path d="M443.04488,362.76097l5.09181,-7.73712l5.09181,7.73712z" fill="#000000"/><path d="M446.4506,362.76097l5.09181,-7.73712l5.09181,7.73712z" fill="#000000"/><path d="M419.69127,360.3283l5.09181,-7.73712l5.09181,7.73712z" fill="#000000"/></g><g><path d="M385.69931,354.17139l4.39185,-13.91904l4.39186,13.91904z" fill="#ff00ef"/><path d="M365.1364,355.04665l4.39185,-13.91902l4.39186,13.91902z" fill="#ff00ef"/><path d="M394.51199,359.423l4.39186,-13.91904l4.39186,13.91904z" fill="#ff00ef"/><path d="M374.36873,355.04665l4.39185,-13.91902l4.39187,13.91902z" fill="#ff00ef"/><path d="M368.33942,358.81484l5.09181,-7.73712l5.09181,7.73712z" fill="#000000"/><path d="M380.01621,360.76097l5.09181,-7.73712l5.09181,7.73712z" fill="#000000"/><path d="M386.82767,357.84177l5.09181,-7.73712l5.09181,7.73712z" fill="#000000"/><path d="M362.98756,358.3283l5.09181,-7.73712l5.09181,7.73712z" fill="#000000"/><path d="M390.71995,359.78788l5.09181,-7.73712l5.09181,7.73712z" fill="#000000"/><path d="M397.04488,360.76097l5.09181,-7.73712l5.09181,7.73712z" fill="#000000"/><path d="M400.45061,360.76097l5.09181,-7.73712l5.09181,7.73712z" fill="#000000"/><path d="M373.69127,358.3283l5.09181,-7.73712l5.09181,7.73712z" fill="#000000"/></g><g><path d="M409.69933,354.17139l4.39185,-13.91904l4.39186,13.91904z" fill="#ff00ef"/><path d="M389.13641,355.04665l4.39185,-13.91902l4.39186,13.91902z" fill="#ff00ef"/><path d="M418.51198,359.423l4.39186,-13.91904l4.39186,13.91904z" fill="#ff00ef"/><path d="M398.36873,355.04665l4.39185,-13.91902l4.39187,13.91902z" fill="#ff00ef"/><path d="M392.33942,358.81484l5.09181,-7.73712l5.09181,7.73712z" fill="#000000"/><path d="M404.01622,360.76097l5.09181,-7.73712l5.09181,7.73712z" fill="#000000"/><path d="M410.82767,357.84177l5.09181,-7.73712l5.09181,7.73712z" fill="#000000"/><path d="M386.98755,358.3283l5.09181,-7.73712l5.09181,7.73712z" fill="#000000"/><path d="M414.71995,359.78788l5.09181,-7.73712l5.09181,7.73712z" fill="#000000"/><path d="M421.04488,360.76097l5.09181,-7.73712l5.09181,7.73712z" fill="#000000"/><path d="M424.45061,360.76097l5.09181,-7.73712l5.09181,7.73712z" fill="#000000"/><path d="M397.69127,358.3283l5.09181,-7.73712l5.09181,7.73712z" fill="#000000"/></g></g><g stroke="#fbffea" stroke-width="0.5"><g><path d="M476.6993,356.17139l4.39185,-13.91904l4.39186,13.91904z" fill="#ff00ef"/><path d="M456.13642,357.04666l4.39185,-13.91902l4.39186,13.91902z" fill="#ff00ef"/><path d="M485.51198,361.42301l4.39186,-13.91904l4.39186,13.91904z" fill="#ff00ef"/><path d="M465.36874,357.04666l4.39185,-13.91902l4.39187,13.91902z" fill="#ff00ef"/><path d="M459.33942,360.81484l5.09181,-7.73712l5.09181,7.73712z" fill="#000000"/><path d="M471.01621,362.76098l5.09181,-7.73712l5.09181,7.73712z" fill="#000000"/><path d="M477.82771,359.84178l5.09181,-7.73712l5.09181,7.73712z" fill="#000000"/><path d="M453.98756,360.32831l5.09181,-7.73712l5.09181,7.73712z" fill="#000000"/><path d="M481.71994,361.78788l5.09181,-7.73712l5.09181,7.73712z" fill="#000000"/><path d="M488.04487,362.76098l5.09181,-7.73712l5.09181,7.73712z" fill="#000000"/><path d="M491.4506,362.76098l5.09181,-7.73712l5.09181,7.73712z" fill="#000000"/><path d="M464.69128,360.32831l5.09181,-7.73712l5.09181,7.73712z" fill="#000000"/></g><g><path d="M430.6993,354.17139l4.39185,-13.91904l4.39186,13.91904z" fill="#ff00ef"/><path d="M410.13641,355.04666l4.39185,-13.91902l4.39186,13.91902z" fill="#ff00ef"/><path d="M439.51198,359.42301l4.39186,-13.91904l4.39186,13.91904z" fill="#ff00ef"/><path d="M419.36872,355.04666l4.39185,-13.91902l4.39187,13.91902z" fill="#ff00ef"/><path d="M413.33942,358.81484l5.09181,-7.73712l5.09181,7.73712z" fill="#000000"/><path d="M425.01621,360.76098l5.09181,-7.73712l5.09181,7.73712z" fill="#000000"/><path d="M431.82767,357.84178l5.09181,-7.73712l5.09181,7.73712z" fill="#000000"/><path d="M407.98755,358.32831l5.09181,-7.73712l5.09181,7.73712z" fill="#000000"/><path d="M435.71994,359.78788l5.09181,-7.73712l5.09181,7.73712z" fill="#000000"/><path d="M442.04487,360.76098l5.09181,-7.73712l5.09181,7.73712z" fill="#000000"/><path d="M445.4506,360.76098l5.09181,-7.73712l5.09181,7.73712z" fill="#000000"/><path d="M418.69127,358.32831l5.09181,-7.73712l5.09181,7.73712z" fill="#000000"/></g><g><path d="M454.69932,354.17139l4.39185,-13.91904l4.39186,13.91904z" fill="#ff00ef"/><path d="M434.13642,355.04666l4.39185,-13.91902l4.39186,13.91902z" fill="#ff00ef"/><path d="M463.51198,359.42301l4.39186,-13.91904l4.39186,13.91904z" fill="#ff00ef"/><path d="M443.36874,355.04666l4.39185,-13.91902l4.39187,13.91902z" fill="#ff00ef"/><path d="M437.33942,358.81484l5.09181,-7.73712l5.09181,7.73712z" fill="#000000"/><path d="M449.01621,360.76098l5.09181,-7.73712l5.09181,7.73712z" fill="#000000"/><path d="M455.82768,357.84178l5.09181,-7.73712l5.09181,7.73712z" fill="#000000"/><path d="M431.98755,358.32831l5.09181,-7.73712l5.09181,7.73712z" fill="#000000"/><path d="M459.71994,359.78788l5.09181,-7.73712l5.09181,7.73712z" fill="#000000"/><path d="M466.04487,360.76098l5.09181,-7.73712l5.09181,7.73712z" fill="#000000"/><path d="M469.4506,360.76098l5.09181,-7.73712l5.09181,7.73712z" fill="#000000"/><path d="M442.69127,358.32831l5.09181,-7.73712l5.09181,7.73712z" fill="#000000"/></g></g><g stroke="#fbffea" stroke-width="0.5"><g><path d="M21.6993,355.17139l4.39185,-13.91904l4.39186,13.91904z" fill="#ff00ef"/><path d="M1.1364,356.04665l4.39185,-13.91902l4.39186,13.91902z" fill="#ff00ef"/><path d="M30.51197,360.423l4.39186,-13.91904l4.39186,13.91904z" fill="#ff00ef"/><path d="M10.36871,356.04665l4.39185,-13.91902l4.39187,13.91902z" fill="#ff00ef"/><path d="M4.3394,359.81484l5.09181,-7.73712l5.09181,7.73712z" fill="#000000"/><path d="M16.01621,361.76097l5.09181,-7.73712l5.09181,7.73712z" fill="#000000"/><path d="M22.82765,358.84177l5.09181,-7.73712l5.09181,7.73712z" fill="#000000"/><path d="M-1.01246,359.3283l5.09181,-7.73712l5.09181,7.73712z" fill="#000000"/><path d="M26.71993,360.78788l5.09181,-7.73712l5.09181,7.73712z" fill="#000000"/><path d="M33.04487,361.76097l5.09181,-7.73712l5.09181,7.73712z" fill="#000000"/><path d="M36.45059,361.76097l5.09181,-7.73712l5.09181,7.73712z" fill="#000000"/><path d="M9.69127,359.3283l5.09181,-7.73712l5.09181,7.73712z" fill="#000000"/></g><g><path d="M-24.3007,353.17139l4.39185,-13.91904l4.39186,13.91904z" fill="#ff00ef"/><path d="M-44.86361,354.04665l4.39185,-13.91902l4.39186,13.91902z" fill="#ff00ef"/><path d="M-15.48802,358.423l4.39186,-13.91904l4.39186,13.91904z" fill="#ff00ef"/><path d="M-35.63127,354.04665l4.39185,-13.91902l4.39187,13.91902z" fill="#ff00ef"/><path d="M-41.66059,357.81484l5.09181,-7.73712l5.09181,7.73712z" fill="#000000"/><path d="M-29.9838,359.76097l5.09181,-7.73712l5.09181,7.73712z" fill="#000000"/><path d="M-23.17234,356.84177l5.09181,-7.73712l5.09181,7.73712z" fill="#000000"/><path d="M-47.01245,357.3283l5.09181,-7.73712l5.09181,7.73712z" fill="#000000"/><path d="M-19.28006,358.78788l5.09181,-7.73712l5.09181,7.73712z" fill="#000000"/><path d="M-12.95513,359.76097l5.09181,-7.73712l5.09181,7.73712z" fill="#000000"/><path d="M-9.5494,359.76097l5.09181,-7.73712l5.09181,7.73712z" fill="#000000"/><path d="M-36.30873,357.3283l5.09181,-7.73712l5.09181,7.73712z" fill="#000000"/></g><g><path d="M-0.30069,353.17139l4.39185,-13.91904l4.39186,13.91904z" fill="#ff00ef"/><path d="M-20.8636,354.04665l4.39185,-13.91902l4.39186,13.91902z" fill="#ff00ef"/><path d="M8.51197,358.423l4.39186,-13.91904l4.39186,13.91904z" fill="#ff00ef"/><path d="M-11.63128,354.04665l4.39185,-13.91902l4.39187,13.91902z" fill="#ff00ef"/><path d="M-17.66059,357.81484l5.09181,-7.73712l5.09181,7.73712z" fill="#000000"/><path d="M-5.9838,359.76097l5.09181,-7.73712l5.09181,7.73712z" fill="#000000"/><path d="M0.82766,356.84177l5.09181,-7.73712l5.09181,7.73712z" fill="#000000"/><path d="M-23.01246,357.3283l5.09181,-7.73712l5.09181,7.73712z" fill="#000000"/><path d="M4.71994,358.78788l5.09181,-7.73712l5.09181,7.73712z" fill="#000000"/><path d="M11.04487,359.76097l5.09181,-7.73712l5.09181,7.73712z" fill="#000000"/><path d="M14.4506,359.76097l5.09181,-7.73712l5.09181,7.73712z" fill="#000000"/><path d="M-12.30873,357.3283l5.09181,-7.73712l5.09181,7.73712z" fill="#000000"/></g></g><g stroke="#fbffea" stroke-width="0.5"><g><path d="M66.6993,355.17139l4.39185,-13.91904l4.39186,13.91904z" fill="#ff00ef"/><path d="M46.13642,356.04666l4.39185,-13.91902l4.39186,13.91902z" fill="#ff00ef"/><path d="M75.51198,360.42301l4.39186,-13.91904l4.39186,13.91904z" fill="#ff00ef"/><path d="M55.36873,356.04666l4.39185,-13.91902l4.39187,13.91902z" fill="#ff00ef"/><path d="M49.33942,359.81484l5.09181,-7.73712l5.09181,7.73712z" fill="#000000"/><path d="M61.0162,361.76098l5.09181,-7.73712l5.09181,7.73712z" fill="#000000"/><path d="M67.8277,358.84178l5.09181,-7.73712l5.09181,7.73712z" fill="#000000"/><path d="M43.98755,359.32831l5.09181,-7.73712l5.09181,7.73712z" fill="#000000"/><path d="M71.71992,360.78788l5.09181,-7.73712l5.09181,7.73712z" fill="#000000"/><path d="M78.04486,361.76098l5.09181,-7.73712l5.09181,7.73712z" fill="#000000"/><path d="M81.45058,361.76098l5.09181,-7.73712l5.09181,7.73712z" fill="#000000"/><path d="M54.69127,359.32831l5.09181,-7.73712l5.09181,7.73712z" fill="#000000"/></g><g><path d="M20.69929,353.17139l4.39185,-13.91904l4.39186,13.91904z" fill="#ff00ef"/><path d="M0.1364,354.04666l4.39185,-13.91902l4.39186,13.91902z" fill="#ff00ef"/><path d="M29.51197,358.42301l4.39186,-13.91904l4.39186,13.91904z" fill="#ff00ef"/><path d="M9.36871,354.04666l4.39185,-13.91902l4.39187,13.91902z" fill="#ff00ef"/><path d="M3.3394,357.81484l5.09181,-7.73712l5.09181,7.73712z" fill="#000000"/><path d="M15.01619,359.76098l5.09181,-7.73712l5.09181,7.73712z" fill="#000000"/><path d="M21.82765,356.84178l5.09181,-7.73712l5.09181,7.73712z" fill="#000000"/><path d="M-2.01246,357.32831l5.09181,-7.73712l5.09181,7.73712z" fill="#000000"/><path d="M25.71993,358.78788l5.09181,-7.73712l5.09181,7.73712z" fill="#000000"/><path d="M32.04486,359.76098l5.09181,-7.73712l5.09181,7.73712z" fill="#000000"/><path d="M35.45059,359.76098l5.09181,-7.73712l5.09181,7.73712z" fill="#000000"/><path d="M8.69127,357.32831l5.09181,-7.73712l5.09181,7.73712z" fill="#000000"/></g><g><path d="M44.69931,353.17139l4.39185,-13.91904l4.39186,13.91904z" fill="#ff00ef"/><path d="M24.1364,354.04666l4.39185,-13.91902l4.39186,13.91902z" fill="#ff00ef"/><path d="M53.51197,358.42301l4.39186,-13.91904l4.39186,13.91904z" fill="#ff00ef"/><path d="M33.36873,354.04666l4.39185,-13.91902l4.39187,13.91902z" fill="#ff00ef"/><path d="M27.33942,357.81484l5.09181,-7.73712l5.09181,7.73712z" fill="#000000"/><path d="M39.01619,359.76098l5.09181,-7.73712l5.09181,7.73712z" fill="#000000"/><path d="M45.82768,356.84178l5.09181,-7.73712l5.09181,7.73712z" fill="#000000"/><path d="M21.98753,357.32831l5.09181,-7.73712l5.09181,7.73712z" fill="#000000"/><path d="M49.71993,358.78788l5.09181,-7.73712l5.09181,7.73712z" fill="#000000"/><path d="M56.04486,359.76098l5.09181,-7.73712l5.09181,7.73712z" fill="#000000"/><path d="M59.45059,359.76098l5.09181,-7.73712l5.09181,7.73712z" fill="#000000"/><path d="M32.69127,357.32831l5.09181,-7.73712l5.09181,7.73712z" fill="#000000"/></g></g><path d="M310.79166,287.1337h35.75v35.75h-35.75z" fill="#000000" stroke="#ffffff" stroke-width="2"/><path d="M310.79166,323.1337h35.75v35.75h-35.75z" fill="#000000" stroke="#ffffff" stroke-width="2"/><path d="M203.79166,287.1337h35.75v35.75h-35.75z" fill="#000000" stroke="#ffffff" stroke-width="2"/><path d="M203.79166,323.1337h35.75v35.75h-35.75z" fill="#000000" stroke="#ffffff" stroke-width="2"/><path d="M346.45836,287.1337h35.75v35.75h-35.75z" fill="#000000" stroke="#ffffff" stroke-width="2"/><path d="M346.45836,323.1337h35.75v35.75h-35.75z" fill="#000000" stroke="#ffffff" stroke-width="2"/><path d="M239.45835,287.1337h35.75v35.75h-35.75z" fill="#000000" stroke="#ffffff" stroke-width="2"/><path d="M239.45835,323.1337h35.75v35.75h-35.75z" fill="#000000" stroke="#ffffff" stroke-width="2"/><path d="M382.45836,287.46705h35.75v35.75h-35.75z" fill="#000000" stroke="#ffffff" stroke-width="2"/><path d="M382.45836,323.46705h35.75v35.75h-35.75z" fill="#000000" stroke="#ffffff" stroke-width="2"/><path d="M275.45835,287.46705h35.75v35.75h-35.75z" fill="#000000" stroke="#ffffff" stroke-width="2"/><path d="M275.45835,323.46705h35.75v35.75h-35.75z" fill="#000000" stroke="#ffffff" stroke-width="2"/><path d="M203.79166,287.1337h35.75v35.75h-35.75z" fill="#000000" stroke="#ffffff" stroke-width="2"/><path d="M203.79166,323.1337h35.75v35.75h-35.75z" fill="#000000" stroke="#ffffff" stroke-width="2"/><path d="M96.79166,287.1337h35.75v35.75h-35.75z" fill="#000000" stroke="#ffffff" stroke-width="2"/><path d="M96.79166,323.1337h35.75v35.75h-35.75z" fill="#000000" stroke="#ffffff" stroke-width="2"/><path d="M61.79165,287.1337h35.75v35.75h-35.75z" fill="#000000" stroke="#ffffff" stroke-width="2"/><path d="M61.79165,323.1337h35.75v35.75h-35.75z" fill="#000000" stroke="#ffffff" stroke-width="2"/><path d="M239.45835,287.1337h35.75v35.75h-35.75z" fill="#000000" stroke="#ffffff" stroke-width="2"/><path d="M239.45835,323.1337h35.75v35.75h-35.75z" fill="#000000" stroke="#ffffff" stroke-width="2"/><path d="M132.45835,287.1337h35.75v35.75h-35.75z" fill="#000000" stroke="#ffffff" stroke-width="2"/><path d="M132.45835,323.1337h35.75v35.75h-35.75z" fill="#000000" stroke="#ffffff" stroke-width="2"/><path d="M275.45835,287.46705h35.75v35.75h-35.75z" fill="#000000" stroke="#ffffff" stroke-width="2"/><path d="M275.45835,323.46705h35.75v35.75h-35.75z" fill="#000000" stroke="#ffffff" stroke-width="2"/><path d="M168.45836,287.46705h35.75v35.75h-35.75z" fill="#000000" stroke="#ffffff" stroke-width="2"/><path d="M168.45836,323.46705h35.75v35.75h-35.75z" fill="#000000" stroke="#ffffff" stroke-width="2"/><path d="M223.97021,287.36347l16.17649,-24.58051l16.17649,24.58051z" fill="#000000" stroke="#fbffea" stroke-width="2"/><path d="M-53.027,0.66668v-31.33333h586.05405v31.33333z" fill="none" stroke="#ffffff" stroke-width="0"/></g></g></svg>