<svg version="1.1" xmlns="http://www.w3.org/2000/svg" xmlns:xlink="http://www.w3.org/1999/xlink" width="586.05405" height="434.41068" viewBox="0,0,586.05405,434.41068"><defs><linearGradient x1="166.41669" y1="148.87357" x2="175.58337" y2="148.87357" gradientUnits="userSpaceOnUse" id="color-1"><stop offset="0" stop-color="#ff79f6"/><stop offset="1" stop-color="#ff00ef"/></linearGradient><linearGradient x1="165.75001" y1="240.87357" x2="174.91669" y2="240.87357" gradientUnits="userSpaceOnUse" id="color-2"><stop offset="0" stop-color="#ff79f6"/><stop offset="1" stop-color="#ff00ef"/></linearGradient><linearGradient x1="157.44175" y1="159.01185" x2="157.44175" y2="231.37787" gradientUnits="userSpaceOnUse" id="color-3"><stop offset="0" stop-color="#ff79f6"/><stop offset="1" stop-color="#ff00ef"/></linearGradient><linearGradient x1="181.41671" y1="172.54501" x2="190.58338" y2="172.54501" gradientUnits="userSpaceOnUse" id="color-4"><stop offset="0" stop-color="#ff79f6"/><stop offset="1" stop-color="#ff00ef"/></linearGradient><linearGradient x1="181.41671" y1="213.88587" x2="190.58338" y2="213.88587" gradientUnits="userSpaceOnUse" id="color-5"><stop offset="0" stop-color="#ff79f6"/><stop offset="1" stop-color="#ff00ef"/></linearGradient></defs><g transform="translate(53.027,74.18761)"><g data-paper-data="{&quot;isPaintingLayer&quot;:true}" fill-rule="nonzero" stroke-linejoin="miter" stroke-miterlimit="10" stroke-dasharray="" stroke-dashoffset="0" style="mix-blend-mode: normal"><path d="M53.67682,358.88972h-35.75v-35.75h35.75z" data-paper-data="{&quot;index&quot;:null}" fill="#000000" stroke="#ffffff" stroke-width="2" stroke-linecap="butt"/><path d="M53.67682,289.88972h-35.75v-35.75h35.75z" data-paper-data="{&quot;index&quot;:null}" fill="#000000" stroke="#ffffff" stroke-width="2" stroke-linecap="butt"/><path d="M53.67682,323.88972h-35.75v-35.75h35.75z" data-paper-data="{&quot;index&quot;:null}" fill="#000000" stroke="#ffffff" stroke-width="2" stroke-linecap="butt"/><path d="M160.67682,358.88972h-35.75v-35.75h35.75z" data-paper-data="{&quot;index&quot;:null}" fill="#000000" stroke="#ffffff" stroke-width="2" stroke-linecap="butt"/><path d="M160.67682,289.88972h-35.75v-35.75h35.75z" data-paper-data="{&quot;index&quot;:null}" fill="#000000" stroke="#ffffff" stroke-width="2" stroke-linecap="butt"/><path d="M160.67682,289.88972h-35.75v-35.75h35.75z" data-paper-data="{&quot;index&quot;:null}" fill="#000000" stroke="#ffffff" stroke-width="2" stroke-linecap="butt"/><path d="M160.67682,323.88972h-35.75v-35.75h35.75z" data-paper-data="{&quot;index&quot;:null}" fill="#000000" stroke="#ffffff" stroke-width="2" stroke-linecap="butt"/><path d="M18.01012,358.88972h-35.75v-35.75h35.75z" data-paper-data="{&quot;index&quot;:null}" fill="#000000" stroke="#ffffff" stroke-width="2" stroke-linecap="butt"/><path d="M196.01013,358.88972h-35.75v-35.75h35.75z" data-paper-data="{&quot;index&quot;:null}" fill="#000000" stroke="#ffffff" stroke-width="2" stroke-linecap="butt"/><path d="M18.01012,289.88972h-35.75v-35.75h35.75z" data-paper-data="{&quot;index&quot;:null}" fill="#000000" stroke="#ffffff" stroke-width="2" stroke-linecap="butt"/><path d="M196.01013,289.88972h-35.75v-35.75h35.75z" data-paper-data="{&quot;index&quot;:null}" fill="#000000" stroke="#ffffff" stroke-width="2" stroke-linecap="butt"/><path d="M18.01012,323.88972h-35.75v-35.75h35.75z" data-paper-data="{&quot;index&quot;:null}" fill="#000000" stroke="#ffffff" stroke-width="2" stroke-linecap="butt"/><path d="M196.01013,323.88972h-35.75v-35.75h35.75z" data-paper-data="{&quot;index&quot;:null}" fill="#000000" stroke="#ffffff" stroke-width="2" stroke-linecap="butt"/><path d="M125.01014,358.88972h-35.75v-35.75h35.75z" data-paper-data="{&quot;index&quot;:null}" fill="#000000" stroke="#ffffff" stroke-width="2" stroke-linecap="butt"/><path d="M125.01014,289.88972h-35.75v-35.75h35.75z" data-paper-data="{&quot;index&quot;:null}" fill="#000000" stroke="#ffffff" stroke-width="2" stroke-linecap="butt"/><path d="M125.01014,289.88972h-35.75v-35.75h35.75z" data-paper-data="{&quot;index&quot;:null}" fill="#000000" stroke="#ffffff" stroke-width="2" stroke-linecap="butt"/><path d="M125.01014,323.88972h-35.75v-35.75h35.75z" data-paper-data="{&quot;index&quot;:null}" fill="#000000" stroke="#ffffff" stroke-width="2" stroke-linecap="butt"/><path d="M160.01012,359.22307h-35.75v-35.75h35.75z" data-paper-data="{&quot;index&quot;:null}" fill="#000000" stroke="#ffffff" stroke-width="2" stroke-linecap="butt"/><path d="M160.01012,290.22307h-35.75v-35.75h35.75z" data-paper-data="{&quot;index&quot;:null}" fill="#000000" stroke="#ffffff" stroke-width="2" stroke-linecap="butt"/><path d="M196.01013,290.22307h-35.75v-35.75h35.75z" data-paper-data="{&quot;index&quot;:null}" fill="#000000" stroke="#ffffff" stroke-width="2" stroke-linecap="butt"/><path d="M160.01012,324.22307h-35.75v-35.75h35.75z" data-paper-data="{&quot;index&quot;:null}" fill="#000000" stroke="#ffffff" stroke-width="2" stroke-linecap="butt"/><path d="M196.01013,324.22307h-35.75v-35.75h35.75z" data-paper-data="{&quot;index&quot;:null}" fill="#000000" stroke="#ffffff" stroke-width="2" stroke-linecap="butt"/><path d="M89.01014,359.22307h-35.75v-35.75h35.75z" data-paper-data="{&quot;index&quot;:null}" fill="#000000" stroke="#ffffff" stroke-width="2" stroke-linecap="butt"/><path d="M89.01014,290.22307h-35.75v-35.75h35.75z" data-paper-data="{&quot;index&quot;:null}" fill="#000000" stroke="#ffffff" stroke-width="2" stroke-linecap="butt"/><path d="M89.01014,290.22307h-35.75v-35.75h35.75z" data-paper-data="{&quot;index&quot;:null}" fill="#000000" stroke="#ffffff" stroke-width="2" stroke-linecap="butt"/><path d="M89.01014,324.22307h-35.75v-35.75h35.75z" data-paper-data="{&quot;index&quot;:null}" fill="#000000" stroke="#ffffff" stroke-width="2" stroke-linecap="butt"/><path d="M160.67682,358.88972h-35.75v-35.75h35.75z" data-paper-data="{&quot;index&quot;:null}" fill="#000000" stroke="#ffffff" stroke-width="2" stroke-linecap="butt"/><path d="M160.67682,289.88972h-35.75v-35.75h35.75z" data-paper-data="{&quot;index&quot;:null}" fill="#000000" stroke="#ffffff" stroke-width="2" stroke-linecap="butt"/><path d="M160.67682,323.88972h-35.75v-35.75h35.75z" data-paper-data="{&quot;index&quot;:null}" fill="#000000" stroke="#ffffff" stroke-width="2" stroke-linecap="butt"/><path d="M125.01014,358.88972h-35.75v-35.75h35.75z" data-paper-data="{&quot;index&quot;:null}" fill="#000000" stroke="#ffffff" stroke-width="2" stroke-linecap="butt"/><path d="M125.01014,289.88972h-35.75v-35.75h35.75z" data-paper-data="{&quot;index&quot;:null}" fill="#000000" stroke="#ffffff" stroke-width="2" stroke-linecap="butt"/><path d="M125.01014,323.88972h-35.75v-35.75h35.75z" data-paper-data="{&quot;index&quot;:null}" fill="#000000" stroke="#ffffff" stroke-width="2" stroke-linecap="butt"/><path d="M89.01014,359.22307h-35.75v-35.75h35.75z" data-paper-data="{&quot;index&quot;:null}" fill="#000000" stroke="#ffffff" stroke-width="2" stroke-linecap="butt"/><path d="M89.01014,290.22307h-35.75v-35.75h35.75z" data-paper-data="{&quot;index&quot;:null}" fill="#000000" stroke="#ffffff" stroke-width="2" stroke-linecap="butt"/><path d="M53.67682,31.56239h-35.75v-35.75h35.75z" data-paper-data="{&quot;index&quot;:null}" fill="#000000" stroke="#ffffff" stroke-width="2" stroke-linecap="butt"/><path d="M53.67682,135.166h-35.75v-35.75h35.75z" data-paper-data="{&quot;index&quot;:null}" fill="#000000" stroke="#ffffff" stroke-width="2" stroke-linecap="butt"/><path d="M53.67682,-37.43761h-35.75v-35.75h35.75z" data-paper-data="{&quot;index&quot;:null}" fill="#000000" stroke="#ffffff" stroke-width="2" stroke-linecap="butt"/><path d="M53.67682,66.16599h-35.75v-35.75h35.75z" data-paper-data="{&quot;index&quot;:null}" fill="#000000" stroke="#ffffff" stroke-width="2" stroke-linecap="butt"/><path d="M53.67682,-3.43761h-35.75v-35.75h35.75z" data-paper-data="{&quot;index&quot;:null}" fill="#000000" stroke="#ffffff" stroke-width="2" stroke-linecap="butt"/><path d="M53.67682,100.166h-35.75v-35.75h35.75z" data-paper-data="{&quot;index&quot;:null}" fill="#000000" stroke="#ffffff" stroke-width="2" stroke-linecap="butt"/><path d="M160.67682,31.56239h-35.75v-35.75h35.75z" data-paper-data="{&quot;index&quot;:null}" fill="#000000" stroke="#ffffff" stroke-width="2" stroke-linecap="butt"/><path d="M160.67682,135.166h-35.75v-35.75h35.75z" data-paper-data="{&quot;index&quot;:null}" fill="#000000" stroke="#ffffff" stroke-width="2" stroke-linecap="butt"/><path d="M160.67682,-37.43761h-35.75v-35.75h35.75z" data-paper-data="{&quot;index&quot;:null}" fill="#000000" stroke="#ffffff" stroke-width="2" stroke-linecap="butt"/><path d="M160.67682,66.16599h-35.75v-35.75h35.75z" data-paper-data="{&quot;index&quot;:null}" fill="#000000" stroke="#ffffff" stroke-width="2" stroke-linecap="butt"/><path d="M160.67682,-37.43761h-35.75v-35.75h35.75z" data-paper-data="{&quot;index&quot;:null}" fill="#000000" stroke="#ffffff" stroke-width="2" stroke-linecap="butt"/><path d="M160.67682,66.16599h-35.75v-35.75h35.75z" data-paper-data="{&quot;index&quot;:null}" fill="#000000" stroke="#ffffff" stroke-width="2" stroke-linecap="butt"/><path d="M160.67682,-3.43761h-35.75v-35.75h35.75z" data-paper-data="{&quot;index&quot;:null}" fill="#000000" stroke="#ffffff" stroke-width="2" stroke-linecap="butt"/><path d="M160.67682,100.166h-35.75v-35.75h35.75z" data-paper-data="{&quot;index&quot;:null}" fill="#000000" stroke="#ffffff" stroke-width="2" stroke-linecap="butt"/><path d="M18.01012,31.56239h-35.75v-35.75h35.75z" data-paper-data="{&quot;index&quot;:null}" fill="#000000" stroke="#ffffff" stroke-width="2" stroke-linecap="butt"/><path d="M18.01012,135.166h-35.75v-35.75h35.75z" data-paper-data="{&quot;index&quot;:null}" fill="#000000" stroke="#ffffff" stroke-width="2" stroke-linecap="butt"/><path d="M196.01013,31.56239h-35.75v-35.75h35.75z" data-paper-data="{&quot;index&quot;:null}" fill="#000000" stroke="#ffffff" stroke-width="2" stroke-linecap="butt"/><path d="M196.01013,135.166h-35.75v-35.75h35.75z" data-paper-data="{&quot;index&quot;:null}" fill="#000000" stroke="#ffffff" stroke-width="2" stroke-linecap="butt"/><path d="M18.01012,-37.43761h-35.75v-35.75h35.75z" data-paper-data="{&quot;index&quot;:null}" fill="#000000" stroke="#ffffff" stroke-width="2" stroke-linecap="butt"/><path d="M18.01012,66.16599h-35.75v-35.75h35.75z" data-paper-data="{&quot;index&quot;:null}" fill="#000000" stroke="#ffffff" stroke-width="2" stroke-linecap="butt"/><path d="M196.01013,-37.43761h-35.75v-35.75h35.75z" data-paper-data="{&quot;index&quot;:null}" fill="#000000" stroke="#ffffff" stroke-width="2" stroke-linecap="butt"/><path d="M196.01013,66.16599h-35.75v-35.75h35.75z" data-paper-data="{&quot;index&quot;:null}" fill="#000000" stroke="#ffffff" stroke-width="2" stroke-linecap="butt"/><path d="M18.01012,-3.43761h-35.75v-35.75h35.75z" data-paper-data="{&quot;index&quot;:null}" fill="#000000" stroke="#ffffff" stroke-width="2" stroke-linecap="butt"/><path d="M18.01012,100.166h-35.75v-35.75h35.75z" data-paper-data="{&quot;index&quot;:null}" fill="#000000" stroke="#ffffff" stroke-width="2" stroke-linecap="butt"/><path d="M196.01013,-3.43761h-35.75v-35.75h35.75z" data-paper-data="{&quot;index&quot;:null}" fill="#000000" stroke="#ffffff" stroke-width="2" stroke-linecap="butt"/><path d="M196.01013,100.166h-35.75v-35.75h35.75z" data-paper-data="{&quot;index&quot;:null}" fill="#000000" stroke="#ffffff" stroke-width="2" stroke-linecap="butt"/><path d="M125.01014,31.56239h-35.75v-35.75h35.75z" data-paper-data="{&quot;index&quot;:null}" fill="#000000" stroke="#ffffff" stroke-width="2" stroke-linecap="butt"/><path d="M125.01014,135.166h-35.75v-35.75h35.75z" data-paper-data="{&quot;index&quot;:null}" fill="#000000" stroke="#ffffff" stroke-width="2" stroke-linecap="butt"/><path d="M125.01014,-37.43761h-35.75v-35.75h35.75z" data-paper-data="{&quot;index&quot;:null}" fill="#000000" stroke="#ffffff" stroke-width="2" stroke-linecap="butt"/><path d="M125.01014,66.16599h-35.75v-35.75h35.75z" data-paper-data="{&quot;index&quot;:null}" fill="#000000" stroke="#ffffff" stroke-width="2" stroke-linecap="butt"/><path d="M125.01014,-37.43761h-35.75v-35.75h35.75z" data-paper-data="{&quot;index&quot;:null}" fill="#000000" stroke="#ffffff" stroke-width="2" stroke-linecap="butt"/><path d="M125.01014,66.16599h-35.75v-35.75h35.75z" data-paper-data="{&quot;index&quot;:null}" fill="#000000" stroke="#ffffff" stroke-width="2" stroke-linecap="butt"/><path d="M125.01014,-3.43761h-35.75v-35.75h35.75z" data-paper-data="{&quot;index&quot;:null}" fill="#000000" stroke="#ffffff" stroke-width="2" stroke-linecap="butt"/><path d="M125.01014,100.166h-35.75v-35.75h35.75z" data-paper-data="{&quot;index&quot;:null}" fill="#000000" stroke="#ffffff" stroke-width="2" stroke-linecap="butt"/><path d="M160.01012,31.89574h-35.75v-35.75h35.75z" data-paper-data="{&quot;index&quot;:null}" fill="#000000" stroke="#ffffff" stroke-width="2" stroke-linecap="butt"/><path d="M160.01012,135.49935h-35.75v-35.75h35.75z" data-paper-data="{&quot;index&quot;:null}" fill="#000000" stroke="#ffffff" stroke-width="2" stroke-linecap="butt"/><path d="M196.01013,31.89574h-35.75v-35.75h35.75z" data-paper-data="{&quot;index&quot;:null}" fill="#000000" stroke="#ffffff" stroke-width="2" stroke-linecap="butt"/><path d="M196.01013,135.49935h-35.75v-35.75h35.75z" data-paper-data="{&quot;index&quot;:null}" fill="#000000" stroke="#ffffff" stroke-width="2" stroke-linecap="butt"/><path d="M160.01012,-37.10426h-35.75v-35.75h35.75z" data-paper-data="{&quot;index&quot;:null}" fill="#000000" stroke="#ffffff" stroke-width="2" stroke-linecap="butt"/><path d="M160.01012,66.49935h-35.75v-35.75h35.75z" data-paper-data="{&quot;index&quot;:null}" fill="#000000" stroke="#ffffff" stroke-width="2" stroke-linecap="butt"/><path d="M196.01013,-37.10426h-35.75v-35.75h35.75z" data-paper-data="{&quot;index&quot;:null}" fill="#000000" stroke="#ffffff" stroke-width="2" stroke-linecap="butt"/><path d="M196.01013,66.49935h-35.75v-35.75h35.75z" data-paper-data="{&quot;index&quot;:null}" fill="#000000" stroke="#ffffff" stroke-width="2" stroke-linecap="butt"/><path d="M160.01012,-3.10426h-35.75v-35.75h35.75z" data-paper-data="{&quot;index&quot;:null}" fill="#000000" stroke="#ffffff" stroke-width="2" stroke-linecap="butt"/><path d="M160.01012,100.49935h-35.75v-35.75h35.75z" data-paper-data="{&quot;index&quot;:null}" fill="#000000" stroke="#ffffff" stroke-width="2" stroke-linecap="butt"/><path d="M196.01013,-3.10426h-35.75v-35.75h35.75z" data-paper-data="{&quot;index&quot;:null}" fill="#000000" stroke="#ffffff" stroke-width="2" stroke-linecap="butt"/><path d="M196.01013,100.49935h-35.75v-35.75h35.75z" data-paper-data="{&quot;index&quot;:null}" fill="#000000" stroke="#ffffff" stroke-width="2" stroke-linecap="butt"/><path d="M89.01014,31.89574h-35.75v-35.75h35.75z" data-paper-data="{&quot;index&quot;:null}" fill="#000000" stroke="#ffffff" stroke-width="2" stroke-linecap="butt"/><path d="M89.01014,135.49935h-35.75v-35.75h35.75z" data-paper-data="{&quot;index&quot;:null}" fill="#000000" stroke="#ffffff" stroke-width="2" stroke-linecap="butt"/><path d="M89.01014,-37.10426h-35.75v-35.75h35.75z" data-paper-data="{&quot;index&quot;:null}" fill="#000000" stroke="#ffffff" stroke-width="2" stroke-linecap="butt"/><path d="M89.01014,66.49935h-35.75v-35.75h35.75z" data-paper-data="{&quot;index&quot;:null}" fill="#000000" stroke="#ffffff" stroke-width="2" stroke-linecap="butt"/><path d="M89.01014,-37.10426h-35.75v-35.75h35.75z" data-paper-data="{&quot;index&quot;:null}" fill="#000000" stroke="#ffffff" stroke-width="2" stroke-linecap="butt"/><path d="M89.01014,66.49935h-35.75v-35.75h35.75z" data-paper-data="{&quot;index&quot;:null}" fill="#000000" stroke="#ffffff" stroke-width="2" stroke-linecap="butt"/><path d="M89.01014,-3.10426h-35.75v-35.75h35.75z" data-paper-data="{&quot;index&quot;:null}" fill="#000000" stroke="#ffffff" stroke-width="2" stroke-linecap="butt"/><path d="M89.01014,100.49935h-35.75v-35.75h35.75z" data-paper-data="{&quot;index&quot;:null}" fill="#000000" stroke="#ffffff" stroke-width="2" stroke-linecap="butt"/><path d="M160.67682,31.56239h-35.75v-35.75h35.75z" data-paper-data="{&quot;index&quot;:null}" fill="#000000" stroke="#ffffff" stroke-width="2" stroke-linecap="butt"/><path d="M160.67682,135.166h-35.75v-35.75h35.75z" data-paper-data="{&quot;index&quot;:null}" fill="#000000" stroke="#ffffff" stroke-width="2" stroke-linecap="butt"/><path d="M160.67682,-37.43761h-35.75v-35.75h35.75z" data-paper-data="{&quot;index&quot;:null}" fill="#000000" stroke="#ffffff" stroke-width="2" stroke-linecap="butt"/><path d="M160.67682,66.16599h-35.75v-35.75h35.75z" data-paper-data="{&quot;index&quot;:null}" fill="#000000" stroke="#ffffff" stroke-width="2" stroke-linecap="butt"/><path d="M160.67682,-3.43761h-35.75v-35.75h35.75z" data-paper-data="{&quot;index&quot;:null}" fill="#000000" stroke="#ffffff" stroke-width="2" stroke-linecap="butt"/><path d="M160.67682,100.166h-35.75v-35.75h35.75z" data-paper-data="{&quot;index&quot;:null}" fill="#000000" stroke="#ffffff" stroke-width="2" stroke-linecap="butt"/><path d="M125.01014,31.56239h-35.75v-35.75h35.75z" data-paper-data="{&quot;index&quot;:null}" fill="#000000" stroke="#ffffff" stroke-width="2" stroke-linecap="butt"/><path d="M125.01014,135.166h-35.75v-35.75h35.75z" data-paper-data="{&quot;index&quot;:null}" fill="#000000" stroke="#ffffff" stroke-width="2" stroke-linecap="butt"/><path d="M125.01014,-37.43761h-35.75v-35.75h35.75z" data-paper-data="{&quot;index&quot;:null}" fill="#000000" stroke="#ffffff" stroke-width="2" stroke-linecap="butt"/><path d="M125.01014,66.16599h-35.75v-35.75h35.75z" data-paper-data="{&quot;index&quot;:null}" fill="#000000" stroke="#ffffff" stroke-width="2" stroke-linecap="butt"/><path d="M125.01014,-3.43761h-35.75v-35.75h35.75z" data-paper-data="{&quot;index&quot;:null}" fill="#000000" stroke="#ffffff" stroke-width="2" stroke-linecap="butt"/><path d="M125.01014,100.166h-35.75v-35.75h35.75z" data-paper-data="{&quot;index&quot;:null}" fill="#000000" stroke="#ffffff" stroke-width="2" stroke-linecap="butt"/><path d="M89.01014,31.89574h-35.75v-35.75h35.75z" data-paper-data="{&quot;index&quot;:null}" fill="#000000" stroke="#ffffff" stroke-width="2" stroke-linecap="butt"/><path d="M89.01014,135.49935h-35.75v-35.75h35.75z" data-paper-data="{&quot;index&quot;:null}" fill="#000000" stroke="#ffffff" stroke-width="2" stroke-linecap="butt"/><path d="M89.01014,-37.10426h-35.75v-35.75h35.75z" data-paper-data="{&quot;index&quot;:null}" fill="#000000" stroke="#ffffff" stroke-width="2" stroke-linecap="butt"/><path d="M89.01014,66.49935h-35.75v-35.75h35.75z" data-paper-data="{&quot;index&quot;:null}" fill="#000000" stroke="#ffffff" stroke-width="2" stroke-linecap="butt"/><path d="M-53.027,0.66667v-31.33333h586.05405v31.33333z" fill="none" stroke="#ffffff" stroke-width="0" stroke-linecap="butt"/><g><path d="M171.00003,144.29024c2.53131,0 4.58333,2.05202 4.58333,4.58333c0,2.53131 -2.05202,4.58333 -4.58333,4.58333c-2.53131,0 -4.58333,-2.05202 -4.58333,-4.58333c0,-2.53131 2.05202,-4.58333 4.58333,-4.58333z" fill="url(#color-1)" stroke="#ffe8e8" stroke-width="1" stroke-linecap="butt"/><path d="M170.33337,236.29024c2.53131,0 4.58333,2.05202 4.58333,4.58333c0,2.53131 -2.05202,4.58333 -4.58333,4.58333c-2.53131,0 -4.58333,-2.05202 -4.58333,-4.58333c0,-2.53131 2.05202,-4.58333 4.58333,-4.58333z" fill="url(#color-2)" stroke="#ffe8e8" stroke-width="1" stroke-linecap="butt"/><path d="M186.59156,158.42787h-24.90039" fill="none" stroke="#000000" stroke-width="7.5" stroke-linecap="round"/><path d="M186.59157,231.77083h-28.6839" fill="none" stroke="#000000" stroke-width="7.5" stroke-linecap="round"/><path d="M157.60306,166.42134h37.35058" fill="none" stroke="#000000" stroke-width="4.5" stroke-linecap="round"/><path d="M198.29847,177.0976h-48.01725" fill="none" stroke="#000000" stroke-width="4.5" stroke-linecap="round"/><path d="M158.16053,221.9925h37.35058" data-paper-data="{&quot;index&quot;:null}" fill="none" stroke="#000000" stroke-width="4.5" stroke-linecap="round"/><path d="M162.06281,208.9024h37.35058" data-paper-data="{&quot;index&quot;:null}" fill="none" stroke="#000000" stroke-width="4.5" stroke-linecap="round"/><path d="M174.57587,159.21884c0.40717,-0.13681 0.82069,-0.20699 1.23943,-0.20699c6.36208,0 11.51955,16.19969 11.51955,36.18301c0,18.14896 -4.25407,33.17704 -9.80104,35.7831" fill="none" stroke="#000000" stroke-width="2.5" stroke-linecap="butt"/><path d="M178.50822,166.56733h-29.01725" data-paper-data="{&quot;index&quot;:null}" fill="none" stroke="#000000" stroke-width="4.5" stroke-linecap="round"/><path d="M147.9335,221.9925h30.01725" data-paper-data="{&quot;index&quot;:null}" fill="none" stroke="#000000" stroke-width="4.5" stroke-linecap="round"/><path d="M174.04847,209.04839h-29.01725" data-paper-data="{&quot;index&quot;:null}" fill="none" stroke="#000000" stroke-width="4.5" stroke-linecap="round"/><path d="M146.08917,192.35454h25.12548" data-paper-data="{&quot;index&quot;:null}" fill="none" stroke="#000000" stroke-width="7.5" stroke-linecap="round"/><path d="M164.89664,192.35454h31.12548" fill="none" stroke="#000000" stroke-width="7.5" stroke-linecap="round"/><path d="M180.61072,195.19486c0,19.98333 -5.15747,36.18301 -11.51955,36.18301c-6.36208,0 -11.51955,-16.19969 -11.51955,-36.18301c0,-19.98333 5.15747,-36.18301 11.51955,-36.18301c6.36208,0 11.51955,16.19969 11.51955,36.18301z" fill="none" stroke="#000000" stroke-width="2.5" stroke-linecap="butt"/><path d="M170.13676,195.19487c0,20.79896 -5.68376,37.65987 -12.69502,37.65987c-7.01127,0 -12.69502,-16.8609 -12.69502,-37.65987c0,-20.79896 5.68376,-37.65987 12.69502,-37.65987c7.01127,0 12.69502,16.8609 12.69502,37.65987z" fill="none" stroke="#ffe8e8" stroke-width="7.5" stroke-linecap="butt"/><path d="M168.9613,195.19486c0,19.98333 -5.15747,36.18301 -11.51955,36.18301c-6.36208,0 -11.51955,-16.19969 -11.51955,-36.18301c0,-19.98333 5.15747,-36.18301 11.51955,-36.18301c6.36208,0 11.51955,16.19969 11.51955,36.18301z" fill="none" stroke="url(#color-3)" stroke-width="7.5" stroke-linecap="butt"/><path d="M186.74261,159.04543c0.16606,-0.02232 0.33304,-0.03359 0.50085,-0.03359c6.36208,0 11.51955,16.19969 11.51955,36.18301c0,18.85706 -4.59251,34.34497 -10.45605,36.03085" fill="none" stroke="#000000" stroke-width="7.5" stroke-linecap="butt"/><path d="M186.00004,168.33437c2.53131,0 4.58333,1.88516 4.58333,4.21064c0,2.32548 -2.05202,4.21064 -4.58333,4.21064c-2.53131,0 -4.58333,-1.88516 -4.58333,-4.21064c0,-2.32548 2.05202,-4.21064 4.58333,-4.21064z" fill="url(#color-4)" stroke="#ffe8e8" stroke-width="1" stroke-linecap="butt"/><path d="M186.00004,209.67523c2.53131,0 4.58333,1.88516 4.58333,4.21064c0,2.32548 -2.05202,4.21064 -4.58333,4.21064c-2.53131,0 -4.58333,-1.88516 -4.58333,-4.21064c0,-2.32548 2.05202,-4.21064 4.58333,-4.21064z" fill="url(#color-5)" stroke="#ffe8e8" stroke-width="1" stroke-linecap="butt"/></g></g></g></svg>