<svg version="1.1" xmlns="http://www.w3.org/2000/svg" xmlns:xlink="http://www.w3.org/1999/xlink" width="33.51726" height="42.49755" viewBox="0,0,33.51726,42.49755"><g transform="translate(-223.24137,-162.86464)"><g data-paper-data="{&quot;isPaintingLayer&quot;:true}" fill-rule="nonzero" stroke-linejoin="miter" stroke-miterlimit="10" stroke-dasharray="" stroke-dashoffset="0" style="mix-blend-mode: normal"><path d="M255.75863,163.86464v31.51726h-31.51726v-31.51726z" data-paper-data="{&quot;index&quot;:null}" fill="#ffc1c1" stroke="#000000" stroke-width="2" stroke-linecap="butt"/><path d="M240,178.62818c-0.64441,0 -1.16682,-0.30078 -1.16682,-0.67181c0,-0.37103 0.5224,-0.67181 1.16682,-0.67181c0.64441,0 1.16682,0.30078 1.16682,0.67181c0,0.37103 -0.5224,0.67181 -1.16682,0.67181z" data-paper-data="{&quot;index&quot;:null}" fill="none" stroke="#000000" stroke-width="2" stroke-linecap="butt"/><path d="M240.00277,172.32807c-0.25428,1.64328 -1.81084,2.90773 -3.69306,2.90773c-1.79444,0 -3.29288,-1.14926 -3.64908,-2.68037" data-paper-data="{&quot;index&quot;:null}" fill="none" stroke="#000000" stroke-width="2" stroke-linecap="butt"/><path d="M247.33937,172.55543c-0.3562,1.53112 -1.85464,2.68037 -3.64908,2.68037c-1.88223,0 -3.43878,-1.26445 -3.69306,-2.90773" data-paper-data="{&quot;index&quot;:null}" fill="none" stroke="#000000" stroke-width="2" stroke-linecap="butt"/><path d="M231.66554,183.56824c1.50364,0 2.72259,1.21895 2.72259,2.72259c0,1.50364 -1.21895,2.72259 -2.72259,2.72259c-1.50364,0 -2.72259,-1.21895 -2.72259,-2.72259c0,-1.50364 1.21895,-2.72259 2.72259,-2.72259z" data-paper-data="{&quot;index&quot;:null}" fill="#000000" stroke="#000000" stroke-width="2" stroke-linecap="butt"/><path d="M233.06573,185.31869c0.9665,0 1.75,0.7835 1.75,1.75c0,0.9665 -0.7835,1.75 -1.75,1.75c-0.9665,0 -1.75,-0.7835 -1.75,-1.75c0,-0.9665 0.7835,-1.75 1.75,-1.75z" data-paper-data="{&quot;index&quot;:null}" fill="#ffffff" stroke="none" stroke-width="0.5" stroke-linecap="butt"/><path d="M229.84307,184.56842c0.27614,0 0.5,0.22386 0.5,0.5c0,0.27614 -0.22386,0.5 -0.5,0.5c-0.27614,0 -0.5,-0.22386 -0.5,-0.5c0,-0.27614 0.22386,-0.5 0.5,-0.5z" data-paper-data="{&quot;index&quot;:null}" fill="#ffffff" stroke="none" stroke-width="0.5" stroke-linecap="butt"/><path d="M248.33446,183.56823c1.50365,0 2.72259,1.21894 2.72259,2.72259c0,1.50365 -1.21894,2.72259 -2.72259,2.72259c-1.50365,0 -2.72259,-1.21894 -2.72259,-2.72259c0,-1.50365 1.21894,-2.72259 2.72259,-2.72259z" data-paper-data="{&quot;index&quot;:null}" fill="#000000" stroke="#000000" stroke-width="2" stroke-linecap="butt"/><path d="M249.73465,185.31869c0.9665,0 1.75,0.7835 1.75,1.75c0,0.9665 -0.7835,1.75 -1.75,1.75c-0.9665,0 -1.75,-0.7835 -1.75,-1.75c0,-0.9665 0.7835,-1.75 1.75,-1.75z" data-paper-data="{&quot;index&quot;:null}" fill="#ffffff" stroke="none" stroke-width="0.5" stroke-linecap="butt"/><path d="M246.51199,184.56842c0.27614,0 0.5,0.22386 0.5,0.5c0,0.27614 -0.22386,0.5 -0.5,0.5c-0.27614,0 -0.5,-0.22386 -0.5,-0.5c0,-0.27614 0.22386,-0.5 0.5,-0.5z" data-paper-data="{&quot;index&quot;:null}" fill="#ffffff" stroke="none" stroke-width="0.5" stroke-linecap="butt"/><path d="M235.57332,195.61189l-5.22691,7.93279l-5.22691,-7.93279z" data-paper-data="{&quot;index&quot;:null}" fill="#ffc1c1" stroke="#000000" stroke-width="2" stroke-linecap="butt"/><path d="M254.86238,195.61189l-5.22691,7.93278l-5.2269,-7.93278z" data-paper-data="{&quot;index&quot;:null}" fill="#ffc1c1" stroke="#000000" stroke-width="2" stroke-linecap="butt"/><path d="M240.08774,177.55186v-4.42506" data-paper-data="{&quot;index&quot;:null}" fill="none" stroke="#000000" stroke-width="2" stroke-linecap="round"/><path d="M244.70531,193.33458v-0.1475c0.09981,-1.04548 -1.98211,-0.63501 -2.64255,-0.63501c-2.54601,0 -4.73931,0.8395 -7.1376,0.88501c0,0 -0.25,0 -0.25,-0.25c0,-0.25 0.25,-0.25 0.25,-0.25c2.30296,0.06483 4.65963,-0.88501 7.1376,-0.88501c1.11682,0 3.06623,-0.43177 3.14255,1.13501v0.1475c0,0 0,0.25 -0.25,0.25c-0.25,0 -0.25,-0.25 -0.25,-0.25z" data-paper-data="{&quot;index&quot;:null}" fill="#000000" stroke="none" stroke-width="0.5" stroke-linecap="butt"/><path d="M245.59032,191.41706v-0.295c0.06935,-0.72643 -2.19582,-0.63501 -2.73256,-0.63501c-2.71801,0 -5.31134,0.84995 -7.9326,0.88501c0,0 -0.25,0 -0.25,-0.25c0,-0.25 0.25,-0.25 0.25,-0.25c2.56762,0.0446 5.25006,-0.88501 7.9326,-0.88501c0.95726,0 3.17065,-0.13594 3.23256,1.13501v0.295c0,0 0,0.25 -0.25,0.25c-0.25,0 -0.25,-0.25 -0.25,-0.25z" data-paper-data="{&quot;index&quot;:null}" fill="#000000" stroke="none" stroke-width="0.5" stroke-linecap="butt"/></g></g></svg>