<svg version="1.1" xmlns="http://www.w3.org/2000/svg" xmlns:xlink="http://www.w3.org/1999/xlink" width="591.29961" height="398.25627" viewBox="0,0,591.29961,398.25627"><g transform="translate(53.02702,30.66667)"><g data-paper-data="{&quot;isPaintingLayer&quot;:true}" fill-rule="nonzero" stroke-linecap="butt" stroke-linejoin="miter" stroke-miterlimit="10" stroke-dasharray="" stroke-dashoffset="0" style="mix-blend-mode: normal"><path d="M169.76992,309.8837h-35.75v-18.75h35.75z" data-paper-data="{&quot;index&quot;:null}" fill="#000000" stroke="#ffffff" stroke-width="2"/><path d="M99.76992,309.8837h-35.75v-18.75h35.75z" data-paper-data="{&quot;index&quot;:null}" fill="#000000" stroke="#ffffff" stroke-width="2"/><path d="M134.76992,309.8837h-35.75v-18.75h35.75z" data-paper-data="{&quot;index&quot;:null}" fill="#000000" stroke="#ffffff" stroke-width="2"/><path d="M64.76992,309.8837h-35.75v-18.75h35.75z" data-paper-data="{&quot;index&quot;:null}" fill="#000000" stroke="#ffffff" stroke-width="2"/><g stroke="#fbffea" stroke-width="0.5"><g><path d="M21.72846,357.70218l4.18118,-13.98377l4.60153,13.85114z" fill="#ff00ef"/><path d="M1.18111,358.88783l4.18118,-13.98375l4.60153,13.85112z" fill="#ff00ef"/><path d="M30.61942,362.82012l4.18119,-13.98377l4.60153,13.85114z" fill="#ff00ef"/><path d="M10.41237,358.74843l4.18118,-13.98375l4.60154,13.85112z" fill="#ff00ef"/><path d="M4.44065,362.60723l4.9744,-7.81312l5.20806,7.65935z" fill="#000000"/><path d="M16.14551,364.37682l4.9744,-7.81312l5.20806,7.65935z" fill="#000000"/><path d="M22.9121,361.3551l4.9744,-7.81312l5.20806,7.65935z" fill="#000000"/><path d="M-0.91795,362.20156l4.9744,-7.81312l5.20806,7.65935z" fill="#000000"/><path d="M26.83332,363.24223l4.9744,-7.81312l5.20806,7.65935z" fill="#000000"/><path d="M33.17222,364.1197l4.9744,-7.81312l5.20806,7.65935z" fill="#000000"/><path d="M36.57755,364.06827l4.9744,-7.81312l5.20806,7.65935z" fill="#000000"/><path d="M9.78455,362.03993l4.9744,-7.81312l5.20806,7.65935z" fill="#000000"/></g><g><path d="M-24.2965,356.39699l4.18118,-13.98377l4.60153,13.85114z" fill="#ff00ef"/><path d="M-44.84385,357.58265l4.18118,-13.98375l4.60153,13.85112z" fill="#ff00ef"/><path d="M-15.40553,361.51494l4.18119,-13.98377l4.60153,13.85114z" fill="#ff00ef"/><path d="M-35.61257,357.44324l4.18118,-13.98375l4.60154,13.85112z" fill="#ff00ef"/><path d="M-41.5843,361.30204l4.9744,-7.81312l5.20806,7.65935z" fill="#000000"/><path d="M-29.87945,363.07163l4.9744,-7.81312l5.20806,7.65935z" fill="#000000"/><path d="M-23.11285,360.04992l4.9744,-7.81312l5.20806,7.65935z" fill="#000000"/><path d="M-46.94289,360.89637l4.9744,-7.81312l5.20806,7.65935z" fill="#000000"/><path d="M-19.19162,361.93704l4.9744,-7.81312l5.20806,7.65935z" fill="#000000"/><path d="M-12.85272,362.81451l4.9744,-7.81312l5.20806,7.65935z" fill="#000000"/><path d="M-9.44739,362.76308l4.9744,-7.81312l5.20806,7.65935z" fill="#000000"/><path d="M-36.24039,360.73475l4.9744,-7.81312l5.20806,7.65935z" fill="#000000"/></g><g><path d="M-0.29923,356.0346l4.18118,-13.98377l4.60153,13.85114z" fill="#ff00ef"/><path d="M-20.84658,357.22025l4.18118,-13.98375l4.60153,13.85112z" fill="#ff00ef"/><path d="M8.59173,361.15254l4.18119,-13.98377l4.60153,13.85114z" fill="#ff00ef"/><path d="M-11.61531,357.08085l4.18118,-13.98375l4.60154,13.85112z" fill="#ff00ef"/><path d="M-17.58703,360.93965l4.9744,-7.81312l5.20806,7.65935z" fill="#000000"/><path d="M-5.88219,362.70924l4.9744,-7.81312l5.20806,7.65935z" fill="#000000"/><path d="M0.88442,359.68752l4.9744,-7.81312l5.20806,7.65935z" fill="#000000"/><path d="M-22.94564,360.53398l4.9744,-7.81312l5.20806,7.65935z" fill="#000000"/><path d="M4.80563,361.57465l4.9744,-7.81312l5.20806,7.65935z" fill="#000000"/><path d="M11.14454,362.45212l4.9744,-7.81312l5.20806,7.65935z" fill="#000000"/><path d="M14.54988,362.40069l4.9744,-7.81312l5.20806,7.65935z" fill="#000000"/><path d="M-12.24313,360.37235l4.9744,-7.81312l5.20806,7.65935z" fill="#000000"/></g></g><g stroke="#fbffea" stroke-width="0.5"><g><path d="M66.72332,357.02271l4.18118,-13.98377l4.60153,13.85114z" fill="#ff00ef"/><path d="M46.176,358.20836l4.18118,-13.98375l4.60153,13.85112z" fill="#ff00ef"/><path d="M75.61428,362.14065l4.18119,-13.98377l4.60153,13.85114z" fill="#ff00ef"/><path d="M55.40726,358.06895l4.18118,-13.98375l4.60154,13.85112z" fill="#ff00ef"/><path d="M49.43553,361.92775l4.9744,-7.81312l5.20806,7.65935z" fill="#000000"/><path d="M61.14037,363.69735l4.9744,-7.81312l5.20806,7.65935z" fill="#000000"/><path d="M67.90702,360.67563l4.9744,-7.81312l5.20806,7.65935z" fill="#000000"/><path d="M44.07693,361.52208l4.9744,-7.81312l5.20806,7.65935z" fill="#000000"/><path d="M71.82818,362.56275l4.9744,-7.81312l5.20806,7.65935z" fill="#000000"/><path d="M78.16709,363.44022l4.9744,-7.81312l5.20806,7.65935z" fill="#000000"/><path d="M81.57242,363.3888l4.9744,-7.81312l5.20806,7.65935z" fill="#000000"/><path d="M54.77943,361.36046l4.9744,-7.81312l5.20806,7.65935z" fill="#000000"/></g><g><path d="M20.69836,355.71752l4.18118,-13.98377l4.60153,13.85114z" fill="#ff00ef"/><path d="M0.15103,356.90317l4.18118,-13.98375l4.60153,13.85112z" fill="#ff00ef"/><path d="M29.58933,360.83546l4.18119,-13.98377l4.60153,13.85114z" fill="#ff00ef"/><path d="M9.38229,356.76377l4.18118,-13.98375l4.60154,13.85112z" fill="#ff00ef"/><path d="M3.41056,360.62256l4.9744,-7.81312l5.20806,7.65935z" fill="#000000"/><path d="M15.11541,362.39216l4.9744,-7.81312l5.20806,7.65935z" fill="#000000"/><path d="M21.88201,359.37044l4.9744,-7.81312l5.20806,7.65935z" fill="#000000"/><path d="M-1.94803,360.21689l4.9744,-7.81312l5.20806,7.65935z" fill="#000000"/><path d="M25.80324,361.25756l4.9744,-7.81312l5.20806,7.65935z" fill="#000000"/><path d="M32.14214,362.13503l4.9744,-7.81312l5.20806,7.65935z" fill="#000000"/><path d="M35.54748,362.08361l4.9744,-7.81312l5.20806,7.65935z" fill="#000000"/><path d="M8.75447,360.05527l4.9744,-7.81312l5.20806,7.65935z" fill="#000000"/></g><g><path d="M44.69564,355.35513l4.18118,-13.98377l4.60153,13.85114z" fill="#ff00ef"/><path d="M24.1483,356.54078l4.18118,-13.98375l4.60153,13.85112z" fill="#ff00ef"/><path d="M53.5866,360.47307l4.18119,-13.98377l4.60153,13.85114z" fill="#ff00ef"/><path d="M33.37957,356.40137l4.18118,-13.98375l4.60154,13.85112z" fill="#ff00ef"/><path d="M27.40784,360.26017l4.9744,-7.81312l5.20806,7.65935z" fill="#000000"/><path d="M39.11267,362.02977l4.9744,-7.81312l5.20806,7.65935z" fill="#000000"/><path d="M45.8793,359.00805l4.9744,-7.81312l5.20806,7.65935z" fill="#000000"/><path d="M22.04922,359.8545l4.9744,-7.81312l5.20806,7.65935z" fill="#000000"/><path d="M49.8005,360.89517l4.9744,-7.81312l5.20806,7.65935z" fill="#000000"/><path d="M56.1394,361.77264l4.9744,-7.81312l5.20806,7.65935z" fill="#000000"/><path d="M59.54474,361.72122l4.9744,-7.81312l5.20806,7.65935z" fill="#000000"/><path d="M32.75173,359.69288l4.9744,-7.81312l5.20806,7.65935z" fill="#000000"/></g></g><g stroke="#fbffea" stroke-width="0.5"><g><path d="M133.76099,359.01068l4.18118,-13.98377l4.60153,13.85114z" fill="#ff00ef"/><path d="M113.21365,360.19633l4.18118,-13.98375l4.60153,13.85112z" fill="#ff00ef"/><path d="M142.65195,364.12862l4.18119,-13.98377l4.60153,13.85114z" fill="#ff00ef"/><path d="M122.4449,360.05693l4.18118,-13.98375l4.60154,13.85112z" fill="#ff00ef"/><path d="M116.47318,363.91573l4.9744,-7.81312l5.20806,7.65935z" fill="#000000"/><path d="M128.17804,365.68532l4.9744,-7.81312l5.20806,7.65935z" fill="#000000"/><path d="M134.94463,362.6636l4.9744,-7.81312l5.20806,7.65935z" fill="#000000"/><path d="M111.11458,363.51005l4.9744,-7.81312l5.20806,7.65935z" fill="#000000"/><path d="M138.86585,364.55073l4.9744,-7.81312l5.20806,7.65935z" fill="#000000"/><path d="M145.20476,365.42819l4.9744,-7.81312l5.20806,7.65935z" fill="#000000"/><path d="M148.61009,365.37677l4.9744,-7.81312l5.20806,7.65935z" fill="#000000"/><path d="M121.81709,363.34843l4.9744,-7.81312l5.20806,7.65935z" fill="#000000"/></g><g><path d="M87.73603,357.70549l4.18118,-13.98377l4.60153,13.85114z" fill="#ff00ef"/><path d="M67.18868,358.89114l4.18118,-13.98375l4.60153,13.85112z" fill="#ff00ef"/><path d="M96.627,362.82343l4.18119,-13.98377l4.60153,13.85114z" fill="#ff00ef"/><path d="M76.41996,358.75174l4.18118,-13.98375l4.60154,13.85112z" fill="#ff00ef"/><path d="M70.44822,362.61054l4.9744,-7.81312l5.20806,7.65935z" fill="#000000"/><path d="M82.15308,364.38013l4.9744,-7.81312l5.20806,7.65935z" fill="#000000"/><path d="M88.91968,361.35841l4.9744,-7.81312l5.20806,7.65935z" fill="#000000"/><path d="M65.08964,362.20487l4.9744,-7.81312l5.20806,7.65935z" fill="#000000"/><path d="M92.84091,363.24554l4.9744,-7.81312l5.20806,7.65935z" fill="#000000"/><path d="M99.17981,364.123l4.9744,-7.81312l5.20806,7.65935z" fill="#000000"/><path d="M102.58515,364.07158l4.9744,-7.81312l5.20806,7.65935z" fill="#000000"/><path d="M75.79214,362.04324l4.9744,-7.81312l5.20806,7.65935z" fill="#000000"/></g><g><path d="M111.7333,357.3431l4.18118,-13.98377l4.60153,13.85114z" fill="#ff00ef"/><path d="M91.18596,358.52875l4.18118,-13.98375l4.60153,13.85112z" fill="#ff00ef"/><path d="M120.62426,362.46104l4.18119,-13.98377l4.60153,13.85114z" fill="#ff00ef"/><path d="M100.41722,358.38935l4.18118,-13.98375l4.60154,13.85112z" fill="#ff00ef"/><path d="M94.4455,362.24815l4.9744,-7.81312l5.20806,7.65935z" fill="#000000"/><path d="M106.15034,364.01774l4.9744,-7.81312l5.20806,7.65935z" fill="#000000"/><path d="M112.91695,360.99602l4.9744,-7.81312l5.20806,7.65935z" fill="#000000"/><path d="M89.08689,361.84247l4.9744,-7.81312l5.20806,7.65935z" fill="#000000"/><path d="M116.83817,362.88315l4.9744,-7.81312l5.20806,7.65935z" fill="#000000"/><path d="M123.17707,363.76061l4.9744,-7.81312l5.20806,7.65935z" fill="#000000"/><path d="M126.58241,363.70919l4.9744,-7.81312l5.20806,7.65935z" fill="#000000"/><path d="M99.7894,361.68085l4.9744,-7.81312l5.20806,7.65935z" fill="#000000"/></g></g><g stroke="#fbffea" stroke-width="0.5"><g><path d="M178.75585,358.3312l4.18118,-13.98377l4.60153,13.85114z" fill="#ff00ef"/><path d="M158.20853,359.51686l4.18118,-13.98375l4.60153,13.85112z" fill="#ff00ef"/><path d="M187.64682,363.44915l4.18119,-13.98377l4.60153,13.85114z" fill="#ff00ef"/><path d="M167.43979,359.37745l4.18118,-13.98375l4.60154,13.85112z" fill="#ff00ef"/><path d="M161.46806,363.23624l4.9744,-7.81312l5.20806,7.65935z" fill="#000000"/><path d="M173.1729,365.00584l4.9744,-7.81312l5.20806,7.65935z" fill="#000000"/><path d="M179.93955,361.98413l4.9744,-7.81312l5.20806,7.65935z" fill="#000000"/><path d="M156.10946,362.83058l4.9744,-7.81312l5.20806,7.65935z" fill="#000000"/><path d="M183.86071,363.87124l4.9744,-7.81312l5.20806,7.65935z" fill="#000000"/><path d="M190.19962,364.74872l4.9744,-7.81312l5.20806,7.65935z" fill="#000000"/><path d="M193.60495,364.69729l4.9744,-7.81312l5.20806,7.65935z" fill="#000000"/><path d="M166.81196,362.66896l4.9744,-7.81312l5.20806,7.65935z" fill="#000000"/></g><g><path d="M132.73089,357.02602l4.18118,-13.98377l4.60153,13.85114z" fill="#ff00ef"/><path d="M112.18356,358.21167l4.18118,-13.98375l4.60153,13.85112z" fill="#ff00ef"/><path d="M141.62186,362.14396l4.18119,-13.98377l4.60153,13.85114z" fill="#ff00ef"/><path d="M121.41482,358.07226l4.18118,-13.98375l4.60154,13.85112z" fill="#ff00ef"/><path d="M115.44309,361.93105l4.9744,-7.81312l5.20806,7.65935z" fill="#000000"/><path d="M127.14794,363.70066l4.9744,-7.81312l5.20806,7.65935z" fill="#000000"/><path d="M133.91454,360.67894l4.9744,-7.81312l5.20806,7.65935z" fill="#000000"/><path d="M110.0845,361.52539l4.9744,-7.81312l5.20806,7.65935z" fill="#000000"/><path d="M137.83577,362.56606l4.9744,-7.81312l5.20806,7.65935z" fill="#000000"/><path d="M144.17467,363.44353l4.9744,-7.81312l5.20806,7.65935z" fill="#000000"/><path d="M147.58001,363.3921l4.9744,-7.81312l5.20806,7.65935z" fill="#000000"/><path d="M120.78701,361.36377l4.9744,-7.81312l5.20806,7.65935z" fill="#000000"/></g><g><path d="M156.72816,356.66362l4.18118,-13.98377l4.60153,13.85114z" fill="#ff00ef"/><path d="M136.18083,357.84928l4.18118,-13.98375l4.60153,13.85112z" fill="#ff00ef"/><path d="M165.61913,361.78157l4.18119,-13.98377l4.60153,13.85114z" fill="#ff00ef"/><path d="M145.4121,357.70987l4.18118,-13.98375l4.60154,13.85112z" fill="#ff00ef"/><path d="M139.44037,361.56866l4.9744,-7.81312l5.20806,7.65935z" fill="#000000"/><path d="M151.1452,363.33827l4.9744,-7.81312l5.20806,7.65935z" fill="#000000"/><path d="M157.91183,360.31655l4.9744,-7.81312l5.20806,7.65935z" fill="#000000"/><path d="M134.08175,361.163l4.9744,-7.81312l5.20806,7.65935z" fill="#000000"/><path d="M161.83303,362.20366l4.9744,-7.81312l5.20806,7.65935z" fill="#000000"/><path d="M168.17193,363.08114l4.9744,-7.81312l5.20806,7.65935z" fill="#000000"/><path d="M171.57727,363.02971l4.9744,-7.81312l5.20806,7.65935z" fill="#000000"/><path d="M144.78427,361.00138l4.9744,-7.81312l5.20806,7.65935z" fill="#000000"/></g></g><g stroke="#fbffea" stroke-width="0.5"><g><path d="M243.77864,359.34949l4.18118,-13.98377l4.60153,13.85114z" fill="#ff00ef"/><path d="M223.23131,360.53514l4.18118,-13.98375l4.60153,13.85112z" fill="#ff00ef"/><path d="M252.66961,364.46743l4.18119,-13.98377l4.60153,13.85114z" fill="#ff00ef"/><path d="M232.46256,360.39574l4.18118,-13.98375l4.60154,13.85112z" fill="#ff00ef"/><path d="M226.49084,364.25454l4.9744,-7.81312l5.20806,7.65935z" fill="#000000"/><path d="M238.1957,366.02413l4.9744,-7.81312l5.20806,7.65935z" fill="#000000"/><path d="M244.96229,363.00241l4.9744,-7.81312l5.20806,7.65935z" fill="#000000"/><path d="M221.13224,363.84886l4.9744,-7.81312l5.20806,7.65935z" fill="#000000"/><path d="M248.88351,364.88954l4.9744,-7.81312l5.20806,7.65935z" fill="#000000"/><path d="M255.22242,365.767l4.9744,-7.81312l5.20806,7.65935z" fill="#000000"/><path d="M258.62775,365.71558l4.9744,-7.81312l5.20806,7.65935z" fill="#000000"/><path d="M231.83475,363.68724l4.9744,-7.81312l5.20806,7.65935z" fill="#000000"/></g><g><path d="M197.75369,358.0443l4.18118,-13.98377l4.60153,13.85114z" fill="#ff00ef"/><path d="M177.20634,359.22995l4.18118,-13.98375l4.60153,13.85112z" fill="#ff00ef"/><path d="M206.64466,363.16224l4.18119,-13.98377l4.60153,13.85114z" fill="#ff00ef"/><path d="M186.43762,359.09055l4.18118,-13.98375l4.60154,13.85112z" fill="#ff00ef"/><path d="M180.46589,362.94935l4.9744,-7.81312l5.20806,7.65935z" fill="#000000"/><path d="M192.17074,364.71894l4.9744,-7.81312l5.20806,7.65935z" fill="#000000"/><path d="M198.93734,361.69722l4.9744,-7.81312l5.20806,7.65935z" fill="#000000"/><path d="M175.1073,362.54368l4.9744,-7.81312l5.20806,7.65935z" fill="#000000"/><path d="M202.85856,363.58435l4.9744,-7.81312l5.20806,7.65935z" fill="#000000"/><path d="M209.19747,364.46181l4.9744,-7.81312l5.20806,7.65935z" fill="#000000"/><path d="M212.60281,364.41039l4.9744,-7.81312l5.20806,7.65935z" fill="#000000"/><path d="M185.8098,362.38205l4.9744,-7.81312l5.20806,7.65935z" fill="#000000"/></g><g><path d="M221.75096,357.68191l4.18118,-13.98377l4.60153,13.85114z" fill="#ff00ef"/><path d="M201.20361,358.86756l4.18118,-13.98375l4.60153,13.85112z" fill="#ff00ef"/><path d="M230.64192,362.79985l4.18119,-13.98377l4.60153,13.85114z" fill="#ff00ef"/><path d="M210.43488,358.72816l4.18118,-13.98375l4.60154,13.85112z" fill="#ff00ef"/><path d="M204.46316,362.58696l4.9744,-7.81312l5.20806,7.65935z" fill="#000000"/><path d="M216.168,364.35655l4.9744,-7.81312l5.20806,7.65935z" fill="#000000"/><path d="M222.93461,361.33483l4.9744,-7.81312l5.20806,7.65935z" fill="#000000"/><path d="M199.10455,362.18128l4.9744,-7.81312l5.20806,7.65935z" fill="#000000"/><path d="M226.85583,363.22196l4.9744,-7.81312l5.20806,7.65935z" fill="#000000"/><path d="M233.19473,364.09942l4.9744,-7.81312l5.20806,7.65935z" fill="#000000"/><path d="M236.60007,364.048l4.9744,-7.81312l5.20806,7.65935z" fill="#000000"/><path d="M209.80706,362.01966l4.9744,-7.81312l5.20806,7.65935z" fill="#000000"/></g></g><g stroke="#fbffea" stroke-width="0.5"><g><path d="M288.7735,358.67001l4.18118,-13.98377l4.60153,13.85114z" fill="#ff00ef"/><path d="M268.22619,359.85567l4.18118,-13.98375l4.60153,13.85112z" fill="#ff00ef"/><path d="M297.66448,363.78796l4.18119,-13.98377l4.60153,13.85114z" fill="#ff00ef"/><path d="M277.45745,359.71626l4.18118,-13.98375l4.60154,13.85112z" fill="#ff00ef"/><path d="M271.48572,363.57505l4.9744,-7.81312l5.20806,7.65935z" fill="#000000"/><path d="M283.19056,365.34466l4.9744,-7.81312l5.20806,7.65935z" fill="#000000"/><path d="M289.95721,362.32294l4.9744,-7.81312l5.20806,7.65935z" fill="#000000"/><path d="M266.12712,363.16939l4.9744,-7.81312l5.20806,7.65935z" fill="#000000"/><path d="M293.87836,364.21005l4.9744,-7.81312l5.20806,7.65935z" fill="#000000"/><path d="M300.21727,365.08753l4.9744,-7.81312l5.20806,7.65935z" fill="#000000"/><path d="M303.62261,365.0361l4.9744,-7.81312l5.20806,7.65935z" fill="#000000"/><path d="M276.82962,363.00777l4.9744,-7.81312l5.20806,7.65935z" fill="#000000"/></g><g><path d="M242.74855,357.36483l4.18118,-13.98377l4.60153,13.85114z" fill="#ff00ef"/><path d="M222.20122,358.55048l4.18118,-13.98375l4.60153,13.85112z" fill="#ff00ef"/><path d="M251.63952,362.48277l4.18119,-13.98377l4.60153,13.85114z" fill="#ff00ef"/><path d="M231.43248,358.41107l4.18118,-13.98375l4.60154,13.85112z" fill="#ff00ef"/><path d="M225.46075,362.26986l4.9744,-7.81312l5.20806,7.65935z" fill="#000000"/><path d="M237.1656,364.03947l4.9744,-7.81312l5.20806,7.65935z" fill="#000000"/><path d="M243.9322,361.01775l4.9744,-7.81312l5.20806,7.65935z" fill="#000000"/><path d="M220.10216,361.8642l4.9744,-7.81312l5.20806,7.65935z" fill="#000000"/><path d="M247.85342,362.90487l4.9744,-7.81312l5.20806,7.65935z" fill="#000000"/><path d="M254.19233,363.78234l4.9744,-7.81312l5.20806,7.65935z" fill="#000000"/><path d="M257.59767,363.73092l4.9744,-7.81312l5.20806,7.65935z" fill="#000000"/><path d="M230.80467,361.70258l4.9744,-7.81312l5.20806,7.65935z" fill="#000000"/></g><g><path d="M266.74583,357.00243l4.18118,-13.98377l4.60153,13.85114z" fill="#ff00ef"/><path d="M246.19848,358.18809l4.18118,-13.98375l4.60153,13.85112z" fill="#ff00ef"/><path d="M275.63678,362.12038l4.18119,-13.98377l4.60153,13.85114z" fill="#ff00ef"/><path d="M255.42976,358.04868l4.18118,-13.98375l4.60154,13.85112z" fill="#ff00ef"/><path d="M249.45803,361.90747l4.9744,-7.81312l5.20806,7.65935z" fill="#000000"/><path d="M261.16285,363.67708l4.9744,-7.81312l5.20806,7.65935z" fill="#000000"/><path d="M267.92949,360.65536l4.9744,-7.81312l5.20806,7.65935z" fill="#000000"/><path d="M244.09941,361.50181l4.9744,-7.81312l5.20806,7.65935z" fill="#000000"/><path d="M271.85069,362.54247l4.9744,-7.81312l5.20806,7.65935z" fill="#000000"/><path d="M278.18959,363.41995l4.9744,-7.81312l5.20806,7.65935z" fill="#000000"/><path d="M281.59493,363.36852l4.9744,-7.81312l5.20806,7.65935z" fill="#000000"/><path d="M254.80193,361.34019l4.9744,-7.81312l5.20806,7.65935z" fill="#000000"/></g></g><g stroke="#fbffea" stroke-width="0.5"><g><path d="M355.81118,360.65799l4.18118,-13.98377l4.60153,13.85114z" fill="#ff00ef"/><path d="M335.26383,361.84364l4.18118,-13.98375l4.60153,13.85112z" fill="#ff00ef"/><path d="M364.70214,365.77593l4.18119,-13.98377l4.60153,13.85114z" fill="#ff00ef"/><path d="M344.49509,361.70423l4.18118,-13.98375l4.60154,13.85112z" fill="#ff00ef"/><path d="M338.52337,365.56303l4.9744,-7.81312l5.20806,7.65935z" fill="#000000"/><path d="M350.22823,367.33263l4.9744,-7.81312l5.20806,7.65935z" fill="#000000"/><path d="M356.99482,364.31091l4.9744,-7.81312l5.20806,7.65935z" fill="#000000"/><path d="M333.16477,365.15736l4.9744,-7.81312l5.20806,7.65935z" fill="#000000"/><path d="M360.91604,366.19804l4.9744,-7.81312l5.20806,7.65935z" fill="#000000"/><path d="M367.25495,367.0755l4.9744,-7.81312l5.20806,7.65935z" fill="#000000"/><path d="M370.66028,367.02407l4.9744,-7.81312l5.20806,7.65935z" fill="#000000"/><path d="M343.86728,364.99574l4.9744,-7.81312l5.20806,7.65935z" fill="#000000"/></g><g><path d="M309.78622,359.3528l4.18118,-13.98377l4.60153,13.85114z" fill="#ff00ef"/><path d="M289.23886,360.53845l4.18118,-13.98375l4.60153,13.85112z" fill="#ff00ef"/><path d="M318.67719,364.47074l4.18119,-13.98377l4.60153,13.85114z" fill="#ff00ef"/><path d="M298.47015,360.39905l4.18118,-13.98375l4.60154,13.85112z" fill="#ff00ef"/><path d="M292.49842,364.25785l4.9744,-7.81312l5.20806,7.65935z" fill="#000000"/><path d="M304.20327,366.02744l4.9744,-7.81312l5.20806,7.65935z" fill="#000000"/><path d="M310.96987,363.00572l4.9744,-7.81312l5.20806,7.65935z" fill="#000000"/><path d="M287.13982,363.85217l4.9744,-7.81312l5.20806,7.65935z" fill="#000000"/><path d="M314.89108,364.89285l4.9744,-7.81312l5.20806,7.65935z" fill="#000000"/><path d="M321.22999,365.77031l4.9744,-7.81312l5.20806,7.65935z" fill="#000000"/><path d="M324.63534,365.71889l4.9744,-7.81312l5.20806,7.65935z" fill="#000000"/><path d="M297.84233,363.69055l4.9744,-7.81312l5.20806,7.65935z" fill="#000000"/></g><g><path d="M333.78349,358.99041l4.18118,-13.98377l4.60153,13.85114z" fill="#ff00ef"/><path d="M313.23614,360.17606l4.18118,-13.98375l4.60153,13.85112z" fill="#ff00ef"/><path d="M342.67445,364.10835l4.18119,-13.98377l4.60153,13.85114z" fill="#ff00ef"/><path d="M322.46741,360.03665l4.18118,-13.98375l4.60154,13.85112z" fill="#ff00ef"/><path d="M316.49568,363.89545l4.9744,-7.81312l5.20806,7.65935z" fill="#000000"/><path d="M328.20053,365.66505l4.9744,-7.81312l5.20806,7.65935z" fill="#000000"/><path d="M334.96714,362.64333l4.9744,-7.81312l5.20806,7.65935z" fill="#000000"/><path d="M311.13708,363.48978l4.9744,-7.81312l5.20806,7.65935z" fill="#000000"/><path d="M338.88836,364.53046l4.9744,-7.81312l5.20806,7.65935z" fill="#000000"/><path d="M345.22726,365.40792l4.9744,-7.81312l5.20806,7.65935z" fill="#000000"/><path d="M348.6326,365.35649l4.9744,-7.81312l5.20806,7.65935z" fill="#000000"/><path d="M321.83959,363.32816l4.9744,-7.81312l5.20806,7.65935z" fill="#000000"/></g></g><g stroke="#fbffea" stroke-width="0.5"><g><path d="M400.80603,359.97851l4.18118,-13.98377l4.60153,13.85114z" fill="#ff00ef"/><path d="M380.25872,361.16416l4.18118,-13.98375l4.60153,13.85112z" fill="#ff00ef"/><path d="M409.69701,365.09645l4.18119,-13.98377l4.60153,13.85114z" fill="#ff00ef"/><path d="M389.48998,361.02476l4.18118,-13.98375l4.60154,13.85112z" fill="#ff00ef"/><path d="M383.51825,364.88355l4.9744,-7.81312l5.20806,7.65935z" fill="#000000"/><path d="M395.22309,366.65315l4.9744,-7.81312l5.20806,7.65935z" fill="#000000"/><path d="M401.98974,363.63143l4.9744,-7.81312l5.20806,7.65935z" fill="#000000"/><path d="M378.15965,364.47789l4.9744,-7.81312l5.20806,7.65935z" fill="#000000"/><path d="M405.9109,365.51855l4.9744,-7.81312l5.20806,7.65935z" fill="#000000"/><path d="M412.24981,366.39603l4.9744,-7.81312l5.20806,7.65935z" fill="#000000"/><path d="M415.65514,366.3446l4.9744,-7.81312l5.20806,7.65935z" fill="#000000"/><path d="M388.86215,364.31626l4.9744,-7.81312l5.20806,7.65935z" fill="#000000"/></g><g><path d="M354.78108,358.67332l4.18118,-13.98377l4.60153,13.85114z" fill="#ff00ef"/><path d="M334.23375,359.85898l4.18118,-13.98375l4.60153,13.85112z" fill="#ff00ef"/><path d="M363.67205,363.79127l4.18119,-13.98377l4.60153,13.85114z" fill="#ff00ef"/><path d="M343.46501,359.71957l4.18118,-13.98375l4.60154,13.85112z" fill="#ff00ef"/><path d="M337.49328,363.57836l4.9744,-7.81312l5.20806,7.65935z" fill="#000000"/><path d="M349.19813,365.34796l4.9744,-7.81312l5.20806,7.65935z" fill="#000000"/><path d="M355.96473,362.32625l4.9744,-7.81312l5.20806,7.65935z" fill="#000000"/><path d="M332.13469,363.1727l4.9744,-7.81312l5.20806,7.65935z" fill="#000000"/><path d="M359.88595,364.21336l4.9744,-7.81312l5.20806,7.65935z" fill="#000000"/><path d="M366.22486,365.09084l4.9744,-7.81312l5.20806,7.65935z" fill="#000000"/><path d="M369.6302,365.03941l4.9744,-7.81312l5.20806,7.65935z" fill="#000000"/><path d="M342.8372,363.01108l4.9744,-7.81312l5.20806,7.65935z" fill="#000000"/></g><g><path d="M378.77836,358.31093l4.18118,-13.98377l4.60153,13.85114z" fill="#ff00ef"/><path d="M358.23101,359.49658l4.18118,-13.98375l4.60153,13.85112z" fill="#ff00ef"/><path d="M387.66932,363.42887l4.18119,-13.98377l4.60153,13.85114z" fill="#ff00ef"/><path d="M367.46229,359.35718l4.18118,-13.98375l4.60154,13.85112z" fill="#ff00ef"/><path d="M361.49056,363.21597l4.9744,-7.81312l5.20806,7.65935z" fill="#000000"/><path d="M373.19539,364.98557l4.9744,-7.81312l5.20806,7.65935z" fill="#000000"/><path d="M379.96202,361.96385l4.9744,-7.81312l5.20806,7.65935z" fill="#000000"/><path d="M356.13194,362.81031l4.9744,-7.81312l5.20806,7.65935z" fill="#000000"/><path d="M383.88322,363.85097l4.9744,-7.81312l5.20806,7.65935z" fill="#000000"/><path d="M390.22212,364.72845l4.9744,-7.81312l5.20806,7.65935z" fill="#000000"/><path d="M393.62746,364.67702l4.9744,-7.81312l5.20806,7.65935z" fill="#000000"/><path d="M366.83446,362.64868l4.9744,-7.81312l5.20806,7.65935z" fill="#000000"/></g></g><g stroke="#fbffea" stroke-width="0.5"><g><path d="M245.72845,357.70218l4.18118,-13.98377l4.60153,13.85114z" fill="#ff00ef"/><path d="M225.18111,358.88784l4.18118,-13.98375l4.60153,13.85111z" fill="#ff00ef"/><path d="M254.61942,362.82013l4.18119,-13.98377l4.60153,13.85114z" fill="#ff00ef"/><path d="M234.41238,358.74843l4.18118,-13.98375l4.60154,13.85111z" fill="#ff00ef"/><path d="M228.44065,362.60723l4.9744,-7.81313l5.20806,7.65936z" fill="#000000"/><path d="M240.14552,364.37682l4.9744,-7.81312l5.20806,7.65936z" fill="#000000"/><path d="M246.9121,361.35511l4.9744,-7.81312l5.20806,7.65935z" fill="#000000"/><path d="M223.08205,362.20156l4.9744,-7.81312l5.20805,7.65935z" fill="#000000"/><path d="M250.83332,363.24223l4.9744,-7.81312l5.20806,7.65935z" fill="#000000"/><path d="M257.17224,364.1197l4.9744,-7.81312l5.20806,7.65935z" fill="#000000"/><path d="M260.57756,364.06827l4.9744,-7.81312l5.20806,7.65935z" fill="#000000"/><path d="M233.78457,362.03994l4.9744,-7.81313l5.20806,7.65936z" fill="#000000"/></g><g><path d="M199.7035,356.39699l4.18118,-13.98377l4.60153,13.85114z" fill="#ff00ef"/><path d="M179.15615,357.58265l4.18118,-13.98375l4.60153,13.85112z" fill="#ff00ef"/><path d="M208.59447,361.51494l4.18119,-13.98377l4.60153,13.85114z" fill="#ff00ef"/><path d="M188.38743,357.44324l4.18118,-13.98375l4.60154,13.85112z" fill="#ff00ef"/><path d="M182.4157,361.30204l4.9744,-7.81312l5.20806,7.65935z" fill="#000000"/><path d="M194.12055,363.07164l4.9744,-7.81313l5.20806,7.65936z" fill="#000000"/><path d="M200.88715,360.04992l4.9744,-7.81312l5.20806,7.65935z" fill="#000000"/><path d="M177.05711,360.89637l4.9744,-7.81313l5.20805,7.65936z" fill="#000000"/><path d="M204.80837,361.93704l4.9744,-7.81312l5.20806,7.65936z" fill="#000000"/><path d="M211.14728,362.81451l4.9744,-7.81312l5.20806,7.65935z" fill="#000000"/><path d="M214.55262,362.76308l4.9744,-7.81312l5.20806,7.65936z" fill="#000000"/><path d="M187.75961,360.73475l4.9744,-7.81312l5.20805,7.65935z" fill="#000000"/></g><g><path d="M223.70078,356.0346l4.18117,-13.98377l4.60154,13.85114z" fill="#ff00ef"/><path d="M203.15342,357.22026l4.18118,-13.98375l4.60154,13.85112z" fill="#ff00ef"/><path d="M232.59173,361.15255l4.18119,-13.98377l4.60153,13.85114z" fill="#ff00ef"/><path d="M212.38469,357.08085l4.18118,-13.98375l4.60154,13.85112z" fill="#ff00ef"/><path d="M206.41297,360.93965l4.9744,-7.81312l5.20805,7.65936z" fill="#000000"/><path d="M218.11781,362.70924l4.9744,-7.81312l5.20805,7.65936z" fill="#000000"/><path d="M224.88442,359.68753l4.9744,-7.81313l5.20805,7.65936z" fill="#000000"/><path d="M201.05436,360.53398l4.97441,-7.81312l5.20805,7.65935z" fill="#000000"/><path d="M228.80564,361.57465l4.9744,-7.81312l5.20806,7.65935z" fill="#000000"/><path d="M235.14454,362.45212l4.9744,-7.81312l5.20806,7.65935z" fill="#000000"/><path d="M238.54989,362.40069l4.9744,-7.81312l5.20806,7.65935z" fill="#000000"/><path d="M211.75687,360.37236l4.9744,-7.81313l5.20806,7.65936z" fill="#000000"/></g></g><g stroke="#fbffea" stroke-width="0.5"><g><path d="M290.72332,357.02271l4.18118,-13.98376l4.60153,13.85114z" fill="#ff00ef"/><path d="M270.17599,358.20836l4.18118,-13.98375l4.60153,13.85112z" fill="#ff00ef"/><path d="M299.61429,362.14065l4.18118,-13.98377l4.60153,13.85114z" fill="#ff00ef"/><path d="M279.40726,358.06896l4.18118,-13.98375l4.60154,13.85112z" fill="#ff00ef"/><path d="M273.43553,361.92775l4.9744,-7.81312l5.20806,7.65935z" fill="#000000"/><path d="M285.14036,363.69735l4.9744,-7.81312l5.20806,7.65936z" fill="#000000"/><path d="M291.90702,360.67563l4.9744,-7.81313l5.20806,7.65936z" fill="#000000"/><path d="M268.07694,361.52208l4.9744,-7.81312l5.20805,7.65936z" fill="#000000"/><path d="M295.82818,362.56275l4.9744,-7.81312l5.20806,7.65935z" fill="#000000"/><path d="M302.1671,363.44022l4.9744,-7.81312l5.20806,7.65935z" fill="#000000"/><path d="M305.57241,363.3888l4.9744,-7.81312l5.20806,7.65935z" fill="#000000"/><path d="M278.77943,361.36046l4.9744,-7.81313l5.20806,7.65936z" fill="#000000"/></g><g><path d="M244.69836,355.71752l4.18117,-13.98377l4.60154,13.85114z" fill="#ff00ef"/><path d="M224.15103,356.90317l4.18118,-13.98375l4.60153,13.85112z" fill="#ff00ef"/><path d="M253.58934,360.83546l4.18118,-13.98377l4.60153,13.85114z" fill="#ff00ef"/><path d="M233.38229,356.76377l4.18117,-13.98374l4.60154,13.85111z" fill="#ff00ef"/><path d="M227.41057,360.62256l4.9744,-7.81312l5.20806,7.65936z" fill="#000000"/><path d="M239.11541,362.39216l4.9744,-7.81313l5.20806,7.65936z" fill="#000000"/><path d="M245.88202,359.37044l4.9744,-7.81312l5.20806,7.65936z" fill="#000000"/><path d="M222.05197,360.2169l4.9744,-7.81313l5.20806,7.65936z" fill="#000000"/><path d="M249.80324,361.25756l4.9744,-7.81313l5.20806,7.65936z" fill="#000000"/><path d="M256.14214,362.13504l4.9744,-7.81313l5.20806,7.65936z" fill="#000000"/><path d="M259.54748,362.08361l4.9744,-7.81313l5.20806,7.65936z" fill="#000000"/><path d="M232.75448,360.05527l4.9744,-7.81312l5.20805,7.65935z" fill="#000000"/></g><g><path d="M268.69565,355.35513l4.18117,-13.98377l4.60154,13.85114z" fill="#ff00ef"/><path d="M248.1483,356.54078l4.18117,-13.98375l4.60154,13.85112z" fill="#ff00ef"/><path d="M277.5866,360.47307l4.18119,-13.98377l4.60153,13.85114z" fill="#ff00ef"/><path d="M257.37957,356.40138l4.18118,-13.98375l4.60154,13.85112z" fill="#ff00ef"/><path d="M251.40784,360.26017l4.9744,-7.81312l5.20806,7.65935z" fill="#000000"/><path d="M263.11268,362.02977l4.9744,-7.81312l5.20806,7.65935z" fill="#000000"/><path d="M269.8793,359.00805l4.97441,-7.81312l5.20805,7.65935z" fill="#000000"/><path d="M246.04922,359.8545l4.9744,-7.81312l5.20806,7.65936z" fill="#000000"/><path d="M273.8005,360.89517l4.9744,-7.81312l5.20806,7.65935z" fill="#000000"/><path d="M280.13939,361.77264l4.9744,-7.81312l5.20806,7.65935z" fill="#000000"/><path d="M283.54474,361.72122l4.9744,-7.81312l5.20806,7.65935z" fill="#000000"/><path d="M256.75174,359.69288l4.9744,-7.81313l5.20806,7.65936z" fill="#000000"/></g></g><g stroke="#fbffea" stroke-width="0.5"><g><path d="M357.76099,359.01068l4.18118,-13.98377l4.60153,13.85114z" fill="#ff00ef"/><path d="M337.21364,360.19633l4.18118,-13.98375l4.60153,13.85112z" fill="#ff00ef"/><path d="M366.65195,364.12862l4.18119,-13.98377l4.60154,13.85114z" fill="#ff00ef"/><path d="M346.44491,360.05693l4.18117,-13.98375l4.60154,13.85112z" fill="#ff00ef"/><path d="M340.47318,363.91573l4.9744,-7.81312l5.20806,7.65935z" fill="#000000"/><path d="M352.17805,365.68532l4.9744,-7.81313l5.20806,7.65936z" fill="#000000"/><path d="M358.94463,362.6636l4.9744,-7.81312l5.20806,7.65935z" fill="#000000"/><path d="M335.11458,363.51006l4.9744,-7.81313l5.20806,7.65936z" fill="#000000"/><path d="M362.86585,364.55073l4.9744,-7.81312l5.20806,7.65936z" fill="#000000"/><path d="M369.20477,365.42819l4.9744,-7.81312l5.20806,7.65936z" fill="#000000"/><path d="M372.6101,365.37677l4.9744,-7.81312l5.20806,7.65936z" fill="#000000"/><path d="M345.8171,363.34843l4.9744,-7.81312l5.20806,7.65935z" fill="#000000"/></g><g><path d="M311.73603,357.70549l4.18118,-13.98377l4.60153,13.85114z" fill="#ff00ef"/><path d="M291.18868,358.89114l4.18118,-13.98374l4.60153,13.85111z" fill="#ff00ef"/><path d="M320.627,362.82343l4.18119,-13.98376l4.60153,13.85114z" fill="#ff00ef"/><path d="M300.41996,358.75174l4.18117,-13.98374l4.60155,13.85111z" fill="#ff00ef"/><path d="M294.44822,362.61054l4.9744,-7.81313l5.20806,7.65936z" fill="#000000"/><path d="M306.15308,364.38013l4.9744,-7.81312l5.20806,7.65935z" fill="#000000"/><path d="M312.91969,361.35842l4.9744,-7.81312l5.20806,7.65936z" fill="#000000"/><path d="M289.08964,362.20487l4.9744,-7.81312l5.20806,7.65935z" fill="#000000"/><path d="M316.84091,363.24554l4.9744,-7.81313l5.20806,7.65936z" fill="#000000"/><path d="M323.17981,364.12301l4.9744,-7.81312l5.20806,7.65936z" fill="#000000"/><path d="M326.58515,364.07158l4.9744,-7.81312l5.20806,7.65935z" fill="#000000"/><path d="M299.79213,362.04325l4.9744,-7.81313l5.20806,7.65936z" fill="#000000"/></g><g><path d="M335.73331,357.3431l4.18117,-13.98377l4.60154,13.85114z" fill="#ff00ef"/><path d="M315.18595,358.52875l4.18117,-13.98375l4.60154,13.85112z" fill="#ff00ef"/><path d="M344.62426,362.46104l4.18119,-13.98377l4.60153,13.85114z" fill="#ff00ef"/><path d="M324.41722,358.38935l4.18117,-13.98375l4.60154,13.85112z" fill="#ff00ef"/><path d="M318.4455,362.24815l4.9744,-7.81312l5.20806,7.65936z" fill="#000000"/><path d="M330.15035,364.01774l4.9744,-7.81313l5.20806,7.65936z" fill="#000000"/><path d="M336.91695,360.99602l4.9744,-7.81312l5.20806,7.65935z" fill="#000000"/><path d="M313.08689,361.84248l4.97441,-7.81312l5.20806,7.65936z" fill="#000000"/><path d="M340.83817,362.88315l4.9744,-7.81313l5.20806,7.65936z" fill="#000000"/><path d="M347.17707,363.76061l4.9744,-7.81312l5.20806,7.65936z" fill="#000000"/><path d="M350.58242,363.70919l4.9744,-7.81312l5.20806,7.65936z" fill="#000000"/><path d="M323.7894,361.68085l4.9744,-7.81312l5.20806,7.65935z" fill="#000000"/></g></g><g stroke="#fbffea" stroke-width="0.5"><g><path d="M402.75585,358.33121l4.18118,-13.98377l4.60153,13.85114z" fill="#ff00ef"/><path d="M382.20853,359.51686l4.18118,-13.98375l4.60153,13.85112z" fill="#ff00ef"/><path d="M411.64682,363.44915l4.18119,-13.98377l4.60153,13.85114z" fill="#ff00ef"/><path d="M391.4398,359.37745l4.18117,-13.98374l4.60154,13.85111z" fill="#ff00ef"/><path d="M385.46806,363.23624l4.9744,-7.81312l5.20806,7.65936z" fill="#000000"/><path d="M397.17291,365.00585l4.9744,-7.81313l5.20806,7.65936z" fill="#000000"/><path d="M403.93955,361.98413l4.9744,-7.81312l5.20806,7.65935z" fill="#000000"/><path d="M380.10947,362.83058l4.9744,-7.81313l5.20806,7.65936z" fill="#000000"/><path d="M407.86071,363.87125l4.9744,-7.81313l5.20806,7.65936z" fill="#000000"/><path d="M414.19962,364.74872l4.9744,-7.81313l5.20806,7.65936z" fill="#000000"/><path d="M417.60496,364.6973l4.9744,-7.81313l5.20806,7.65936z" fill="#000000"/><path d="M390.81197,362.66896l4.9744,-7.81312l5.20806,7.65935z" fill="#000000"/></g><g><path d="M356.73089,357.02602l4.18118,-13.98377l4.60153,13.85114z" fill="#ff00ef"/><path d="M336.18356,358.21167l4.18118,-13.98375l4.60153,13.85111z" fill="#ff00ef"/><path d="M365.62187,362.14396l4.18119,-13.98377l4.60153,13.85114z" fill="#ff00ef"/><path d="M345.41482,358.07227l4.18117,-13.98375l4.60154,13.85112z" fill="#ff00ef"/><path d="M339.4431,361.93106l4.9744,-7.81313l5.20806,7.65936z" fill="#000000"/><path d="M351.14794,363.70066l4.9744,-7.81312l5.20806,7.65936z" fill="#000000"/><path d="M357.91455,360.67894l4.9744,-7.81313l5.20806,7.65936z" fill="#000000"/><path d="M334.0845,361.52539l4.9744,-7.81312l5.20806,7.65935z" fill="#000000"/><path d="M361.83577,362.56606l4.9744,-7.81312l5.20806,7.65935z" fill="#000000"/><path d="M368.17467,363.44353l4.9744,-7.81313l5.20806,7.65936z" fill="#000000"/><path d="M371.58001,363.39211l4.9744,-7.81313l5.20806,7.65936z" fill="#000000"/><path d="M344.78701,361.36377l4.9744,-7.81313l5.20806,7.65936z" fill="#000000"/></g><g><path d="M380.72818,356.66363l4.18117,-13.98377l4.60154,13.85114z" fill="#ff00ef"/><path d="M360.18083,357.84928l4.18117,-13.98374l4.60154,13.85112z" fill="#ff00ef"/><path d="M389.61913,361.78157l4.18118,-13.98377l4.60153,13.85114z" fill="#ff00ef"/><path d="M369.41211,357.70987l4.18117,-13.98374l4.60154,13.85111z" fill="#ff00ef"/><path d="M363.44037,361.56866l4.9744,-7.81312l5.20806,7.65936z" fill="#000000"/><path d="M375.14521,363.33827l4.9744,-7.81312l5.20806,7.65935z" fill="#000000"/><path d="M381.91183,360.31655l4.9744,-7.81312l5.20806,7.65936z" fill="#000000"/><path d="M358.08175,361.163l4.97441,-7.81313l5.20805,7.65936z" fill="#000000"/><path d="M385.83303,362.20367l4.9744,-7.81313l5.20806,7.65936z" fill="#000000"/><path d="M392.17193,363.08114l4.9744,-7.81313l5.20806,7.65936z" fill="#000000"/><path d="M395.57728,363.02972l4.9744,-7.81313l5.20806,7.65936z" fill="#000000"/><path d="M368.78427,361.00138l4.9744,-7.81312l5.20806,7.65935z" fill="#000000"/></g></g><g stroke="#fbffea" stroke-width="0.5"><g><path d="M467.77865,359.34949l4.18117,-13.98377l4.60154,13.85114z" fill="#ff00ef"/><path d="M447.2313,360.53514l4.18118,-13.98375l4.60154,13.85112z" fill="#ff00ef"/><path d="M476.66961,364.46743l4.18119,-13.98377l4.60153,13.85114z" fill="#ff00ef"/><path d="M456.46256,360.39574l4.18118,-13.98374l4.60154,13.85111z" fill="#ff00ef"/><path d="M450.49084,364.25454l4.9744,-7.81312l5.20805,7.65936z" fill="#000000"/><path d="M462.19571,366.02413l4.9744,-7.81313l5.20806,7.65936z" fill="#000000"/><path d="M468.96229,363.00241l4.9744,-7.81312l5.20805,7.65935z" fill="#000000"/><path d="M445.13224,363.84887l4.97441,-7.81313l5.20805,7.65936z" fill="#000000"/><path d="M472.88351,364.88954l4.9744,-7.81313l5.20806,7.65936z" fill="#000000"/><path d="M479.22242,365.76701l4.97441,-7.81312l5.20805,7.65935z" fill="#000000"/><path d="M482.62776,365.71558l4.9744,-7.81312l5.20806,7.65936z" fill="#000000"/><path d="M455.83475,363.68724l4.9744,-7.81312l5.20806,7.65935z" fill="#000000"/></g><g><path d="M421.75369,358.0443l4.18118,-13.98377l4.60154,13.85114z" fill="#ff00ef"/><path d="M401.20634,359.22996l4.18117,-13.98375l4.60153,13.85112z" fill="#ff00ef"/><path d="M430.64466,363.16225l4.18119,-13.98377l4.60153,13.85114z" fill="#ff00ef"/><path d="M410.43762,359.09055l4.18118,-13.98375l4.60154,13.85111z" fill="#ff00ef"/><path d="M404.46589,362.94935l4.9744,-7.81312l5.20806,7.65935z" fill="#000000"/><path d="M416.17074,364.71894l4.9744,-7.81312l5.20805,7.65935z" fill="#000000"/><path d="M422.93734,361.69723l4.9744,-7.81313l5.20805,7.65936z" fill="#000000"/><path d="M399.10729,362.54368l4.97441,-7.81312l5.20806,7.65935z" fill="#000000"/><path d="M426.85856,363.58435l4.9744,-7.81312l5.20806,7.65936z" fill="#000000"/><path d="M433.19747,364.46182l4.97441,-7.81313l5.20805,7.65936z" fill="#000000"/><path d="M436.60281,364.41039l4.9744,-7.81313l5.20806,7.65936z" fill="#000000"/><path d="M409.8098,362.38206l4.9744,-7.81312l5.20806,7.65936z" fill="#000000"/></g><g><path d="M445.75097,357.68191l4.18117,-13.98377l4.60153,13.85114z" fill="#ff00ef"/><path d="M425.20362,358.86756l4.18117,-13.98374l4.60154,13.85111z" fill="#ff00ef"/><path d="M454.64191,362.79985l4.18119,-13.98377l4.60153,13.85114z" fill="#ff00ef"/><path d="M434.43488,358.72816l4.18118,-13.98374l4.60154,13.85111z" fill="#ff00ef"/><path d="M428.46315,362.58696l4.97441,-7.81312l5.20805,7.65936z" fill="#000000"/><path d="M440.168,364.35655l4.97441,-7.81313l5.20805,7.65936z" fill="#000000"/><path d="M446.9346,361.33483l4.97441,-7.81312l5.20805,7.65936z" fill="#000000"/><path d="M423.10455,362.18129l4.9744,-7.81313l5.20806,7.65936z" fill="#000000"/><path d="M450.85583,363.22196l4.9744,-7.81313l5.20806,7.65936z" fill="#000000"/><path d="M457.19473,364.09943l4.9744,-7.81313l5.20806,7.65936z" fill="#000000"/><path d="M460.60007,364.048l4.97441,-7.81313l5.20805,7.65936z" fill="#000000"/><path d="M433.80706,362.01966l4.9744,-7.81312l5.20806,7.65935z" fill="#000000"/></g></g><g stroke="#fbffea" stroke-width="0.5"><g><path d="M512.7735,358.67002l4.18118,-13.98377l4.60153,13.85114z" fill="#ff00ef"/><path d="M492.22618,359.85567l4.18117,-13.98374l4.60154,13.85111z" fill="#ff00ef"/><path d="M521.66448,363.78796l4.18119,-13.98377l4.60153,13.85114z" fill="#ff00ef"/><path d="M501.45745,359.71626l4.18118,-13.98374l4.60154,13.85112z" fill="#ff00ef"/><path d="M495.48572,363.57506l4.9744,-7.81313l5.20806,7.65936z" fill="#000000"/><path d="M507.19056,365.34466l4.9744,-7.81312l5.20806,7.65935z" fill="#000000"/><path d="M513.95719,362.32294l4.9744,-7.81312l5.20806,7.65936z" fill="#000000"/><path d="M490.12712,363.16939l4.97441,-7.81313l5.20805,7.65936z" fill="#000000"/><path d="M517.87837,364.21006l4.9744,-7.81313l5.20806,7.65936z" fill="#000000"/><path d="M524.21728,365.08753l4.97441,-7.81313l5.20805,7.65936z" fill="#000000"/><path d="M527.62262,365.03611l4.9744,-7.81313l5.20805,7.65936z" fill="#000000"/><path d="M500.82962,363.00777l4.9744,-7.81312l5.20806,7.65936z" fill="#000000"/></g><g><path d="M466.74855,357.36483l4.18117,-13.98377l4.60154,13.85114z" fill="#ff00ef"/><path d="M446.20122,358.55048l4.18118,-13.98375l4.60154,13.85112z" fill="#ff00ef"/><path d="M475.63952,362.48277l4.18119,-13.98377l4.60153,13.85114z" fill="#ff00ef"/><path d="M455.43247,358.41108l4.18118,-13.98375l4.60154,13.85112z" fill="#ff00ef"/><path d="M449.46075,362.26987l4.9744,-7.81312l5.20805,7.65935z" fill="#000000"/><path d="M461.1656,364.03947l4.9744,-7.81312l5.20805,7.65936z" fill="#000000"/><path d="M467.9322,361.01775l4.97441,-7.81312l5.20805,7.65936z" fill="#000000"/><path d="M444.10216,361.8642l4.9744,-7.81312l5.20806,7.65935z" fill="#000000"/><path d="M471.85343,362.90487l4.9744,-7.81312l5.20806,7.65935z" fill="#000000"/><path d="M478.19232,363.78234l4.9744,-7.81312l5.20806,7.65935z" fill="#000000"/><path d="M481.59767,363.73092l4.9744,-7.81312l5.20806,7.65935z" fill="#000000"/><path d="M454.80467,361.70258l4.9744,-7.81313l5.20806,7.65936z" fill="#000000"/></g><g><path d="M490.74583,357.00244l4.18118,-13.98377l4.60153,13.85114z" fill="#ff00ef"/><path d="M470.19849,358.18809l4.18117,-13.98374l4.60153,13.85111z" fill="#ff00ef"/><path d="M499.63678,362.12038l4.18119,-13.98377l4.60153,13.85114z" fill="#ff00ef"/><path d="M479.42976,358.04868l4.18118,-13.98374l4.60154,13.85111z" fill="#ff00ef"/><path d="M473.45802,361.90748l4.97441,-7.81312l5.20805,7.65936z" fill="#000000"/><path d="M485.16286,363.67708l4.97441,-7.81312l5.20805,7.65935z" fill="#000000"/><path d="M491.92949,360.65536l4.97441,-7.81312l5.20805,7.65936z" fill="#000000"/><path d="M468.09941,361.50181l4.9744,-7.81312l5.20806,7.65936z" fill="#000000"/><path d="M495.85069,362.54248l4.9744,-7.81313l5.20805,7.65936z" fill="#000000"/><path d="M502.18959,363.41995l4.9744,-7.81312l5.20806,7.65936z" fill="#000000"/><path d="M505.59493,363.36853l4.9744,-7.81312l5.20806,7.65936z" fill="#000000"/><path d="M478.80193,361.34019l4.9744,-7.81312l5.20806,7.65936z" fill="#000000"/></g></g><g stroke-width="0"><path d="M273.92652,278.25001l-2.92649,25.58051l-2.92649,-25.58051z" fill="#000000" stroke="#fbffea"/><path d="M271.00003,298.29026c1.79493,0 3.25,1.45507 3.25,3.25c0,1.79493 -1.45507,3.25 -3.25,3.25c-1.79493,0 -3.25,-1.45507 -3.25,-3.25c0,-1.79493 1.45507,-3.25 3.25,-3.25z" fill="#ff00ef" stroke="none"/></g><path d="M255.79166,262.1337h35.75v18.75h-35.75z" fill="#000000" stroke="#ffffff" stroke-width="2"/><g stroke-width="0"><path d="M408.92651,248.25001l-2.92649,25.58051l-2.92649,-25.58051z" fill="#000000" stroke="#fbffea"/><path d="M406.00002,268.29026c1.79493,0 3.25,1.45507 3.25,3.25c0,1.79493 -1.45507,3.25 -3.25,3.25c-1.79493,0 -3.25,-1.45507 -3.25,-3.25c0,-1.79493 1.45507,-3.25 3.25,-3.25z" fill="#ff00ef" stroke="none"/></g><path d="M390.79165,232.1337h35.75v18.75h-35.75z" fill="#000000" stroke="#ffffff" stroke-width="2"/><path d="M-53.02701,0.66667v-31.33333h586.05405v31.33333z" fill="none" stroke="#ffffff" stroke-width="0"/></g></g></svg>